<svg width="12" height="12" viewBox="0 0 12 12" fill="none" xmlns="http://www.w3.org/2000/svg">
<path opacity="0.994" fill-rule="evenodd" clip-rule="evenodd" d="M6.59766 1.48748C6.82875 1.43708 6.99673 1.5152 7.10156 1.72185C7.1172 4.5656 7.1172 7.40936 7.10156 10.2531C7.0586 10.3586 6.98438 10.4328 6.87891 10.4758C5.41015 10.4914 3.94141 10.4914 2.47266 10.4758C2.36719 10.4328 2.29297 10.3586 2.25 10.2531C2.23437 8.04998 2.23437 5.84685 2.25 3.64373C2.33732 3.26189 2.55998 2.99235 2.91797 2.83514C4.14954 2.39214 5.37609 1.94292 6.59766 1.48748ZM4.11328 4.11248C4.52845 4.1024 4.94252 4.11412 5.35547 4.14764C5.55166 4.23925 5.62587 4.3916 5.57813 4.60467C5.51716 4.75825 5.40389 4.84028 5.23828 4.85076C4.82318 4.87256 4.40911 4.86473 3.99609 4.82732C3.7999 4.73571 3.7257 4.58336 3.77344 4.37029C3.83956 4.21849 3.95285 4.13254 4.11328 4.11248ZM4.11328 5.61248C4.52845 5.6024 4.94252 5.61412 5.35547 5.64764C5.55166 5.73925 5.62587 5.8916 5.57813 6.10467C5.51716 6.25825 5.40389 6.34028 5.23828 6.35076C4.82318 6.37256 4.40911 6.36473 3.99609 6.32732C3.7999 6.23571 3.7257 6.08336 3.77344 5.87029C3.83956 5.71849 3.95285 5.63254 4.11328 5.61248ZM4.11328 7.11248C4.52845 7.1024 4.94252 7.11412 5.35547 7.14764C5.55166 7.23925 5.62587 7.3916 5.57813 7.60467C5.51716 7.75825 5.40389 7.84028 5.23828 7.85076C4.82318 7.87256 4.40911 7.86473 3.99609 7.82732C3.7999 7.73571 3.7257 7.58336 3.77344 7.37029C3.83956 7.21849 3.95285 7.13254 4.11328 7.11248Z" fill="#7E7C7C"/>
<path opacity="0.995" fill-rule="evenodd" clip-rule="evenodd" d="M7.86328 4.55859C8.3299 4.74504 8.79082 4.94426 9.24609 5.15625C9.46992 5.31103 9.62227 5.51805 9.70312 5.77734C9.74184 7.26848 9.74965 8.76068 9.72656 10.2539C9.6836 10.3594 9.60937 10.4336 9.50391 10.4766C8.93365 10.4883 8.36334 10.4922 7.79297 10.4883C7.82355 10.3654 7.8431 10.2404 7.85156 10.1133C7.86328 8.26174 7.8672 6.41018 7.86328 4.55859Z" fill="#7E7C7C"/>
</svg>
