<svg width="19" height="19" viewBox="0 0 19 19" fill="none" xmlns="http://www.w3.org/2000/svg">
<path opacity="0.98" fill-rule="evenodd" clip-rule="evenodd" d="M8.11629 0.0757483C12.9836 -0.2514 16.3852 1.79938 18.3214 6.22809C19.5512 10.1717 18.7212 13.606 15.8311 16.5308C12.6713 19.1134 9.18816 19.6343 5.38191 18.0933C1.18054 15.794 -0.56096 12.2621 0.157301 7.49762C1.26199 3.34889 3.91492 0.874967 8.11629 0.0757483ZM9.1905 4.8609C9.67127 4.79948 9.98045 4.99479 10.1182 5.44684C10.1671 6.55309 10.1834 7.65993 10.1671 8.76715C11.3068 8.75085 12.4462 8.76715 13.585 8.81598C14.2338 9.27643 14.2338 9.73219 13.585 10.1832C12.4462 10.232 11.3068 10.2483 10.1671 10.232C10.1834 11.3392 10.1671 12.4461 10.1182 13.5523C9.69968 14.2765 9.24392 14.309 8.75105 13.65C8.70222 12.5111 8.68591 11.3717 8.70222 10.232C7.56248 10.2483 6.42312 10.232 5.28425 10.1832C4.63318 9.72741 4.63318 9.27174 5.28425 8.81598C6.42312 8.76715 7.56248 8.75085 8.70222 8.76715C8.68591 7.62741 8.70222 6.48805 8.75105 5.34919C8.85115 5.13561 8.99763 4.97282 9.1905 4.8609Z" fill="#133769"/>
</svg>
