<svg width="20" height="20" viewBox="0 0 20 20" fill="none" xmlns="http://www.w3.org/2000/svg">
<path fill-rule="evenodd" clip-rule="evenodd" d="M7.48171 5.62484C7.30315 5.62483 7.1391 5.62482 7.00133 5.63422C6.8533 5.64432 6.69051 5.66733 6.52509 5.73585C6.16776 5.88386 5.88386 6.16776 5.73585 6.52509C5.66733 6.69051 5.64432 6.8533 5.63422 7.00133C5.62482 7.1391 5.62483 7.30314 5.62484 7.4817V7.51797C5.62483 7.69653 5.62482 7.86058 5.63422 7.99835C5.64432 8.14638 5.66733 8.30917 5.73585 8.47459C5.88386 8.83192 6.16776 9.11582 6.52509 9.26383C6.69051 9.33235 6.8533 9.35536 7.00133 9.36546C7.1391 9.37486 7.30314 9.37485 7.4817 9.37484H12.518C12.6965 9.37485 12.8606 9.37486 12.9983 9.36546C13.1464 9.35536 13.3092 9.33235 13.4746 9.26383C13.8319 9.11582 14.1158 8.83192 14.2638 8.47459C14.3323 8.30917 14.3554 8.14638 14.3655 7.99835C14.3749 7.86058 14.3749 7.69654 14.3748 7.51797V7.4817C14.3749 7.30314 14.3749 7.1391 14.3655 7.00133C14.3554 6.8533 14.3323 6.69051 14.2638 6.52509C14.1158 6.16776 13.8319 5.88386 13.4746 5.73585C13.3092 5.66733 13.1464 5.64432 12.9983 5.63422C12.8606 5.62482 12.6965 5.62483 12.518 5.62484H7.48171ZM6.89176 7.00093C6.91282 6.9519 6.9519 6.91282 7.00093 6.89176C7.00706 6.8902 7.03073 6.88512 7.08642 6.88132C7.17643 6.87518 7.29715 6.87484 7.49984 6.87484H12.4998C12.7025 6.87484 12.8233 6.87518 12.9133 6.88132C12.969 6.88512 12.9926 6.8902 12.9987 6.89176C13.0478 6.91282 13.0869 6.9519 13.1079 7.00093C13.1095 7.00706 13.1146 7.03073 13.1184 7.08642C13.1245 7.17643 13.1248 7.29715 13.1248 7.49984C13.1248 7.70253 13.1245 7.82325 13.1184 7.91326C13.1146 7.96896 13.1095 7.99262 13.1079 7.99875C13.0869 8.04778 13.0478 8.08685 12.9987 8.10792C12.9926 8.10948 12.9689 8.11456 12.9133 8.11836C12.8233 8.1245 12.7025 8.12484 12.4998 8.12484H7.49984C7.29715 8.12484 7.17643 8.1245 7.08642 8.11836C7.03073 8.11456 7.00706 8.10948 7.00093 8.10792C6.9519 8.08685 6.91282 8.04778 6.89176 7.99875C6.8902 7.99262 6.88512 7.96895 6.88132 7.91326C6.87518 7.82325 6.87484 7.70253 6.87484 7.49984C6.87484 7.29715 6.87518 7.17643 6.88132 7.08642C6.88512 7.03073 6.8902 7.00706 6.89176 7.00093Z" fill="#A4A8AA"/>
<path fill-rule="evenodd" clip-rule="evenodd" d="M12.518 10.6248H7.4817C7.30314 10.6248 7.1391 10.6248 7.00133 10.6342C6.8533 10.6443 6.69051 10.6673 6.52509 10.7358C6.16776 10.8839 5.88386 11.1678 5.73585 11.5251C5.66733 11.6905 5.64432 11.8533 5.63422 12.0013C5.62482 12.1391 5.62483 12.3031 5.62484 12.4817V12.518C5.62483 12.6965 5.62482 12.8606 5.63422 12.9983C5.64432 13.1464 5.66733 13.3092 5.73585 13.4746C5.88386 13.8319 6.16776 14.1158 6.52509 14.2638C6.69051 14.3323 6.8533 14.3554 7.00133 14.3655C7.1391 14.3749 7.30314 14.3749 7.4817 14.3748H12.518C12.6965 14.3749 12.8606 14.3749 12.9983 14.3655C13.1464 14.3554 13.3092 14.3323 13.4746 14.2638C13.8319 14.1158 14.1158 13.8319 14.2638 13.4746C14.3323 13.3092 14.3554 13.1464 14.3655 12.9983C14.3749 12.8606 14.3749 12.6965 14.3748 12.518V12.4817C14.3749 12.3031 14.3749 12.1391 14.3655 12.0013C14.3554 11.8533 14.3323 11.6905 14.2638 11.5251C14.1158 11.1678 13.8319 10.8839 13.4746 10.7358C13.3092 10.6673 13.1464 10.6443 12.9983 10.6342C12.8606 10.6248 12.6965 10.6248 12.518 10.6248ZM6.89176 12.0009C6.91282 11.9519 6.9519 11.9128 7.00093 11.8918C7.00706 11.8902 7.03073 11.8851 7.08642 11.8813C7.17643 11.8752 7.29715 11.8748 7.49984 11.8748H12.4998C12.7025 11.8748 12.8233 11.8752 12.9133 11.8813C12.9689 11.8851 12.9926 11.8902 12.9987 11.8918C13.0478 11.9128 13.0869 11.9519 13.1079 12.0009C13.1095 12.0071 13.1146 12.0307 13.1184 12.0864C13.1245 12.1764 13.1248 12.2971 13.1248 12.4998C13.1248 12.7025 13.1245 12.8233 13.1184 12.9133C13.1146 12.9689 13.1095 12.9926 13.1079 12.9987C13.0869 13.0478 13.0478 13.0869 12.9987 13.1079C12.9926 13.1095 12.9689 13.1146 12.9133 13.1184C12.8233 13.1245 12.7025 13.1248 12.4998 13.1248H7.49984C7.29715 13.1248 7.17643 13.1245 7.08642 13.1184C7.03073 13.1146 7.00706 13.1095 7.00093 13.1079C6.9519 13.0869 6.91282 13.0478 6.89176 12.9987C6.8902 12.9926 6.88512 12.9689 6.88132 12.9133C6.87518 12.8233 6.87484 12.7025 6.87484 12.4998C6.87484 12.2971 6.87518 12.1764 6.88132 12.0864C6.88512 12.0307 6.8902 12.0071 6.89176 12.0009Z" fill="#A4A8AA"/>
<path fill-rule="evenodd" clip-rule="evenodd" d="M3.33317 1.0415C4.38215 1.0415 5.26652 1.74629 5.53857 2.70817H14.4611C14.7332 1.74629 15.6175 1.0415 16.6665 1.0415C17.9322 1.0415 18.9582 2.06752 18.9582 3.33317C18.9582 4.38215 18.2534 5.26652 17.2915 5.53857V14.4611C18.2534 14.7332 18.9582 15.6175 18.9582 16.6665C18.9582 17.9322 17.9322 18.9582 16.6665 18.9582C15.6175 18.9582 14.7332 18.2534 14.4611 17.2915H5.53857C5.26652 18.2534 4.38215 18.9582 3.33317 18.9582C2.06752 18.9582 1.0415 17.9322 1.0415 16.6665C1.0415 15.6175 1.74629 14.7332 2.70817 14.4611V5.53857C1.74629 5.26652 1.0415 4.38215 1.0415 3.33317C1.0415 2.06752 2.06752 1.0415 3.33317 1.0415ZM2.2915 3.33317C2.2915 2.75787 2.75787 2.2915 3.33317 2.2915C3.90847 2.2915 4.37484 2.75787 4.37484 3.33317C4.37484 3.90847 3.90847 4.37484 3.33317 4.37484C2.75787 4.37484 2.2915 3.90847 2.2915 3.33317ZM3.95817 5.53857C4.72137 5.32271 5.32271 4.72137 5.53857 3.95817H14.4611C14.677 4.72137 15.2783 5.32271 16.0415 5.53857V14.4611C15.2783 14.677 14.677 15.2783 14.4611 16.0415H5.53857C5.32271 15.2783 4.72137 14.677 3.95817 14.4611V5.53857ZM16.6665 4.37484C16.0912 4.37484 15.6248 3.90847 15.6248 3.33317C15.6248 2.75787 16.0912 2.2915 16.6665 2.2915C17.2418 2.2915 17.7082 2.75787 17.7082 3.33317C17.7082 3.90847 17.2418 4.37484 16.6665 4.37484ZM15.6248 16.6665C15.6248 16.0912 16.0912 15.6248 16.6665 15.6248C17.2418 15.6248 17.7082 16.0912 17.7082 16.6665C17.7082 17.2418 17.2418 17.7082 16.6665 17.7082C16.0912 17.7082 15.6248 17.2418 15.6248 16.6665ZM3.33317 15.6248C3.90847 15.6248 4.37484 16.0912 4.37484 16.6665C4.37484 17.2418 3.90847 17.7082 3.33317 17.7082C2.75787 17.7082 2.2915 17.2418 2.2915 16.6665C2.2915 16.0912 2.75787 15.6248 3.33317 15.6248Z" fill="#A4A8AA"/>
</svg>
