<svg width="20" height="20" viewBox="0 0 20 20" fill="none" xmlns="http://www.w3.org/2000/svg">
<path d="M8.13004 12.8208C8.24254 13.0099 8.44671 13.1249 8.66587 13.1249H8.66671C8.67202 13.1249 8.67754 13.1247 8.68316 13.1245C8.68899 13.1243 8.69494 13.1241 8.70088 13.1241C8.93254 13.1108 9.13837 12.9708 9.23504 12.7599C9.2542 12.7183 11.1825 8.55492 13.6334 7.21492C13.9359 7.04909 14.0475 6.66907 13.8817 6.36657C13.7159 6.06407 13.3359 5.95241 13.0334 6.11824C10.9625 7.25074 9.31588 9.92573 8.55421 11.3374C7.83671 10.5791 7.02087 10.1083 6.97587 10.0824C6.6767 9.9116 6.29587 10.0157 6.12421 10.3149C5.95337 10.6141 6.05671 10.9957 6.35588 11.1674C6.36754 11.1741 7.55837 11.8658 8.13004 12.8208Z" fill="white"/>
<path fill-rule="evenodd" clip-rule="evenodd" d="M1.04102 9.99996C1.04102 14.94 5.05935 18.9583 9.99935 18.9583C14.9393 18.9583 18.9577 14.94 18.9577 9.99996C18.9577 5.05996 14.9393 1.04163 9.99935 1.04163C5.05935 1.04163 1.04102 5.05996 1.04102 9.99996ZM2.29102 9.99996C2.29102 5.74996 5.74935 2.29163 9.99935 2.29163C14.2493 2.29163 17.7077 5.74996 17.7077 9.99996C17.7077 14.25 14.2493 17.7083 9.99935 17.7083C5.74935 17.7083 2.29102 14.25 2.29102 9.99996Z" fill="white"/>
</svg>
