<svg width="24" height="24" viewBox="0 0 24 24" fill="none" xmlns="http://www.w3.org/2000/svg">
<path fill-rule="evenodd" clip-rule="evenodd" d="M11.549 19.2481H11.588L11.589 19.2472C12.43 19.2472 13.219 18.7901 13.657 18.0451C14.4 16.7741 15.269 15.4942 16.316 14.1302C17.169 13.0062 18.054 11.9962 18.874 11.2102C19.5742 10.5448 20.2496 10.0908 20.8459 9.68994L20.853 9.68515L20.884 9.66423C21.0388 9.5598 21.1875 9.45953 21.33 9.36015C21.8416 9.00075 23.1987 8.04728 22.604 6.37509C22.379 5.74209 21.925 5.24218 21.327 4.96718C20.742 4.69718 20.089 4.67612 19.485 4.90712C18.239 5.38812 16.964 6.26009 15.585 7.57509C14.577 8.53809 13.544 9.71213 12.517 11.0611C12.157 11.5311 11.796 12.0211 11.439 12.5251C11.259 12.3611 11.077 12.2121 10.895 12.0791C10.177 11.5611 9.43898 11.2821 8.70098 11.2481H8.66699C7.33399 11.2481 6.25 12.3971 6.25 13.7281C6.25 15.0591 7.06098 15.5211 7.65298 15.8581C7.81098 15.9481 7.96002 16.0331 8.09902 16.1321C8.29202 16.2791 8.8 16.7471 9.479 17.9911C9.9 18.7521 10.693 19.2341 11.549 19.2481ZM7.75 13.7281C7.75 13.1931 8.15298 12.7571 8.65098 12.7481L8.652 12.7472C9.088 12.7722 9.54696 12.9562 10.014 13.2932C10.331 13.5252 10.654 13.8272 10.974 14.1922C11.126 14.3662 11.352 14.4592 11.583 14.4462C11.814 14.4322 12.026 14.3121 12.157 14.1201C12.666 13.3731 13.187 12.6512 13.708 11.9722C14.69 10.6832 15.669 9.56815 16.62 8.66015C17.835 7.50115 18.98 6.7101 20.022 6.3081C20.244 6.2231 20.484 6.23117 20.699 6.33017C20.927 6.43517 21.102 6.63117 21.191 6.88017C21.311 7.21917 21.334 7.5271 20.47 8.1331C20.327 8.2331 20.175 8.33511 20.017 8.44111C19.401 8.85411 18.635 9.36817 17.838 10.1262C16.948 10.9802 16.033 12.0222 15.123 13.2212C14.04 14.6322 13.136 15.9631 12.363 17.2871C12.193 17.5761 11.889 17.7512 11.575 17.7472C11.254 17.7422 10.955 17.5572 10.795 17.2682C10.039 15.8842 9.39902 15.2321 8.99502 14.9281C8.99302 14.9266 8.99076 14.9251 8.9885 14.9236C8.98624 14.9221 8.98398 14.9206 8.98198 14.9191C8.77629 14.7714 8.57463 14.6564 8.39583 14.5546C7.86383 14.2516 7.75 14.1721 7.75 13.7281Z" fill="white"/>
<path fill-rule="evenodd" clip-rule="evenodd" d="M6.63198 19.2482H6.68901L6.68701 19.2472C7.26201 19.2472 7.81701 19.0362 8.25601 18.6502C8.56701 18.3772 8.59702 17.9033 8.32402 17.5923C8.05102 17.2813 7.57702 17.2502 7.26602 17.5242C7.09702 17.6732 6.88701 17.7522 6.66201 17.7472C6.32301 17.7412 6.021 17.5572 5.852 17.2522C5.02 15.7592 4.354 15.1433 4.021 14.9053C3.95 14.8513 3.89002 14.8152 3.84902 14.7912C3.76002 14.7332 3.65998 14.6942 3.55498 14.6772C3.08898 14.6032 2.75 14.1873 2.75 13.6883C2.75 13.1423 3.17602 12.6982 3.69902 12.6982H3.78599C3.80899 12.7014 3.83012 12.7033 3.84835 12.705C3.85311 12.7054 3.85767 12.7058 3.86201 12.7062L3.89502 12.7093C3.97402 12.7223 4.06998 12.7403 4.17598 12.7803C4.56298 12.9263 4.99599 12.7312 5.14199 12.3432C5.28799 11.9562 5.09298 11.5232 4.70498 11.3772C4.46998 11.2882 4.26598 11.2492 4.13198 11.2282C4.08494 11.2205 4.03977 11.2165 3.99642 11.2127L3.99102 11.2122L3.96802 11.2102C3.92602 11.2032 3.88299 11.1992 3.83999 11.1992H3.69902C2.34902 11.1992 1.25 12.3162 1.25 13.6892C1.25 14.8692 2.039 15.8672 3.148 16.1262C3.258 16.2042 3.78702 16.6282 4.54102 17.9812C4.96402 18.7482 5.76798 19.2342 6.63198 19.2482ZM3.873 14.8082L3.86315 14.801C3.86427 14.8018 3.86537 14.8025 3.86645 14.8032C3.86886 14.8048 3.87112 14.8063 3.873 14.8082Z" fill="white"/>
<path d="M9.64297 9.71727C9.78797 9.85126 9.971 9.91824 10.154 9.91824L10.155 9.91922C10.356 9.91922 10.556 9.83925 10.704 9.68025C11.126 9.22625 11.472 8.8752 11.793 8.5742C13.053 7.3842 14.189 6.60717 15.266 6.20017C15.653 6.05317 15.848 5.62118 15.702 5.23318C15.555 4.84618 15.122 4.65125 14.735 4.79725C13.469 5.27525 12.169 6.15423 10.764 7.48123C10.419 7.80423 10.051 8.17821 9.60498 8.65721C9.32298 8.96021 9.33997 9.43527 9.64297 9.71727Z" fill="white"/>
</svg>
