<svg width="12" height="12" viewBox="0 0 12 12" fill="none" xmlns="http://www.w3.org/2000/svg">
<g clip-path="url(#clip0_369_29007)">
<path opacity="0.992" fill-rule="evenodd" clip-rule="evenodd" d="M3.05859 0.737793C5.48048 0.733886 7.90235 0.737793 10.3242 0.749512C10.8125 0.862793 11.1133 1.16358 11.2266 1.65186C11.2651 4.00294 11.2729 6.3545 11.25 8.70654C11.2212 9.19036 10.9908 9.53801 10.5586 9.74951C10.4752 9.78251 10.3893 9.80595 10.3008 9.81982C8.49612 9.83154 6.69143 9.83546 4.88672 9.83154C4.88281 9.31585 4.88672 8.80022 4.89844 8.28467C5.32423 7.85888 5.74999 7.43311 6.17578 7.00732C6.19528 6.9912 6.21089 6.99511 6.22266 7.01904C6.31889 7.20368 6.40873 7.39118 6.49219 7.58154C6.66291 7.81828 6.86993 7.85344 7.11328 7.68701C7.18751 7.61307 7.23049 7.52323 7.24219 7.41748C7.33814 6.5618 7.43578 5.70633 7.53516 4.85107C7.5078 4.60498 7.37109 4.46827 7.125 4.44092C6.26972 4.54029 5.41425 4.63793 4.55859 4.73389C4.28002 4.78683 4.15891 4.95481 4.19531 5.23779C4.22695 5.3476 4.29335 5.42963 4.39453 5.48389C4.58489 5.56735 4.77239 5.65718 4.95703 5.75342C4.98096 5.76518 4.98488 5.78079 4.96875 5.80029C4.54296 6.22608 4.1172 6.65185 3.69141 7.07764C3.17585 7.08936 2.66023 7.09327 2.14453 7.08936C2.14062 5.28464 2.14453 3.47996 2.15625 1.67529C2.27992 1.18841 2.5807 0.875906 3.05859 0.737793Z" fill="#133769"/>
<path opacity="0.971" fill-rule="evenodd" clip-rule="evenodd" d="M7.06641 4.65303C7.21045 4.64478 7.2964 4.7112 7.32422 4.85225C7.22388 5.73183 7.11841 6.61074 7.00781 7.48896C6.90527 7.60336 6.79589 7.61119 6.67969 7.5124C6.55861 7.22325 6.41409 6.94981 6.24609 6.69209C5.78684 7.11614 5.33761 7.55365 4.89844 8.00459C4.90235 7.3835 4.59375 7.07489 3.97266 7.07881C4.42359 6.63964 4.8611 6.19041 5.28516 5.73115C5.02985 5.5643 4.75643 5.41976 4.46484 5.29756C4.38743 5.20861 4.37571 5.11095 4.42969 5.00459C4.4828 4.97046 4.54139 4.95092 4.60547 4.946C5.43033 4.8574 6.25064 4.75976 7.06641 4.65303Z" fill="#133769"/>
<path opacity="0.986" fill-rule="evenodd" clip-rule="evenodd" d="M1.16016 7.3003C2.18362 7.29638 3.20707 7.3003 4.23047 7.31202C4.46876 7.3628 4.61327 7.50732 4.66406 7.74561C4.6797 8.76905 4.6797 9.79248 4.66406 10.8159C4.6283 11.0158 4.51502 11.1526 4.32422 11.2261C3.23829 11.2417 2.15234 11.2417 1.06641 11.2261C0.854626 11.1471 0.741343 10.9947 0.726563 10.769C0.710937 9.77687 0.710937 8.78466 0.726563 7.79248C0.760939 7.52783 0.905469 7.36377 1.16016 7.3003Z" fill="#133769"/>
</g>
<defs>
<clipPath id="clip0_369_29007">
<rect width="12" height="12" fill="white"/>
</clipPath>
</defs>
</svg>
