<svg width="21" height="22" viewBox="0 0 21 22" fill="none" xmlns="http://www.w3.org/2000/svg">
<path d="M5.55156 8.12037C5.65345 8.25527 5.95765 8.65799 6.13883 8.89014C6.50169 9.3551 6.9975 9.97294 7.53234 10.5889C8.06989 11.2081 8.63458 11.811 9.13624 12.2543C9.38778 12.4765 9.60876 12.6454 9.7911 12.7553C9.9626 12.8587 10.0639 12.8802 10.0639 12.8802C10.0639 12.8802 10.1622 12.8587 10.3337 12.7554C10.5161 12.6454 10.737 12.4765 10.9886 12.2543C11.4902 11.811 12.0549 11.2081 12.5925 10.5889C13.1273 9.97292 13.6231 9.35508 13.986 8.89011C14.1672 8.65796 14.4709 8.25581 14.5728 8.12091C14.7782 7.8421 15.1711 7.78197 15.4499 7.98731C15.7287 8.19264 15.7882 8.58512 15.5829 8.86392L15.5814 8.86594C15.4746 9.00733 15.1594 9.42462 14.9745 9.66155C14.6035 10.137 14.0932 10.7731 13.5393 11.411C12.9882 12.0458 12.3815 12.6968 11.8188 13.1939C11.5382 13.4419 11.2537 13.6649 10.9811 13.8292C10.7256 13.9832 10.4022 14.1348 10.0624 14.1348C9.72258 14.1348 9.39917 13.9832 9.14372 13.8292C8.87107 13.6649 8.5866 13.4419 8.30597 13.1939C7.74328 12.6968 7.13666 12.0458 6.58551 11.411C6.03165 10.7731 5.52136 10.1371 5.1503 9.66159C4.96532 9.42455 4.65022 9.00738 4.54358 8.86619L4.5422 8.86436C4.33687 8.58556 4.39613 8.19269 4.67494 7.98735C4.95373 7.78202 5.34621 7.84159 5.55156 8.12037Z" fill="#1E232C"/>
</svg>
