<svg width="16" height="16" viewBox="0 0 16 16" fill="none" xmlns="http://www.w3.org/2000/svg">
<path d="M11.5975 10.2965C11.5163 10.1889 11.2737 9.86773 11.1292 9.68259C10.8398 9.31178 10.4444 8.81906 10.0178 8.32779C9.58915 7.83405 9.13881 7.35319 8.73874 6.99969C8.53813 6.82244 8.36191 6.68775 8.21649 6.60008C8.07972 6.51763 7.99893 6.50049 7.99893 6.50049C7.99893 6.50049 7.92051 6.51764 7.78375 6.60008C7.63833 6.68775 7.46211 6.82243 7.2615 6.99969C6.86142 7.35318 6.41108 7.83405 5.98239 8.3278C5.55585 8.81907 5.16045 9.3118 4.87106 9.68261C4.72658 9.86776 4.48431 10.1885 4.40305 10.296C4.2393 10.5184 3.92596 10.5664 3.70361 10.4026C3.48126 10.2388 3.43377 9.92585 3.59752 9.7035L3.5987 9.70194C3.68382 9.58923 3.93523 9.25637 4.08271 9.06739C4.37863 8.6882 4.78559 8.18093 5.22729 7.67219C5.66684 7.16594 6.15062 6.64681 6.59936 6.25031C6.82316 6.05256 7.05002 5.87475 7.26747 5.74366C7.47118 5.62085 7.72911 5.5 8.00012 5.5C8.27113 5.5 8.52905 5.62086 8.73277 5.74367C8.95021 5.87475 9.17707 6.05256 9.40087 6.25031C9.84962 6.64681 10.3334 7.16594 10.7729 7.67218C11.2146 8.18091 11.6216 8.68818 11.9175 9.06736C12.0651 9.25641 12.3164 9.58914 12.4014 9.70172L12.4025 9.70314C12.5662 9.92549 12.519 10.2388 12.2966 10.4026C12.0743 10.5663 11.7613 10.5188 11.5975 10.2965Z" fill="#161616"/>
</svg>
