<svg width="24" height="25" viewBox="0 0 24 25" fill="none" xmlns="http://www.w3.org/2000/svg">
<g clip-path="url(#clip0_369_27742)">
<path opacity="0.993" fill-rule="evenodd" clip-rule="evenodd" d="M11.6488 2.8667C12.4251 2.75812 12.9328 3.07062 13.1723 3.8042C13.1802 4.14901 13.2036 4.49276 13.2426 4.83545C15.29 5.31606 16.7353 6.5192 17.5785 8.44483C17.7244 8.82526 17.8338 9.21587 17.9067 9.6167C17.9834 10.506 18.0459 11.3966 18.0942 12.2886C18.2473 13.9385 18.9192 15.3292 20.1098 16.4605C20.5703 17.157 20.4844 17.7742 19.852 18.312C19.7481 18.3718 19.6386 18.4187 19.5238 18.4526C14.4926 18.4839 9.46133 18.4839 4.4301 18.4526C3.71879 18.163 3.44536 17.6395 3.60979 16.8823C3.67603 16.7342 3.75415 16.5935 3.84416 16.4605C5.03474 15.3292 5.70665 13.9385 5.85979 12.2886C5.90802 11.3966 5.97051 10.506 6.04729 9.6167C6.44197 7.67791 7.51232 6.24822 9.25822 5.32764C9.72524 5.11208 10.2096 4.94802 10.7113 4.83545C10.7503 4.49276 10.7737 4.14901 10.7817 3.8042C10.9029 3.33155 11.192 3.01906 11.6488 2.8667Z" fill="#133769"/>
<path opacity="0.958" fill-rule="evenodd" clip-rule="evenodd" d="M1.99193 3.57092C2.23094 3.55566 2.46531 3.5791 2.69505 3.64123C3.47631 4.09436 4.25755 4.54748 5.0388 5.0006C5.44052 5.3749 5.51084 5.8046 5.24974 6.28967C4.98316 6.60251 4.64722 6.7197 4.24193 6.64123C3.36127 6.19315 2.5019 5.70874 1.6638 5.1881C1.3361 4.78786 1.29704 4.35817 1.54662 3.89904C1.6774 3.76006 1.82584 3.65068 1.99193 3.57092Z" fill="#890101"/>
<path opacity="0.956" fill-rule="evenodd" clip-rule="evenodd" d="M21.3515 3.61728C22.1492 3.61015 22.5164 4.00078 22.4531 4.78916C22.4153 4.92723 22.3528 5.05223 22.2656 5.16416C21.4731 5.65939 20.6684 6.13597 19.8515 6.59385C19.3212 6.74019 18.9227 6.57613 18.6562 6.10166C18.49 5.60028 18.6228 5.20185 19.0546 4.90635C19.8247 4.47471 20.5903 4.04502 21.3515 3.61728Z" fill="#890101"/>
<path opacity="0.969" fill-rule="evenodd" clip-rule="evenodd" d="M-0.0234375 10.3672C-0.0234375 10.1641 -0.0234375 9.96093 -0.0234375 9.75782C0.114929 9.45337 0.349304 9.25804 0.679688 9.17189C1.61719 9.14062 2.55469 9.14062 3.49219 9.17189C4.09677 9.40453 4.3077 9.83418 4.125 10.4609C4.0204 10.7062 3.84071 10.8702 3.58594 10.9531C2.58594 10.9844 1.58594 10.9844 0.585938 10.9531C0.296032 10.8428 0.0929077 10.6475 -0.0234375 10.3672Z" fill="#890101"/>
<path opacity="0.969" fill-rule="evenodd" clip-rule="evenodd" d="M23.9764 9.75782C23.9764 9.96093 23.9764 10.1641 23.9764 10.3672C23.86 10.6475 23.6569 10.8428 23.367 10.9531C22.367 10.9844 21.367 10.9844 20.367 10.9531C19.7488 10.6296 19.6003 10.153 19.9217 9.52345C20.0589 9.34153 20.2386 9.22434 20.4607 9.17189C21.3982 9.14062 22.3357 9.14062 23.2732 9.17189C23.6036 9.25804 23.838 9.45337 23.9764 9.75782Z" fill="#890101"/>
<path opacity="0.963" fill-rule="evenodd" clip-rule="evenodd" d="M9.53906 19.6484C11.1641 19.6484 12.789 19.6484 14.4141 19.6484C14.3283 20.945 13.6564 21.7496 12.3984 22.0625C11.1284 22.205 10.23 21.6972 9.70312 20.5391C9.61144 20.2489 9.55678 19.952 9.53906 19.6484Z" fill="#890101"/>
</g>
<defs>
<clipPath id="clip0_369_27742">
<rect width="24" height="24" fill="white" transform="translate(0 0.5)"/>
</clipPath>
</defs>
</svg>
