<svg width="24" height="24" viewBox="0 0 24 24" fill="none" xmlns="http://www.w3.org/2000/svg">
<path opacity="0.873" fill-rule="evenodd" clip-rule="evenodd" d="M5.23464 3.35914C10.5497 3.34935 15.8648 3.35914 21.1798 3.38845C21.4494 3.48213 21.6155 3.66779 21.6781 3.94536C21.7172 9.22134 21.7172 14.4973 21.6781 19.7733C21.5721 20.0356 21.3865 20.2212 21.1212 20.3302C16.5096 20.3693 11.898 20.3693 7.28641 20.3302C7.16319 20.2286 7.14367 20.1114 7.22779 19.9785C11.8198 19.959 16.4119 19.9394 21.004 19.9199C21.0879 19.8926 21.1562 19.8437 21.2091 19.7733C21.2773 17.1401 21.3066 14.5021 21.2971 11.8593C21.3066 9.21654 21.2773 6.57855 21.2091 3.94536C21.1603 3.89653 21.1114 3.84764 21.0626 3.79881C15.8257 3.75971 10.5888 3.75971 5.35189 3.79881C5.26108 3.86997 5.19273 3.95791 5.14671 4.06261C5.12719 4.80517 5.10761 5.54768 5.08809 6.29024C4.97084 6.36839 4.8536 6.36839 4.73636 6.29024C4.69726 5.50863 4.69726 4.72697 4.73636 3.94536C4.81028 3.66661 4.97641 3.47123 5.23464 3.35914Z" fill="#133769"/>
<path opacity="0.836" fill-rule="evenodd" clip-rule="evenodd" d="M7.42967 6.35059C11.0234 6.34276 14.6172 6.35059 18.2109 6.37403C18.2946 6.41083 18.365 6.46548 18.4219 6.53809C18.4761 8.35567 18.4996 10.176 18.4922 11.999C18.4994 13.8371 18.476 15.673 18.4219 17.5068C18.3828 17.5459 18.3437 17.585 18.3047 17.624C14.8828 17.6553 11.4609 17.6553 8.03905 17.624C7.97178 17.5178 7.98739 17.424 8.08592 17.3428C11.4297 17.3193 14.7734 17.3115 18.1172 17.3193C18.1172 13.7725 18.1172 10.2256 18.1172 6.67872C14.5859 6.67872 11.0547 6.67872 7.52342 6.67872C7.53121 6.96039 7.52338 7.24164 7.49999 7.52247C7.41777 7.6045 7.31619 7.63576 7.1953 7.61622C7.18752 7.2565 7.1953 6.89711 7.21874 6.53809C7.28422 6.4645 7.35453 6.40197 7.42967 6.35059Z" fill="#133769"/>
<path opacity="0.953" fill-rule="evenodd" clip-rule="evenodd" d="M19.0109 5.76293C19.2787 5.73848 19.3667 5.85573 19.2747 6.11466C18.8919 6.5171 18.4913 6.89814 18.073 7.25779C17.6863 7.1674 17.3248 7.00126 16.9885 6.7595C16.5956 7.87954 16.2146 9.00309 15.8454 10.1303C15.8438 10.285 15.922 10.3632 16.0798 10.3648C17.1524 10.5223 18.2174 10.708 19.2747 10.9217C19.3183 11.0355 19.3085 11.1429 19.2454 11.2441C18.1775 11.7097 17.1027 12.1591 16.0212 12.5924C15.9448 12.6395 15.9057 12.7079 15.904 12.7976C16.3109 13.9987 16.7407 15.1907 17.1937 16.3735C17.6206 16.153 18.07 16.0162 18.542 15.9632C18.6146 16.5105 18.6927 17.0576 18.7765 17.6046C18.7387 17.8018 18.6215 17.8702 18.4247 17.8098C18.3153 17.3578 18.2274 16.8986 18.1609 16.4321C17.7581 16.6317 17.3379 16.7587 16.9005 16.8132C16.7638 16.481 16.627 16.1488 16.4902 15.8166C15.7224 15.3106 14.9505 14.8124 14.1746 14.3217C14.0386 14.3796 13.9409 14.4773 13.8815 14.6149C13.2538 15.6846 12.6187 16.7496 11.9763 17.8098C11.8445 17.8603 11.737 17.831 11.6539 17.7218C11.6441 17.546 11.6344 17.3701 11.6246 17.1942C11.696 16.0668 11.696 14.9433 11.6246 13.8235C11.5464 13.7844 11.4682 13.7844 11.3901 13.8235C10.9406 14.1459 10.4912 14.4683 10.0418 14.7907C10.2787 15.0276 10.4937 15.2816 10.6866 15.5528C10.6621 15.6215 10.623 15.6801 10.5694 15.7287C9.85782 15.9481 9.14456 16.1631 8.42967 16.3735C8.23569 16.3037 8.1868 16.1767 8.28311 15.9925C8.84882 15.8007 9.41551 15.615 9.98315 15.4356C9.84732 15.2704 9.70077 15.1141 9.54349 14.9666C9.46722 14.8573 9.44764 14.74 9.48486 14.6149C10.0027 14.2533 10.5205 13.8919 11.0383 13.5303C9.94194 13.5776 8.84764 13.6655 7.75551 13.7941C7.50139 13.7058 7.46229 13.5592 7.63827 13.3545C8.65976 12.7021 9.66612 12.028 10.6573 11.332C10.6964 11.2539 10.6964 11.1757 10.6573 11.0975C10.2985 10.6513 9.97612 10.1823 9.69004 9.6906C9.69637 9.63538 9.71589 9.58655 9.74866 9.54405C10.3407 9.5546 10.9269 9.62301 11.5073 9.74923C11.5895 9.72783 11.6481 9.67894 11.6832 9.60267C11.7216 8.42777 11.7607 7.25533 11.8004 6.08535C11.9142 6.04179 12.0217 6.05158 12.1229 6.11466C12.6556 7.04318 13.1734 7.98113 13.6763 8.92852C13.7249 8.98216 13.7835 9.0212 13.8522 9.04576C14.8169 8.16907 15.7548 7.26043 16.6661 6.31984C16.7247 6.29053 16.7833 6.26122 16.8419 6.2319C17.2175 6.40496 17.579 6.60034 17.9264 6.81813C18.2818 6.45291 18.6433 6.10118 19.0109 5.76293Z" fill="#133769"/>
<path opacity="0.942" fill-rule="evenodd" clip-rule="evenodd" d="M3.24196 7.05055C5.02026 7.04076 6.79844 7.05055 8.57657 7.07986C8.66045 7.10712 8.72881 7.15601 8.78174 7.22641C8.84875 7.79727 8.87806 8.37376 8.86968 8.95576C8.87806 9.53776 8.84875 10.1143 8.78174 10.6851C8.72881 10.7555 8.66045 10.8044 8.57657 10.8317C7.97112 10.861 7.36538 10.8707 6.75928 10.861C6.76907 14.4175 6.75928 17.9738 6.72997 21.5302C6.70043 21.7365 6.59297 21.8831 6.40755 21.9699C5.66499 22.009 4.92248 22.009 4.17992 21.9699C4.00827 21.896 3.90082 21.769 3.85749 21.5888C3.82818 18.0129 3.81839 14.437 3.82818 10.861C3.67465 10.8767 3.5281 10.8572 3.38852 10.8024C3.369 9.92303 3.34942 9.0437 3.3299 8.16437C3.23217 8.00802 3.13451 8.00802 3.03679 8.16437C3.00748 8.96532 2.99771 9.76645 3.00747 10.5679C2.90786 10.5772 2.81016 10.5675 2.71436 10.5386C2.15821 10.0944 1.59153 9.66456 1.01433 9.24887C0.771408 9.01562 0.790952 8.80071 1.07295 8.60403C1.79147 8.06975 2.51448 7.55194 3.24196 7.05055ZM4.29716 10.861C4.9862 10.8239 5.66036 10.863 6.31962 10.9782C6.35872 14.4564 6.35872 17.9347 6.31962 21.4129C6.29769 21.4666 6.26838 21.5155 6.23169 21.5595C5.60637 21.5986 4.9811 21.5986 4.35578 21.5595C4.32647 21.5302 4.29716 21.5009 4.26785 21.4716C4.21925 17.9306 4.22904 14.3937 4.29716 10.861Z" fill="#133769"/>
</svg>
