<svg width="20" height="20" viewBox="0 0 20 20" fill="none" xmlns="http://www.w3.org/2000/svg">
<g clip-path="url(#clip0_547_6630)">
<path d="M18.8386 18.8281H17.2928V0.585938C17.2928 0.262344 17.0304 0 16.7068 0H3.29188C2.96828 0 2.70594 0.262344 2.70594 0.585938V18.8281H1.16016C0.836562 18.8281 0.574219 19.0905 0.574219 19.4141C0.574219 19.7377 0.836562 20 1.16016 20H18.8386C19.1622 20 19.4246 19.7377 19.4246 19.4141C19.4246 19.0905 19.1622 18.8281 18.8386 18.8281ZM8.00207 18.8281V14.8336H11.9966V18.8281H8.00207ZM13.1685 18.8281V14.2476C13.1685 13.924 12.9062 13.6617 12.5826 13.6617H7.41613C7.09254 13.6617 6.8302 13.924 6.8302 14.2476V18.8281H3.87781V1.17188H16.1209V18.8281H13.1685Z" fill="white"/>
<path d="M8.73859 2.59021H5.86719C5.54359 2.59021 5.28125 2.85255 5.28125 3.17615V6.04755C5.28125 6.37115 5.54359 6.63349 5.86719 6.63349H8.73859C9.06219 6.63349 9.32453 6.37115 9.32453 6.04755V3.17615C9.32453 2.85255 9.06219 2.59021 8.73859 2.59021ZM8.15266 5.46162H6.45312V3.76208H8.15266V5.46162Z" fill="white"/>
<path d="M14.1312 2.59021H11.2598C10.9362 2.59021 10.6738 2.85255 10.6738 3.17615V6.04755C10.6738 6.37115 10.9362 6.63349 11.2598 6.63349H14.1312C14.4548 6.63349 14.7171 6.37115 14.7171 6.04755V3.17615C14.7171 2.85255 14.4548 2.59021 14.1312 2.59021ZM13.5452 5.46162H11.8457V3.76208H13.5452V5.46162Z" fill="white"/>
<path d="M8.73859 8.04504H5.86719C5.54359 8.04504 5.28125 8.30739 5.28125 8.63098V11.5024C5.28125 11.826 5.54359 12.0883 5.86719 12.0883H8.73859C9.06219 12.0883 9.32453 11.826 9.32453 11.5024V8.63098C9.32453 8.30739 9.06219 8.04504 8.73859 8.04504ZM8.15266 10.9165H6.45312V9.21692H8.15266V10.9165Z" fill="white"/>
<path d="M14.1312 8.04504H11.2598C10.9362 8.04504 10.6738 8.30739 10.6738 8.63098V11.5024C10.6738 11.826 10.9362 12.0883 11.2598 12.0883H14.1312C14.4548 12.0883 14.7171 11.826 14.7171 11.5024V8.63098C14.7171 8.30739 14.4548 8.04504 14.1312 8.04504ZM13.5452 10.9165H11.8457V9.21692H13.5452V10.9165Z" fill="white"/>
</g>
<defs>
<clipPath id="clip0_547_6630">
<rect width="20" height="20" fill="white"/>
</clipPath>
</defs>
</svg>
