<svg width="23" height="24" viewBox="0 0 23 24" fill="none" xmlns="http://www.w3.org/2000/svg">
<path opacity="0.99" fill-rule="evenodd" clip-rule="evenodd" d="M6.08692 1.41797C8.2132 1.41797 10.3395 1.41797 12.4658 1.41797C12.4456 2.95034 12.468 4.4813 12.5332 6.01084C12.9348 7.62915 13.9455 8.62729 15.5654 9.00521C17.0762 9.07086 18.5886 9.09338 20.1025 9.07275C20.11 12.4799 20.1025 15.887 20.0801 19.2941C19.8301 20.7155 19.044 21.7136 17.7217 22.2885C17.4428 22.3847 17.1583 22.4597 16.8682 22.5137C13.2744 22.5437 9.68067 22.5437 6.08692 22.5137C4.66891 22.2631 3.67312 21.4751 3.09961 20.1497C2.99061 19.8736 2.91574 19.5884 2.875 19.2941C2.84505 14.4161 2.84505 9.53803 2.875 4.66C3.12494 3.23861 3.91107 2.24049 5.2334 1.66562C5.51798 1.56254 5.80252 1.47999 6.08692 1.41797ZM6.71582 5.29039C7.97363 5.29039 9.23145 5.29039 10.4893 5.29039C10.4893 5.90579 10.4893 6.52114 10.4893 7.13654C9.23145 7.13654 7.97363 7.13654 6.71582 7.13654C6.71582 6.52114 6.71582 5.90579 6.71582 5.29039ZM6.71582 8.17219C8.30305 8.17219 9.89032 8.17219 11.4775 8.17219C11.4775 8.78759 11.4775 9.40294 11.4775 10.0183C9.89032 10.0183 8.30305 10.0183 6.71582 10.0183C6.71582 9.40294 6.71582 8.78759 6.71582 8.17219ZM9.45606 12.9452C9.69917 12.9498 9.92378 13.0174 10.1299 13.1478C11.1724 14.2078 12.2281 15.2509 13.2969 16.2773C14.0469 15.3229 14.7881 14.3623 15.5205 13.3955C16.0215 13.7407 16.5007 14.1085 16.958 14.4986C16.0078 15.7815 15.057 17.0648 14.1055 18.3486C13.7344 18.7018 13.3226 18.7543 12.8701 18.5061C11.8132 17.4317 10.7426 16.3735 9.65821 15.3317C8.92423 16.3148 8.18302 17.2903 7.43457 18.2585C6.94043 17.8907 6.44629 17.5231 5.95215 17.1553C6.9044 15.9141 7.84031 14.6608 8.75977 13.3955C8.95019 13.1694 9.1823 13.0193 9.45606 12.9452Z" fill="#D9D7D7"/>
<path opacity="0.976" fill-rule="evenodd" clip-rule="evenodd" d="M14.3524 1.95898C16.0953 3.6835 17.8323 5.4171 19.5634 7.15974C18.3355 7.18977 17.1076 7.18977 15.8798 7.15974C15.0981 6.96161 14.5965 6.47382 14.3749 5.69632C14.3524 4.45063 14.3449 3.20485 14.3524 1.95898Z" fill="#133769"/>
</svg>
