<svg width="20" height="20" viewBox="0 0 20 20" fill="none" xmlns="http://www.w3.org/2000/svg">
<path d="M9.16683 10.2082C8.82165 10.2082 8.54183 10.488 8.54183 10.8332C8.54183 11.1783 8.82165 11.4582 9.16683 11.4582H13.3335C13.6787 11.4582 13.9585 11.1783 13.9585 10.8332C13.9585 10.488 13.6787 10.2082 13.3335 10.2082H9.16683Z" fill="#A4A8AA"/>
<path d="M6.66683 10.2082C6.32165 10.2082 6.04183 10.488 6.04183 10.8332C6.04183 11.1783 6.32165 11.4582 6.66683 11.4582H6.67431C7.01949 11.4582 7.29931 11.1783 7.29931 10.8332C7.29931 10.488 7.01949 10.2082 6.67431 10.2082H6.66683Z" fill="#A4A8AA"/>
<path d="M6.66683 13.5415C6.32165 13.5415 6.04183 13.8213 6.04183 14.1665C6.04183 14.5117 6.32165 14.7915 6.66683 14.7915H10.8335C11.1787 14.7915 11.4585 14.5117 11.4585 14.1665C11.4585 13.8213 11.1787 13.5415 10.8335 13.5415H6.66683Z" fill="#A4A8AA"/>
<path d="M13.326 13.5415C12.9808 13.5415 12.701 13.8213 12.701 14.1665C12.701 14.5117 12.9808 14.7915 13.326 14.7915H13.3335C13.6787 14.7915 13.9585 14.5117 13.9585 14.1665C13.9585 13.8213 13.6787 13.5415 13.3335 13.5415H13.326Z" fill="#A4A8AA"/>
<path fill-rule="evenodd" clip-rule="evenodd" d="M5.62516 1.6665C5.62516 1.32133 5.34534 1.0415 5.00016 1.0415C4.65498 1.0415 4.37516 1.32133 4.37516 1.6665V2.19549C3.70453 2.38557 3.13891 2.6945 2.66812 3.20347C2.01986 3.90429 1.7317 4.78977 1.5937 5.89943C1.45848 6.98676 1.45849 8.38023 1.4585 10.1582V10.6748C1.45849 12.4528 1.45848 13.8463 1.5937 14.9336C1.7317 16.0432 2.01986 16.9287 2.66812 17.6295C3.32278 18.3373 4.1608 18.6582 5.20957 18.8107C6.22459 18.9582 7.52145 18.9582 9.15786 18.9582H10.8425C12.4789 18.9582 13.7757 18.9582 14.7908 18.8107C15.8395 18.6582 16.6775 18.3373 17.3322 17.6295C17.9805 16.9287 18.2686 16.0432 18.4066 14.9336C18.5418 13.8462 18.5418 12.4528 18.5418 10.6748V10.1582C18.5418 8.38024 18.5418 6.98676 18.4066 5.89943C18.2686 4.78977 17.9805 3.90429 17.3322 3.20347C16.8614 2.6945 16.2958 2.38557 15.6252 2.19549V1.6665C15.6252 1.32133 15.3453 1.0415 15.0002 1.0415C14.655 1.0415 14.3752 1.32133 14.3752 1.6665V1.97142C13.4284 1.87481 12.2635 1.87482 10.8425 1.87484H9.15787C7.73685 1.87482 6.57188 1.87481 5.62516 1.97142V1.6665ZM3.58574 4.05227C3.80186 3.81864 4.05957 3.63976 4.399 3.50471C4.47355 3.76648 4.71447 3.95817 5.00016 3.95817C5.34534 3.95817 5.62516 3.67835 5.62516 3.33317V3.22866C6.50933 3.12614 7.65214 3.12484 9.2085 3.12484H10.7918C12.3482 3.12484 13.491 3.12614 14.3752 3.22866V3.33317C14.3752 3.67835 14.655 3.95817 15.0002 3.95817C15.2859 3.95817 15.5268 3.76648 15.6013 3.50471C15.9408 3.63976 16.1985 3.81864 16.4146 4.05227C16.8081 4.47773 17.0414 5.06097 17.1647 6.0415H2.83567C2.95893 5.06097 3.1922 4.47773 3.58574 4.05227ZM2.74093 7.2915C2.70895 8.08891 2.7085 9.04217 2.7085 10.2025V10.6305C2.7085 12.4624 2.70964 13.7781 2.83415 14.7793C2.95701 15.7672 3.19057 16.3535 3.58574 16.7807C3.97451 17.201 4.4979 17.4441 5.38936 17.5737C6.30413 17.7066 7.51006 17.7082 9.2085 17.7082H10.7918C12.4903 17.7082 13.6962 17.7066 14.611 17.5737C15.5024 17.4441 16.0258 17.201 16.4146 16.7807C16.8098 16.3535 17.0433 15.7672 17.1662 14.7793C17.2907 13.7781 17.2918 12.4624 17.2918 10.6305V10.2025C17.2918 9.04217 17.2914 8.08891 17.2594 7.2915H2.74093Z" fill="#A4A8AA"/>
</svg>
