<svg width="20" height="20" viewBox="0 0 20 20" fill="none" xmlns="http://www.w3.org/2000/svg">
<path fill-rule="evenodd" clip-rule="evenodd" d="M5.00004 1.04163C5.34522 1.04163 5.62504 1.32145 5.62504 1.66663V1.97154C6.57176 1.87494 7.73673 1.87495 9.15774 1.87496H10.8423C12.2634 1.87495 13.4283 1.87494 14.375 1.97154V1.66663C14.375 1.32145 14.6549 1.04163 15 1.04163C15.3452 1.04163 15.625 1.32145 15.625 1.66663V2.19562C16.2957 2.38569 16.8613 2.69462 17.3321 3.20359C17.9803 3.90441 18.2685 4.78989 18.4065 5.89955C18.5417 6.98689 18.5417 8.38036 18.5417 10.1584V10.6749C18.5417 12.4529 18.5417 13.8464 18.4065 14.9337C18.2685 16.0434 17.9803 16.9288 17.3321 17.6297C16.6774 18.3374 15.8394 18.6584 14.7906 18.8108C13.7756 18.9583 12.4788 18.9583 10.8423 18.9583H9.15774C7.52133 18.9583 6.22447 18.9583 5.20945 18.8108C4.16068 18.6584 3.32266 18.3374 2.66799 17.6297C2.01974 16.9288 1.73158 16.0434 1.59358 14.9337C1.45836 13.8464 1.45837 12.4529 1.45837 10.6749V10.1583C1.45837 8.38035 1.45836 6.98688 1.59358 5.89955C1.73158 4.78989 2.01974 3.90441 2.66799 3.20359C3.13879 2.69462 3.70441 2.38569 4.37504 2.19562V1.66663C4.37504 1.32145 4.65486 1.04163 5.00004 1.04163ZM5.00004 3.95829C4.71435 3.95829 4.47343 3.76661 4.39887 3.50483C4.05945 3.63988 3.80173 3.81876 3.58562 4.0524C3.19207 4.47785 2.95881 5.06109 2.83555 6.04163H17.1645C17.0413 5.06109 16.808 4.47785 16.4145 4.0524C16.1983 3.81876 15.9406 3.63989 15.6012 3.50483C15.5267 3.76661 15.2857 3.95829 15 3.95829C14.6549 3.95829 14.375 3.67847 14.375 3.33329V3.22878C13.4909 3.12626 12.3481 3.12496 10.7917 3.12496H9.20837C7.65202 3.12496 6.50921 3.12626 5.62504 3.22878V3.33329C5.62504 3.67847 5.34522 3.95829 5.00004 3.95829ZM17.2593 7.29163H2.74081C2.70883 8.08903 2.70837 9.0423 2.70837 10.2027V10.6306C2.70837 12.4625 2.70951 13.7782 2.83403 14.7794C2.95688 15.7673 3.19045 16.3536 3.58562 16.7809C3.97439 17.2011 4.49777 17.4442 5.38924 17.5738C6.30401 17.7067 7.50994 17.7083 9.20837 17.7083H10.7917C12.4901 17.7083 13.6961 17.7067 14.6108 17.5738C15.5023 17.4442 16.0257 17.2011 16.4145 16.7809C16.8096 16.3536 17.0432 15.7673 17.1661 14.7794C17.2906 13.7782 17.2917 12.4625 17.2917 10.6306V10.2027C17.2917 9.0423 17.2913 8.08903 17.2593 7.29163Z" fill="#1E232C"/>
</svg>
