<svg width="24" height="24" viewBox="0 0 24 24" fill="none" xmlns="http://www.w3.org/2000/svg">
<path fill-rule="evenodd" clip-rule="evenodd" d="M11.25 2C11.25 1.58579 11.5858 1.25 12 1.25C17.9371 1.25 22.75 6.06294 22.75 12C22.75 17.9371 17.9371 22.75 12 22.75C6.06294 22.75 1.25 17.9371 1.25 12C1.25 11.5858 1.58579 11.25 2 11.25C2.41421 11.25 2.75 11.5858 2.75 12C2.75 17.1086 6.89137 21.25 12 21.25C17.1086 21.25 21.25 17.1086 21.25 12C21.25 6.89136 17.1086 2.75 12 2.75C11.5858 2.75 11.25 2.41421 11.25 2Z" fill="#E01C06"/>
<g opacity="0.4">
<path d="M8.80047 3.18746C9.18003 3.02162 9.35329 2.57948 9.18746 2.19991C9.02162 1.82035 8.57948 1.64709 8.19991 1.81292C7.31659 2.19886 6.48735 2.6849 5.72649 3.25655C5.39533 3.50536 5.32857 3.97552 5.57738 4.30668C5.82619 4.63784 6.29634 4.7046 6.62751 4.45579C7.29639 3.95324 8.02494 3.52629 8.80047 3.18746Z" fill="#E01C06"/>
<path d="M4.45582 6.62747C4.70463 6.29631 4.63787 5.82615 4.30671 5.57734C3.97555 5.32853 3.50539 5.39529 3.25658 5.72645C2.68491 6.48733 2.19887 7.31658 1.81292 8.19991C1.64709 8.57948 1.82035 9.02162 2.19991 9.18746C2.57948 9.35329 3.02162 9.18003 3.18746 8.80047C3.5263 8.02493 3.95326 7.29637 4.45582 6.62747Z" fill="#E01C06"/>
<path d="M9.53033 8.46967C9.23744 8.17678 8.76256 8.17678 8.46967 8.46967C8.17678 8.76256 8.17678 9.23744 8.46967 9.53033L10.9393 12L8.46967 14.4697C8.17678 14.7626 8.17678 15.2374 8.46967 15.5303C8.76256 15.8232 9.23744 15.8232 9.53033 15.5303L12 13.0607L14.4697 15.5303C14.7626 15.8232 15.2374 15.8232 15.5303 15.5303C15.8232 15.2374 15.8232 14.7626 15.5303 14.4697L13.0607 12L15.5303 9.53033C15.8232 9.23744 15.8232 8.76256 15.5303 8.46967C15.2374 8.17678 14.7626 8.17678 14.4697 8.46967L12 10.9393L9.53033 8.46967Z" fill="#E01C06"/>
</g>
</svg>
