<svg width="24" height="24" viewBox="0 0 24 24" fill="none" xmlns="http://www.w3.org/2000/svg">
<path opacity="0.991" fill-rule="evenodd" clip-rule="evenodd" d="M13.0545 1.99211C16.3046 1.87989 19.0468 2.98926 21.2811 5.32023C23.3579 7.84464 23.7798 10.6259 22.5467 13.664C22.0146 14.7739 21.288 15.7348 20.367 16.5468C20.5217 17.0358 20.7327 17.4967 20.9998 17.9296C21.3033 18.2373 21.6158 18.5342 21.9373 18.8202C22.0785 19.2955 21.93 19.6471 21.492 19.8749C19.6492 19.8235 17.8992 19.3938 16.242 18.5859C13.0216 19.3383 10.0529 18.7836 7.33574 16.9218C4.30057 14.5505 3.324 11.5114 4.40605 7.80461C5.24896 5.71164 6.67865 4.15696 8.69512 3.14054C10.0785 2.47054 11.5317 2.08773 13.0545 1.99211ZM9.49199 9.30461C10.475 9.26415 10.9515 9.7329 10.9217 10.7109C10.573 11.5845 9.97138 11.8267 9.11699 11.4374C8.58463 11.0113 8.46744 10.4878 8.76543 9.86711C8.95387 9.6055 9.19602 9.418 9.49199 9.30461ZM13.3357 9.30461C14.0085 9.24615 14.4695 9.5274 14.7186 10.1484C14.8114 11.1334 14.3661 11.6256 13.3826 11.6249C12.7259 11.4439 12.4056 11.0142 12.4217 10.3359C12.5392 9.82023 12.8439 9.4765 13.3357 9.30461ZM17.1326 9.30461C17.9666 9.26368 18.451 9.65434 18.5857 10.4765C18.4593 11.2829 17.9905 11.6657 17.1795 11.6249C16.3476 11.3282 16.0742 10.7579 16.3592 9.91398C16.5438 9.61154 16.8016 9.40839 17.1326 9.30461Z" fill="#D9D7D7"/>
<path opacity="0.975" fill-rule="evenodd" clip-rule="evenodd" d="M2.4139 10.1016C2.62289 14.3055 4.62289 17.3446 8.4139 19.2188C9.62628 19.7679 10.8919 20.1352 12.2108 20.3203C10.3525 21.1772 8.42281 21.3804 6.42171 20.9297C5.07457 21.5575 3.66051 21.8779 2.17953 21.8906C1.75848 21.681 1.61005 21.345 1.73421 20.8828C1.83953 20.6385 2.01922 20.4744 2.27328 20.3906C2.59183 20.035 2.82621 19.6287 2.9764 19.1719C1.07362 17.4791 0.378311 15.3776 0.890463 12.8672C1.18047 11.8178 1.68828 10.896 2.4139 10.1016Z" fill="#133769"/>
</svg>
