<svg width="24" height="24" viewBox="0 0 24 24" fill="none" xmlns="http://www.w3.org/2000/svg">
<mask id="mask0_547_7606" style="mask-type:luminance" maskUnits="userSpaceOnUse" x="0" y="0" width="24" height="24">
<path d="M0 1.90735e-06H24V24H0V1.90735e-06Z" fill="white"/>
</mask>
<g mask="url(#mask0_547_7606)">
<path d="M17.2719 6.72807C16.4397 6.72807 15.7656 6.05368 15.7656 5.22183V2.20857C15.7656 1.80943 15.6074 1.42646 15.325 1.14404C15.0426 0.861616 14.6585 0.703084 14.2594 0.703084H9.74061C8.90844 0.703084 8.23438 1.37747 8.23438 2.20932V15.7656C8.23438 16.5974 8.90844 17.2719 9.74061 17.2719H20.2844C20.6835 17.2719 21.0676 17.1133 21.35 16.8305C21.6324 16.5481 21.7906 16.1651 21.7906 15.7656V8.2343C21.7906 7.83479 21.6324 7.45182 21.35 7.1694C21.0676 6.8866 20.6835 6.72807 20.2844 6.72807H17.2719Z" stroke="#0B5F4E" stroke-width="1.5" stroke-miterlimit="10" stroke-linecap="round" stroke-linejoin="round"/>
<path d="M18.7769 17.2719H9.73941C9.34027 17.2719 8.95617 17.1134 8.6738 16.8306C8.39133 16.5482 8.23317 16.1652 8.23317 15.7657V3.71566H6.72694C6.32775 3.71566 5.9437 3.87419 5.66128 4.15699C5.37886 4.43941 5.2207 4.82238 5.2207 5.22189V18.7781C5.2207 19.61 5.89477 20.2844 6.72694 20.2844H17.2707C18.1028 20.2844 18.7769 19.61 18.7769 18.7781V17.2719Z" stroke="#0B5F4E" stroke-width="1.5" stroke-miterlimit="10" stroke-linecap="round" stroke-linejoin="round"/>
<path d="M15.7652 20.2844H6.72769C6.32855 20.2844 5.94445 20.1258 5.66208 19.843C5.37961 19.5606 5.22145 19.1776 5.22145 18.7781V6.72811H3.71522C3.31603 6.72811 2.93198 6.88664 2.64952 7.16944C2.36714 7.45186 2.20898 7.83483 2.20898 8.23434V21.7906C2.20898 22.6224 2.88305 23.2969 3.71522 23.2969H14.259C15.0911 23.2969 15.7652 22.6224 15.7652 21.7906V20.2844Z" stroke="#0B5F4E" stroke-width="1.5" stroke-miterlimit="10" stroke-linecap="round" stroke-linejoin="round"/>
<path d="M21.791 8.23438C21.791 7.27002 21.4069 6.34517 20.7254 5.66319C19.6296 4.56589 17.9275 2.86536 16.8317 1.76806C16.1501 1.08608 15.2238 0.703109 14.2598 0.703109C14.659 0.703109 15.043 0.861641 15.3254 1.14406C15.6078 1.42653 15.766 1.8095 15.766 2.20864V5.22186C15.766 6.0537 16.4401 6.72814 17.2723 6.72814H20.2848C20.6839 6.72814 21.068 6.88667 21.3505 7.16909C21.6328 7.45152 21.791 7.83448 21.791 8.23362V8.23438Z" stroke="#0B5F4E" stroke-width="1.5" stroke-miterlimit="10" stroke-linecap="round" stroke-linejoin="round"/>
<path d="M12.752 12L14.2582 14.2594L17.2707 9.74065" stroke="#0B5F4E" stroke-width="1.5" stroke-miterlimit="10" stroke-linecap="round" stroke-linejoin="round"/>
</g>
</svg>
