<svg width="22" height="22" viewBox="0 0 22 22" fill="none" xmlns="http://www.w3.org/2000/svg">
<path d="M11 21.749C9.902 21.749 9.07001 20.854 8.46201 20.2C8.35201 20.081 8.24798 19.97 8.15498 19.876C7.60298 19.324 7.333 19.213 6.552 19.213C6.433 19.213 6.305 19.217 6.173 19.221C5.354 19.245 4.23301 19.277 3.48101 18.532C2.72201 17.779 2.75398 16.65 2.77798 15.826C2.78198 15.694 2.78599 15.5661 2.78599 15.4471C2.78599 14.6661 2.66499 14.388 2.06899 13.791C0.895994 12.618 0.25 11.972 0.25 10.999C0.25 10.026 0.895994 9.37903 2.06899 8.20703C2.59199 7.68403 2.78599 7.23498 2.78599 6.55098C2.78599 6.43098 2.78198 6.30405 2.77798 6.17104C2.75398 5.35304 2.72199 4.23203 3.46699 3.48003C4.21899 2.72203 5.348 2.75403 6.173 2.77803C6.305 2.78203 6.432 2.78604 6.552 2.78604C7.236 2.78604 7.68501 2.59204 8.20801 2.06904C9.38101 0.896043 10.027 0.25 11 0.25C11.973 0.25 12.62 0.896043 13.792 2.06904C14.315 2.59204 14.764 2.78604 15.448 2.78604C15.568 2.78604 15.695 2.78203 15.828 2.77803C16.647 2.75403 17.767 2.72204 18.519 3.46704C19.277 4.22004 19.245 5.34805 19.221 6.17305C19.217 6.30505 19.213 6.43305 19.213 6.55205C19.213 7.33305 19.334 7.61101 19.93 8.20801C21.103 9.38101 21.749 10.027 21.749 11C21.749 11.973 21.103 12.62 19.93 13.792C19.333 14.389 19.213 14.667 19.213 15.448C19.213 15.567 19.217 15.6951 19.221 15.8271C19.245 16.6511 19.277 17.78 18.519 18.532C17.767 19.277 16.646 19.245 15.827 19.221C15.695 19.217 15.567 19.213 15.448 19.213C14.667 19.213 14.398 19.3251 13.845 19.8771C13.752 19.9701 13.648 20.082 13.538 20.2C12.93 20.854 12.098 21.749 11 21.749ZM6.552 17.713C7.732 17.713 8.37899 17.981 9.21499 18.815C9.32799 18.928 9.44099 19.05 9.56099 19.178C9.98099 19.63 10.556 20.248 11 20.248C11.444 20.248 12.019 19.629 12.439 19.178C12.559 19.049 12.672 18.927 12.784 18.815C13.62 17.98 14.267 17.712 15.447 17.712C15.58 17.712 15.722 17.716 15.869 17.72C16.447 17.737 17.167 17.758 17.462 17.465C17.758 17.17 17.738 16.4481 17.721 15.8681C17.717 15.7211 17.713 15.579 17.713 15.446C17.713 14.265 17.994 13.605 18.87 12.73C19.746 11.855 20.249 11.351 20.249 10.998C20.249 10.645 19.73 10.127 18.87 9.26602C18.01 8.40502 17.713 7.73 17.713 6.55C17.713 6.417 17.717 6.27503 17.721 6.12803C17.738 5.54703 17.758 4.82503 17.462 4.53003C17.167 4.23703 16.448 4.258 15.871 4.275C15.723 4.279 15.581 4.28301 15.447 4.28301C14.368 4.28301 13.53 3.92603 12.731 3.12603C11.871 2.26603 11.352 1.74702 10.999 1.74702C10.646 1.74702 10.127 2.26603 9.26699 3.12603C8.46699 3.92603 7.62898 4.28301 6.55098 4.28301C6.41798 4.28301 6.276 4.279 6.129 4.275C5.548 4.258 4.82601 4.23803 4.53101 4.53403C4.23801 4.82903 4.25898 5.548 4.27598 6.125C4.27998 6.273 4.28398 6.41502 4.28398 6.54902C4.28398 7.62802 3.927 8.46604 3.127 9.26504C2.267 10.125 1.748 10.6441 1.748 10.9971C1.748 11.3501 2.267 11.868 3.127 12.729C3.987 13.59 4.28398 14.265 4.28398 15.445C4.28398 15.578 4.27998 15.72 4.27598 15.867C4.25898 16.448 4.23901 17.17 4.53501 17.465C4.83001 17.757 5.54898 17.736 6.12798 17.72C6.27498 17.716 6.417 17.712 6.55 17.712L6.552 17.713Z" fill="#1DC054"/>
<path opacity="0.4" d="M9.80008 14.2485C9.61608 14.2485 9.43805 14.1815 9.30105 14.0575L7.50105 12.4505C7.19205 12.1745 7.16509 11.7005 7.44109 11.3915C7.71709 11.0825 8.19108 11.0555 8.50008 11.3315L9.72307 12.4235L13.4261 8.01551C13.6921 7.69851 14.1661 7.65751 14.4831 7.92351C14.8001 8.19051 14.8411 8.66355 14.5751 8.98055L10.3751 13.9805C10.2451 14.1355 10.0571 14.2316 9.85408 14.2466C9.83608 14.2476 9.81808 14.2485 9.80008 14.2485Z" fill="#1DC054"/>
</svg>
