<svg width="24" height="24" viewBox="0 0 24 24" fill="none" xmlns="http://www.w3.org/2000/svg">
<g clip-path="url(#clip0_369_30271)">
<path opacity="0.994" fill-rule="evenodd" clip-rule="evenodd" d="M4.42969 -0.0234375C4.66406 -0.0234375 4.89844 -0.0234375 5.13281 -0.0234375C5.48002 0.0809648 5.73783 0.299715 5.90625 0.632812C5.97272 1.20805 5.99616 1.78618 5.97656 2.36719C9.97655 2.36719 13.9766 2.36719 17.9766 2.36719C17.957 1.78618 17.9804 1.20805 18.0469 0.632812C18.2153 0.299715 18.4731 0.0809648 18.8203 -0.0234375C19.0547 -0.0234375 19.2891 -0.0234375 19.5234 -0.0234375C20.0408 0.143219 20.3298 0.502594 20.3906 1.05469C20.4141 1.49191 20.4218 1.92941 20.4141 2.36719C20.8987 2.35938 21.3831 2.3672 21.8672 2.39062C22.2822 2.53158 22.5713 2.80502 22.7344 3.21094C22.7881 4.26337 22.8115 5.31806 22.8047 6.375C22.7891 7.3672 22.7734 8.35936 22.7578 9.35156C19.6196 6.9848 16.2446 6.58636 12.6328 8.15625C9.38836 9.85341 7.58367 12.5331 7.21875 16.1953C7.13302 18.1023 7.56272 19.8836 8.50781 21.5391C5.96109 21.5938 3.41421 21.6015 0.867188 21.5625C0.421119 21.4211 0.124244 21.132 -0.0234375 20.6953C-0.0234375 14.8828 -0.0234375 9.07031 -0.0234375 3.25781C0.124244 2.82113 0.421119 2.53207 0.867188 2.39062C1.75768 2.36719 2.6483 2.35938 3.53906 2.36719C3.53126 1.92941 3.53907 1.49191 3.5625 1.05469C3.62328 0.502594 3.91235 0.143219 4.42969 -0.0234375Z" fill="#133769"/>
<path opacity="0.989" fill-rule="evenodd" clip-rule="evenodd" d="M23.9765 15.9605C23.9765 16.5074 23.9765 17.0542 23.9765 17.6011C23.6097 20.0222 22.3753 21.8581 20.2734 23.1089C19.4246 23.5455 18.5339 23.8346 17.6015 23.9761C17.0547 23.9761 16.5078 23.9761 15.9609 23.9761C13.0257 23.5022 11.0179 21.8772 9.93748 19.1011C9.05033 16.0004 9.7925 13.3676 12.164 11.2026C14.445 9.47052 16.9294 9.11118 19.6172 10.1245C22.1008 11.3031 23.554 13.2484 23.9765 15.9605ZM16.4297 12.023C17.3443 11.8996 17.8521 12.2902 17.9531 13.1948C17.9765 13.9916 17.9844 14.7884 17.9765 15.5855C18.4143 15.5777 18.8518 15.5855 19.289 15.6089C19.9609 15.6949 20.3202 16.0777 20.3672 16.7573C20.3192 17.5232 19.913 17.9216 19.1484 17.9526C18.2407 17.9945 17.3345 17.9789 16.4297 17.9058C15.9269 17.7377 15.6535 17.3862 15.6094 16.8511C15.5781 15.6011 15.5781 14.3511 15.6094 13.1011C15.6588 12.5621 15.9323 12.2027 16.4297 12.023Z" fill="#133769"/>
</g>
<defs>
<clipPath id="clip0_369_30271">
<rect width="24" height="24" fill="white"/>
</clipPath>
</defs>
</svg>
