<svg width="24" height="25" viewBox="0 0 24 25" fill="none" xmlns="http://www.w3.org/2000/svg">
<g clip-path="url(#clip0_369_26909)">
<path opacity="0.982" fill-rule="evenodd" clip-rule="evenodd" d="M23.9766 4.18088C23.9766 4.384 23.9766 4.58713 23.9766 4.79025C23.8393 5.13371 23.5892 5.36025 23.2266 5.46994C22.2574 5.47777 21.2887 5.50121 20.3203 5.54025C19.7516 7.10236 18.6345 7.91485 16.9688 7.97775C15.3101 7.89746 14.1929 7.07715 13.6172 5.51682C9.3203 5.50121 5.02345 5.48555 0.726562 5.46994C0.363878 5.36025 0.113877 5.13371 -0.0234375 4.79025C-0.0234375 4.58713 -0.0234375 4.384 -0.0234375 4.18088C0.0930042 3.83795 0.327379 3.61139 0.679688 3.50119C4.99228 3.49338 9.30478 3.46994 13.6172 3.43088C14.4396 1.44689 15.9083 0.673447 18.0234 1.11057C19.1949 1.50854 19.9605 2.2976 20.3203 3.47775C21.3048 3.46995 22.2892 3.47775 23.2734 3.50119C23.6257 3.61139 23.8601 3.83795 23.9766 4.18088ZM16.6641 3.009C17.5587 2.94351 18.1446 3.33413 18.4219 4.18088C18.5173 4.95936 18.2126 5.51405 17.5078 5.84494C16.5783 6.09502 15.9299 5.77472 15.5625 4.884C15.4127 3.94851 15.7799 3.32351 16.6641 3.009Z" fill="#133769"/>
<path opacity="0.972" fill-rule="evenodd" clip-rule="evenodd" d="M23.9766 12.1953C23.9766 12.3828 23.9766 12.5703 23.9766 12.7578C23.8346 13.1573 23.5534 13.3995 23.1328 13.4844C18.8672 13.5 14.6016 13.5156 10.3359 13.5312C9.53353 15.464 8.09602 16.2452 6.02344 15.875C4.84969 15.4903 4.05279 14.7169 3.63281 13.5547C2.6957 13.5156 1.7582 13.4922 0.820312 13.4844C0.399748 13.3995 0.118498 13.1573 -0.0234375 12.7578C-0.0234375 12.5703 -0.0234375 12.3828 -0.0234375 12.1953C0.118498 11.7958 0.399748 11.5536 0.820312 11.4688C1.7582 11.4609 2.6957 11.4375 3.63281 11.3984C4.21664 9.85381 5.33381 9.04133 6.98438 8.96094C8.6452 9.04489 9.76237 9.8652 10.3359 11.4219C14.6016 11.4375 18.8672 11.4531 23.1328 11.4688C23.5534 11.5536 23.8346 11.7958 23.9766 12.1953ZM6.63281 11.0234C7.69809 10.9385 8.30747 11.4229 8.46094 12.4766C8.30841 13.5372 7.69903 14.0138 6.63281 13.9062C5.81133 13.6309 5.44416 13.0606 5.53125 12.1953C5.70075 11.6119 6.06797 11.2213 6.63281 11.0234Z" fill="#890101"/>
<path opacity="0.982" fill-rule="evenodd" clip-rule="evenodd" d="M23.9766 20.1646C23.9766 20.3677 23.9766 20.5708 23.9766 20.7739C23.8601 21.1169 23.6257 21.3434 23.2734 21.4536C22.2892 21.4771 21.3048 21.4849 20.3203 21.4771C19.7818 23.0615 18.6724 23.9052 16.9922 24.0083C15.3246 23.9096 14.1996 23.0815 13.6172 21.5239C9.30478 21.4849 4.99228 21.4615 0.679688 21.4536C0.327379 21.3434 0.0930042 21.1169 -0.0234375 20.7739C-0.0234375 20.5708 -0.0234375 20.3677 -0.0234375 20.1646C0.113877 19.8211 0.363878 19.5946 0.726562 19.4849C5.02345 19.4693 9.3203 19.4536 13.6172 19.438C14.4219 17.4652 15.875 16.6839 17.9766 17.0943C19.143 17.4815 19.9243 18.255 20.3203 19.4146C21.2887 19.4536 22.2574 19.4771 23.2266 19.4849C23.5892 19.5946 23.8393 19.8211 23.9766 20.1646ZM16.8516 18.9927C17.9505 19.082 18.4739 19.6758 18.4219 20.7739C18.0435 21.8108 17.3326 22.1467 16.2891 21.7818C15.4911 21.2301 15.3114 20.5192 15.75 19.6489C16.0332 19.2774 16.4003 19.0586 16.8516 18.9927Z" fill="#133769"/>
</g>
<defs>
<clipPath id="clip0_369_26909">
<rect width="24" height="24" fill="white" transform="translate(0 0.5)"/>
</clipPath>
</defs>
</svg>
