<svg width="24" height="24" viewBox="0 0 24 24" fill="none" xmlns="http://www.w3.org/2000/svg">
<path opacity="0.988" fill-rule="evenodd" clip-rule="evenodd" d="M4.47656 1.47559C8.47659 1.46777 12.4766 1.47559 16.4766 1.49902C17.589 1.76769 18.2531 2.463 18.4688 3.58496C18.5 4.13184 18.5 4.67871 18.4688 5.22559C16.3906 8.83496 14.3125 12.4443 12.2344 16.0537C12.0968 16.3852 12.003 16.7289 11.9531 17.085C11.915 17.6788 11.8759 18.2725 11.8359 18.8662C11.86 19.641 12.235 20.1644 12.9609 20.4365C13.425 20.5648 13.8625 20.5022 14.2734 20.249C14.7735 19.9209 15.2734 19.5928 15.7734 19.2646C16.0313 19.0693 16.2578 18.8428 16.4531 18.585C17.1132 17.4366 17.7851 16.296 18.4688 15.1631C18.5 16.8975 18.5 18.6318 18.4688 20.3662C18.2531 21.4882 17.589 22.1835 16.4766 22.4521C12.4766 22.4834 8.47655 22.4834 4.47656 22.4521C3.36411 22.1835 2.70005 21.4882 2.48438 20.3662C2.45312 14.7725 2.45312 9.1787 2.48438 3.58496C2.70869 2.46231 3.37275 1.75919 4.47656 1.47559ZM5.46094 4.47559C6.96103 4.46778 8.46103 4.47559 9.96094 4.49902C10.4077 4.60337 10.5327 4.86118 10.3359 5.27246C10.2595 5.3567 10.1657 5.4114 10.0547 5.43652C8.4922 5.46779 6.92967 5.46779 5.36719 5.43652C5.00616 5.26937 4.92024 5.01156 5.10938 4.66309C5.21508 4.56939 5.33227 4.50689 5.46094 4.47559ZM5.46094 7.47559C8.50786 7.46776 11.5547 7.47559 14.6016 7.49902C15.0645 7.59788 15.1973 7.8557 15 8.27246C14.926 8.3447 14.84 8.3994 14.7422 8.43652C11.6172 8.46779 8.4922 8.46779 5.36719 8.43652C5.00616 8.26937 4.92024 8.01155 5.10938 7.66309C5.21508 7.56938 5.33227 7.5069 5.46094 7.47559ZM5.46094 10.4756C7.92975 10.4678 10.3985 10.4756 12.8672 10.499C13.3567 10.6247 13.4739 10.8982 13.2188 11.3193C13.1522 11.3643 13.0819 11.4034 13.0078 11.4365C10.461 11.4678 7.91405 11.4678 5.36719 11.4365C5.00616 11.2694 4.92024 11.0116 5.10938 10.6631C5.21508 10.5694 5.33227 10.5069 5.46094 10.4756ZM5.46094 13.4756C7.35164 13.4678 9.24225 13.4756 11.1328 13.499C11.5954 13.5909 11.7282 13.8488 11.5313 14.2725C11.4572 14.3447 11.3713 14.3994 11.2734 14.4365C9.30469 14.4678 7.33594 14.4678 5.36719 14.4365C5.00616 14.2694 4.92024 14.0116 5.10938 13.6631C5.21508 13.5694 5.33227 13.5069 5.46094 13.4756ZM6.25781 16.8506C6.58974 16.818 6.88659 16.904 7.14844 17.1084C7.32319 17.3666 7.47164 17.64 7.59375 17.9287C7.9651 17.3891 8.44167 17.2719 9.02344 17.5771C9.28205 17.8368 9.50081 18.1258 9.67969 18.4443C9.86527 18.4831 10.0528 18.5065 10.2422 18.5146C10.5951 18.6503 10.6966 18.8925 10.5469 19.2412C10.444 19.3669 10.3112 19.4372 10.1484 19.4521C9.86395 19.4898 9.5827 19.4742 9.30469 19.4053C9.20513 19.3527 9.1192 19.2824 9.04688 19.1943C8.85938 18.9131 8.67188 18.6318 8.48438 18.3506C8.32252 18.5906 8.14284 18.8172 7.94531 19.0303C7.56647 19.2261 7.23052 19.1714 6.9375 18.8662C6.78999 18.5014 6.63375 18.142 6.46875 17.7881C6.26564 18.2724 6.06249 18.7568 5.85938 19.2412C5.62228 19.4701 5.3723 19.4857 5.10938 19.2881C4.97681 19.1099 4.9612 18.9224 5.0625 18.7256C5.25267 18.2358 5.45583 17.7514 5.67188 17.2725C5.82652 17.0671 6.02184 16.9264 6.25781 16.8506Z" fill="#D9D7D7"/>
<path opacity="0.959" fill-rule="evenodd" clip-rule="evenodd" d="M20.602 4.38281C21.2561 4.44035 21.8108 4.70597 22.266 5.17969C22.4885 5.562 22.5354 5.96822 22.4067 6.39844C22.1908 6.82411 21.9486 7.23038 21.6801 7.61719C20.8224 7.12655 19.9709 6.62653 19.1254 6.11719C19.101 6.03333 19.1166 5.95519 19.1723 5.88281C19.3754 5.53908 19.5785 5.1953 19.7817 4.85156C20.0142 4.61445 20.2877 4.45821 20.602 4.38281Z" fill="#133769"/>
<path opacity="0.976" fill-rule="evenodd" clip-rule="evenodd" d="M18.5859 6.91406C19.444 7.40569 20.3034 7.89787 21.1641 8.39062C21.2117 8.4398 21.2196 8.4945 21.1875 8.55469C19.3594 11.7109 17.5312 14.8672 15.7031 18.0234C15.5063 18.236 15.2954 18.4313 15.0703 18.6094C14.6092 18.8946 14.1561 19.1915 13.7109 19.5C13.1967 19.6491 12.8842 19.4616 12.7734 18.9375C12.8253 18.3845 12.8643 17.8298 12.8906 17.2734C12.9162 16.9992 12.9787 16.7335 13.0781 16.4766C14.9028 13.2801 16.7387 10.0926 18.5859 6.91406Z" fill="#133769"/>
</svg>
