<svg width="20" height="20" viewBox="0 0 20 20" fill="none" xmlns="http://www.w3.org/2000/svg">
<path d="M12.7079 11.6667C12.7079 11.3215 12.9878 11.0417 13.3329 11.0417H14.1663C14.5115 11.0417 14.7913 11.3215 14.7913 11.6667C14.7913 12.0118 14.5115 12.2917 14.1663 12.2917H13.3329C12.9878 12.2917 12.7079 12.0118 12.7079 11.6667Z" fill="#A4A8AA"/>
<path d="M5.83295 8.54166C5.48777 8.54166 5.20795 8.82148 5.20795 9.16666C5.20795 9.51184 5.48777 9.79166 5.83295 9.79166H6.66628C7.01146 9.79166 7.29128 9.51184 7.29128 9.16666C7.29128 8.82148 7.01146 8.54166 6.66628 8.54166H5.83295Z" fill="#A4A8AA"/>
<path d="M5.83295 11.875C5.48777 11.875 5.20795 12.1548 5.20795 12.5C5.20795 12.8452 5.48777 13.125 5.83295 13.125H6.66628C7.01146 13.125 7.29128 12.8452 7.29128 12.5C7.29128 12.1548 7.01146 11.875 6.66628 11.875H5.83295Z" fill="#A4A8AA"/>
<path fill-rule="evenodd" clip-rule="evenodd" d="M10.6226 2.44894C10.6239 2.46578 10.6246 2.4828 10.6246 2.49999V5.44698L14.3746 7.32198V5.83332C14.3746 5.48814 14.6544 5.20832 14.9996 5.20832C15.3448 5.20832 15.6246 5.48814 15.6246 5.83332V7.94698L17.7702 9.01978C17.7759 9.02253 17.7816 9.02537 17.7872 9.02829L18.6126 9.44097C18.9213 9.59534 19.0465 9.97076 18.8921 10.2795C18.7494 10.5649 18.4178 10.6934 18.1246 10.5893L18.1246 15.043C18.1246 15.7917 18.1247 16.4161 18.058 16.9118C17.9877 17.4349 17.833 17.9073 17.4534 18.2868C17.0738 18.6664 16.6015 18.8211 16.0783 18.8914C15.5827 18.9581 14.9584 18.9581 14.2096 18.958H13.7687C13.7624 18.9582 13.756 18.9583 13.7496 18.9583C13.7432 18.9583 13.7368 18.9582 13.7305 18.958L10.0188 18.958C10.0124 18.9582 10.006 18.9583 9.99961 18.9583H5.78962C5.04089 18.9583 4.41653 18.9584 3.92088 18.8917C3.39772 18.8214 2.92539 18.6667 2.54583 18.2871C2.16627 17.9076 2.01155 17.4352 1.94121 16.9121C1.87457 16.4164 1.87459 15.7921 1.87461 15.0433L1.87462 6.42271C1.57217 6.52987 1.2328 6.38949 1.09756 6.09195C0.95472 5.77771 1.09367 5.40718 1.40791 5.26434L10.5746 1.09768C10.8888 0.954842 11.2593 1.09379 11.4022 1.40803C11.545 1.72227 11.4061 2.0928 11.0918 2.23564L10.6226 2.44894ZM13.1246 17.708H10.6246V6.84452L14.7064 8.88543C14.7157 8.89037 14.7251 8.89509 14.7347 8.89957L16.8746 9.96952V14.9997C16.8746 15.803 16.8733 16.3427 16.8192 16.7452C16.7675 17.1298 16.6781 17.2943 16.5695 17.4029C16.4609 17.5115 16.2963 17.6009 15.9118 17.6526C15.5451 17.7019 15.0646 17.7074 14.3746 17.708V15C14.3746 14.6548 14.0948 14.375 13.7496 14.375C13.4044 14.375 13.1246 14.6548 13.1246 15V17.708ZM8.31377 17.7083C8.32014 17.7081 8.32653 17.708 8.33295 17.708H9.37461V3.01619L3.12462 5.8571V15C3.12462 15.8033 3.12594 16.343 3.18006 16.7455C3.23176 17.13 3.32112 17.2946 3.42971 17.4032C3.53831 17.5118 3.70289 17.6012 4.08744 17.6529C4.48997 17.707 5.02961 17.7083 5.83295 17.7083H8.31377Z" fill="#A4A8AA"/>
</svg>
