<svg width="21" height="21" viewBox="0 0 21 21" fill="none" xmlns="http://www.w3.org/2000/svg">
<path opacity="0.973" fill-rule="evenodd" clip-rule="evenodd" d="M9.75798 0.179688C13.7216 0.258292 16.7295 1.97704 18.7814 5.33594C19.629 6.86678 20.0587 8.50741 20.0705 10.2578C19.3049 10.2578 18.5392 10.2578 17.7736 10.2578C17.6614 7.24272 16.3177 4.96928 13.7424 3.4375C11.1703 2.13207 8.62346 2.17895 6.10173 3.57812C3.38114 5.33969 2.13895 7.8475 2.37516 11.1016C2.80579 14.0003 4.34485 16.0706 6.99235 17.3125C8.21124 17.8151 9.47687 18.0182 10.7892 17.9219C11.4299 18.5625 12.0705 19.2031 12.7111 19.8438C9.03887 20.7617 5.8201 19.9335 3.05485 17.3594C0.314914 14.5015 -0.552275 11.1499 0.453289 7.30469C1.57815 3.89858 3.85159 1.6564 7.2736 0.578125C8.09513 0.359322 8.92327 0.226506 9.75798 0.179688Z" fill="#133769"/>
</svg>
