<svg width="24" height="24" viewBox="0 0 24 24" fill="none" xmlns="http://www.w3.org/2000/svg">
<path opacity="0.976" fill-rule="evenodd" clip-rule="evenodd" d="M11.5078 2.22645C12.8981 2.08885 13.7965 2.68259 14.2031 4.0077C14.3635 5.39895 13.7776 6.29735 12.4453 6.70301C11.0541 6.86337 10.1557 6.27743 9.75001 4.9452C9.59528 3.54996 10.1812 2.64371 11.5078 2.22645Z" fill="#890101"/>
<path opacity="0.976" fill-rule="evenodd" clip-rule="evenodd" d="M11.5078 9.72645C12.8981 9.58883 13.7965 10.1826 14.2031 11.5077C14.3635 12.899 13.7776 13.7974 12.4453 14.203C11.0541 14.3634 10.1557 13.7774 9.75001 12.4452C9.59528 11.05 10.1812 10.1437 11.5078 9.72645Z" fill="#890101"/>
<path opacity="0.976" fill-rule="evenodd" clip-rule="evenodd" d="M11.5078 17.2265C12.8981 17.0888 13.7965 17.6826 14.2031 19.0077C14.3635 20.399 13.7776 21.2974 12.4453 21.703C11.0541 21.8634 10.1557 21.2774 9.75001 19.9452C9.59528 18.55 10.1812 17.6437 11.5078 17.2265Z" fill="#890101"/>
</svg>
