<svg width="24" height="24" viewBox="0 0 24 24" fill="none" xmlns="http://www.w3.org/2000/svg">
<g clip-path="url(#clip0_424_114486)">
<path opacity="0.968" d="M21.7168 0.476562C21.7983 0.514639 21.8762 0.560763 21.9502 0.617188L22.0449 0.697266L23.2559 1.9082L23.3359 2.00293C23.3924 2.07689 23.4385 2.15486 23.4766 2.23633V2.7041C23.4401 2.77051 23.4029 2.83781 23.3633 2.90527C23.1724 3.09619 22.9819 3.2876 22.791 3.47852C22.6862 3.58333 22.5814 3.68815 22.4766 3.79297C21.7039 3.02385 20.9362 2.2505 20.1738 1.47266C20.4612 1.17502 20.7514 0.879703 21.0469 0.588867C21.1142 0.549347 21.1818 0.512921 21.248 0.476562H21.7168Z" fill="#FFFCFC" stroke="#FFFCFC"/>
<path opacity="0.983" d="M18.4561 3.1582C19.2525 3.90826 20.0368 4.67532 20.8096 5.45898C19.4386 6.82991 18.0682 8.20133 16.6973 9.57227C15.2511 11.0184 13.8045 12.464 12.3584 13.9102C11.376 14.2658 10.3875 14.6052 9.39258 14.9277C9.27041 14.9391 9.18679 14.9339 9.13281 14.9219C9.07745 14.9095 9.06218 14.8942 9.06055 14.8926C9.05902 14.8911 9.0437 14.8759 9.03125 14.8203C9.01914 14.7662 9.01291 14.6822 9.02441 14.5596C9.34681 13.5649 9.68646 12.5768 10.042 11.5947C12.8555 8.78841 15.6597 5.97574 18.4561 3.1582Z" fill="#FFFCFC" stroke="#FFFCFC"/>
<path opacity="0.997" d="M2.11133 4.34277C6.06086 4.31486 10.0104 4.31387 13.96 4.33691C12.0185 6.27167 10.0895 8.21722 8.17383 10.1738L8.13867 10.21L8.11035 10.2529C7.99175 10.4375 7.88657 10.6302 7.79492 10.8311L7.78418 10.8555L7.77539 10.8809L6.74414 13.9746L6.7373 13.9961L6.73242 14.0176C6.59213 14.6116 6.60554 15.1798 6.81152 15.6973C7.01765 16.2148 7.39752 16.6345 7.90723 16.9658L7.92969 16.9805L7.9541 16.9932C8.58291 17.3115 9.25173 17.3871 9.93848 17.2197L9.95898 17.2148L9.97852 17.209L13.0723 16.1777L13.1035 16.166C13.408 16.0416 13.6866 15.8743 13.9375 15.665L13.9551 15.6504L17.2168 12.3887C18.0164 11.589 18.8156 10.7889 19.6152 9.98926C19.6383 13.9398 19.6373 17.8903 19.6094 21.8408C19.3704 22.704 18.8482 23.2324 17.9971 23.4766H2.11328C1.2593 23.2246 0.728492 22.6938 0.476562 21.8398V5.95508C0.720758 5.10466 1.24882 4.58178 2.11133 4.34277Z" fill="#FFFCFC" stroke="#FFFCFC"/>
</g>
<defs>
<clipPath id="clip0_424_114486">
<rect width="24" height="24" fill="white"/>
</clipPath>
</defs>
</svg>
