<svg width="16" height="16" viewBox="0 0 16 16" fill="none" xmlns="http://www.w3.org/2000/svg">
<g clip-path="url(#clip0_1220_26656)">
<path opacity="0.968" fill-rule="evenodd" clip-rule="evenodd" d="M14.0781 -0.015625C14.2344 -0.015625 14.3906 -0.015625 14.5469 -0.015625C14.6846 0.0378447 14.8096 0.11597 14.9219 0.21875C15.1979 0.494791 15.474 0.770834 15.75 1.04688C15.8528 1.15916 15.9309 1.28416 15.9844 1.42188C15.9844 1.57812 15.9844 1.73438 15.9844 1.89062C15.9408 1.97318 15.8939 2.05652 15.8438 2.14062C15.5677 2.41667 15.2917 2.69271 15.0156 2.96875C14.9948 2.98958 14.974 2.98958 14.9531 2.96875C14.2912 2.31207 13.635 1.65061 12.9844 0.984375C13.26 0.69315 13.5412 0.406694 13.8281 0.125C13.9122 0.0748494 13.9956 0.0279744 14.0781 -0.015625Z" fill="#133769"/>
<path opacity="0.983" fill-rule="evenodd" clip-rule="evenodd" d="M12.2969 1.64062C12.9817 2.27855 13.6536 2.9348 14.3125 3.60938C14.3333 3.63022 14.3333 3.65103 14.3125 3.67188C12.349 5.63541 10.3854 7.59897 8.42187 9.5625C7.72862 9.81441 7.03071 10.054 6.32812 10.2812C5.84374 10.3385 5.63021 10.125 5.68749 9.64062C5.91474 8.93803 6.15434 8.24013 6.40624 7.54688C8.37609 5.58225 10.3396 3.6135 12.2969 1.64062Z" fill="#133769"/>
<path opacity="0.997" fill-rule="evenodd" clip-rule="evenodd" d="M12.0469 15.9844C8.48438 15.9844 4.92188 15.9844 1.35938 15.9844C0.640625 15.7865 0.182292 15.3281 -0.015625 14.6094C-0.015625 11.0469 -0.015625 7.48438 -0.015625 3.92188C0.176628 3.20359 0.634962 2.75047 1.35938 2.5625C4.27603 2.54167 7.19272 2.54167 10.1094 2.5625C8.62412 4.03731 7.15019 5.52169 5.6875 7.01563C5.61706 7.12522 5.55456 7.23978 5.5 7.35938C5.27084 8.04688 5.04166 8.73438 4.8125 9.42188C4.64966 10.1114 4.86322 10.6478 5.45312 11.0313C5.80106 11.2075 6.16566 11.2492 6.54688 11.1563C7.23438 10.9271 7.92188 10.6979 8.60938 10.4688C8.78116 10.3986 8.93741 10.3048 9.07812 10.1875C10.5208 8.74478 11.9635 7.30209 13.4062 5.85938C13.4271 8.77603 13.4271 11.6927 13.4062 14.6094C13.2183 15.3338 12.7652 15.7921 12.0469 15.9844Z" fill="#133769"/>
</g>
<defs>
<clipPath id="clip0_1220_26656">
<rect width="16" height="16" fill="white"/>
</clipPath>
</defs>
</svg>
