<svg width="24" height="24" viewBox="0 0 24 24" fill="none" xmlns="http://www.w3.org/2000/svg">
<g clip-path="url(#clip0_1096_42189)">
<path opacity="0.988" fill-rule="evenodd" clip-rule="evenodd" d="M7.89795 1.57032C9.82175 1.48891 11.2983 2.25453 12.3276 3.8672C13.0903 5.35946 13.106 6.85946 12.3745 8.3672C11.2819 10.1361 9.69598 10.9095 7.6167 10.6875C5.83311 10.3414 4.62219 9.31796 3.98389 7.6172C3.39296 5.29328 4.08827 3.47295 6.06983 2.15626C6.65014 1.85141 7.25952 1.65609 7.89795 1.57032Z" fill="#D9D7D7"/>
<path opacity="0.983" fill-rule="evenodd" clip-rule="evenodd" d="M15.2109 1.57123C17.523 1.53484 19.1089 2.58172 19.9688 4.71185C20.5439 6.88006 19.9424 8.63787 18.1641 9.98529C16.95 10.742 15.6531 10.9295 14.2734 10.5478C14.0493 10.4903 13.8462 10.3965 13.6641 10.2665C15.5378 7.52642 15.5378 4.78423 13.6641 2.03998C13.84 1.93171 14.0275 1.84577 14.2266 1.78217C14.5567 1.69099 14.8848 1.62067 15.2109 1.57123Z" fill="#133769"/>
<path opacity="0.991" fill-rule="evenodd" clip-rule="evenodd" d="M-0.0234375 21.5853C-0.0234375 21.179 -0.0234375 20.7728 -0.0234375 20.3665C0.482367 17.0249 2.29486 14.7046 5.41406 13.4056C8.63962 12.3507 11.5303 12.9288 14.0859 15.14C15.8912 16.8844 16.7584 19.0172 16.6875 21.5384C16.572 21.9664 16.2985 22.2399 15.8672 22.3587C10.8516 22.39 5.83594 22.39 0.820312 22.3587C0.408725 22.236 0.127475 21.9781 -0.0234375 21.5853Z" fill="#D9D7D7"/>
<path opacity="0.981" fill-rule="evenodd" clip-rule="evenodd" d="M23.9766 20.3677C23.9766 20.774 23.9766 21.1802 23.9766 21.5865C23.8257 21.9793 23.5444 22.2371 23.1328 22.3599C21.6485 22.3833 20.1641 22.3912 18.6797 22.3833C19.0108 20.2178 18.6436 18.171 17.5781 16.2427C16.8789 14.9572 15.9492 13.8635 14.7891 12.9615C18.3423 12.7341 21.0533 14.1247 22.9219 17.1333C23.4772 18.1508 23.8288 19.2289 23.9766 20.3677Z" fill="#133769"/>
</g>
<defs>
<clipPath id="clip0_1096_42189">
<rect width="24" height="24" fill="white"/>
</clipPath>
</defs>
</svg>
