<svg width="173" height="160" viewBox="0 0 173 160" fill="none" xmlns="http://www.w3.org/2000/svg">
<path d="M150.178 38.9731V45.2737" stroke="#BABABA" stroke-linecap="round" stroke-linejoin="round"/>
<path d="M147.035 42.116H153.321" stroke="#BABABA" stroke-linecap="round" stroke-linejoin="round"/>
<path d="M21.301 14.6624V20.9483" stroke="#BABABA" stroke-linecap="round" stroke-linejoin="round"/>
<path d="M18.1436 17.8057H24.4441" stroke="#BABABA" stroke-linecap="round" stroke-linejoin="round"/>
<path d="M70.2146 2.86523C71.0058 2.86523 71.6472 2.22383 71.6472 1.43262C71.6472 0.641403 71.0058 0 70.2146 0C69.4234 0 68.782 0.641403 68.782 1.43262C68.782 2.22383 69.4234 2.86523 70.2146 2.86523Z" fill="#CFCFCF"/>
<path d="M116.146 59.8189C103.91 59.8189 91.4553 59.3219 79.8043 56.0766C68.3727 52.9044 57.8765 46.75 48.5207 39.6307C42.3955 34.9967 36.8259 31.3128 28.8734 31.8683C21.0868 32.2946 13.6444 35.2162 7.64726 40.2009C-2.46877 48.972 -0.94844 65.3886 3.10089 76.9226C9.1822 94.2894 27.6893 106.32 43.4188 114.185C61.5896 123.263 81.5586 128.526 101.571 131.567C119.114 134.227 141.655 136.172 156.859 124.711C170.819 114.185 174.649 90.1524 171.229 73.9258C170.4 69.1279 167.847 64.7977 164.051 61.7486C154.242 54.5855 139.609 59.3658 128.586 59.6143C124.493 59.702 120.327 59.8043 116.146 59.8189Z" fill="white"/>
<path d="M86.2074 160C115.846 160 139.872 158.501 139.872 156.652C139.872 154.803 115.846 153.305 86.2074 153.305C56.5692 153.305 32.5427 154.803 32.5427 156.652C32.5427 158.501 56.5692 160 86.2074 160Z" fill="#F2F2F2"/>
<path d="M109.002 4.85504L37.5531 14.5153C35.2649 14.8246 33.6607 16.9304 33.9701 19.2186L47.8258 121.698C48.1352 123.986 50.241 125.59 52.5292 125.281L123.978 115.621C126.266 115.311 127.87 113.205 127.561 110.917L113.705 8.43806C113.396 6.14983 111.29 4.54566 109.002 4.85504Z" fill="#D2D2D2"/>
<path d="M132.738 19.8955H60.6396C58.3306 19.8955 56.4587 21.7674 56.4587 24.0764V127.488C56.4587 129.797 58.3306 131.669 60.6396 131.669H132.738C135.047 131.669 136.919 129.797 136.919 127.488V24.0764C136.919 21.7674 135.047 19.8955 132.738 19.8955Z" fill="white" stroke="#BABABA" stroke-linecap="round" stroke-linejoin="round"/>
<path d="M114.012 100.181H79.3511C78.0513 100.181 76.9976 101.235 76.9976 102.534V102.549C76.9976 103.849 78.0513 104.903 79.3511 104.903H114.012C115.312 104.903 116.365 103.849 116.365 102.549V102.534C116.365 101.235 115.312 100.181 114.012 100.181Z" fill="#D2D2D2"/>
<path d="M112.769 119.477H79.5122C79.1166 119.477 78.7959 119.798 78.7959 120.194V120.413C78.7959 120.808 79.1166 121.129 79.5122 121.129H112.769C113.165 121.129 113.486 120.808 113.486 120.413V120.194C113.486 119.798 113.165 119.477 112.769 119.477Z" fill="#D2D2D2"/>
<path d="M121.248 111.744H72.2612C71.7365 111.744 71.311 112.169 71.311 112.694C71.311 113.219 71.7365 113.644 72.2612 113.644H121.248C121.773 113.644 122.198 113.219 122.198 112.694C122.198 112.169 121.773 111.744 121.248 111.744Z" fill="#D2D2D2"/>
<path d="M130.209 23.3018H63.1686C61.5055 23.3018 60.1572 24.65 60.1572 26.3132V84.4511C60.1572 86.1142 61.5055 87.4625 63.1686 87.4625H130.209C131.872 87.4625 133.221 86.1142 133.221 84.4511V26.3132C133.221 24.65 131.872 23.3018 130.209 23.3018Z" fill="white" stroke="#BABABA" stroke-linecap="round" stroke-linejoin="round"/>
<path d="M105.635 69.4378C106.113 69.4264 106.576 69.27 106.962 68.9894C107.349 68.7087 107.641 68.3171 107.799 67.8666C107.958 67.416 107.976 66.9278 107.85 66.4669C107.725 66.006 107.462 65.5942 107.097 65.2861C104.048 62.7605 100.204 61.3943 96.2448 61.4291C92.2856 61.4639 88.4662 62.8974 85.4618 65.4762C85.0998 65.7831 84.8397 66.193 84.7162 66.6512C84.5926 67.1095 84.6114 67.5946 84.77 68.0419C84.9286 68.4893 85.2196 68.8778 85.6043 69.1558C85.989 69.4339 86.4491 69.5883 86.9237 69.5986L105.635 69.4378Z" fill="white" stroke="#BABABA" stroke-linecap="round" stroke-linejoin="round"/>
<path d="M117.579 54.8048L109.056 49.893L117.579 44.9666" stroke="#BABABA" stroke-width="0.71" stroke-linecap="round" stroke-linejoin="round"/>
<path d="M75.0974 54.8048L83.62 49.893L75.0974 44.9666" stroke="#BABABA" stroke-width="0.71" stroke-linecap="round" stroke-linejoin="round"/>
<path d="M28.3618 85.9858V92.2864" stroke="#BABABA" stroke-linecap="round" stroke-linejoin="round"/>
<path d="M25.2188 89.1292H31.5193" stroke="#BABABA" stroke-linecap="round" stroke-linejoin="round"/>
<path d="M147.517 90.4451C148.309 90.4451 148.95 89.8037 148.95 89.0124C148.95 88.2212 148.309 87.5798 147.517 87.5798C146.726 87.5798 146.085 88.2212 146.085 89.0124C146.085 89.8037 146.726 90.4451 147.517 90.4451Z" fill="#CFCFCF"/>
</svg>
