<svg width="24" height="24" viewBox="0 0 24 24" fill="none" xmlns="http://www.w3.org/2000/svg">
<path opacity="0.985" fill-rule="evenodd" clip-rule="evenodd" d="M13.6641 4.9453C15.1585 4.90274 16.2054 5.55899 16.8048 6.91405C17.6168 6.9531 18.4293 6.97654 19.2423 6.98437C19.8877 7.23623 20.1143 7.69715 19.9219 8.36718C19.8056 8.6638 19.5947 8.85909 19.2891 8.95312C18.4606 8.96094 17.6324 8.98438 16.8048 9.02343C16.1182 10.5388 14.9464 11.1716 13.2891 10.9219C12.2416 10.6484 11.5229 10.0078 11.1329 8.99999C8.97663 8.98438 6.82038 8.96873 4.66413 8.95312C4.05601 8.6818 3.84508 8.22088 4.03132 7.5703C4.14851 7.3281 4.32819 7.14843 4.57038 7.03124C6.75513 6.96941 8.94265 6.93819 11.1329 6.93749C11.6017 5.7899 12.4454 5.12582 13.6641 4.9453Z" fill="#890101"/>
<path opacity="0.985" fill-rule="evenodd" clip-rule="evenodd" d="M9.53888 12.9603C11.1044 12.8641 12.1981 13.5281 12.8201 14.9525C14.9764 14.9681 17.1326 14.9838 19.2889 14.9994C19.8376 15.2292 20.0641 15.6432 19.9686 16.2416C19.8514 16.6087 19.6092 16.8509 19.242 16.9681C17.1014 16.9837 14.9608 16.9994 12.8201 17.015C12.09 18.5832 10.8713 19.2082 9.16388 18.89C8.18522 18.6066 7.51336 17.9895 7.14825 17.0384C6.33619 16.9994 5.52371 16.9759 4.71075 16.9681C4.06531 16.7163 3.83875 16.2553 4.03107 15.5853C4.14741 15.2887 4.35835 15.0934 4.66388 14.9994C5.49244 14.9915 6.32058 14.9681 7.14825 14.9291C7.59244 13.8403 8.38932 13.1841 9.53888 12.9603Z" fill="#890101"/>
</svg>
