<svg width="50" height="50" viewBox="0 0 50 50" fill="none" xmlns="http://www.w3.org/2000/svg">
<path opacity="0.942" fill-rule="evenodd" clip-rule="evenodd" d="M2.09961 1.12329C5.81069 1.10701 9.52163 1.12329 13.2324 1.17212C12.374 1.91688 11.8206 2.84461 11.5723 3.95532C9.32688 4.06924 7.08078 4.08551 4.83398 4.00415C3.13481 3.78621 2.22336 2.82592 2.09961 1.12329Z" fill="#890101"/>
<path opacity="0.946" fill-rule="evenodd" clip-rule="evenodd" d="M15.2831 1.51291C17.2535 1.27538 18.5231 2.08918 19.0917 3.95431C22.2926 3.7709 25.32 4.40567 28.1738 5.85861C30.4492 7.35298 32.2559 9.28983 33.5937 11.6692C33.7479 12.0104 33.927 12.3359 34.1308 12.6457C33.7009 12.9133 33.2452 13.0924 32.7636 13.1828C31.8056 11.4631 30.6337 9.9006 29.248 8.49533C27.932 7.29995 26.402 6.48615 24.6581 6.05392C22.9528 5.5126 21.2113 5.30101 19.4335 5.41916C19.3196 5.4517 19.2057 5.48426 19.0917 5.51681C18.5914 6.97634 17.566 7.75759 16.0156 7.86056C14.4051 7.7718 13.3634 6.958 12.8906 5.41916C12.6326 3.45137 13.4301 2.14928 15.2831 1.51291Z" fill="#890101"/>
<path opacity="0.948" fill-rule="evenodd" clip-rule="evenodd" d="M8.93539 5.3225C9.81489 5.30625 10.6938 5.32252 11.5721 5.37132C11.6855 5.8579 11.8483 6.3299 12.0604 6.78734C12.0279 6.85245 11.9953 6.91754 11.9627 6.98265C10.6806 7.69557 9.41106 8.42799 8.15414 9.17992C6.715 9.83588 5.46175 9.59174 4.39438 8.4475C4.26077 8.30169 4.2445 8.1552 4.34555 8.00804C5.88165 7.11027 7.4116 6.21508 8.93539 5.3225Z" fill="#890101"/>
<path opacity="0.978" fill-rule="evenodd" clip-rule="evenodd" d="M13.8186 8.54492C15.2672 9.32367 16.7158 9.32367 18.1643 8.54492C18.2131 9.61865 18.2294 10.6929 18.2131 11.7676C19.3635 11.7164 20.5029 11.7979 21.6311 12.0117C23.5298 12.6409 24.718 13.9268 25.1956 15.8691C25.3256 17.3308 25.3745 18.7956 25.342 20.2637C19.1246 20.2637 12.9072 20.2637 6.68969 20.2637C6.67342 18.9612 6.6897 17.6591 6.73852 16.3574C6.9925 14.4004 8.01789 13.017 9.81469 12.207C10.3448 11.9761 10.8982 11.8458 11.4748 11.8164C12.2554 11.7676 13.0367 11.7514 13.8186 11.7676C13.8186 10.6934 13.8186 9.61914 13.8186 8.54492Z" fill="#133769"/>
<path opacity="0.968" fill-rule="evenodd" clip-rule="evenodd" d="M35.791 13.4277C36.0503 13.4767 36.2619 13.6068 36.4258 13.8184C37.7317 16.1051 38.9851 18.4163 40.1855 20.752C40.1439 21.1028 39.9486 21.3145 39.5996 21.3867C37.8331 22.0732 36.059 22.7405 34.2773 23.3887C34.0333 23.3317 33.838 23.2016 33.6914 22.998C33.1141 20.4444 32.5443 17.8891 31.9824 15.332C31.9937 15.147 32.0588 14.9842 32.1777 14.8438C33.3918 14.3658 34.5962 13.8938 35.791 13.4277Z" fill="#890101"/>
<path opacity="0.989" fill-rule="evenodd" clip-rule="evenodd" d="M6.68945 21.5332C12.9069 21.5332 19.1243 21.5332 25.3418 21.5332C25.3418 27.0345 25.3418 32.5358 25.3418 38.0371C19.1243 38.0371 12.9069 38.0371 6.68945 38.0371C6.68945 32.5358 6.68945 27.0345 6.68945 21.5332Z" fill="#133769"/>
<path opacity="0.973" fill-rule="evenodd" clip-rule="evenodd" d="M39.7947 25.3418C43.6692 28.5024 45.2969 32.5715 44.6775 37.5488C45.543 37.026 46.3079 36.3749 46.9725 35.5957C47.8694 37.7149 48.0322 39.896 47.4608 42.1387C46.372 45.3425 44.1422 47.1491 40.7713 47.5586C38.4748 47.9253 36.3914 47.437 34.5213 46.0938C32.5346 44.1585 31.7045 41.7985 32.0311 39.0137C32.1548 37.705 32.4478 36.4354 32.91 35.2051C33.5447 33.6758 34.2283 32.1784 34.9608 30.7129C35.9183 30.9716 36.6507 31.5249 37.158 32.373C38.253 31.0289 38.9855 29.4989 39.3553 27.7832C39.5232 26.9711 39.6696 26.1573 39.7947 25.3418ZM40.1854 35.4004C40.6211 36.3702 41.0931 37.3468 41.6014 38.3301C42.3326 39.1742 42.7721 40.1508 42.9197 41.2598C42.6992 43.0585 41.6738 44.0025 39.8436 44.0918C37.9594 43.8512 36.9665 42.777 36.865 40.8691C36.9223 40.0301 37.1664 39.2488 37.5975 38.5254C38.444 37.4676 39.3066 36.426 40.1854 35.4004Z" fill="#890101"/>
<path opacity="0.955" fill-rule="evenodd" clip-rule="evenodd" d="M6.68945 39.3066C12.9069 39.3066 19.1243 39.3066 25.3418 39.3066C25.3418 40.9343 25.3418 42.5618 25.3418 44.1895C19.1243 44.1895 12.9069 44.1895 6.68945 44.1895C6.68945 42.5618 6.68945 40.9343 6.68945 39.3066Z" fill="#133769"/>
<path opacity="0.973" fill-rule="evenodd" clip-rule="evenodd" d="M6.68968 45.459C12.9072 45.459 19.1245 45.459 25.342 45.459C25.3792 46.3445 25.3304 47.2234 25.1955 48.0957C25.0429 48.4109 24.7988 48.6226 24.4631 48.7305C18.8316 48.7956 13.2001 48.7956 7.56859 48.7305C7.16168 48.584 6.88499 48.3073 6.73851 47.9004C6.68971 47.0872 6.67343 46.2734 6.68968 45.459Z" fill="#133769"/>
</svg>
