<svg width="15" height="16" viewBox="0 0 15 16" fill="none" xmlns="http://www.w3.org/2000/svg">
<g clip-path="url(#clip0_724_41972)">
<path opacity="0.942" fill-rule="evenodd" clip-rule="evenodd" d="M0.629883 0.837769C1.74321 0.832885 2.85649 0.837769 3.96973 0.852417C3.71221 1.07584 3.54618 1.35416 3.47168 1.68738C2.79806 1.72155 2.12423 1.72643 1.4502 1.70203C0.940444 1.63664 0.667008 1.34856 0.629883 0.837769Z" fill="#3F3838"/>
<path opacity="0.946" fill-rule="evenodd" clip-rule="evenodd" d="M4.58499 0.953481C5.17611 0.882222 5.55697 1.12636 5.72757 1.6859C6.68783 1.63088 7.59604 1.82131 8.45218 2.25719C9.13482 2.7055 9.67682 3.28656 10.0782 4.00036C10.1244 4.10272 10.1781 4.20037 10.2393 4.29332C10.1103 4.3736 9.97362 4.42733 9.82913 4.45446C9.54173 3.93854 9.19017 3.46979 8.77444 3.04821C8.37964 2.68959 7.92064 2.44545 7.39749 2.31579C6.88588 2.15339 6.36343 2.08991 5.83011 2.12536C5.79592 2.13512 5.76176 2.14489 5.72757 2.15465C5.57748 2.59251 5.26986 2.82689 4.80472 2.85778C4.32158 2.83115 4.00907 2.58701 3.86722 2.12536C3.78981 1.53502 4.02908 1.14439 4.58499 0.953481Z" fill="#3F3838"/>
<path opacity="0.948" fill-rule="evenodd" clip-rule="evenodd" d="M2.68072 2.09753C2.94456 2.09266 3.20824 2.09754 3.47173 2.11218C3.50574 2.25815 3.55458 2.39975 3.61822 2.53698C3.60846 2.55652 3.59867 2.57604 3.58892 2.59558C3.20428 2.80945 2.82341 3.02918 2.44634 3.25476C2.0146 3.45154 1.63862 3.3783 1.31841 3.03503C1.27833 2.99129 1.27345 2.94734 1.30376 2.90319C1.76459 2.63386 2.22358 2.36531 2.68072 2.09753Z" fill="#3F3838"/>
<path opacity="0.978" fill-rule="evenodd" clip-rule="evenodd" d="M4.14538 3.0625C4.57997 3.29612 5.01453 3.29612 5.4491 3.0625C5.46374 3.38462 5.46864 3.70688 5.46374 4.0293C5.80886 4.01395 6.15067 4.03838 6.48913 4.10254C7.05875 4.2913 7.41521 4.67705 7.55847 5.25977C7.59749 5.69825 7.61214 6.13771 7.60242 6.57812C5.73717 6.57812 3.87196 6.57812 2.00671 6.57812C2.00183 6.18739 2.00672 5.79675 2.02136 5.40625C2.09755 4.81914 2.40517 4.40412 2.94421 4.16113C3.10324 4.09185 3.26926 4.05276 3.44226 4.04395C3.67643 4.0293 3.9108 4.02443 4.14538 4.0293C4.14538 3.70703 4.14538 3.38477 4.14538 3.0625Z" fill="#3F3838"/>
<path opacity="0.968" fill-rule="evenodd" clip-rule="evenodd" d="M10.7373 4.52734C10.8151 4.54202 10.8786 4.58107 10.9277 4.64453C11.3195 5.33055 11.6955 6.02392 12.0557 6.72461C12.0432 6.82987 11.9846 6.89336 11.8799 6.91504C11.3499 7.121 10.8177 7.32118 10.2832 7.51562C10.21 7.49854 10.1514 7.45949 10.1074 7.39844C9.93422 6.63235 9.7633 5.86574 9.59473 5.09863C9.5981 5.04312 9.61764 4.99428 9.65332 4.95215C10.0175 4.80877 10.3789 4.66718 10.7373 4.52734Z" fill="#3F3838"/>
<path opacity="0.989" fill-rule="evenodd" clip-rule="evenodd" d="M2.00684 6.96094C3.87208 6.96094 5.73729 6.96094 7.60254 6.96094C7.60254 8.61132 7.60254 10.2617 7.60254 11.9121C5.73729 11.9121 3.87208 11.9121 2.00684 11.9121C2.00684 10.2617 2.00684 8.61132 2.00684 6.96094Z" fill="#3F3838"/>
<path opacity="0.973" fill-rule="evenodd" clip-rule="evenodd" d="M11.9387 8.10156C13.1011 9.04976 13.5894 10.2705 13.4036 11.7637C13.6632 11.6068 13.8927 11.4115 14.092 11.1777C14.3611 11.8135 14.41 12.4678 14.2385 13.1406C13.9119 14.1018 13.243 14.6438 12.2317 14.7666C11.5427 14.8766 10.9177 14.7301 10.3567 14.3271C9.76067 13.7466 9.51164 13.0386 9.60961 12.2031C9.64673 11.8105 9.73462 11.4297 9.87328 11.0605C10.0637 10.6018 10.2688 10.1525 10.4885 9.71289C10.7758 9.7905 10.9955 9.95649 11.1477 10.2109C11.4762 9.8077 11.6959 9.3487 11.8069 8.83398C11.8572 8.59035 11.9012 8.34622 11.9387 8.10156ZM12.0559 11.1191C12.1866 11.4101 12.3282 11.7031 12.4807 11.998C12.7001 12.2513 12.8319 12.5443 12.8762 12.877C12.8101 13.4166 12.5024 13.6998 11.9534 13.7266C11.3881 13.6544 11.0902 13.3321 11.0598 12.7598C11.077 12.508 11.1502 12.2737 11.2795 12.0566C11.5335 11.7393 11.7923 11.4268 12.0559 11.1191Z" fill="#3F3838"/>
<path opacity="0.955" fill-rule="evenodd" clip-rule="evenodd" d="M2.00684 12.293C3.87208 12.293 5.73729 12.293 7.60254 12.293C7.60254 12.7813 7.60254 13.2695 7.60254 13.7578C5.73729 13.7578 3.87208 13.7578 2.00684 13.7578C2.00684 13.2695 2.00684 12.7813 2.00684 12.293Z" fill="#3F3838"/>
<path opacity="0.973" fill-rule="evenodd" clip-rule="evenodd" d="M2.00671 14.1367C3.87195 14.1367 5.73717 14.1367 7.60241 14.1367C7.61357 14.4024 7.59893 14.6661 7.55847 14.9277C7.51268 15.0223 7.43943 15.0858 7.33874 15.1182C5.64928 15.1377 3.95984 15.1377 2.27038 15.1182C2.14831 15.0742 2.0653 14.9912 2.02136 14.8691C2.00672 14.6252 2.00183 14.3811 2.00671 14.1367Z" fill="#3F3838"/>
</g>
<defs>
<clipPath id="clip0_724_41972">
<rect width="15" height="15" fill="white" transform="translate(0 0.5)"/>
</clipPath>
</defs>
</svg>
