<svg width="24" height="25" viewBox="0 0 24 25" fill="none" xmlns="http://www.w3.org/2000/svg">
<g clip-path="url(#clip0_369_27137)">
<path opacity="0.977" fill-rule="evenodd" clip-rule="evenodd" d="M11.461 0.946086C12.3884 0.804463 13.0837 1.13259 13.547 1.93046C13.6231 2.17313 13.631 2.41532 13.5704 2.65702C15.4973 3.37246 16.4817 4.75527 16.5235 6.80546C13.461 6.80546 10.3985 6.80546 7.33603 6.80546C7.32553 4.8011 8.24742 3.4261 10.1017 2.68046C10.0961 1.73677 10.5493 1.15865 11.461 0.946086Z" fill="#133769"/>
<path opacity="0.982" fill-rule="evenodd" clip-rule="evenodd" d="M6.63282 7.74122C10.1485 7.73339 13.6641 7.74122 17.1797 7.76466C17.349 7.80633 17.4662 7.90786 17.5313 8.06934C17.5625 8.69433 17.5625 9.31936 17.5313 9.94434C17.4766 10.0615 17.3906 10.1475 17.2734 10.2022C13.7109 10.2334 10.1484 10.2334 6.58595 10.2022C6.45315 10.1631 6.36718 10.0771 6.32814 9.94434C6.29687 9.31936 6.29687 8.69433 6.32814 8.06934C6.37586 7.90458 6.47743 7.79522 6.63282 7.74122Z" fill="#133769"/>
<path opacity="0.974" fill-rule="evenodd" clip-rule="evenodd" d="M7.24219 11.1641C10.4141 11.1641 13.5859 11.1641 16.7578 11.1641C16.7578 13.6953 16.7578 16.2266 16.7578 18.7578C13.5859 18.7578 10.4141 18.7578 7.24219 18.7578C7.24219 16.2266 7.24219 13.6953 7.24219 11.1641ZM11.5547 12.6172C12.738 12.5172 13.6052 12.986 14.1562 14.0234C14.6015 15.3901 14.2031 16.4292 12.9609 17.1406C11.5572 17.6065 10.5025 17.1924 9.79688 15.8984C9.38573 14.6945 9.69042 13.718 10.7109 12.9688C10.9841 12.8182 11.2654 12.701 11.5547 12.6172Z" fill="#133769"/>
<path opacity="0.975" fill-rule="evenodd" clip-rule="evenodd" d="M3.91414 11.7725C4.60182 11.7646 5.28932 11.7725 5.97664 11.7959C6.10302 11.8282 6.2046 11.8986 6.28133 12.0068C6.35867 13.9416 6.37428 15.879 6.32821 17.8193C6.25789 17.9521 6.15632 18.0537 6.02352 18.124C5.30478 18.1553 4.58602 18.1553 3.86727 18.124C3.71465 18.0496 3.61308 17.9325 3.56258 17.7725C3.53918 17.5386 3.53137 17.3042 3.53914 17.0693C3.00767 17.0772 2.47641 17.0693 1.94539 17.0459C1.74522 16.9864 1.62804 16.8535 1.59383 16.6475C1.58602 16.0928 1.57821 15.5381 1.57039 14.9834C1.5639 14.3787 1.58733 13.7772 1.64071 13.1787C1.71303 13.0907 1.79897 13.0204 1.89852 12.9678C2.44517 12.9443 2.99205 12.9365 3.53914 12.9443C3.53136 12.6938 3.53917 12.4439 3.56258 12.1943C3.60583 11.9874 3.72302 11.8468 3.91414 11.7725Z" fill="#890101"/>
<path opacity="0.974" fill-rule="evenodd" clip-rule="evenodd" d="M17.9766 11.7725C18.6642 11.7646 19.3517 11.7725 20.0391 11.7959C20.2392 11.8554 20.3564 11.9883 20.3906 12.1943C20.414 12.4439 20.4219 12.6938 20.4141 12.9443C20.9768 12.9365 21.5393 12.9443 22.1016 12.9678C22.2498 13.0372 22.3358 13.1543 22.3594 13.3193C22.3907 14.4287 22.3907 15.5381 22.3594 16.6475C22.3252 16.8535 22.208 16.9864 22.0078 17.0459C21.4768 17.0693 20.9455 17.0772 20.4141 17.0693C20.431 17.355 20.4076 17.6362 20.3438 17.9131C20.2714 18.0011 20.1855 18.0714 20.0859 18.124C19.3516 18.1553 18.6172 18.1553 17.8828 18.124C17.7478 18.0654 17.6619 17.9639 17.625 17.8193C17.5937 15.9287 17.5937 14.0381 17.625 12.1475C17.6884 11.967 17.8056 11.842 17.9766 11.7725Z" fill="#890101"/>
<path opacity="0.987" fill-rule="evenodd" clip-rule="evenodd" d="M6.4922 19.6475C10.1641 19.6396 13.836 19.6475 17.5078 19.6709C17.6523 19.7077 17.7539 19.7937 17.8125 19.9287C17.8359 20.4285 17.8438 20.9285 17.8359 21.4287C18.0708 21.4209 18.3052 21.4288 18.5391 21.4522C18.7187 21.5069 18.8359 21.624 18.8906 21.8037C18.9219 22.4131 18.9219 23.0225 18.8906 23.6318C18.8359 23.7803 18.7344 23.8818 18.5859 23.9365C14.1797 23.9678 9.77345 23.9678 5.3672 23.9365C5.21457 23.8621 5.113 23.745 5.06251 23.585C5.03125 22.9756 5.03125 22.3662 5.06251 21.7568C5.13282 21.624 5.2344 21.5225 5.3672 21.4522C5.63237 21.4288 5.89801 21.4209 6.16407 21.4287C6.15625 20.9285 6.16407 20.4285 6.18751 19.9287C6.25482 19.7908 6.3564 19.6971 6.4922 19.6475Z" fill="#890101"/>
</g>
<defs>
<clipPath id="clip0_369_27137">
<rect width="24" height="24" fill="white" transform="translate(0 0.5)"/>
</clipPath>
</defs>
</svg>
