<svg width="24" height="24" viewBox="0 0 24 24" fill="none" xmlns="http://www.w3.org/2000/svg">
<path opacity="0.982" fill-rule="evenodd" clip-rule="evenodd" d="M3.63281 2.36621C8.99222 2.3584 14.3516 2.36621 19.7109 2.38965C20 2.49121 20.1953 2.68652 20.2969 2.97559C20.3359 5.42888 20.3281 7.88199 20.2734 10.335C19.7891 10.085 19.3047 10.085 18.8203 10.335C18.7813 8.46015 18.7578 6.58515 18.75 4.70996C18.6737 4.24307 18.4003 3.98526 17.9297 3.93652C13.7578 3.90527 9.58594 3.90527 5.41406 3.93652C5.01085 3.99591 4.75303 4.22247 4.64063 4.61621C4.60937 9.52248 4.60937 14.4287 4.64063 19.335C4.75303 19.7287 5.01085 19.9553 5.41406 20.0146C9.58594 20.0459 13.7578 20.0459 17.9297 20.0146C18.4219 19.9599 18.6953 19.6865 18.75 19.1943C18.7578 17.3348 18.7813 15.4754 18.8203 13.6162C19.3047 13.8662 19.7891 13.8662 20.2734 13.6162C20.3281 16.0692 20.3359 18.5223 20.2969 20.9756C20.1953 21.2647 20 21.4599 19.7109 21.5615C14.3672 21.5928 9.02344 21.5928 3.67969 21.5615C3.30192 21.465 3.09098 21.2228 3.04688 20.835C3.01562 14.9131 3.01562 8.9912 3.04688 3.06934C3.11679 2.72634 3.3121 2.49196 3.63281 2.36621Z" fill="#133769"/>
<path opacity="0.948" fill-rule="evenodd" clip-rule="evenodd" d="M12.4453 5.36719C13.0078 5.36719 13.5703 5.36719 14.1328 5.36719C14.1328 6.02344 14.1328 6.67969 14.1328 7.33594C13.3672 7.33594 12.6016 7.33594 11.8359 7.33594C11.8281 6.83569 11.8359 6.33567 11.8594 5.83594C11.9734 5.57259 12.1687 5.41636 12.4453 5.36719Z" fill="#133769"/>
<path opacity="0.923" fill-rule="evenodd" clip-rule="evenodd" d="M14.5547 5.36622C15.2736 5.35839 15.9923 5.36622 16.7109 5.38966C17.0473 5.50787 17.1489 5.73442 17.0156 6.06934C16.9609 6.12405 16.9063 6.1787 16.8516 6.2334C16.0861 6.25684 15.3205 6.26467 14.5547 6.25684C14.5547 5.95998 14.5547 5.66308 14.5547 5.36622Z" fill="#133769"/>
<path opacity="0.957" fill-rule="evenodd" clip-rule="evenodd" d="M9.02344 5.97656C9.80471 5.97656 10.5859 5.97656 11.3672 5.97656C11.3672 6.39844 11.3672 6.82031 11.3672 7.24219C10.6327 7.23436 9.89827 7.24219 9.16407 7.26562C8.4219 7.4453 7.96093 7.90627 7.78126 8.64844C7.75782 10.4453 7.74999 12.2421 7.75782 14.0391C7.33594 14.0391 6.91407 14.0391 6.49219 14.0391C6.48437 12.1952 6.49219 10.3515 6.51563 8.50781C6.8288 7.14 7.66473 6.29625 9.02344 5.97656Z" fill="#133769"/>
<path opacity="0.918" fill-rule="evenodd" clip-rule="evenodd" d="M14.5546 6.39844C15.361 6.72337 16.1579 7.07494 16.9452 7.45312C17.1658 7.75486 17.1189 8.00484 16.8046 8.20312C16.6953 8.23439 16.5859 8.23439 16.4765 8.20312C15.8515 7.92187 15.2265 7.64062 14.6015 7.35937C14.5556 7.04325 14.54 6.72291 14.5546 6.39844Z" fill="#133769"/>
<path opacity="0.987" fill-rule="evenodd" clip-rule="evenodd" d="M11.6016 7.75732C12.6037 7.73655 13.6037 7.75999 14.6016 7.82763C15.344 8.07002 15.7737 8.57782 15.8906 9.35107C15.9219 12.1948 15.9219 15.0386 15.8906 17.8823C15.8245 18.1326 15.6761 18.3123 15.4453 18.4214C13.8538 18.4982 12.26 18.5138 10.6641 18.4683C10.3828 18.4056 10.1874 18.2416 10.0781 17.9761C10.0469 15.0542 10.0469 12.1323 10.0781 9.21044C10.2921 8.41038 10.7999 7.92602 11.6016 7.75732Z" fill="#133769"/>
<path opacity="0.959" fill-rule="evenodd" clip-rule="evenodd" d="M19.2421 10.6167C20.2275 10.5559 20.79 11.0091 20.9296 11.9761C20.761 13.0576 20.1361 13.4873 19.0546 13.2652C18.3961 12.972 18.1071 12.4642 18.1874 11.7417C18.3083 11.1444 18.6599 10.7694 19.2421 10.6167Z" fill="#133769"/>
<path opacity="0.956" fill-rule="evenodd" clip-rule="evenodd" d="M6.02345 14.5068C6.6955 14.499 7.3674 14.5068 8.03907 14.5303C8.09378 14.585 8.14843 14.6396 8.20314 14.6943C8.24706 15.0898 8.23145 15.4804 8.15626 15.8662C8.11393 15.9225 8.05928 15.9616 7.9922 15.9834C7.30032 16.0287 6.61281 16.0131 5.9297 15.9365C5.8644 15.8816 5.82531 15.8113 5.81251 15.7256C5.78125 15.3975 5.78125 15.0693 5.81251 14.7412C5.86056 14.6387 5.93087 14.5606 6.02345 14.5068Z" fill="#133769"/>
<path opacity="0.95" fill-rule="evenodd" clip-rule="evenodd" d="M6.16406 16.4297C6.72656 16.4297 7.28906 16.4297 7.85156 16.4297C7.98905 17.145 8.09063 17.8637 8.15625 18.5859C8.13281 18.6406 8.09377 18.6797 8.03906 18.7031C7.35155 18.7344 6.66408 18.7344 5.97656 18.7031C5.93752 18.6641 5.89842 18.625 5.85938 18.5859C5.94534 17.8667 6.04692 17.148 6.16406 16.4297Z" fill="#133769"/>
</svg>
