<svg width="15" height="20" viewBox="0 0 15 20" fill="none" xmlns="http://www.w3.org/2000/svg">
<path opacity="0.987" fill-rule="evenodd" clip-rule="evenodd" d="M0.867317 0.880859C5.27346 0.880859 9.67961 0.880859 14.0858 0.880859C14.1677 0.933356 14.2329 1.00442 14.2812 1.09406C14.4446 1.86599 14.2136 2.4819 13.5883 2.9418C13.5673 3.72427 13.5377 4.50602 13.4995 5.28701C13.3478 6.37177 12.9096 7.31934 12.1847 8.12968C11.5199 8.75315 10.8507 9.36905 10.1771 9.97742C10.8507 10.5858 11.5199 11.2017 12.1847 11.8252C12.9096 12.6355 13.3478 13.5831 13.4995 14.6678C13.5377 15.4488 13.5673 16.2306 13.5883 17.013C14.2136 17.473 14.4446 18.0889 14.2812 18.8608C14.2329 18.9504 14.1677 19.0215 14.0858 19.074C9.67961 19.074 5.27346 19.074 0.867317 19.074C0.785341 19.0215 0.720198 18.9504 0.671883 18.8608C0.508458 18.0889 0.739425 17.473 1.36479 17.013C1.38582 16.2306 1.41543 15.4488 1.45362 14.6678C1.60528 13.5831 2.04351 12.6355 2.76836 11.8252C3.43315 11.2017 4.10239 10.5858 4.776 9.97742C4.10239 9.36905 3.43315 8.75315 2.76836 8.12968C2.04351 7.31934 1.60528 6.37177 1.45362 5.28701C1.41543 4.50602 1.38582 3.72427 1.36479 2.9418C0.739425 2.4819 0.508458 1.86599 0.671883 1.09406C0.720198 1.00442 0.785341 0.933356 0.867317 0.880859ZM2.92826 3.155C5.96043 3.155 8.99264 3.155 12.0248 3.155C12.0422 3.85611 12.0126 4.55495 11.936 5.25147C11.7583 6.06309 11.3734 6.756 10.7811 7.33018C9.97106 8.0336 9.17155 8.7502 8.38264 9.47995C8.16944 9.81159 8.16944 10.1433 8.38264 10.4749C9.17155 11.2046 9.97106 11.9212 10.7811 12.6247C11.5623 13.3877 11.971 14.3175 12.0071 15.414C12.0248 15.8758 12.0308 16.3378 12.0248 16.7998C11.7166 16.8057 11.4087 16.7998 11.1009 16.7821C9.97983 15.3175 8.87236 13.8429 7.77857 12.3582C7.5772 12.216 7.37587 12.216 7.1745 12.3582C6.08071 13.8429 4.97324 15.3175 3.85213 16.7821C3.54441 16.7998 3.23644 16.8057 2.92826 16.7998C2.91085 16.0987 2.94044 15.3999 3.01709 14.7034C3.19476 13.8918 3.57969 13.1988 4.17193 12.6247C4.98202 11.9212 5.78152 11.2046 6.57044 10.4749C6.78364 10.1433 6.78364 9.81159 6.57044 9.47995C5.78152 8.7502 4.98202 8.0336 4.17193 7.33018C3.39076 6.5671 2.98213 5.6373 2.94602 4.5408C2.92826 4.07902 2.92232 3.61709 2.92826 3.155Z" fill="#133769"/>
</svg>
