<svg width="57" height="57" viewBox="0 0 57 57" fill="none" xmlns="http://www.w3.org/2000/svg">
<path opacity="0.959" fill-rule="evenodd" clip-rule="evenodd" d="M37.3503 2.83855C41.4213 2.6547 44.8539 4.02775 47.6481 6.95769C48.1915 8.08273 47.9503 8.99191 46.9245 9.68523C46.2221 9.94071 45.5542 9.8665 44.9206 9.46257C43.1186 7.54156 40.8921 6.55817 38.2409 6.51238C37.2087 6.58297 36.1881 6.73141 35.1794 6.95769C33.4964 6.63533 32.9769 5.67048 33.6208 4.06316C33.8293 3.81724 34.0706 3.61315 34.3444 3.45085C35.3475 3.17291 36.3494 2.96881 37.3503 2.83855Z" fill="#890101"/>
<path opacity="0.982" fill-rule="evenodd" clip-rule="evenodd" d="M24.2133 6.73469C25.1219 6.6723 25.8827 6.96918 26.4956 7.62531C29.3737 12.491 32.194 17.3895 34.9565 22.3206C35.0401 22.8853 35.003 23.4419 34.8452 23.9905C34.0106 25.1399 33.2313 26.3274 32.5073 27.553C31.3859 30.0324 31.2746 32.5559 32.1733 35.1234C32.4093 35.6513 32.6876 36.1523 33.0083 36.6263C34.2194 37.435 35.1657 37.1937 35.8471 35.9027C35.9601 35.0902 35.7745 34.3481 35.2905 33.6761C34.6342 31.0813 35.2279 28.8175 37.0717 26.8851C37.8194 26.2486 38.5987 25.6549 39.4096 25.1038C39.6057 24.7755 39.7356 24.4229 39.7993 24.0462C39.6729 23.515 39.4689 23.014 39.187 22.5433C37.8772 20.3803 36.6154 18.1909 35.4018 15.9749C35.2265 14.2935 35.9501 13.1987 37.5727 12.6907C38.6839 12.3849 39.6302 12.6632 40.4116 13.5257C42.3503 16.9209 44.3171 20.2979 46.312 23.6566C48.3195 27.4674 48.5792 31.401 47.0913 35.4573C44.672 40.9928 40.5343 44.5368 34.6782 46.0892C29.6415 47.3379 25.0398 46.4473 20.8735 43.4173C19.8773 42.5331 19.0053 41.5498 18.2573 40.4671C15.1119 35.1044 11.9947 29.7236 8.90573 24.3245C8.70793 22.7357 9.35735 21.641 10.854 21.0404C11.966 20.6749 12.9494 20.879 13.8042 21.6527C15.1772 24.0276 16.5503 26.4027 17.9233 28.7777C18.697 29.6738 19.5691 29.7852 20.5395 29.1116C21.1615 28.44 21.2544 27.6978 20.8178 26.8851C17.7839 21.7452 14.7781 16.5869 11.8003 11.4105C11.4995 9.62878 12.2231 8.45984 13.9712 7.90363C15.0528 7.64585 15.9619 7.92417 16.6987 8.73859C19.4076 13.3773 22.1167 18.0159 24.8257 22.6546C25.7635 23.6744 26.6912 23.6744 27.6089 22.6546C27.9402 22.153 28.0144 21.6335 27.8315 21.096C25.8928 17.7008 23.926 14.3238 21.9311 10.9652C21.154 9.45345 21.4694 8.21029 22.8774 7.23566C23.3152 7.00985 23.7605 6.84285 24.2133 6.73469Z" fill="#133769"/>
<path opacity="0.955" fill-rule="evenodd" clip-rule="evenodd" d="M11.0774 42.0257C11.8435 42.0146 12.4558 42.3115 12.9144 42.9163C15.0379 46.4866 18.0252 49.0656 21.8763 50.6536C22.8112 51.5563 22.8855 52.521 22.0989 53.5482C21.3691 54.1135 20.5898 54.1877 19.761 53.7708C15.3657 51.7498 11.9702 48.6511 9.57452 44.4749C9.31663 43.1696 9.8176 42.3532 11.0774 42.0257Z" fill="#890101"/>
</svg>
