<svg width="32" height="33" viewBox="0 0 32 33" fill="none" xmlns="http://www.w3.org/2000/svg">
    <path
        d="M3.58 17.1999L11.02 20.9999C11.24 21.1099 11.72 21.3799 11.99 20.9399C12.24 20.5299 11.82 20.1999 11.62 20.0499L2.96 13.4199C2.33 12.9199 2.19 11.9499 2.67 11.2899C3.15 10.5999 4.15 10.3999 4.83 10.8699L13.63 17.1799C13.79 17.2999 14.23 17.6199 14.55 17.2499C14.87 16.8999 14.52 16.4999 14.38 16.3499L6.21 7.7299C5.62 7.0799 5.66 5.9999 6.45 5.2699C7.08 4.6899 8.19 4.6699 8.79 5.2899L16.82 13.6499C16.94 13.7699 17.31 14.1499 17.69 13.8699C18.08 13.5699 17.8 13.1299 17.73 12.9599L12.74 4.6799C12.4 4.1499 12.39 3.0599 13.31 2.5099C14.26 1.9499 15.17 2.5099 15.52 3.0999L21.07 12.0199C21.86 13.3399 23.1 14.4499 24.2 14.9699C25.05 15.3699 25.71 14.8599 25.82 13.9699C25.99 12.5899 26.26 10.8799 26.74 9.4399C27.24 7.9299 29 7.1799 30.5 7.9399L29.99 9.9499C29.48 11.9899 29.42 14.1299 29.77 16.2099C30.07 17.9499 30.37 20.1899 30.33 22.1799C30.28 25.1799 28.26 26.4899 26.45 28.1199C18.64 35.2099 12.96 25.5699 10.19 24.1999L2.14 19.7299C1.46 19.3399 1.31 18.4299 1.71 17.7699C2.1 17.1299 2.9 16.8499 3.58 17.1999Z"
        fill="#FEBE00" />
    <path
        d="M28.16 7.89994C28.4 7.94994 28.63 8.01994 28.86 8.12994L28.35 10.1399C27.84 12.1799 27.78 14.3199 28.13 16.3999C28.43 18.1399 28.73 20.3799 28.69 22.3699C28.64 25.3699 26.62 26.6799 24.81 28.3099C23.33 29.6499 21.93 30.3899 20.61 30.6999C22.39 30.7299 24.34 30.0399 26.44 28.1299C28.25 26.4999 30.26 25.1899 30.32 22.1899C30.36 20.1899 30.06 17.9499 29.76 16.2199C29.4 14.1399 29.47 11.9999 29.98 9.95994L30.49 7.94994C29.72 7.55994 28.87 7.57994 28.16 7.89994Z"
        fill="#FEBE00" />
    <path
        d="M28.14 15.4099C28.44 17.1499 28.74 19.3899 28.7 21.3799C28.65 24.3799 26.63 25.6899 24.82 27.3199C21.7 30.1499 18.92 30.3099 16.53 29.3999C19.25 31.0499 22.59 31.6399 26.45 28.1299C28.26 26.4999 30.27 25.1899 30.33 22.1899C30.37 20.1899 30.07 17.9499 29.77 16.2199C29.42 14.1399 27.78 13.3299 28.14 15.4099Z"
        fill="#FEBE00" />
    <path
        d="M7.14998 5.46994L16.05 14.6399C16.17 14.7599 16.54 15.1399 16.92 14.8599C17.31 14.5599 17.03 14.1199 16.96 13.9499L16.57 13.2999L8.78998 5.29994C8.23998 4.72994 7.27998 4.69994 6.63998 5.12994C6.82998 5.20994 6.99998 5.31994 7.14998 5.46994Z"
        fill="#FEBE00" />
    <path
        d="M3.10999 11.1099L12.87 18.0999C13.05 18.2299 13.54 18.5799 13.89 18.1699C14.2 17.8399 13.95 17.4599 13.78 17.2599L4.91999 10.9099C4.32999 10.4999 3.48999 10.5599 2.90999 10.9999C2.97999 11.0399 3.04999 11.0699 3.10999 11.1099Z"
        fill="#FEBE00" />
    <path
        d="M13.88 3.2799L19.43 12.1999C20.22 13.5199 21.46 14.6299 22.56 15.1499C23.15 15.4299 23.65 15.2499 23.94 14.8199C22.91 14.2599 21.81 13.2399 21.07 12.0199L15.52 3.0999C15.17 2.5099 14.26 1.9499 13.31 2.5099C13.25 2.5399 13.21 2.5799 13.16 2.6199C13.47 2.7899 13.73 3.0299 13.88 3.2799Z"
        fill="#FEBE00" />
    <path
        d="M10.46 21.9299C10.71 22.0599 11.28 22.3699 11.59 21.8599C11.71 21.6599 11.68 21.4899 11.61 21.3399L3.66999 17.2799C3.03999 16.9599 2.33999 17.0999 1.84999 17.5299L10.46 21.9299Z"
        fill="#FEBE00" />
    <path
        d="M20.75 31.21C17.15 31.21 14.22 28.43 12.18 26.5C11.3 25.66 10.53 24.94 9.97 24.66L1.9 20.18C1.48 19.94 1.18 19.55 1.06 19.07C0.919996 18.55 1.01 17.99 1.28 17.52C1.81 16.62 2.89 16.29 3.8 16.75L11.24 20.55C11.32 20.59 11.51 20.68 11.57 20.68C11.54 20.65 11.46 20.57 11.31 20.45L2.65 13.82C1.8 13.14 1.63 11.88 2.25 11C2.56 10.56 3.05 10.24 3.61 10.15C4.15 10.05 4.68 10.17 5.1 10.47L13.91 16.78C14.09 16.92 14.16 16.93 14.18 16.93C14.17 16.92 14.15 16.84 14.02 16.7L5.84 8.07999C5.04 7.17999 5.15 5.78999 6.1 4.90999C6.95 4.13999 8.37 4.15999 9.14 4.94999L17.17 13.31C17.31 13.45 17.37 13.47 17.4 13.48C17.39 13.43 17.32 13.29 17.3 13.24L12.3 4.94999C12.03 4.53999 11.94 3.93999 12.07 3.39999C12.2 2.84999 12.54 2.39999 13.04 2.09999C14.17 1.42999 15.4 1.95999 15.94 2.85999L21.48 11.78C22.18 12.95 23.33 14.03 24.4 14.55C24.55 14.62 24.78 14.68 24.96 14.58C25.14 14.48 25.27 14.25 25.31 13.93C25.47 12.69 25.73 10.85 26.25 9.30999C26.53 8.44999 27.18 7.75999 28.03 7.40999C28.89 7.05999 29.87 7.09999 30.72 7.51999C30.93 7.62999 31.04 7.85999 30.98 8.08999L30.47 10.1C29.98 12.06 29.91 14.1 30.26 16.15C30.67 18.5 30.86 20.54 30.83 22.22C30.78 25.05 29.11 26.5 27.49 27.91C27.26 28.11 27.02 28.32 26.79 28.53C24.63 30.47 22.6 31.21 20.75 31.21ZM2.95 17.55C2.63 17.55 2.33 17.72 2.15 18.03V18.04C2.01 18.27 1.97 18.56 2.03 18.82C2.07 18.97 2.17 19.18 2.39 19.31L10.43 23.78C11.11 24.11 11.92 24.88 12.86 25.78C16.05 28.8 20.41 32.94 26.11 27.77C26.35 27.55 26.59 27.35 26.83 27.14C28.41 25.76 29.78 24.58 29.83 22.19C29.86 20.58 29.67 18.6 29.28 16.31C28.9 14.12 28.98 11.94 29.5 9.83999L29.9 8.24999C29.41 8.09999 28.89 8.11999 28.41 8.31999C27.83 8.55999 27.39 9.02999 27.2 9.60999C26.71 11.08 26.45 12.84 26.3 14.04C26.22 14.67 25.91 15.18 25.45 15.44C25.02 15.68 24.49 15.68 23.98 15.44C22.72 14.84 21.44 13.63 20.64 12.29L15.09 3.36999C14.93 3.10999 14.32 2.48999 13.56 2.94999C13.29 3.10999 13.12 3.33999 13.05 3.61999C12.97 3.93999 13.05 4.24999 13.15 4.40999L18.15 12.7C18.59 13.57 18.3 14.02 17.99 14.26C17.72 14.46 17.17 14.7 16.47 14.01L8.43 5.63999C8.03 5.23999 7.23 5.23999 6.79 5.63999C6.18 6.20999 6.2 6.97999 6.58 7.39999L14.74 16C15.35 16.64 15.23 17.24 14.91 17.59C14.77 17.75 14.22 18.26 13.32 17.58L4.52 11.28C4.32 11.14 4.06 11.08 3.78 11.13C3.49 11.18 3.23 11.34 3.07 11.57C2.75 12.02 2.84 12.69 3.26 13.03L11.91 19.65C12.71 20.28 12.62 20.84 12.4 21.19C12.17 21.57 11.7 21.92 10.79 21.44L3.34 17.63C3.22 17.58 3.09 17.55 2.95 17.55Z"
        fill="#455A64" />
    <path
        d="M7.87 29.36C4.95 29.36 2.24 27.7 0.919997 25.07C0.799997 24.83 0.899997 24.53 1.15 24.4C1.4 24.28 1.7 24.38 1.82 24.62C3 26.96 5.45 28.43 8.07 28.35C8.35 28.36 8.58 28.56 8.58 28.84C8.59 29.12 8.37 29.35 8.09 29.35C8.02 29.36 7.95 29.36 7.87 29.36Z"
        fill="#455A64" />
    <path
        d="M7.81999 26.8799C7.79999 26.8799 7.78999 26.8799 7.76999 26.8799C5.84999 26.6899 4.13999 25.5699 3.20999 23.8799C3.07999 23.6399 3.15999 23.3299 3.40999 23.1999C3.64999 23.0699 3.95999 23.1499 4.08999 23.3999C4.85999 24.7999 6.27999 25.7299 7.86999 25.8899C8.13999 25.9199 8.34999 26.1599 8.31999 26.4399C8.28999 26.6899 8.06999 26.8799 7.81999 26.8799Z"
        fill="#455A64" />
    <path
        d="M24.63 8.67994C24.38 8.67994 24.16 8.48994 24.13 8.22994C23.85 5.62994 22.06 3.39994 19.58 2.54994C19.32 2.45994 19.18 2.17994 19.27 1.91994C19.36 1.65994 19.64 1.51994 19.9 1.60994C22.74 2.57994 24.79 5.13994 25.12 8.12994C25.15 8.39994 24.95 8.64994 24.68 8.67994C24.67 8.67994 24.65 8.67994 24.63 8.67994Z"
        fill="#455A64" />
    <path
        d="M22.2 9.1799C21.96 9.1799 21.74 8.9999 21.71 8.7499C21.47 7.1699 20.47 5.7999 19.03 5.0999C18.78 4.9799 18.68 4.6799 18.8 4.4299C18.92 4.1799 19.22 4.0799 19.47 4.1999C21.2 5.0499 22.41 6.6899 22.7 8.5999C22.74 8.8699 22.55 9.1299 22.28 9.1699C22.25 9.1699 22.23 9.1799 22.2 9.1799Z"
        fill="#455A64" />
</svg>
