<svg width="20" height="20" viewBox="0 0 20 20" fill="none" xmlns="http://www.w3.org/2000/svg">
<path d="M14.9023 16.0806C13.4845 16.9795 11.8032 17.5001 10.0003 17.5001C5.50678 17.5001 1.76847 14.267 0.984711 10.0001C1.34861 8.01898 2.34944 6.26071 3.76707 4.94544L1.16139 2.33977L2.33991 1.16125L18.8391 17.6604L17.6606 18.839L14.9023 16.0806ZM4.94634 6.12471C3.83895 7.13342 3.03151 8.47263 2.68566 10.0001C3.45019 13.3767 6.47051 15.8335 10.0003 15.8335C11.3331 15.8335 12.5933 15.4831 13.6869 14.8653L11.9967 13.175C11.4186 13.5393 10.734 13.7501 10.0003 13.7501C7.92916 13.7501 6.25023 12.0711 6.25023 10.0001C6.25023 9.2663 6.46099 8.58171 6.82527 8.00365L4.94634 6.12471ZM10.7616 11.94L8.06039 9.2388C7.96776 9.47463 7.91689 9.73138 7.91689 10.0001C7.91689 11.1507 8.84968 12.0835 10.0003 12.0835C10.2689 12.0835 10.5258 12.0325 10.7616 11.94ZM17.339 13.827L16.1467 12.6347C16.6933 11.8556 17.0962 10.9655 17.3148 10.0001C16.5503 6.62345 13.5299 4.16676 10.0003 4.16676C9.29534 4.16676 8.61076 4.26474 7.96042 4.44845L6.64539 3.13342C7.6844 2.72462 8.81609 2.5001 10.0003 2.5001C14.4937 2.5001 18.232 5.73323 19.0158 10.0001C18.7556 11.4165 18.1698 12.719 17.339 13.827ZM9.76909 6.2571C9.84551 6.25245 9.92259 6.2501 10.0003 6.2501C12.0713 6.2501 13.7503 7.92903 13.7503 10.0001C13.7503 10.0777 13.7478 10.1548 13.7433 10.2312L9.76909 6.2571Z" fill="#A4A8AA"/>
</svg>
