<svg width="24" height="24" viewBox="0 0 24 24" fill="none" xmlns="http://www.w3.org/2000/svg">
<g clip-path="url(#clip0_547_5956)">
<path d="M3.01252 0.703125C3.01252 0.314812 2.6977 0 2.30939 0C1.03392 0 0 1.03392 0 2.30939V21.6907C0 19.8791 1.29675 18.3711 3.01252 18.0424V0.703125Z" fill="#64C8CA"/>
<path d="M12 14.9625H16.6188V19.5813H12V14.9625Z" fill="#64C8CA"/>
<path d="M20.2844 19.3813C19.896 19.3813 19.5812 19.0665 19.5812 18.6782V6.02502H4.41877V18.6782C4.41877 19.0665 4.10395 19.3813 3.71564 19.3813C2.44017 19.3813 1.40625 20.4152 1.40625 21.6906C1.40625 22.9661 2.44017 24 3.71564 24H20.2844C21.5598 24 22.5938 22.9661 22.5938 21.6906C22.5938 20.4152 21.5598 19.3813 20.2844 19.3813ZM10.7997 9.99665L11.5528 9.24351C11.8274 8.96891 12.2726 8.96891 12.5472 9.24351C12.6972 9.39356 12.7646 9.59446 12.7507 9.79073H15.868C15.8541 9.59451 15.9215 9.39356 16.0715 9.24351C16.3461 8.96896 16.7913 8.96896 17.0659 9.24351L17.819 9.99665C18.0935 10.2712 18.0935 10.7164 17.819 10.991L17.0659 11.7441C16.7913 12.0187 16.3461 12.0187 16.0715 11.7441C15.9342 11.6068 15.8655 11.4269 15.8655 11.2469C15.8655 11.2303 15.8668 11.2136 15.8679 11.197H12.7507C12.7518 11.2136 12.753 11.2303 12.753 11.2469C12.753 11.4269 12.6844 11.6069 12.5471 11.7441C12.2725 12.0187 11.8273 12.0187 11.5527 11.7441L10.7996 10.991C10.5252 10.7164 10.5251 10.2712 10.7997 9.99665ZM8.78156 20.0285L8.02847 20.7816C7.75388 21.0561 7.3087 21.0561 7.03411 20.7816L6.28097 20.0285C6.00638 19.7539 6.00638 19.3087 6.28097 19.0341C6.43102 18.8841 6.63192 18.8166 6.82819 18.8306V15.7133C6.63197 15.7272 6.43102 15.6598 6.28097 15.5098C6.00642 15.2352 6.00642 14.79 6.28097 14.5154L7.03411 13.7623C7.3087 13.4878 7.75388 13.4878 8.02847 13.7623L8.78156 14.5154C9.05616 14.79 9.05616 15.2352 8.78156 15.5098C8.64427 15.6471 8.46431 15.7157 8.28441 15.7157C8.26772 15.7157 8.25108 15.7145 8.23444 15.7133V18.8306C8.25108 18.8294 8.26777 18.8282 8.28441 18.8282C8.46436 18.8282 8.64431 18.8969 8.78156 19.0342C9.05616 19.3087 9.05616 19.7539 8.78156 20.0285ZM18.025 20.2844C18.025 20.6727 17.7102 20.9875 17.3219 20.9875H11.2969C10.9086 20.9875 10.5938 20.6727 10.5938 20.2844V14.2594C10.5938 13.8711 10.9086 13.5563 11.2969 13.5563H17.3219C17.7102 13.5563 18.025 13.8711 18.025 14.2594V20.2844Z" fill="#64C8CA"/>
<path d="M21.6904 0C21.3021 0 20.9873 0.314812 20.9873 0.703125V18.0423C22.703 18.3711 23.9998 19.879 23.9998 21.6906V2.30939C23.9998 1.03392 22.9659 0 21.6904 0Z" fill="#64C8CA"/>
</g>
<defs>
<clipPath id="clip0_547_5956">
<rect width="24" height="24" fill="white"/>
</clipPath>
</defs>
</svg>
