<svg width="24" height="24" viewBox="0 0 24 24" fill="none" xmlns="http://www.w3.org/2000/svg">
<path d="M8.25 3.75H15.75C16.1383 3.75 16.4531 3.43519 16.4531 3.04688V0.703125C16.4531 0.314812 16.1383 0 15.75 0H8.25C7.86169 0 7.54688 0.314812 7.54688 0.703125V3.04688C7.54688 3.43519 7.86169 3.75 8.25 3.75Z" fill="#0B5F4E"/>
<path d="M23.2969 11.7656H21.1875V9.1875C21.1875 8.79919 20.8727 8.48438 20.4844 8.48438H14.5904L12.7031 6.97458V5.15625H11.2969V6.97458L9.40959 8.48438H3.51562C3.12731 8.48438 2.8125 8.79919 2.8125 9.1875V11.7656H0.703125C0.314812 11.7656 0 12.0804 0 12.4688V14.3438C0 14.7321 0.314812 15.0469 0.703125 15.0469H2.8125V17.625C2.8125 18.0133 3.12731 18.3281 3.51562 18.3281H11.2969V19.8703C11.5217 19.8122 11.7573 19.7812 12 19.7812C12.2427 19.7812 12.4783 19.8122 12.7031 19.8703V18.3281H20.4844C20.8727 18.3281 21.1875 18.0133 21.1875 17.625V15.0469H23.2969C23.6852 15.0469 24 14.7321 24 14.3438V12.4688C24 12.0804 23.6852 11.7656 23.2969 11.7656ZM19.7812 16.9219H4.21875V15.0469H6.32812C6.71644 15.0469 7.03125 14.7321 7.03125 14.3438V12.4688C7.03125 12.0804 6.71644 11.7656 6.32812 11.7656H4.21875V9.89062H9.40959L11.5607 11.6115C11.8175 11.817 12.1824 11.817 12.4392 11.6115L14.5904 9.89062H19.7812V11.7656H17.6719C17.2836 11.7656 16.9688 12.0804 16.9688 12.4688V14.3438C16.9688 14.7321 17.2836 15.0469 17.6719 15.0469H19.7812V16.9219Z" fill="#0B5F4E"/>
<path d="M12 24C12.7767 24 13.4062 23.3704 13.4062 22.5938C13.4062 21.8171 12.7767 21.1875 12 21.1875C11.2233 21.1875 10.5938 21.8171 10.5938 22.5938C10.5938 23.3704 11.2233 24 12 24Z" fill="#0B5F4E"/>
</svg>
