<svg width="24" height="24" viewBox="0 0 24 24" fill="none" xmlns="http://www.w3.org/2000/svg">
<path d="M19.985 12.9452C19.5938 12.9452 19.2769 13.2623 19.2769 13.6533V20.9298H15.3704V13.6533C15.3704 13.2623 15.0534 12.9452 14.6623 12.9452H9.33892C8.94773 12.9452 8.63076 13.2623 8.63076 13.6533V20.9298H4.72393V13.6533C4.72393 13.2623 4.40696 12.9452 4.01577 12.9452C3.62459 12.9452 3.30762 13.2623 3.30762 13.6533V21.6379C3.30762 22.029 3.62459 22.3461 4.01577 22.3461H9.33892H14.6623H19.985C20.3762 22.3461 20.6932 22.029 20.6932 21.6379V13.6533C20.6932 13.2623 20.3761 12.9452 19.985 12.9452ZM10.0471 20.9298V14.3615H13.9541V20.9298H10.0471Z" fill="#0B5F4E"/>
<path d="M23.7925 13.1526L12.5002 1.86119C12.2238 1.58463 11.7753 1.58473 11.4987 1.86119L0.207418 13.1526C-0.0691394 13.4291 -0.0691394 13.8775 0.207418 14.154C0.48407 14.4305 0.932379 14.4305 1.20894 14.154L11.9995 3.36342L22.7911 14.1541C22.9293 14.2923 23.1106 14.3614 23.2918 14.3614C23.473 14.3614 23.6543 14.2923 23.7926 14.154C24.0691 13.8775 24.0691 13.4291 23.7925 13.1526Z" fill="#0B5F4E"/>
</svg>
