<svg width="24" height="24" viewBox="0 0 24 24" fill="none" xmlns="http://www.w3.org/2000/svg">
<g clip-path="url(#clip0_547_7659)">
<path d="M8.45508 6.80413C13.1247 6.80413 16.9102 5.45613 16.9102 3.7933C16.9102 2.13046 13.1247 0.782471 8.45508 0.782471C3.78547 0.782471 0 2.13046 0 3.7933C0 5.45613 3.78547 6.80413 8.45508 6.80413Z" fill="#B1E3E4"/>
<path fill-rule="evenodd" clip-rule="evenodd" d="M16.4445 8.33995C16.57 8.11452 16.7298 7.91938 16.915 7.7579V6.22363C16.3875 6.61354 15.7118 6.95657 14.9008 7.24537C13.1532 7.86768 10.8641 8.21043 8.45518 8.21043C6.04623 8.21043 3.75718 7.86773 2.00959 7.24537C1.20343 6.9583 0.530961 6.61752 0.00488281 6.23048V9.25382C0.00488281 10.9167 3.79032 12.2646 8.45996 12.2646C11.0034 12.2646 13.2843 11.8646 14.8343 11.2318L16.4445 8.33995Z" fill="#B1E3E4"/>
<path fill-rule="evenodd" clip-rule="evenodd" d="M2.00954 12.7076C1.2031 12.4204 0.530633 12.0791 0.00488281 11.6912V14.7417C0.00488281 16.4046 3.79032 17.7525 8.45996 17.7525C9.47387 17.7525 10.446 17.6889 11.3469 17.5724C11.3893 17.4457 11.4434 17.3215 11.5103 17.2014L13.8279 13.0391C12.2655 13.4493 10.4031 13.6709 8.45996 13.6709C6.04487 13.6709 3.75409 13.3288 2.00954 12.7076Z" fill="#B1E3E4"/>
<path fill-rule="evenodd" clip-rule="evenodd" d="M11.5351 19.3349C11.4689 19.2223 11.4146 19.1056 11.3704 18.9865C10.4416 19.0997 9.46159 19.1587 8.45996 19.1587C6.04487 19.1587 3.75409 18.8166 2.00954 18.1954C1.2031 17.9082 0.530633 17.5669 0.00488281 17.179V20.2066C0.00488281 21.8694 3.79032 23.2174 8.45996 23.2174C12.9522 23.2174 16.6256 21.9698 16.8981 20.3945H13.387C12.6174 20.3945 11.9251 19.9984 11.5351 19.3349Z" fill="#B1E3E4"/>
<path fill-rule="evenodd" clip-rule="evenodd" d="M23.9038 17.8854L18.9696 9.02402C18.8351 8.78252 18.5979 8.64307 18.3214 8.64307C18.045 8.64307 17.8078 8.78252 17.6733 9.02402L12.739 17.8854C12.6075 18.1217 12.6106 18.3891 12.7476 18.6222C12.8846 18.8553 13.1168 18.9882 13.3872 18.9882H23.2557C23.5261 18.9882 23.7583 18.8553 23.8952 18.6222C24.0323 18.3891 24.0354 18.1216 23.9038 17.8854ZM19.0246 16.8786C19.0246 17.2669 18.7097 17.5817 18.3214 17.5817C17.9331 17.5817 17.6183 17.2669 17.6183 16.8786V16.8294C17.6183 16.441 17.9331 16.1262 18.3214 16.1262C18.7097 16.1262 19.0246 16.441 19.0246 16.8294V16.8786ZM19.0246 14.6284C19.0246 15.0168 18.7097 15.3316 18.3214 15.3316C17.9331 15.3316 17.6183 15.0168 17.6183 14.6284V12.3534C17.6183 11.965 17.9331 11.6502 18.3214 11.6502C18.7097 11.6502 19.0246 11.965 19.0246 12.3534V14.6284Z" fill="#B1E3E4"/>
</g>
<defs>
<clipPath id="clip0_547_7659">
<rect width="24" height="24" fill="white"/>
</clipPath>
</defs>
</svg>
