<svg width="20" height="20" viewBox="0 0 20 20" fill="none" xmlns="http://www.w3.org/2000/svg">
<path d="M12.7076 11.6667C12.7076 11.3215 12.9874 11.0417 13.3326 11.0417H14.1659C14.5111 11.0417 14.7909 11.3215 14.7909 11.6667C14.7909 12.0118 14.5111 12.2917 14.1659 12.2917H13.3326C12.9874 12.2917 12.7076 12.0118 12.7076 11.6667Z" fill="white"/>
<path d="M5.83258 8.54166C5.4874 8.54166 5.20758 8.82148 5.20758 9.16666C5.20758 9.51184 5.4874 9.79166 5.83258 9.79166H6.66591C7.01109 9.79166 7.29091 9.51184 7.29091 9.16666C7.29091 8.82148 7.01109 8.54166 6.66591 8.54166H5.83258Z" fill="white"/>
<path d="M5.83258 11.875C5.4874 11.875 5.20758 12.1548 5.20758 12.5C5.20758 12.8452 5.4874 13.125 5.83258 13.125H6.66591C7.01109 13.125 7.29091 12.8452 7.29091 12.5C7.29091 12.1548 7.01109 11.875 6.66591 11.875H5.83258Z" fill="white"/>
<path fill-rule="evenodd" clip-rule="evenodd" d="M10.6222 2.44894C10.6236 2.46578 10.6242 2.4828 10.6242 2.49999V5.44698L14.3742 7.32198V5.83332C14.3742 5.48814 14.6541 5.20832 14.9992 5.20832C15.3444 5.20832 15.6242 5.48814 15.6242 5.83332V7.94698L17.7698 9.01978C17.7756 9.02253 17.7812 9.02537 17.7869 9.02829L18.6122 9.44097C18.921 9.59534 19.0461 9.97076 18.8917 10.2795C18.749 10.5649 18.4174 10.6934 18.1242 10.5893L18.1242 15.043C18.1243 15.7917 18.1243 16.4161 18.0577 16.9118C17.9873 17.4349 17.8326 17.9073 17.453 18.2868C17.0735 18.6664 16.6011 18.8211 16.078 18.8914C15.5823 18.9581 14.958 18.9581 14.2093 18.958H13.7684C13.762 18.9582 13.7556 18.9583 13.7492 18.9583C13.7428 18.9583 13.7365 18.9582 13.7301 18.958L10.0184 18.958C10.012 18.9582 10.0057 18.9583 9.99925 18.9583H5.78925C5.04052 18.9583 4.41617 18.9584 3.92052 18.8917C3.39735 18.8214 2.92502 18.6667 2.54546 18.2871C2.1659 17.9076 2.01118 17.4352 1.94084 16.9121C1.8742 16.4164 1.87422 15.7921 1.87425 15.0433L1.87425 6.42271C1.57181 6.52987 1.23243 6.38949 1.09719 6.09195C0.954354 5.77771 1.0933 5.40718 1.40754 5.26434L10.5742 1.09768C10.8884 0.954842 11.259 1.09379 11.4018 1.40803C11.5446 1.72227 11.4057 2.0928 11.0915 2.23564L10.6222 2.44894ZM13.1242 17.708H10.6242V6.84452L14.7061 8.88543C14.7154 8.89037 14.7248 8.89509 14.7343 8.89957L16.8742 9.96952V14.9997C16.8742 15.803 16.8729 16.3427 16.8188 16.7452C16.7671 17.1298 16.6777 17.2943 16.5692 17.4029C16.4606 17.5115 16.296 17.6009 15.9114 17.6526C15.5447 17.7019 15.0642 17.7074 14.3742 17.708V15C14.3742 14.6548 14.0944 14.375 13.7492 14.375C13.4041 14.375 13.1242 14.6548 13.1242 15V17.708ZM8.31341 17.7083C8.31977 17.7081 8.32617 17.708 8.33258 17.708H9.37425V3.01619L3.12425 5.8571V15C3.12425 15.8033 3.12558 16.343 3.1797 16.7455C3.2314 17.13 3.32075 17.2946 3.42935 17.4032C3.53794 17.5118 3.70252 17.6012 4.08708 17.6529C4.48961 17.707 5.02924 17.7083 5.83258 17.7083H8.31341Z" fill="white"/>
</svg>
