<svg width="24" height="24" viewBox="0 0 24 24" fill="none" xmlns="http://www.w3.org/2000/svg">
<path d="M18.8201 9.56988C18.8201 9.75988 18.7501 9.94988 18.6001 10.0999C18.3101 10.3899 17.8301 10.3899 17.5401 10.0999L12.0001 4.55988L6.46012 10.0999C6.17012 10.3899 5.69012 10.3899 5.40012 10.0999C5.11012 9.80988 5.11012 9.32988 5.40012 9.03988L11.4701 2.96988C11.7601 2.67988 12.2401 2.67988 12.5301 2.96988L18.6001 9.03988C18.7501 9.18988 18.8201 9.37988 18.8201 9.56988Z" fill="#7210FF"/>
<path d="M12.75 3.67L12.75 20.5C12.75 20.91 12.41 21.25 12 21.25C11.59 21.25 11.25 20.91 11.25 20.5L11.25 3.67C11.25 3.26 11.59 2.92 12 2.92C12.41 2.92 12.75 3.26 12.75 3.67Z" fill="#7210FF"/>
</svg>
