<svg width="64" height="64" viewBox="0 0 64 64" fill="none" xmlns="http://www.w3.org/2000/svg">
    <g clip-path="url(#5d8v3wnbma)">
        <path d="M54.627 9.373C48.584 3.329 40.547 0 32 0 23.453 0 15.417 3.329 9.373 9.373 3.329 15.417 0 23.453 0 32c0 8.547 3.329 16.583 9.373 22.627C15.416 60.671 23.453 64 32 64c8.547 0 16.583-3.329 22.627-9.373C60.671 48.583 64 40.547 64 32c0-8.547-3.329-16.583-9.373-22.627zM32 60.25c-8.359 0-15.88-3.65-21.056-9.439C14.152 42.303 22.369 36.25 32 36.25c-6.213 0-11.25-5.037-11.25-11.25S25.787 13.75 32 13.75 43.25 18.787 43.25 25 38.213 36.25 32 36.25c9.632 0 17.847 6.053 21.056 14.561C47.88 56.6 40.36 60.25 32 60.25z" fill="#D9D9D9"/>
    </g>
    <defs>
        <clipPath id="5d8v3wnbma">
            <path fill="#fff" d="M0 0h64v64H0z"/>
        </clipPath>
    </defs>
</svg>
