<svg width="16" height="18" viewBox="0 0 16 18" fill="none" xmlns="http://www.w3.org/2000/svg">
<path fill-rule="evenodd" clip-rule="evenodd" d="M12.7916 3.37878V1.5C12.7916 1.15482 12.5118 0.875 12.1666 0.875C11.8214 0.875 11.5416 1.15482 11.5416 1.5V3.37878C11.4228 3.38127 11.3131 3.38542 11.2121 3.39231C10.9479 3.41034 10.6983 3.44921 10.4563 3.54944C9.89475 3.78203 9.44862 4.22816 9.21603 4.78968C9.11579 5.03168 9.07692 5.28128 9.05889 5.54553C9.04158 5.79936 9.04158 6.10854 9.04159 6.4789V6.52104C9.04158 6.8914 9.04158 7.20064 9.05889 7.45447C9.07692 7.71872 9.11579 7.96833 9.21603 8.21032C9.44862 8.77184 9.89475 9.21797 10.4563 9.45056C10.6983 9.55079 10.9479 9.58966 11.2121 9.60769C11.466 9.62501 11.7751 9.62501 12.1455 9.625H12.1876C12.558 9.62501 12.8672 9.62501 13.1211 9.60769C13.3853 9.58966 13.6349 9.55079 13.8769 9.45056C14.4384 9.21797 14.8846 8.77184 15.1171 8.21032C15.2174 7.96833 15.2562 7.71872 15.2743 7.45447C15.2916 7.20064 15.2916 6.89147 15.2916 6.52112V6.47895C15.2916 6.1086 15.2916 5.79936 15.2743 5.54553C15.2562 5.28128 15.2174 5.03167 15.1171 4.78968C14.8846 4.22816 14.4384 3.78203 13.8769 3.54944C13.6349 3.44921 13.3853 3.41034 13.1211 3.39231C13.0201 3.38542 12.9104 3.38127 12.7916 3.37878ZM10.9346 4.70429C10.9989 4.67766 11.0966 4.6531 11.2972 4.63941C11.5034 4.62534 11.7698 4.625 12.1666 4.625C12.5634 4.625 12.8297 4.62534 13.036 4.63941C13.2366 4.6531 13.3343 4.67766 13.3985 4.70429C13.6538 4.81002 13.8566 5.0128 13.9623 5.26804C13.9889 5.33233 14.0135 5.43001 14.0272 5.63062C14.0412 5.83684 14.0416 6.10316 14.0416 6.5C14.0416 6.89684 14.0412 7.16316 14.0272 7.36938C14.0135 7.56999 13.9889 7.66767 13.9623 7.73196C13.8566 7.9872 13.6538 8.18999 13.3985 8.29571C13.3343 8.32234 13.2366 8.3469 13.036 8.36059C12.8297 8.37466 12.5634 8.375 12.1666 8.375C11.7698 8.375 11.5034 8.37466 11.2972 8.36059C11.0966 8.3469 10.9989 8.32234 10.9346 8.29571C10.6794 8.18999 10.4766 7.9872 10.3709 7.73196C10.3442 7.66767 10.3197 7.56999 10.306 7.36938C10.2919 7.16316 10.2916 6.89684 10.2916 6.5C10.2916 6.10316 10.2919 5.83684 10.306 5.63062C10.3197 5.43001 10.3442 5.33233 10.3709 5.26804C10.4766 5.0128 10.6794 4.81002 10.9346 4.70429Z" fill="#0B5F4E"/>
<path d="M11.5416 16.5C11.5416 16.8452 11.8214 17.125 12.1666 17.125C12.5118 17.125 12.7916 16.8452 12.7916 16.5V11.5C12.7916 11.1548 12.5118 10.875 12.1666 10.875C11.8214 10.875 11.5416 11.1548 11.5416 11.5V16.5Z" fill="#0B5F4E"/>
<path fill-rule="evenodd" clip-rule="evenodd" d="M3.20825 16.5C3.20825 16.8452 3.48807 17.125 3.83325 17.125C4.17843 17.125 4.45825 16.8452 4.45825 16.5V14.6212C4.57707 14.6187 4.68678 14.6146 4.78772 14.6077C5.05197 14.5897 5.30158 14.5508 5.54357 14.4506C6.10509 14.218 6.55122 13.7718 6.78381 13.2103C6.88405 12.9683 6.92292 12.7187 6.94095 12.4545C6.95826 12.2006 6.95826 11.8914 6.95825 11.521V11.479C6.95826 11.1086 6.95826 10.7994 6.94095 10.5455C6.92292 10.2813 6.88405 10.0317 6.78381 9.78968C6.55122 9.22816 6.10509 8.78203 5.54357 8.54944C5.30158 8.44921 5.05197 8.41034 4.78772 8.39231C4.5339 8.37499 4.22472 8.37499 3.85436 8.375H3.81221C3.44186 8.37499 3.13261 8.37499 2.87878 8.39231C2.61453 8.41034 2.36493 8.44921 2.12294 8.54944C1.56141 8.78203 1.11529 9.22816 0.882695 9.78968C0.782459 10.0317 0.74359 10.2813 0.725561 10.5455C0.708241 10.7994 0.708246 11.1086 0.708252 11.4789V11.521C0.708246 11.8914 0.708241 12.2006 0.725561 12.4545C0.74359 12.7187 0.782459 12.9683 0.882695 13.2103C1.11529 13.7718 1.56141 14.218 2.12294 14.4506C2.36493 14.5508 2.61453 14.5897 2.87878 14.6077C2.97973 14.6146 3.08943 14.6187 3.20825 14.6212L3.20825 16.5ZM2.96387 9.63941C2.76327 9.6531 2.66558 9.67766 2.60129 9.70429C2.34605 9.81001 2.14327 10.0128 2.03754 10.268C2.01091 10.3323 1.98635 10.43 1.97266 10.6306C1.95859 10.8368 1.95825 11.1032 1.95825 11.5C1.95825 11.8968 1.95859 12.1632 1.97266 12.3694C1.98635 12.57 2.01091 12.6677 2.03754 12.732C2.14327 12.9872 2.34605 13.19 2.60129 13.2957C2.66558 13.3223 2.76327 13.3469 2.96387 13.3606C3.17009 13.3747 3.43642 13.375 3.83325 13.375C4.23009 13.375 4.49642 13.3747 4.70263 13.3606C4.90324 13.3469 5.00092 13.3223 5.06522 13.2957C5.32045 13.19 5.52324 12.9872 5.62896 12.732C5.65559 12.6677 5.68016 12.57 5.69384 12.3694C5.70791 12.1632 5.70825 11.8968 5.70825 11.5C5.70825 11.1032 5.70791 10.8368 5.69384 10.6306C5.68016 10.43 5.65559 10.3323 5.62896 10.268C5.52324 10.0128 5.32045 9.81001 5.06522 9.70429C5.00092 9.67766 4.90324 9.6531 4.70263 9.63941C4.49642 9.62534 4.23009 9.625 3.83325 9.625C3.43642 9.625 3.17009 9.62534 2.96387 9.63941Z" fill="#0B5F4E"/>
<path d="M3.20825 6.5C3.20825 6.84518 3.48807 7.125 3.83325 7.125C4.17843 7.125 4.45825 6.84518 4.45825 6.5L4.45825 1.5C4.45825 1.15482 4.17843 0.875 3.83325 0.875C3.48807 0.875 3.20825 1.15482 3.20825 1.5L3.20825 6.5Z" fill="#0B5F4E"/>
</svg>
