<svg width="40" height="40" viewBox="0 0 40 40" fill="none" xmlns="http://www.w3.org/2000/svg">
<g clip-path="url(#clip0_2346_3729)">
<path opacity="0.1" d="M19.0866 29.8157C18.8903 29.8913 18.7306 29.6397 18.8667 29.4793C19.3424 28.918 19.787 28.2625 20.1931 27.518C21.557 25.0176 22.3506 21.7613 22.4541 18.2779C22.4573 18.1692 22.5461 18.0822 22.6548 18.0822H25.436C25.5465 18.0822 25.636 17.9926 25.636 17.8822V17.108C25.636 16.9976 25.5465 16.908 25.436 16.908H22.6548C22.5461 16.908 22.4573 16.8211 22.4541 16.7125C22.3992 14.8672 22.1508 13.0857 21.7265 11.4466C21.6935 11.319 21.7892 11.1937 21.9211 11.1937H25.8302C25.9033 11.1937 25.9707 11.2336 26.0052 11.2981C26.9638 13.0915 27.52 15.131 27.5523 17.2951C27.554 17.4055 27.6434 17.4951 27.7538 17.4951H28.528C28.6384 17.4951 28.7281 17.4047 28.7266 17.2943C28.6188 9.46615 22.2173 3.1311 14.364 3.1311C6.44368 3.1311 0 9.57478 0 17.4951C0 25.4154 6.44368 31.8591 14.364 31.8591C16.596 31.8591 18.7315 31.3624 20.7148 30.3823C20.8138 30.3334 20.8527 30.2128 20.8024 30.1144L20.45 29.4251C20.3997 29.3268 20.2793 29.2879 20.1802 29.3367C19.821 29.5137 19.4564 29.6734 19.0866 29.8157ZM1.19791 18.2909C1.19112 18.1772 1.28217 18.0822 1.39608 18.0822H6.07321C6.18193 18.0822 6.27066 18.169 6.27389 18.2777C6.32876 20.123 6.57721 21.9044 7.00148 23.5436C7.03452 23.6712 6.93874 23.7965 6.80689 23.7965H2.89776C2.82461 23.7965 2.75719 23.7566 2.7227 23.6921C1.85263 22.0641 1.31405 20.2335 1.19791 18.2909ZM14.9511 4.58897C14.9511 4.46556 15.0618 4.37128 15.1821 4.39895C16.6628 4.73961 18.0529 6.00061 19.1623 8.03451C19.4547 8.57058 19.7191 9.14489 19.9542 9.75137C20.0045 9.88107 19.9079 10.0196 19.7688 10.0196H15.1511C15.0406 10.0196 14.9511 9.93001 14.9511 9.81956V4.58897ZM13.5459 4.39894C13.6662 4.37128 13.7769 4.46555 13.7769 4.58896V9.81956C13.7769 9.93001 13.6874 10.0196 13.5769 10.0196H8.95915C8.82004 10.0196 8.72349 9.88108 8.77376 9.75138C9.00888 9.14485 9.27329 8.57058 9.56564 8.03451C10.6751 6.00061 12.0652 4.73953 13.5459 4.39894ZM13.5769 11.1937C13.6874 11.1937 13.7769 11.2833 13.7769 11.3937V16.708C13.7769 16.8185 13.6874 16.908 13.5769 16.908H7.6479C7.53563 16.908 7.44527 16.8156 7.44879 16.7034C7.50823 14.8063 7.78106 12.9863 8.24596 11.338C8.27011 11.2524 8.34847 11.1937 8.43743 11.1937H13.5769ZM6.27388 16.7125C6.27066 16.8211 6.18193 16.908 6.0732 16.908H1.39608C1.28217 16.908 1.19112 16.813 1.19791 16.6993C1.31405 14.7567 1.85263 12.926 2.7227 11.2981C2.75719 11.2336 2.82461 11.1937 2.89776 11.1937H6.80689C6.93874 11.1937 7.03452 11.319 7.00148 11.4466C6.5772 13.0857 6.32869 14.8672 6.27388 16.7125ZM7.44879 18.2868C7.44527 18.1746 7.53563 18.0822 7.6479 18.0822H13.5769C13.6874 18.0822 13.7769 18.1717 13.7769 18.2822V23.5965C13.7769 23.7069 13.6874 23.7965 13.5769 23.7965H8.43743C8.34847 23.7965 8.27011 23.7378 8.24596 23.6522C7.78106 22.0039 7.50823 20.1839 7.44879 18.2868ZM13.5769 24.9706C13.6874 24.9706 13.7769 25.0602 13.7769 25.1706V30.4012C13.7769 30.5246 13.6662 30.6189 13.5459 30.5912C12.0651 30.2506 10.6751 28.9896 9.56571 26.9557C9.2733 26.4196 9.00888 25.8453 8.77382 25.2388C8.72355 25.1091 8.82011 24.9706 8.95921 24.9706H13.5769ZM19.1623 26.9557C18.0529 28.9896 16.6628 30.2506 15.1821 30.5912C15.0618 30.6189 14.9511 30.5246 14.9511 30.4012V25.1706C14.9511 25.0602 15.0406 24.9706 15.1511 24.9706H18.5476C18.658 24.9706 18.7476 24.8811 18.7476 24.7706V23.9965C18.7476 23.886 18.658 23.7965 18.5476 23.7965H15.1511C15.0406 23.7965 14.9511 23.7069 14.9511 23.5965V18.2822C14.9511 18.1717 15.0406 18.0822 15.1511 18.0822H21.0801C21.1924 18.0822 21.2827 18.1747 21.2792 18.2869C21.1762 21.5713 20.4337 24.6247 19.1623 26.9557ZM21.2792 16.7034C21.2827 16.8156 21.1924 16.908 21.0801 16.908H15.1511C15.0406 16.908 14.9511 16.8185 14.9511 16.708V11.3937C14.9511 11.2833 15.0406 11.1937 15.1511 11.1937H20.2906C20.3795 11.1937 20.4579 11.2524 20.482 11.338C20.9469 12.9863 21.2198 14.8063 21.2792 16.7034ZM25.0046 9.70906C25.0999 9.83904 25.0057 10.0196 24.8445 10.0196H21.4434C21.3578 10.0196 21.2818 9.96504 21.2536 9.88426C20.9524 9.02288 20.5979 8.21426 20.1931 7.47224C19.7887 6.73081 19.3462 6.07767 18.8727 5.51799C18.7369 5.35745 18.8967 5.10603 19.093 5.18165C21.4713 6.09815 23.5193 7.68483 25.0046 9.70906ZM9.63492 5.18169C9.83115 5.10607 9.99104 5.35751 9.85522 5.51805C9.38173 6.07771 8.93925 6.73085 8.53487 7.47224C8.13016 8.21426 7.77565 9.02288 7.47443 9.88427C7.44618 9.96505 7.37019 10.0196 7.28461 10.0196H3.8835C3.72229 10.0196 3.62804 9.83904 3.72341 9.70906C5.20862 7.68486 7.25668 6.09819 9.63492 5.18169ZM3.72341 25.2811C3.62804 25.1511 3.72229 24.9706 3.8835 24.9706H7.2846C7.37018 24.9706 7.44618 25.0251 7.47443 25.1059C7.77558 25.9673 8.13009 26.7759 8.53487 27.518C8.93927 28.2594 9.38178 28.9125 9.8553 29.4722C9.99113 29.6327 9.83124 29.8842 9.63502 29.8085C7.25673 28.892 5.20864 27.3054 3.72341 25.2811Z" fill="#7210FF"/>
<path d="M30.6458 18.1605C25.4878 18.1605 21.2916 22.3567 21.2916 27.5147C21.2916 32.6726 25.4878 36.8689 30.6458 36.8689C35.8037 36.8689 40 32.6726 40 27.5147C40 22.3567 35.8037 18.1605 30.6458 18.1605ZM30.6458 35.6947C26.1353 35.6947 22.4657 32.0252 22.4657 27.5147C22.4657 23.0041 26.1353 19.3346 30.6458 19.3346C35.1562 19.3346 38.8258 23.0041 38.8258 27.5147C38.8258 32.0252 35.1562 35.6947 30.6458 35.6947Z" fill="#7210FF"/>
<path opacity="0.1" d="M30.6458 20.6653C26.8691 20.6653 23.7965 23.7379 23.7965 27.5147C23.7965 31.2914 26.8691 34.364 30.6458 34.364C34.4226 34.364 37.4951 31.2914 37.4951 27.5147C37.4951 23.7379 34.4226 20.6653 30.6458 20.6653ZM30.6458 33.1898C27.5165 33.1898 24.9707 30.644 24.9707 27.5147C24.9707 24.3853 27.5165 21.8395 30.6458 21.8395C33.7751 21.8395 36.321 24.3853 36.321 27.5147C36.321 30.644 33.7751 33.1898 30.6458 33.1898Z" fill="#7210FF"/>
<path d="M32.8769 24.7361C32.7988 24.658 32.6722 24.658 32.5941 24.7361L30.7872 26.543C30.7091 26.6211 30.5825 26.6211 30.5044 26.543L28.6975 24.7361C28.6194 24.658 28.4928 24.658 28.4147 24.7361L27.8672 25.2835C27.789 25.3616 27.789 25.4882 27.8671 25.5663L29.6741 27.3732C29.7522 27.4513 29.7522 27.578 29.6741 27.6561L27.8671 29.463C27.789 29.5411 27.789 29.6678 27.8672 29.7459L28.4147 30.2933C28.4928 30.3714 28.6194 30.3714 28.6975 30.2933L30.5044 28.4864C30.5825 28.4083 30.7091 28.4083 30.7872 28.4864L32.5941 30.2933C32.6722 30.3714 32.7988 30.3714 32.8769 30.2933L33.4244 29.7459C33.5025 29.6678 33.5025 29.5411 33.4244 29.463L31.6175 27.6561C31.5394 27.578 31.5394 27.4513 31.6175 27.3732L33.4244 25.5663C33.5025 25.4882 33.5025 25.3616 33.4244 25.2835L32.8769 24.7361Z" fill="#7210FF"/>
<path d="M14.364 34.016C14.364 33.9056 14.4536 33.816 14.564 33.816H15.4165C15.5269 33.816 15.6165 33.9056 15.6165 34.016V34.7902C15.6165 34.9007 15.5269 34.9902 15.4165 34.9902H14.564C14.4536 34.9902 14.364 34.9007 14.364 34.7902V34.016Z" fill="#7210FF"/>
<path opacity="0.1" d="M16.8689 34.016C16.8689 33.9056 16.9584 33.816 17.0689 33.816H17.9213C18.0318 33.816 18.1213 33.9056 18.1213 34.016V34.7902C18.1213 34.9007 18.0318 34.9902 17.9213 34.9902H17.0689C16.9584 34.9902 16.8689 34.9007 16.8689 34.7902V34.016Z" fill="#7210FF"/>
<path d="M19.3738 34.016C19.3738 33.9056 19.4633 33.816 19.5738 33.816H20.4262C20.5367 33.816 20.6262 33.9056 20.6262 34.016V34.7902C20.6262 34.9007 20.5367 34.9902 20.4262 34.9902H19.5738C19.4633 34.9902 19.3738 34.9007 19.3738 34.7902V34.016Z" fill="#7210FF"/>
</g>
<defs>
<clipPath id="clip0_2346_3729">
<rect width="40" height="40" fill="white"/>
</clipPath>
</defs>
</svg>
