<svg width="20" height="20" viewBox="0 0 20 20" fill="none" xmlns="http://www.w3.org/2000/svg">
<path d="M2.9672 4.73809C3.07587 4.6158 3.21379 4.42381 3.34069 4.24709L3.37035 4.20578C3.42612 4.12809 3.48338 4.04831 3.54169 3.96823V7.5C3.54169 7.84518 3.82151 8.125 4.16669 8.125C4.51187 8.125 4.79169 7.84518 4.79169 7.5V3.96824C4.85 4.04832 4.90725 4.12808 4.96303 4.20578L4.99268 4.24709C5.11959 4.42381 5.2575 4.6158 5.36617 4.73809C5.59546 4.9961 5.99051 5.01939 6.24852 4.7901C6.50654 4.56081 6.52983 4.16576 6.30054 3.90775C6.24536 3.84566 6.15137 3.71761 6.008 3.51796L5.97652 3.47411C5.84995 3.29774 5.70044 3.08941 5.54627 2.89041C5.38151 2.67774 5.19396 2.45264 5.00397 2.27566C4.90893 2.18712 4.79779 2.09591 4.67461 2.02381C4.5575 1.95526 4.38072 1.875 4.16669 1.875C3.95266 1.875 3.77588 1.95526 3.65877 2.02381C3.53558 2.09591 3.42445 2.18712 3.3294 2.27566C3.13941 2.45264 2.95186 2.67774 2.7871 2.89041C2.63293 3.08941 2.48342 3.29775 2.35684 3.47412L2.32537 3.51796C2.182 3.71761 2.08801 3.84566 2.03284 3.90775C1.80355 4.16576 1.82683 4.56081 2.08485 4.7901C2.34287 5.01939 2.73791 4.9961 2.9672 4.73809Z" fill="#0B5F4E"/>
<path d="M9.16668 4.375C8.8215 4.375 8.54168 4.65482 8.54168 5C8.54168 5.34518 8.8215 5.625 9.16668 5.625H17.5C17.8452 5.625 18.125 5.34518 18.125 5C18.125 4.65482 17.8452 4.375 17.5 4.375H9.16668Z" fill="#0B5F4E"/>
<path d="M9.16668 7.70834C8.8215 7.70834 8.54168 7.98816 8.54168 8.33333C8.54167 8.67851 8.82149 8.95834 9.16667 8.95834L15 8.95838C15.3452 8.95838 15.625 8.67856 15.625 8.33338C15.625 7.98821 15.3452 7.70838 15 7.70838L9.16668 7.70834Z" fill="#0B5F4E"/>
<path d="M9.16668 11.0417C8.8215 11.0417 8.54168 11.3215 8.54168 11.6667C8.54168 12.0118 8.8215 12.2917 9.16668 12.2917H13.3333C13.6785 12.2917 13.9583 12.0118 13.9583 11.6667C13.9583 11.3215 13.6785 11.0417 13.3333 11.0417H9.16668Z" fill="#0B5F4E"/>
<path d="M8.54168 15C8.54168 14.6548 8.8215 14.375 9.16668 14.375H11.6667C12.0119 14.375 12.2917 14.6548 12.2917 15C12.2917 15.3452 12.0119 15.625 11.6667 15.625H9.16668C8.8215 15.625 8.54168 15.3452 8.54168 15Z" fill="#0B5F4E"/>
<path d="M4.99267 15.7529C5.11958 15.5762 5.25749 15.3842 5.36616 15.2619C5.59545 15.0039 5.99049 14.9806 6.24851 15.2099C6.50653 15.4392 6.52981 15.8342 6.30052 16.0923C6.24535 16.1543 6.15136 16.2824 6.00799 16.482L5.97652 16.5259C5.84995 16.7022 5.70043 16.9106 5.54626 17.1096C5.3815 17.3223 5.19395 17.5474 5.00396 17.7243C4.90891 17.8129 4.79778 17.9041 4.67459 17.9762C4.55748 18.0447 4.3807 18.125 4.16667 18.125C3.95264 18.125 3.77586 18.0447 3.65875 17.9762C3.53557 17.9041 3.42443 17.8129 3.32939 17.7243C3.1394 17.5474 2.95185 17.3223 2.78709 17.1096C2.63292 16.9106 2.48341 16.7023 2.35684 16.5259L2.32536 16.482C2.18199 16.2824 2.088 16.1543 2.03282 16.0923C1.80353 15.8342 1.82682 15.4392 2.08484 15.2099C2.34285 14.9806 2.7379 15.0039 2.96719 15.2619C3.07586 15.3842 3.21377 15.5762 3.34068 15.7529L3.37033 15.7942C3.42608 15.8719 3.48339 15.9517 3.54167 16.0318L3.54167 12.5C3.54167 12.1548 3.8215 11.875 4.16667 11.875C4.51185 11.875 4.79167 12.1548 4.79167 12.5L4.79167 16.0318C4.84989 15.9518 4.90704 15.8722 4.96273 15.7946L4.99267 15.7529Z" fill="#0B5F4E"/>
</svg>
