<svg width="100" height="100" viewBox="0 0 100 100" fill="none" xmlns="http://www.w3.org/2000/svg">
<path d="M32 36.0909L50.9562 50.3082C53.3911 52.134 56.8215 51.775 58.8259 49.485L96 7" stroke="#00AF46" stroke-width="3.5" stroke-linecap="round"/>
<path d="M96 50.0001C96 59.6115 92.9896 68.9812 87.3908 76.7941C81.7926 84.6069 73.8873 90.4694 64.7864 93.559C55.6851 96.6482 45.8447 96.8092 36.6469 94.0195C27.4494 91.2294 19.3568 85.6281 13.5058 78.0034C7.6547 70.3781 4.33913 61.1116 4.02464 51.5053C3.71015 41.8989 6.4126 32.4354 11.7524 24.4438C17.0922 16.4522 24.8012 10.334 33.7965 6.94836C42.7918 3.5627 52.622 3.07981 61.9058 5.56744" stroke="#00AF46" stroke-width="3.5" stroke-linecap="round"/>
</svg>
