<svg width="24" height="24" viewBox="0 0 24 24" fill="none" xmlns="http://www.w3.org/2000/svg">
<path opacity="0.992" fill-rule="evenodd" clip-rule="evenodd" d="M11.2266 1.94505C13.3946 1.85516 15.504 2.15985 17.5547 2.85911C18.7078 3.25153 19.6688 3.91559 20.4375 4.8513C20.9091 5.6073 21.2529 6.41983 21.4688 7.2888C22.1875 10.4138 22.1875 13.5388 21.4688 16.6638C21.0809 18.6532 19.9637 20.0517 18.1172 20.8591C16.1501 21.6557 14.1032 22.0386 11.9766 22.0075C9.84986 22.0386 7.80297 21.6557 5.83595 20.8591C4.50563 20.31 3.5447 19.3803 2.95314 18.07C2.4192 16.6661 2.1067 15.213 2.01564 13.7107C1.84062 11.5452 1.99687 9.40459 2.48439 7.2888C2.70352 6.33348 3.09414 5.45847 3.65626 4.6638C4.42492 3.84557 5.33898 3.24401 6.39845 2.85911C7.9682 2.31116 9.57761 2.00648 11.2266 1.94505ZM11.6485 6.77317C12.7005 6.69292 13.2083 7.17728 13.1719 8.2263C12.9665 8.91123 12.5056 9.23153 11.7891 9.18723C11.0399 8.97822 10.704 8.48603 10.7813 7.71067C10.9038 7.23681 11.1929 6.92434 11.6485 6.77317ZM10.9453 10.4763C11.4362 10.4503 11.9206 10.4893 12.3985 10.5935C12.6117 10.7286 12.7758 10.9083 12.8906 11.1325C12.9595 12.5833 12.983 14.0365 12.961 15.4919C13.7565 15.6141 14.0612 16.0673 13.875 16.8513C13.7302 17.168 13.4881 17.3633 13.1485 17.4372C12.3672 17.4685 11.586 17.4685 10.8047 17.4372C10.0457 17.1608 9.83476 16.653 10.1719 15.9138C10.3786 15.6443 10.652 15.5037 10.9922 15.4919C10.9922 14.4763 10.9922 13.4607 10.9922 12.445C10.1971 12.3239 9.89242 11.8708 10.0781 11.0857C10.2723 10.7424 10.5614 10.5393 10.9453 10.4763Z" fill="#133769"/>
</svg>
