<svg width="24" height="24" viewBox="0 0 24 24" fill="none" xmlns="http://www.w3.org/2000/svg">
<path opacity="0.99" fill-rule="evenodd" clip-rule="evenodd" d="M10.9924 1.19568C13.3622 1.11846 15.1513 2.0872 16.3596 4.10193C17.4505 6.48131 17.138 8.65317 15.4221 10.6176C13.7168 12.1837 11.7559 12.6134 9.53932 11.9066C7.52351 11.078 6.3438 9.58584 6.00026 7.43006C5.80404 5.00212 6.73371 3.15057 8.78932 1.87537C9.48677 1.50991 10.2212 1.28335 10.9924 1.19568Z" fill="#D9D7D7"/>
<path opacity="0.983" fill-rule="evenodd" clip-rule="evenodd" d="M16.8988 12.2118C19.5131 12.0921 21.349 13.2171 22.4066 15.5868C23.2109 18.2051 22.5156 20.3223 20.3207 21.9383C18.2024 23.1189 16.1555 23.0095 14.18 21.6102C12.4917 20.1388 11.8902 18.3029 12.3754 16.1024C13.0854 13.8697 14.5932 12.5728 16.8988 12.2118ZM17.4613 14.2274C18.3516 14.4142 18.6251 14.9298 18.2816 15.7743C17.7932 16.2966 17.2775 16.3278 16.7347 15.868C16.409 15.3458 16.4638 14.8692 16.8988 14.4383C17.077 14.3251 17.2645 14.2548 17.4613 14.2274ZM17.2738 16.7586C17.7315 16.7021 18.0362 16.8896 18.1879 17.3211C18.2191 18.2586 18.2191 19.1961 18.1879 20.1336C17.975 20.6659 17.6078 20.8143 17.0863 20.5789C16.9503 20.4739 16.8487 20.3411 16.7816 20.1805C16.7503 19.2117 16.7503 18.243 16.7816 17.2743C16.8763 17.0312 17.0404 16.8593 17.2738 16.7586Z" fill="#133769"/>
<path opacity="0.985" fill-rule="evenodd" clip-rule="evenodd" d="M10.664 13.0556C11.4476 13.0378 12.2288 13.0691 13.0077 13.1494C11.2527 15.1203 10.823 17.3546 11.7187 19.8525C12.0154 20.5466 12.4138 21.1716 12.914 21.7275C9.55475 21.7822 6.19536 21.79 2.83587 21.7509C1.9379 21.6499 1.39884 21.1577 1.21868 20.2744C0.846202 18.3918 1.36964 16.8215 2.789 15.5634C3.84843 14.7602 5.02029 14.1665 6.30462 13.7822C7.7375 13.3767 9.19062 13.1345 10.664 13.0556Z" fill="#D9D7D7"/>
</svg>
