<svg width="24" height="24" viewBox="0 0 24 24" fill="none" xmlns="http://www.w3.org/2000/svg">
<g clip-path="url(#clip0_454_120206)">
<path opacity="0.998" fill-rule="evenodd" clip-rule="evenodd" d="M0.398438 -0.0234375C8.1172 -0.0234375 15.8359 -0.0234375 23.5547 -0.0234375C23.6244 0.0376665 23.7025 0.0923541 23.7891 0.140625C23.8452 0.235094 23.9077 0.321031 23.9766 0.398438C23.9766 1.05469 23.9766 1.71094 23.9766 2.36719C23.8915 2.55369 23.7509 2.68651 23.5547 2.76562C15.8359 2.79688 8.1172 2.79688 0.398438 2.76562C0.202257 2.68651 0.0616317 2.55369 -0.0234375 2.36719C-0.0234375 1.71094 -0.0234375 1.05469 -0.0234375 0.398438C0.0376665 0.328738 0.0923541 0.250612 0.140625 0.164062C0.235094 0.107973 0.321031 0.0454726 0.398438 -0.0234375Z" fill="#133769"/>
<path fill-rule="evenodd" clip-rule="evenodd" d="M8.92969 4.19531C10.9609 4.19531 12.9922 4.19531 15.0234 4.19531C15.0234 4.66406 15.0234 5.13281 15.0234 5.60156C12.9922 5.60156 10.9609 5.60156 8.92969 5.60156C8.92969 5.13281 8.92969 4.66406 8.92969 4.19531Z" fill="#133769"/>
<path opacity="0.994" fill-rule="evenodd" clip-rule="evenodd" d="M6.49239 7.00684C10.1487 6.99901 13.8049 7.00684 17.4611 7.03028C17.8378 7.12098 18.1269 7.33192 18.3283 7.66309C18.6054 8.212 18.746 8.79011 18.7502 9.39747C18.6799 9.5928 18.5471 9.72559 18.3518 9.7959C14.1018 9.82717 9.85178 9.82717 5.60177 9.7959C5.20731 9.59209 5.07452 9.2718 5.20333 8.83497C5.32971 8.37737 5.5016 7.93984 5.71896 7.52247C5.93608 7.28059 6.19389 7.1087 6.49239 7.00684Z" fill="#133769"/>
<path opacity="0.949" fill-rule="evenodd" clip-rule="evenodd" d="M6.07045 11.3205C6.82767 11.2261 7.14796 11.5543 7.03138 12.3049C6.6914 12.8754 6.36328 13.4535 6.04701 14.0392C5.75193 14.3868 5.40037 14.4571 4.99232 14.2502C4.72912 14.0173 4.64318 13.7282 4.73451 13.383C5.05078 12.7972 5.3789 12.2191 5.71888 11.6486C5.81334 11.5121 5.93053 11.4028 6.07045 11.3205Z" fill="#133769"/>
<path opacity="0.973" fill-rule="evenodd" clip-rule="evenodd" d="M11.6953 11.321C12.1323 11.2156 12.4526 11.3562 12.6563 11.7429C12.6875 12.5553 12.6875 13.3679 12.6563 14.1804C12.4524 14.5748 12.1322 14.7076 11.6953 14.5788C11.5 14.5085 11.3672 14.3757 11.2969 14.1804C11.2656 13.3679 11.2656 12.5553 11.2969 11.7429C11.376 11.5467 11.5088 11.4061 11.6953 11.321Z" fill="#133769"/>
<path opacity="0.949" fill-rule="evenodd" clip-rule="evenodd" d="M17.3204 11.3195C17.6236 11.2732 17.897 11.3356 18.1407 11.507C18.5188 12.1199 18.8782 12.7449 19.2188 13.382C19.277 14.2145 18.9099 14.5036 18.1173 14.2492C18.047 14.1788 17.9766 14.1085 17.9063 14.0382C17.5901 13.4525 17.2619 12.8744 16.922 12.3038C16.7996 11.8623 16.9324 11.5342 17.3204 11.3195Z" fill="#133769"/>
<path opacity="0.946" fill-rule="evenodd" clip-rule="evenodd" d="M8.83594 12.9135C9.3608 12.8914 9.65766 13.1414 9.72656 13.6635C9.56128 14.3546 9.38161 15.0421 9.1875 15.726C8.96325 16.1341 8.6273 16.267 8.17969 16.1244C7.9268 15.9707 7.78617 15.7441 7.75781 15.4447C7.93852 14.7218 8.13384 14.0031 8.34375 13.2885C8.47528 13.1175 8.63934 12.9925 8.83594 12.9135Z" fill="#133769"/>
<path opacity="0.946" fill-rule="evenodd" clip-rule="evenodd" d="M14.836 12.9138C15.1671 12.8958 15.4249 13.0208 15.6095 13.2888C15.8194 14.0035 16.0147 14.7222 16.1954 15.4451C16.1268 15.9751 15.8299 16.2173 15.3048 16.1716C15.131 16.1278 14.9826 16.0418 14.8595 15.9138C14.6347 15.2181 14.4316 14.515 14.2501 13.8044C14.2128 13.3464 14.4081 13.0496 14.836 12.9138Z" fill="#133769"/>
<path opacity="0.946" fill-rule="evenodd" clip-rule="evenodd" d="M3.82019 15.3521C4.49983 15.3364 4.78891 15.6645 4.68738 16.3365C4.3555 16.9534 4.01175 17.5628 3.65613 18.1646C3.26551 18.5396 2.87488 18.5396 2.48425 18.1646C2.37062 17.9269 2.33937 17.677 2.3905 17.4146C2.73425 16.8208 3.07801 16.2271 3.42175 15.6334C3.54697 15.5208 3.67978 15.427 3.82019 15.3521Z" fill="#133769"/>
<path opacity="0.947" fill-rule="evenodd" clip-rule="evenodd" d="M19.8049 15.3512C20.0952 15.3277 20.3374 15.4215 20.5314 15.6324C20.8595 16.1949 21.1877 16.7574 21.5158 17.3199C21.7341 18.0335 21.4763 18.4007 20.7424 18.4215C20.5686 18.3776 20.4201 18.2917 20.297 18.1637C19.9414 17.5619 19.5977 16.9525 19.2658 16.3355C19.1556 15.8365 19.3353 15.5083 19.8049 15.3512Z" fill="#133769"/>
<path opacity="0.973" fill-rule="evenodd" clip-rule="evenodd" d="M11.6953 16.0085C12.1323 15.9031 12.4526 16.0437 12.6563 16.4304C12.6875 17.2428 12.6875 18.0554 12.6563 18.8679C12.4524 19.2623 12.1322 19.3951 11.6953 19.2663C11.5 19.196 11.3672 19.0632 11.2969 18.8679C11.2656 18.0554 11.2656 17.2428 11.2969 16.4304C11.376 16.2342 11.5088 16.0936 11.6953 16.0085Z" fill="#133769"/>
<path opacity="0.949" fill-rule="evenodd" clip-rule="evenodd" d="M7.57052 17.4601C8.22405 17.4027 8.52874 17.6996 8.48458 18.3507C8.30641 19.0258 8.11891 19.6977 7.92208 20.3664C7.69586 20.6778 7.39117 20.7794 7.00802 20.671C6.61356 20.4672 6.48077 20.1469 6.60958 19.7101C6.77196 19.0824 6.9438 18.4574 7.12521 17.8351C7.23592 17.6596 7.38433 17.5346 7.57052 17.4601Z" fill="#133769"/>
<path opacity="0.949" fill-rule="evenodd" clip-rule="evenodd" d="M15.9609 17.4611C16.4715 17.4073 16.7917 17.6261 16.9219 18.1173C17.1001 18.7363 17.2485 19.3613 17.3672 19.9923C17.3705 20.3091 17.2299 20.5357 16.9453 20.672C16.5085 20.8008 16.1882 20.668 15.9844 20.2736C15.7863 19.5828 15.6066 18.8875 15.4453 18.1876C15.4864 17.8434 15.6583 17.6012 15.9609 17.4611Z" fill="#133769"/>
<path opacity="0.951" fill-rule="evenodd" clip-rule="evenodd" d="M1.42983 19.4288C2.13337 19.3901 2.43805 19.7183 2.3439 20.4132C2.01577 20.9913 1.68765 21.5695 1.35952 22.1476C0.937647 22.5851 0.515772 22.5851 0.0938972 22.1476C0.0246896 21.9331 0.00906458 21.7143 0.0470222 21.4913C0.375147 20.9132 0.703272 20.3351 1.0314 19.757C1.14583 19.6185 1.27864 19.5091 1.42983 19.4288Z" fill="#133769"/>
<path opacity="0.951" fill-rule="evenodd" clip-rule="evenodd" d="M22.0546 19.4293C22.4121 19.3621 22.7011 19.4715 22.9218 19.7575C23.25 20.3356 23.5781 20.9137 23.9062 21.4918C24.0341 22.0738 23.8075 22.4019 23.2265 22.4762C23.0972 22.4743 22.9722 22.4508 22.8515 22.4059C22.7656 22.32 22.6796 22.234 22.5937 22.1481C22.2656 21.57 21.9375 20.9918 21.6093 20.4137C21.4926 19.9572 21.6411 19.6291 22.0546 19.4293Z" fill="#133769"/>
<path opacity="0.973" fill-rule="evenodd" clip-rule="evenodd" d="M12.2578 23.9764C12.0703 23.9764 11.8828 23.9764 11.6953 23.9764C11.5088 23.8913 11.376 23.7507 11.2969 23.5545C11.2656 22.7421 11.2656 21.9295 11.2969 21.117C11.5384 20.6963 11.8899 20.5791 12.3516 20.7655C12.4909 20.8482 12.5925 20.9654 12.6563 21.117C12.6875 21.9295 12.6875 22.7421 12.6563 23.5545C12.5771 23.7507 12.4443 23.8913 12.2578 23.9764Z" fill="#133769"/>
</g>
<defs>
<clipPath id="clip0_454_120206">
<rect width="24" height="24" fill="white"/>
</clipPath>
</defs>
</svg>
