<svg width="24" height="25" viewBox="0 0 24 25" fill="none" xmlns="http://www.w3.org/2000/svg">
<path opacity="0.914" fill-rule="evenodd" clip-rule="evenodd" d="M11.8828 1.649C12.0481 1.64178 12.1809 1.70427 12.2813 1.8365C12.3125 2.55525 12.3125 3.274 12.2813 3.99275C12.0782 4.24275 11.875 4.24275 11.6719 3.99275C11.6406 3.274 11.6406 2.55525 11.6719 1.8365C11.7374 1.76289 11.8077 1.70039 11.8828 1.649Z" fill="#890101"/>
<path opacity="0.893" fill-rule="evenodd" clip-rule="evenodd" d="M5.74211 3.28813C5.87429 3.2763 5.99926 3.29974 6.11711 3.35845C6.47082 3.93292 6.80678 4.51886 7.12492 5.11626C7.12211 5.52426 6.93461 5.63362 6.56242 5.44439C6.2499 4.91314 5.93743 4.38188 5.62492 3.85063C5.51692 3.63291 5.55597 3.44541 5.74211 3.28813Z" fill="#890101"/>
<path opacity="0.893" fill-rule="evenodd" clip-rule="evenodd" d="M17.9297 3.28858C18.2628 3.27008 18.4112 3.42633 18.375 3.75733C18.0469 4.31983 17.7188 4.88233 17.3906 5.44483C17.0184 5.63406 16.8309 5.5247 16.8281 5.1167C17.1501 4.47154 17.5172 3.86216 17.9297 3.28858Z" fill="#890101"/>
<path opacity="0.987" fill-rule="evenodd" clip-rule="evenodd" d="M10.9922 7.69477C13.1576 7.39304 14.9935 8.01807 16.5 9.56977C17.237 10.4515 17.6745 11.4671 17.8125 12.6166C17.8359 14.5854 17.8438 16.5541 17.8359 18.5229C13.9297 18.5229 10.0234 18.5229 6.11719 18.5229C6.10937 16.5541 6.11719 14.5854 6.14063 12.6166C6.45193 10.4384 7.61602 8.91498 9.63282 8.04634C10.0826 7.89099 10.5357 7.7738 10.9922 7.69477ZM11.2734 9.61665C11.4953 9.60366 11.7141 9.61932 11.9297 9.66352C12.1225 9.86541 12.0912 10.0295 11.8359 10.1557C10.0206 10.2992 8.91905 11.2601 8.53126 13.0385C8.2779 13.2036 8.11383 13.1411 8.03907 12.851C8.41637 11.0675 9.49449 9.98935 11.2734 9.61665ZM8.22657 14.351C8.53754 14.4104 8.62346 14.5823 8.48438 14.8666C8.24237 14.9999 8.0783 14.9296 7.99219 14.6557C8.0289 14.518 8.10704 14.4165 8.22657 14.351Z" fill="#133769"/>
<path opacity="0.891" fill-rule="evenodd" clip-rule="evenodd" d="M1.28909 7.74304C1.38412 7.73545 1.47787 7.74327 1.57034 7.76648C2.16793 8.10037 2.75386 8.45193 3.32815 8.82116C3.39984 9.15543 3.26703 9.31949 2.92971 9.31335C2.35159 8.98523 1.77346 8.6571 1.19534 8.32898C1.0518 8.10426 1.08305 7.90898 1.28909 7.74304Z" fill="#890101"/>
<path opacity="0.894" fill-rule="evenodd" clip-rule="evenodd" d="M22.3826 7.74219C22.8068 7.75161 22.9318 7.94694 22.7576 8.32813C22.1795 8.65625 21.6014 8.98438 21.0233 9.3125C20.6699 9.33373 20.5371 9.16967 20.6248 8.82031C21.2098 8.45389 21.7958 8.0945 22.3826 7.74219Z" fill="#890101"/>
<path opacity="0.913" fill-rule="evenodd" clip-rule="evenodd" d="M0.586012 13.835C1.25807 13.8271 1.92994 13.835 2.60164 13.8584C2.73519 13.9784 2.77425 14.1268 2.71882 14.3037C2.69539 14.3896 2.6407 14.4443 2.55476 14.4678C1.89851 14.499 1.24226 14.499 0.586012 14.4678C0.339168 14.2547 0.339168 14.0438 0.586012 13.835Z" fill="#890101"/>
<path opacity="0.913" fill-rule="evenodd" clip-rule="evenodd" d="M21.3514 13.835C22.0235 13.8271 22.6954 13.835 23.3671 13.8584C23.5369 13.9597 23.5916 14.1082 23.5311 14.3037C23.4921 14.374 23.4374 14.4287 23.3671 14.4678C22.7108 14.499 22.0546 14.499 21.3983 14.4678C21.2243 14.35 21.1697 14.1859 21.2342 13.9756C21.2832 13.9347 21.3223 13.8878 21.3514 13.835Z" fill="#890101"/>
<path opacity="0.965" fill-rule="evenodd" clip-rule="evenodd" d="M5.55462 19.085C9.8359 19.0771 14.1171 19.085 18.3984 19.1084C18.6956 19.1869 18.9065 19.3666 19.0312 19.6475C19.0939 19.9721 19.1174 20.3002 19.1015 20.6318C14.3515 20.6318 9.60148 20.6318 4.8515 20.6318C4.8356 20.3002 4.85904 19.9721 4.92181 19.6475C5.0546 19.3659 5.26554 19.1784 5.55462 19.085Z" fill="#890101"/>
<path opacity="0.944" fill-rule="evenodd" clip-rule="evenodd" d="M4.38281 21.1943C9.44535 21.1865 14.5079 21.1943 19.5703 21.2178C19.8675 21.2963 20.0785 21.476 20.2031 21.7568C20.2702 22.2688 20.2936 22.7844 20.2734 23.3037C14.7422 23.3037 9.21093 23.3037 3.67968 23.3037C3.67188 22.8347 3.67969 22.3659 3.70312 21.8975C3.81332 21.5452 4.03988 21.3108 4.38281 21.1943ZM8.97656 21.9443C9.30506 21.9366 9.63318 21.9443 9.96093 21.9678C10.1852 22.1206 10.2009 22.2925 10.0078 22.4834C9.66407 22.5147 9.32029 22.5147 8.97656 22.4834C8.79164 22.3038 8.79164 22.1242 8.97656 21.9443ZM11.4141 21.9443C13.9141 21.9365 16.4141 21.9443 18.9141 21.9678C19.1444 22.1164 19.16 22.2883 18.9609 22.4834C16.4453 22.5147 13.9297 22.5147 11.4141 22.4834C11.1679 22.304 11.1679 22.1243 11.4141 21.9443Z" fill="#133769"/>
</svg>
