<svg width="24" height="24" viewBox="0 0 24 24" fill="none" xmlns="http://www.w3.org/2000/svg">
<path opacity="0.979" fill-rule="evenodd" clip-rule="evenodd" d="M21.7266 2.32129C20.8358 2.31348 19.9452 2.32129 19.0547 2.34472C18.5828 2.45722 18.2781 2.74627 18.1406 3.21191C18.1094 4.14941 18.1094 5.08691 18.1406 6.02441C18.2785 6.49049 18.5832 6.77952 19.0547 6.8916C19.9609 6.92286 20.8672 6.92286 21.7734 6.8916C22.2761 6.73279 22.5808 6.39683 22.6875 5.88379C22.7188 5.02443 22.7188 4.16504 22.6875 3.30566C22.5754 2.7654 22.2551 2.43728 21.7266 2.32129Z" fill="white"/>
<path opacity="0.977" fill-rule="evenodd" clip-rule="evenodd" d="M15.3515 3.44434C10.9295 3.43652 6.50769 3.44434 2.08583 3.46777C1.3497 3.74456 1.07628 4.268 1.26552 5.03809C1.47486 5.5216 1.84208 5.77941 2.36708 5.81152C6.60144 5.84279 10.8358 5.84279 15.0702 5.81152C16.0472 5.63138 16.3988 5.06106 16.1249 4.10059C15.958 3.76923 15.7002 3.55048 15.3515 3.44434Z" fill="white"/>
<path opacity="0.979" fill-rule="evenodd" clip-rule="evenodd" d="M21.7734 9.67872C20.8671 9.67089 19.9608 9.67872 19.0547 9.70216C18.5832 9.81423 18.2785 10.1033 18.1406 10.5693C18.1094 11.5068 18.1094 12.4443 18.1406 13.3818C18.2781 13.8475 18.5828 14.1365 19.0547 14.249C19.9453 14.2803 20.8359 14.2803 21.7266 14.249C22.2548 14.1114 22.5751 13.7755 22.6875 13.2412C22.7188 12.3819 22.7188 11.5225 22.6875 10.6631C22.5813 10.1431 22.2767 9.81498 21.7734 9.67872Z" fill="white"/>
<path opacity="0.992" fill-rule="evenodd" clip-rule="evenodd" d="M14.6013 10.7578C10.4141 10.795 6.2266 10.8185 2.03878 10.8281C1.29755 11.1604 1.05535 11.7151 1.31222 12.4922C1.47221 12.8242 1.73002 13.0351 2.08566 13.125C2.45307 13.1448 2.82028 13.1682 3.18722 13.1953C7.24158 13.1571 11.2963 13.1336 15.3513 13.125C16.0728 12.8617 16.3463 12.3539 16.1716 11.6016C16.0355 11.1998 15.7621 10.942 15.3513 10.8281C15.0927 10.82 14.8427 10.7966 14.6013 10.7578Z" fill="white"/>
<path opacity="0.979" fill-rule="evenodd" clip-rule="evenodd" d="M21.7734 17.0381C20.8671 17.0303 19.9608 17.0381 19.0547 17.0615C18.5832 17.1736 18.2785 17.4626 18.1406 17.9287C18.1094 18.8662 18.1094 19.8037 18.1406 20.7412C18.2781 21.2069 18.5828 21.4959 19.0547 21.6084C19.9453 21.6397 20.8359 21.6397 21.7266 21.6084C22.2548 21.4707 22.5751 21.1348 22.6875 20.6006C22.7188 19.7412 22.7188 18.8818 22.6875 18.0225C22.5813 17.5025 22.2767 17.1744 21.7734 17.0381Z" fill="white"/>
<path opacity="0.977" fill-rule="evenodd" clip-rule="evenodd" d="M15.0706 18.1162C10.8362 18.1084 6.6018 18.1162 2.36744 18.1397C1.39085 18.3188 1.03928 18.8891 1.31275 19.8506C1.47161 20.1812 1.72942 20.3922 2.08619 20.4834C6.50805 20.5147 10.93 20.5147 15.3518 20.4834C16.1317 20.176 16.3895 19.6214 16.1253 18.8193C15.8898 18.4015 15.5382 18.1671 15.0706 18.1162Z" fill="white"/>
</svg>
