<svg width="24" height="24" viewBox="0 0 24 24" fill="none" xmlns="http://www.w3.org/2000/svg">
<path d="M8.5 15.5C8.5 14.9477 8.94772 14.5 9.5 14.5H9.50897C10.0613 14.5 10.509 14.9477 10.509 15.5C10.509 16.0523 10.0613 16.5 9.50897 16.5H9.5C8.94772 16.5 8.5 16.0523 8.5 15.5Z" fill="#0B5F4E"/>
<path d="M13.491 15.5C13.491 14.9477 13.9387 14.5 14.491 14.5H14.5C15.0523 14.5 15.5 14.9477 15.5 15.5C15.5 16.0523 15.0523 16.5 14.5 16.5H14.491C13.9387 16.5 13.491 16.0523 13.491 15.5Z" fill="#0B5F4E"/>
<path fill-rule="evenodd" clip-rule="evenodd" d="M6.75 8.45909V6.5C6.75 3.6005 9.1005 1.25 12 1.25C14.8995 1.25 17.25 3.6005 17.25 6.5V8.45909C18.9408 8.86285 20.239 10.2984 20.4755 12.0552C20.6236 13.1556 20.75 14.3118 20.75 15.5C20.75 16.6882 20.6236 17.8444 20.4755 18.9448C20.2039 20.9618 18.5328 22.5555 16.4748 22.6501C15.0464 22.7158 13.5958 22.75 12 22.75C10.4042 22.75 8.95364 22.7158 7.52522 22.6501C5.46716 22.5555 3.79609 20.9618 3.52452 18.9448C3.37636 17.8444 3.25 16.6882 3.25 15.5C3.25 14.3118 3.37636 13.1556 3.52452 12.0552C3.76104 10.2984 5.05919 8.86285 6.75 8.45909ZM8.25 6.5C8.25 4.42893 9.92893 2.75 12 2.75C14.0711 2.75 15.75 4.42893 15.75 6.5V8.31937C14.5532 8.27365 13.3269 8.25 12 8.25C10.6732 8.25 9.44676 8.27365 8.25 8.31937V6.5ZM12 9.75C10.4264 9.75 8.9989 9.78372 7.5941 9.8483C6.2851 9.90848 5.18929 10.9319 5.0111 12.2553C4.86573 13.3351 4.75 14.4129 4.75 15.5C4.75 16.5871 4.86573 17.6649 5.0111 18.7447C5.18929 20.0681 6.2851 21.0915 7.5941 21.1517C8.9989 21.2163 10.4264 21.25 12 21.25C13.5736 21.25 15.0011 21.2163 16.4059 21.1517C17.7149 21.0915 18.8107 20.0681 18.9889 18.7447C19.1343 17.6649 19.25 16.5871 19.25 15.5C19.25 14.4129 19.1343 13.3351 18.9889 12.2553C18.8107 10.9319 17.7149 9.90848 16.4059 9.8483C15.0011 9.78372 13.5736 9.75 12 9.75Z" fill="#0B5F4E"/>
</svg>
