<svg width="24" height="24" viewBox="0 0 24 24" fill="none" xmlns="http://www.w3.org/2000/svg">
<path d="M16.2871 15.9949C16.2871 16.4089 16.6231 16.7449 17.0371 16.7449C17.4511 16.7449 17.7871 16.4089 17.7871 15.9949V7.99487C17.7871 7.58087 17.4511 7.24487 17.0371 7.24487C16.6231 7.24487 16.2871 7.58087 16.2871 7.99487V15.9949Z" fill="#E01C06"/>
<path d="M11.2961 15.0128C11.4451 15.1798 11.6501 15.2648 11.8571 15.2648C12.0341 15.2648 12.2121 15.2009 12.3551 15.0739C14.7631 12.9329 14.7631 12.2779 14.7631 12.0249C14.7631 11.7719 14.7631 11.0988 12.3501 8.99585C12.0381 8.72385 11.5641 8.75685 11.2921 9.06885C11.0191 9.38085 11.0521 9.85486 11.3641 10.1269C11.7971 10.5049 12.2271 10.9178 12.5711 11.2758H7.03711C6.62311 11.2758 6.28711 11.6118 6.28711 12.0258C6.28711 12.4398 6.62311 12.7758 7.03711 12.7758H12.5751C12.2291 13.1418 11.7951 13.5649 11.3581 13.9539C11.0481 14.2289 11.0211 14.7028 11.2961 15.0128Z" fill="#E01C06"/>
<path fill-rule="evenodd" clip-rule="evenodd" d="M11.9999 22.2498C16.6788 22.2498 19.028 22.2498 20.639 20.6388C22.25 19.0288 22.25 16.6788 22.25 11.9998C22.25 7.32076 22.25 4.97174 20.639 3.36074C19.029 1.74976 16.679 1.74976 12.0001 1.74976C7.3212 1.74976 4.97197 1.74976 3.36099 3.36074C1.75 4.97073 1.75 7.32072 1.75 11.9996C1.75 16.6786 1.75 19.0278 3.36099 20.6388C4.97097 22.2498 7.31996 22.2498 11.9999 22.2498ZM12 3.24976C16.2659 3.24976 18.408 3.24976 19.579 4.42075C20.75 5.59275 20.75 7.73374 20.75 11.9997C20.75 16.2657 20.75 18.4078 19.579 19.5788C18.407 20.7498 16.266 20.7498 12 20.7498C7.73407 20.7498 5.59199 20.7498 4.421 19.5788C3.25 18.4068 3.25 16.2658 3.25 11.9998C3.25 7.73383 3.25 5.59175 4.421 4.42075C5.59299 3.24976 7.73399 3.24976 12 3.24976Z" fill="#E01C06"/>
</svg>
