<svg width="24" height="24" viewBox="0 0 24 24" fill="none" xmlns="http://www.w3.org/2000/svg">
<path opacity="0.976" fill-rule="evenodd" clip-rule="evenodd" d="M11.5547 0.913263C12.747 0.786607 13.4736 1.30223 13.7344 2.46014C13.7657 5.47575 13.7657 8.4914 13.7344 11.507C13.5582 12.4878 12.9723 13.019 11.9766 13.1008C10.9809 13.019 10.3949 12.4878 10.2188 11.507C10.1875 8.4914 10.1875 5.47575 10.2188 2.46014C10.3405 1.65911 10.7858 1.14349 11.5547 0.913263Z" fill="#890101"/>
<path opacity="0.983" fill-rule="evenodd" clip-rule="evenodd" d="M5.13261 4.80565C6.41043 4.71682 7.12916 5.30275 7.28886 6.56346C7.28197 6.92791 7.1804 7.26382 6.98418 7.57127C4.90588 9.88511 4.43714 12.4945 5.57793 15.3994C6.77085 17.7974 8.70055 19.1646 11.367 19.501C14.2292 19.6442 16.4401 18.5269 17.9998 16.1494C19.1807 14.0629 19.3213 11.9067 18.4217 9.68064C18.0162 8.83825 17.5006 8.07265 16.8748 7.38377C16.5301 6.56894 16.6629 5.84238 17.2732 5.20408C17.8843 4.76927 18.5406 4.69113 19.242 4.96971C19.5276 5.16138 19.7854 5.38793 20.0154 5.6494C22.396 8.66196 23.0523 12.0213 21.9842 15.7275C20.8877 18.9177 18.7705 21.1287 15.6326 22.3603C11.6627 23.6632 8.08452 22.9757 4.89824 20.2978C1.84395 17.3212 0.820508 13.7509 1.82793 9.58689C2.33371 7.86325 3.21653 6.37108 4.47636 5.11033C4.68155 4.96854 4.9003 4.86696 5.13261 4.80565Z" fill="#890101"/>
</svg>
