<svg width="25" height="24" viewBox="0 0 25 24" fill="none" xmlns="http://www.w3.org/2000/svg">
<g clip-path="url(#clip0_369_24957)">
<path opacity="0.994" fill-rule="evenodd" clip-rule="evenodd" d="M4.7627 -0.0234375C4.99707 -0.0234375 5.23145 -0.0234375 5.46582 -0.0234375C5.81302 0.0809648 6.07084 0.299715 6.23926 0.632812C6.30573 1.20805 6.32916 1.78618 6.30957 2.36719C10.3096 2.36719 14.3096 2.36719 18.3096 2.36719C18.29 1.78618 18.3134 1.20805 18.3799 0.632812C18.5483 0.299715 18.8061 0.0809648 19.1533 -0.0234375C19.3877 -0.0234375 19.6221 -0.0234375 19.8564 -0.0234375C20.3738 0.143219 20.6628 0.502594 20.7236 1.05469C20.7471 1.49191 20.7549 1.92941 20.7471 2.36719C21.2317 2.35938 21.7161 2.3672 22.2002 2.39062C22.6152 2.53158 22.9043 2.80502 23.0674 3.21094C23.1211 4.26337 23.1445 5.31806 23.1377 6.375C23.1221 7.3672 23.1064 8.35936 23.0908 9.35156C19.9526 6.9848 16.5776 6.58636 12.9658 8.15625C9.72137 9.85341 7.91668 12.5331 7.55176 16.1953C7.46602 18.1023 7.89573 19.8836 8.84082 21.5391C6.2941 21.5938 3.74721 21.6015 1.2002 21.5625C0.754127 21.4211 0.457252 21.132 0.30957 20.6953C0.30957 14.8828 0.30957 9.07031 0.30957 3.25781C0.457252 2.82113 0.754127 2.53207 1.2002 2.39062C2.09068 2.36719 2.98131 2.35938 3.87207 2.36719C3.86427 1.92941 3.87208 1.49191 3.89551 1.05469C3.95629 0.502594 4.24535 0.143219 4.7627 -0.0234375Z" fill="#7E7C7C"/>
<path opacity="0.989" fill-rule="evenodd" clip-rule="evenodd" d="M24.3096 15.9614C24.3096 16.5083 24.3096 17.0552 24.3096 17.6021C23.9427 20.0232 22.7083 21.8591 20.6064 23.1099C19.7576 23.5465 18.8669 23.8356 17.9346 23.9771C17.3877 23.9771 16.8408 23.9771 16.2939 23.9771C13.3587 23.5032 11.3509 21.8781 10.2705 19.1021C9.38333 16.0014 10.1255 13.3685 12.4971 11.2036C14.778 9.4715 17.2624 9.11216 19.9502 10.1255C22.4338 11.304 23.887 13.2493 24.3096 15.9614ZM16.7627 12.0239C17.6773 11.9006 18.1851 12.2912 18.2861 13.1958C18.3096 13.9925 18.3174 14.7894 18.3096 15.5864C18.7473 15.5787 19.1848 15.5864 19.6221 15.6099C20.2939 15.6959 20.6533 16.0787 20.7002 16.7583C20.6522 17.5242 20.246 17.9226 19.4814 17.9536C18.5737 17.9955 17.6675 17.9798 16.7627 17.9067C16.2599 17.7387 15.9865 17.3871 15.9424 16.8521C15.9111 15.602 15.9111 14.3521 15.9424 13.1021C15.9918 12.563 16.2653 12.2037 16.7627 12.0239Z" fill="#7E7C7C"/>
</g>
<defs>
<clipPath id="clip0_369_24957">
<rect width="24" height="24" fill="white" transform="translate(0.333008)"/>
</clipPath>
</defs>
</svg>
