<svg width="22" height="16" viewBox="0 0 22 16" fill="none" xmlns="http://www.w3.org/2000/svg">
<path opacity="0.4" d="M10.671 15.7481C9.485 15.7481 8.42 15.0611 6.574 13.8711C5.667 13.2871 5.214 12.9951 4.771 12.8611L4.7 12.8401C4.253 12.7161 3.706 12.7161 2.622 12.7161H1.001C0.587001 12.7161 0.251001 12.3801 0.251001 11.9661C0.251001 11.5521 0.587001 11.2161 1.001 11.2161H2.622C3.849 11.2161 4.464 11.2161 5.112 11.3981L5.202 11.4251C5.851 11.6211 6.39499 11.9722 7.38199 12.6082C9.132 13.7362 10.008 14.3011 10.788 14.2451C10.823 14.2421 10.858 14.2392 10.893 14.2352C11.67 14.1422 12.413 13.4251 13.891 11.9961L15.479 10.4602C15.777 10.1722 16.252 10.1801 16.54 10.4781C16.828 10.7761 16.82 11.2511 16.522 11.5381L14.939 13.0691C13.267 14.6851 12.349 15.5721 11.075 15.7241C11.024 15.7301 10.968 15.7351 10.912 15.7401H10.895C10.82 15.7471 10.745 15.7491 10.671 15.7491V15.7481ZM3.865 3.74814H1C0.586 3.74814 0.25 3.41214 0.25 2.99814C0.25 2.58414 0.586 2.24814 1 2.24814H3.865C4.365 2.24814 4.84601 1.99215 5.21801 1.52815C6.15901 0.355148 7.60199 -0.0568496 8.89399 0.48015L10.287 1.05915C10.669 1.21815 10.851 1.65713 10.692 2.03913C10.533 2.42113 10.094 2.60314 9.712 2.44414L8.31899 1.86514C7.64899 1.58714 6.909 1.81714 6.388 2.46714C5.734 3.28114 4.815 3.74814 3.865 3.74814Z" fill="#A4A8AA"/>
<path d="M21.004 12.7488H19.846C18.425 12.7488 17.642 12.7488 16.89 12.3518C16.149 11.9608 15.655 11.2918 14.757 10.0788L12.436 6.94482C12.203 6.62882 12.1 6.54683 12.054 6.53283C12.054 6.53283 12.042 6.53381 12.017 6.54181C11.795 6.61381 11.492 6.87082 11.225 7.09782C11.089 7.21382 10.947 7.33381 10.806 7.43981C9.88901 8.12881 8.661 7.99782 7.886 7.12582C7.038 6.17082 7.038 4.67482 7.886 3.72082L9.352 2.06981C9.956 1.39081 10.581 0.687831 11.588 0.410831C12.397 0.188831 13.28 0.24281 14.058 0.28981L14.157 0.295816C15.005 0.347816 15.814 0.723824 16.436 1.35382C17.126 2.04982 17.71 2.48183 18.485 2.48183H21.002C21.416 2.48183 21.752 2.81783 21.752 3.23183C21.752 3.64583 21.416 3.98183 21.002 3.98183H18.485C17.117 3.98183 16.179 3.22583 15.369 2.40883C15.006 2.04083 14.543 1.82281 14.064 1.79381L13.964 1.78781C13.302 1.74681 12.552 1.70183 11.983 1.85783C11.403 2.01783 10.971 2.50381 10.47 3.06781L9.00401 4.71781C8.66401 5.10081 8.66401 5.74783 9.00401 6.13083C9.25401 6.41283 9.615 6.45681 9.902 6.24181C10.008 6.16281 10.126 6.06183 10.251 5.95583C10.624 5.63883 11.048 5.27881 11.552 5.11581C12.678 4.75181 13.351 5.66482 13.639 6.05382L15.959 9.18681C16.751 10.2578 17.148 10.7948 17.586 11.0258C17.993 11.2408 18.538 11.2488 19.842 11.2488H21C21.414 11.2488 21.75 11.5848 21.75 11.9988C21.75 12.4128 21.414 12.7488 21 12.7488H21.004Z" fill="#A4A8AA"/>
</svg>
