<svg width="32" height="32" viewBox="0 0 32 32" fill="none" xmlns="http://www.w3.org/2000/svg">
<g clip-path="url(#clip0_369_31876)">
<path opacity="0.99" fill-rule="evenodd" clip-rule="evenodd" d="M23.1562 -0.03125C22.1146 -0.03125 21.0729 -0.03125 20.0312 -0.03125C17.8606 0.136668 15.8189 0.75125 13.9062 1.8125C13.0444 2.36181 12.3257 3.05972 11.75 3.90625C11.0567 5.29097 11.1401 6.62431 12 7.90625C12.6513 8.70356 13.4326 9.339 14.3437 9.8125C15.944 10.5928 17.6315 11.072 19.4062 11.25C22.6614 11.6421 25.7864 11.1838 28.7812 9.875C30.0527 9.27 31.0422 8.36375 31.75 7.15625C31.8648 6.88462 31.9585 6.61381 32.0312 6.34375C32.0312 5.92708 32.0312 5.51042 32.0312 5.09375C31.7207 3.94406 31.0748 3.01697 30.0937 2.3125C28.5602 1.26501 26.8727 0.577514 25.0312 0.25C24.3987 0.145116 23.7737 0.0513661 23.1562 -0.03125Z" fill="white"/>
<path opacity="0.973" fill-rule="evenodd" clip-rule="evenodd" d="M32.0312 9.78125C30.5519 11.0941 28.8436 12.0004 26.9062 12.5C24.2676 13.1612 21.601 13.3487 18.9062 13.0625C20.0133 14.1809 20.8883 15.4621 21.5312 16.9062C24.2967 17.0534 26.9008 16.4804 29.3438 15.1875C30.3777 14.614 31.1798 13.8119 31.75 12.7812C31.8648 12.5096 31.9585 12.2388 32.0312 11.9687C32.0312 11.2396 32.0312 10.5104 32.0312 9.78125Z" fill="white"/>
<path opacity="0.988" fill-rule="evenodd" clip-rule="evenodd" d="M0.0311375 20.5307C0.0311375 21.2807 0.0311375 22.0307 0.0311375 22.7807C0.62195 26.6942 2.70532 29.4962 6.28114 31.1869C7.23595 31.5717 8.21514 31.8321 9.21864 31.9682C9.96864 31.9682 10.7186 31.9682 11.4686 31.9682C15.5341 31.3679 18.3779 29.1804 19.9999 25.4057C21.3736 21.3614 20.6653 17.7364 17.8749 14.5307C14.6352 11.4242 10.8748 10.5804 6.59364 11.9994C2.81882 13.6219 0.631325 16.4657 0.0311375 20.5307ZM11.2811 15.0932C10.6561 15.0932 10.0311 15.0932 9.40614 15.0932C9.40614 15.8015 9.40614 16.5099 9.40614 17.2182C8.62526 17.4884 8.0732 18.0092 7.74989 18.7807C7.62726 19.1029 7.5752 19.4362 7.59364 19.7807C8.19782 19.7807 8.80195 19.7807 9.40614 19.7807C9.40576 19.1561 9.71826 18.8436 10.3436 18.8432C10.9686 18.8432 11.2811 19.1557 11.2811 19.7807C11.3078 20.1546 11.1619 20.4359 10.8436 20.6244C10.4119 20.7304 9.97439 20.8137 9.53114 20.8744C8.07008 21.4522 7.43464 22.5251 7.62489 24.0932C7.85907 25.0874 8.45282 25.7541 9.40614 26.0932C9.40614 26.8015 9.40614 27.5099 9.40614 28.2182C10.0311 28.2182 10.6561 28.2182 11.2811 28.2182C11.2811 27.5099 11.2811 26.8015 11.2811 26.0932C12.134 25.7923 12.7069 25.209 12.9999 24.3432C13.0746 24.0775 13.1058 23.8066 13.0936 23.5307C12.4894 23.5307 11.8853 23.5307 11.2811 23.5307C11.2815 24.1553 10.969 24.4678 10.3436 24.4682C9.71864 24.4682 9.40614 24.1557 9.40614 23.5307C9.37951 23.1567 9.52539 22.8755 9.84364 22.6869C10.2754 22.581 10.7129 22.4976 11.1561 22.4369C12.6172 21.8592 13.2526 20.7863 13.0624 19.2182C12.8282 18.224 12.2345 17.5573 11.2811 17.2182C11.2811 16.5099 11.2811 15.8015 11.2811 15.0932Z" fill="white"/>
<path opacity="0.972" fill-rule="evenodd" clip-rule="evenodd" d="M32.0312 15.4062C30.5379 16.7365 28.8088 17.6428 26.8438 18.125C25.3069 18.5276 23.7444 18.7463 22.1562 18.7812C22.4353 20.0362 22.5394 21.307 22.4688 22.5938C24.7968 22.5118 27.0051 21.9596 29.0938 20.9375C30.1781 20.374 31.0427 19.5719 31.6875 18.5312C31.8317 18.2221 31.9463 17.9096 32.0312 17.5938C32.0312 16.8646 32.0312 16.1354 32.0312 15.4062Z" fill="white"/>
<path opacity="0.974" fill-rule="evenodd" clip-rule="evenodd" d="M32.0312 21.0312C30.5379 22.3615 28.8088 23.2678 26.8438 23.75C25.3068 24.1526 23.7443 24.3714 22.1562 24.4063C21.8421 25.7428 21.3213 26.9928 20.5938 28.1563C23.6839 28.4361 26.6005 27.8632 29.3438 26.4375C30.3777 25.864 31.1798 25.0619 31.75 24.0313C31.8648 23.7596 31.9585 23.4888 32.0312 23.2188C32.0312 22.4896 32.0312 21.7604 32.0312 21.0312Z" fill="white"/>
</g>
<defs>
<clipPath id="clip0_369_31876">
<rect width="32" height="32" fill="white" transform="matrix(-1 0 0 1 32 0)"/>
</clipPath>
</defs>
</svg>
