<svg width="20" height="20" viewBox="0 0 20 20" fill="none" xmlns="http://www.w3.org/2000/svg">
<path fill-rule="evenodd" clip-rule="evenodd" d="M10.0423 7.29183C8.54656 7.29183 7.33399 8.50439 7.33399 10.0002C7.33399 11.4959 8.54656 12.7085 10.0423 12.7085C11.5381 12.7085 12.7507 11.4959 12.7507 10.0002C12.7507 8.50439 11.5381 7.29183 10.0423 7.29183ZM8.58399 10.0002C8.58399 9.19475 9.23691 8.54183 10.0423 8.54183C10.8477 8.54183 11.5007 9.19475 11.5007 10.0002C11.5007 10.8056 10.8477 11.4585 10.0423 11.4585C9.23691 11.4585 8.58399 10.8056 8.58399 10.0002Z" fill="#A4A8AA"/>
<path d="M3.5415 10.0002C3.5415 9.65498 3.82133 9.37516 4.1665 9.37516H4.99984C5.34502 9.37516 5.62484 9.65498 5.62484 10.0002C5.62484 10.3453 5.34502 10.6252 4.99984 10.6252H4.1665C3.82133 10.6252 3.5415 10.3453 3.5415 10.0002Z" fill="#A4A8AA"/>
<path d="M14.9998 9.37516C14.6547 9.37516 14.3748 9.65498 14.3748 10.0002C14.3748 10.3453 14.6547 10.6252 14.9998 10.6252H15.8332C16.1783 10.6252 16.4582 10.3453 16.4582 10.0002C16.4582 9.65498 16.1783 9.37516 15.8332 9.37516H14.9998Z" fill="#A4A8AA"/>
<path fill-rule="evenodd" clip-rule="evenodd" d="M11.2895 2.7085H8.71023C7.17771 2.70849 5.97415 2.70848 5.02532 2.81566C4.05685 2.92506 3.27151 3.15318 2.61869 3.66873C2.42326 3.82307 2.24207 3.99354 2.07732 4.17833C1.52218 4.80101 1.27427 5.55574 1.15619 6.4817C1.04148 7.38122 1.04149 8.51954 1.0415 9.95621V10.0441C1.04149 11.4808 1.04148 12.6191 1.15619 13.5186C1.27427 14.4446 1.52218 15.1993 2.07732 15.822C2.24207 16.0068 2.42326 16.1773 2.61869 16.3316C3.27151 16.8471 4.05685 17.0753 5.02532 17.1847C5.97414 17.2918 7.17771 17.2918 8.71022 17.2918H11.2895C12.822 17.2918 14.0255 17.2918 14.9744 17.1847C15.9428 17.0753 16.7282 16.8471 17.381 16.3316C17.5764 16.1773 17.7576 16.0068 17.9224 15.822C18.4775 15.1993 18.7254 14.4446 18.8435 13.5186C18.9582 12.6191 18.9582 11.4808 18.9582 10.0441V9.9562C18.9582 8.51953 18.9582 7.38122 18.8435 6.4817C18.7254 5.55574 18.4775 4.80101 17.9224 4.17833C17.7576 3.99354 17.5764 3.82307 17.381 3.66873C16.7282 3.15318 15.9428 2.92506 14.9744 2.81566C14.0255 2.70848 12.822 2.70849 11.2895 2.7085ZM3.39341 4.64971C3.78616 4.33954 4.30664 4.15479 5.16563 4.05776C6.03611 3.95943 7.16909 3.9585 8.74984 3.9585H11.2498C12.8306 3.9585 13.9636 3.95943 14.834 4.05776C15.693 4.15479 16.2135 4.33954 16.6063 4.64971C16.7453 4.75951 16.8734 4.88017 16.9893 5.01016C17.3115 5.37155 17.5023 5.84582 17.6035 6.63982C17.707 7.45112 17.7082 8.50969 17.7082 10.0002C17.7082 11.4906 17.707 12.5492 17.6035 13.3605C17.5023 14.1545 17.3115 14.6288 16.9893 14.9902C16.8734 15.1202 16.7453 15.2408 16.6063 15.3506C16.2135 15.6608 15.693 15.8455 14.834 15.9426C13.9636 16.0409 12.8306 16.0418 11.2498 16.0418H8.74984C7.16909 16.0418 6.03611 16.0409 5.16563 15.9426C4.30664 15.8455 3.78616 15.6608 3.39341 15.3506C3.25438 15.2408 3.12625 15.1202 3.01035 14.9902C2.68817 14.6288 2.4974 14.1545 2.39615 13.3605C2.29269 12.5492 2.2915 11.4906 2.2915 10.0002C2.2915 8.50969 2.29269 7.45112 2.39615 6.63982C2.4974 5.84582 2.68817 5.37155 3.01035 5.01016C3.12625 4.88017 3.25438 4.75951 3.39341 4.64971Z" fill="#A4A8AA"/>
</svg>
