<svg width="24" height="24" viewBox="0 0 24 24" fill="none" xmlns="http://www.w3.org/2000/svg">
<path opacity="0.992" fill-rule="evenodd" clip-rule="evenodd" d="M19.1016 1.00781C19.3467 1.0619 19.5968 1.09315 19.8516 1.10156C19.6718 2.45344 19.078 3.58625 18.0703 4.5C17.8361 4.67971 17.5861 4.83595 17.3203 4.96875C17.1111 4.88859 16.8923 4.81828 16.6641 4.75781C16.0865 4.8517 15.86 5.17983 15.9844 5.74219C16.2719 6.22608 16.6547 6.31983 17.1328 6.02344C17.2295 5.92683 17.3077 5.81747 17.3672 5.69531C18.0063 5.4157 18.5688 5.02509 19.0547 4.52344C19.8354 5.31192 20.6088 6.1088 21.375 6.91406C21.7367 7.38755 21.9711 7.91883 22.0781 8.50781C22.1245 12.8692 22.1089 17.2286 22.0313 21.5859C21.7919 22.2472 21.331 22.6612 20.6484 22.8281C17.9922 22.8594 15.336 22.8594 12.6797 22.8281C11.9219 22.6328 11.4453 22.1563 11.25 21.3984C11.2187 17.1015 11.2187 12.8047 11.25 8.50781C11.3571 7.91883 11.5914 7.38755 11.9531 6.91406C13.1483 5.62519 14.3748 4.36739 15.6328 3.14062C16.4799 2.72529 17.269 2.81123 18 3.39844C18.5694 2.69711 18.9365 1.90024 19.1016 1.00781ZM16.4766 11.4609C16.7266 11.4609 16.9766 11.4609 17.2266 11.4609C17.2266 11.7578 17.2266 12.0547 17.2266 12.3516C18.1691 12.4192 18.7004 12.9192 18.8203 13.8516C18.5859 13.8516 18.3516 13.8516 18.1172 13.8516C18.0495 13.3308 17.7526 13.0808 17.2266 13.1016C17.2266 13.6016 17.2266 14.1015 17.2266 14.6016C18.4687 14.7589 18.9609 15.4464 18.7031 16.6641C18.4076 17.248 17.9311 17.5605 17.2734 17.6016C17.2268 17.8968 17.2111 18.1937 17.2266 18.4922C16.9766 18.4922 16.7266 18.4922 16.4766 18.4922C16.492 18.1937 16.4764 17.8968 16.4297 17.6016C15.5122 17.5122 14.9966 17.0122 14.8828 16.1016C15.1172 16.1016 15.3516 16.1016 15.5859 16.1016C15.6537 16.6223 15.9505 16.8723 16.4766 16.8516C16.4921 16.3506 16.4765 15.8506 16.4297 15.3516C15.2205 15.1666 14.7439 14.4791 15 13.2891C15.3046 12.6872 15.7968 12.3747 16.4766 12.3516C16.4766 12.0547 16.4766 11.7578 16.4766 11.4609Z" fill="#890101"/>
<path opacity="0.984" fill-rule="evenodd" clip-rule="evenodd" d="M13.8515 3.72728C13.9159 3.71993 13.9784 3.72775 14.039 3.75072C13.1079 4.69745 12.1938 5.65839 11.2969 6.63353C10.9055 7.1822 10.6556 7.79158 10.5469 8.46165C10.4704 12.6328 10.4547 16.8047 10.5 20.9773C10.5056 21.2834 10.5603 21.5802 10.664 21.8679C10.6484 21.8992 10.6328 21.9304 10.6172 21.9617C8.66403 20.8288 6.71094 19.696 4.7578 18.5632C3.93372 17.7863 3.80091 16.9035 4.35936 15.9148C6.41384 12.3369 8.49195 8.7744 10.5937 5.22728C10.93 4.85219 11.3284 4.56311 11.789 4.36009C12.4816 4.14818 13.169 3.93724 13.8515 3.72728Z" fill="#890101"/>
<path opacity="0.964" fill-rule="evenodd" clip-rule="evenodd" d="M10.4295 3.91406C10.455 3.91687 10.4706 3.9325 10.4764 3.96094C8.1286 8.01577 5.79268 12.0783 3.46857 16.1484C3.4001 16.3505 3.33761 16.5537 3.28107 16.7578C2.73419 16.2109 2.18732 15.6641 1.64044 15.1172C1.10944 14.3023 1.10944 13.4898 1.64044 12.6797C4.56521 9.74709 7.4949 6.82523 10.4295 3.91406Z" fill="#890101"/>
<path opacity="0.944" fill-rule="evenodd" clip-rule="evenodd" d="M16.1018 13.1016C16.2268 13.1016 16.3518 13.1016 16.4768 13.1016C16.4768 13.6016 16.4768 14.1015 16.4768 14.6016C15.7029 14.554 15.4451 14.1633 15.7034 13.4297C15.8178 13.2912 15.9506 13.1819 16.1018 13.1016Z" fill="#890101"/>
<path opacity="0.943" fill-rule="evenodd" clip-rule="evenodd" d="M17.2266 15.3516C18.0004 15.3991 18.2582 15.7898 18 16.5234C17.805 16.7811 17.5472 16.8905 17.2266 16.8516C17.2266 16.3515 17.2266 15.8516 17.2266 15.3516Z" fill="#890101"/>
</svg>
