<svg width="24" height="24" viewBox="0 0 24 24" fill="none" xmlns="http://www.w3.org/2000/svg">
<g opacity="0.4">
<path d="M11.9998 4.75C11.3095 4.75 10.7498 5.30964 10.7498 6C10.7498 6.69036 11.3095 7.25 11.9998 7.25H12.0088C12.6992 7.25 13.2588 6.69036 13.2588 6C13.2588 5.30964 12.6992 4.75 12.0088 4.75H11.9998Z" fill="#A4A8AA"/>
<path d="M10.7459 12C10.7459 11.3096 11.3056 10.75 11.9959 10.75H12.0049C12.6952 10.75 13.2549 11.3096 13.2549 12C13.2549 12.6904 12.6952 13.25 12.0049 13.25H11.9959C11.3056 13.25 10.7459 12.6904 10.7459 12Z" fill="#A4A8AA"/>
<path d="M10.7459 18C10.7459 17.3096 11.3056 16.75 11.9959 16.75H12.0049C12.6952 16.75 13.2549 17.3096 13.2549 18C13.2549 18.6904 12.6952 19.25 12.0049 19.25H11.9959C11.3056 19.25 10.7459 18.6904 10.7459 18Z" fill="#A4A8AA"/>
</g>
<path d="M17.9998 4.75C17.3095 4.75 16.7498 5.30964 16.7498 6C16.7498 6.69036 17.3095 7.25 17.9998 7.25H18.0088C18.6992 7.25 19.2588 6.69036 19.2588 6C19.2588 5.30964 18.6992 4.75 18.0088 4.75H17.9998Z" fill="#A4A8AA"/>
<path d="M16.7498 12C16.7498 11.3096 17.3095 10.75 17.9998 10.75H18.0088C18.6992 10.75 19.2588 11.3096 19.2588 12C19.2588 12.6904 18.6992 13.25 18.0088 13.25H17.9998C17.3095 13.25 16.7498 12.6904 16.7498 12Z" fill="#A4A8AA"/>
<path d="M5.99982 16.75C5.30946 16.75 4.74982 17.3096 4.74982 18C4.74982 18.6904 5.30946 19.25 5.99982 19.25H6.0088C6.69915 19.25 7.2588 18.6904 7.2588 18C7.2588 17.3096 6.69915 16.75 6.0088 16.75H5.99982Z" fill="#A4A8AA"/>
<path d="M17.9998 16.75C17.3095 16.75 16.7498 17.3096 16.7498 18C16.7498 18.6904 17.3095 19.25 17.9998 19.25H18.0088C18.6992 19.25 19.2588 18.6904 19.2588 18C19.2588 17.3096 18.6992 16.75 18.0088 16.75H17.9998Z" fill="#A4A8AA"/>
<path d="M4.74982 12C4.74982 11.3096 5.30946 10.75 5.99982 10.75H6.0088C6.69915 10.75 7.2588 11.3096 7.2588 12C7.2588 12.6904 6.69915 13.25 6.0088 13.25H5.99982C5.30946 13.25 4.74982 12.6904 4.74982 12Z" fill="#A4A8AA"/>
<path d="M5.99982 4.75C5.30946 4.75 4.74982 5.30964 4.74982 6C4.74982 6.69036 5.30946 7.25 5.99982 7.25H6.0088C6.69915 7.25 7.2588 6.69036 7.2588 6C7.2588 5.30964 6.69915 4.75 6.0088 4.75H5.99982Z" fill="#A4A8AA"/>
</svg>
