<svg width="24" height="24" viewBox="0 0 24 24" fill="none" xmlns="http://www.w3.org/2000/svg">
<path opacity="0.995" fill-rule="evenodd" clip-rule="evenodd" d="M6.64295 2.32757C9.57958 2.30797 12.5144 2.32807 15.4474 2.38787C15.6931 2.47716 15.9209 2.59777 16.1309 2.7497C17.0902 3.6956 18.035 4.65377 18.9652 5.62422C19.0925 5.83866 19.1863 6.06649 19.2466 6.30767C19.2533 8.21076 19.2734 10.1137 19.3069 12.0165C21.1726 13.2019 22.0102 14.9038 21.8196 17.1223C21.4916 19.1385 20.386 20.539 18.5028 21.3235C18.1249 21.4616 17.7363 21.5554 17.337 21.6049C13.7723 21.6317 10.2076 21.6317 6.64295 21.6049C5.84559 21.3972 5.34305 20.8947 5.13534 20.0973C5.10853 14.6833 5.10853 9.26931 5.13534 3.85528C5.35037 3.05733 5.85291 2.54809 6.64295 2.32757ZM16.6535 12.6195C18.3444 12.6973 19.5438 13.5014 20.2517 15.0317C20.868 16.9215 20.3922 18.4693 18.8245 19.6752C17.4038 20.5595 15.9832 20.5595 14.5629 19.6752C12.995 18.4686 12.5193 16.9208 13.1357 15.0317C13.8352 13.5345 15.0078 12.7305 16.6535 12.6195Z" fill="#133769"/>
<path opacity="0.984" fill-rule="evenodd" clip-rule="evenodd" d="M16.4518 13.9063C16.8482 13.8198 17.1363 13.9538 17.3161 14.3083C17.3362 14.8174 17.3429 15.3266 17.3362 15.836C17.8456 15.8293 18.3549 15.836 18.8639 15.8561C19.1448 15.969 19.2788 16.1767 19.266 16.4793C19.2788 16.7819 19.1448 16.9896 18.8639 17.1024C18.3549 17.1225 17.8456 17.1292 17.3362 17.1225C17.3429 17.6319 17.3362 18.1412 17.3161 18.6502C17.2033 18.9311 16.9956 19.0651 16.693 19.0523C16.3904 19.0651 16.1827 18.9311 16.0698 18.6502C16.0497 18.1412 16.043 17.6319 16.0497 17.1225C15.5403 17.1292 15.0311 17.1225 14.522 17.1024C14.2411 16.9896 14.1071 16.7819 14.12 16.4793C14.1071 16.1767 14.2411 15.969 14.522 15.8561C15.0311 15.836 15.5403 15.8293 16.0497 15.836C16.043 15.3266 16.0497 14.8174 16.0698 14.3083C16.1511 14.1266 16.2784 13.9926 16.4518 13.9063Z" fill="#133769"/>
</svg>
