<svg width="24" height="24" viewBox="0 0 24 24" fill="none" xmlns="http://www.w3.org/2000/svg">
<path d="M18.75 1.25C16.5409 1.25 14.75 3.04086 14.75 5.25C14.75 7.45914 16.5409 9.25 18.75 9.25C20.9591 9.25 22.75 7.45914 22.75 5.25C22.75 3.04086 20.9591 1.25 18.75 1.25Z" fill="#723F59"/>
<path fill-rule="evenodd" clip-rule="evenodd" d="M21.5694 17.812C21.75 16.4686 21.75 14.7479 21.75 12.5572V12.4428C21.75 12.0501 21.75 11.6721 21.749 11.309C21.7472 10.709 21.7464 10.409 21.582 10.2897C21.4176 10.1703 21.0915 10.2754 20.4394 10.4857C19.9071 10.6573 19.3394 10.75 18.75 10.75C15.7124 10.75 13.25 8.28757 13.25 5.25C13.25 4.66775 13.3405 4.10663 13.5081 3.57993C13.7208 2.91187 13.8271 2.57784 13.7073 2.41392C13.5874 2.25 13.2792 2.25 12.6628 2.25H11.4428C9.25213 2.24999 7.53144 2.24998 6.18802 2.43059C4.81137 2.61568 3.71911 3.00272 2.86091 3.86091C2.00271 4.71911 1.61568 5.81137 1.43059 7.18802C1.24998 8.53144 1.24999 10.2521 1.25 12.4428V12.5572C1.24999 14.7479 1.24998 16.4686 1.43059 17.812C1.61568 19.1886 2.00271 20.2809 2.86091 21.1391C3.71911 21.9973 4.81137 22.3843 6.18802 22.5694C7.53143 22.75 9.2521 22.75 11.4428 22.75H11.5572C13.7479 22.75 15.4686 22.75 16.812 22.5694C18.1886 22.3843 19.2809 21.9973 20.1391 21.1391C20.9973 20.2809 21.3843 19.1886 21.5694 17.812ZM7 10.25C6.58579 10.25 6.25 10.5858 6.25 11C6.25 11.4142 6.58579 11.75 7 11.75H11C11.4142 11.75 11.75 11.4142 11.75 11C11.75 10.5858 11.4142 10.25 11 10.25H7ZM6.25 16C6.25 15.5858 6.58579 15.25 7 15.25H15C15.4142 15.25 15.75 15.5858 15.75 16C15.75 16.4142 15.4142 16.75 15 16.75H7C6.58579 16.75 6.25 16.4142 6.25 16Z" fill="#723F59"/>
</svg>
