<svg width="24" height="24" viewBox="0 0 24 24" fill="none" xmlns="http://www.w3.org/2000/svg">
<path fill-rule="evenodd" clip-rule="evenodd" d="M11.8246 1.25657C11.9414 1.24781 12.0588 1.24781 12.1757 1.25657C12.6793 1.29431 13.0874 1.52155 13.4603 1.81329C13.811 2.0877 14.199 2.47573 14.6528 2.92956L14.8951 3.13696C15.1519 3.35689 15.2804 3.46685 15.4345 3.52828C15.5887 3.58971 15.7575 3.59821 16.0953 3.61521L16.4674 3.63394C17.1786 3.6339 17.7865 3.63387 18.2723 3.69919C18.791 3.76892 19.2813 3.92526 19.6781 4.32206C20.0749 4.71886 20.2312 5.20911 20.3009 5.7278C20.3662 6.21358 20.3662 6.82148 20.3662 7.53269L20.3849 7.90486C20.4019 8.24257 20.4104 8.41145 20.4718 8.5656C20.5333 8.71974 20.6432 8.84817 20.8631 9.105L21.0705 9.34726C21.5244 9.80106 21.9124 10.1891 22.1868 10.5398C22.4786 10.9127 22.7058 11.3208 22.7436 11.8244C22.7523 11.9413 22.7523 12.0587 22.7436 12.1756C22.7058 12.6792 22.4786 13.0873 22.1868 13.4602C21.9124 13.8109 21.5244 14.1989 21.0706 14.6527L20.8632 14.8949C20.6432 15.1518 20.5333 15.2802 20.4718 15.4344C20.4104 15.5886 20.4019 15.7574 20.3849 16.0951L20.3662 16.4673C20.3662 17.1785 20.3662 17.7864 20.3009 18.2722C20.2312 18.7909 20.0749 19.2811 19.6781 19.6779C19.2813 20.0747 18.791 20.2311 18.2723 20.3008C17.7865 20.3661 17.1786 20.3661 16.4674 20.3661L16.0378 20.3959C15.6995 20.4195 15.5303 20.4312 15.377 20.4959C15.2237 20.5606 15.0972 20.6735 14.8443 20.8994L14.6529 21.0704C14.1991 21.5242 13.811 21.9123 13.4603 22.1867C13.0874 22.4785 12.6793 22.7057 12.1757 22.7434C12.0588 22.7522 11.9414 22.7522 11.8246 22.7434C11.3209 22.7057 10.9128 22.4785 10.5399 22.1867C10.1892 21.9123 9.80126 21.5243 9.34752 21.0705L9.10518 20.863C8.84832 20.6431 8.71988 20.5331 8.56572 20.4717C8.41157 20.4103 8.24271 20.4018 7.90499 20.3848L7.53281 20.3661C6.8216 20.3661 6.2137 20.3661 5.72793 20.3008C5.20923 20.2311 4.71898 20.0747 4.32218 19.6779C3.92538 19.2811 3.76904 18.7909 3.69931 18.2722C3.634 17.7864 3.63403 17.1785 3.63406 16.4673L3.61533 16.0951C3.59833 15.7574 3.58983 15.5886 3.5284 15.4344C3.46698 15.2802 3.35701 15.1518 3.13709 14.8949L2.92968 14.6527C2.47586 14.1989 2.08782 13.8109 1.81342 13.4602C1.52167 13.0873 1.29443 12.6792 1.25669 12.1756C1.24793 12.0587 1.24793 11.9413 1.25669 11.8244C1.29443 11.3208 1.52167 10.9127 1.81342 10.5398C2.08781 10.1891 2.47583 9.80111 2.92963 9.34735L3.13708 9.10506C3.35701 8.84819 3.46697 8.71976 3.5284 8.5656C3.58983 8.41144 3.59833 8.24258 3.61533 7.90485L3.63406 7.53268C3.63403 6.82147 3.634 6.21358 3.69931 5.7278C3.76904 5.20911 3.92538 4.71886 4.32218 4.32206C4.71898 3.92526 5.20923 3.76892 5.72793 3.69919C6.2137 3.63387 6.82159 3.6339 7.5328 3.63394L7.96242 3.60407C8.30074 3.58055 8.46991 3.56878 8.62323 3.5041C8.77655 3.43942 8.90302 3.32646 9.15597 3.10055L9.34742 2.92956C9.8012 2.47573 10.1892 2.0877 10.5399 1.81329C10.9128 1.52155 11.3209 1.29431 11.8246 1.25657ZM11.0001 16C11.0001 15.4477 11.4458 15 11.9957 15H12.0046C12.5544 15 13.0001 15.4477 13.0001 16C13.0001 16.5523 12.5544 17 12.0046 17H11.9957C11.4458 17 11.0001 16.5523 11.0001 16ZM11.0001 12C11.0001 12.5523 11.4478 13 12.0001 13C12.5524 13 13.0001 12.5523 13.0001 12V8C13.0001 7.44772 12.5524 7 12.0001 7C11.4478 7 11.0001 7.44772 11.0001 8V12Z" fill="#FEBE00"/>
</svg>
