<svg width="24" height="24" viewBox="0 0 24 24" fill="none" xmlns="http://www.w3.org/2000/svg">
<g clip-path="url(#clip0_483_20064)">
<path opacity="0.962" fill-rule="evenodd" clip-rule="evenodd" d="M19.1016 -0.0234375C19.5078 -0.0234375 19.914 -0.0234375 20.3203 -0.0234375C22.449 0.464738 23.6677 1.79287 23.9766 3.96094C23.9766 4.47656 23.9766 4.99219 23.9766 5.50781C23.815 7.46564 23.2604 9.30937 22.3125 11.0391C22.0269 11.3507 21.6909 11.421 21.3047 11.25C21.0108 11.0293 20.9092 10.7402 21 10.3828C22.168 8.274 22.6367 6.024 22.4062 3.63281C21.8407 1.89534 20.661 1.20002 18.8672 1.54687C17.6291 2.00639 16.9572 2.89702 16.8516 4.21875C16.9466 5.18723 17.095 6.14817 17.2969 7.10156C17.3904 7.80487 17.0857 8.12517 16.3828 8.0625C16.125 7.99219 15.9609 7.82812 15.8906 7.57031C15.5894 6.32091 15.4331 5.05528 15.4219 3.77344C15.6629 2.14191 16.5301 0.97785 18.0234 0.28125C18.3795 0.144012 18.7389 0.0424494 19.1016 -0.0234375Z" fill="#133769"/>
<path opacity="0.987" fill-rule="evenodd" clip-rule="evenodd" d="M8.92969 23.9767C8.66405 23.9767 8.39845 23.9767 8.13281 23.9767C7.89759 23.898 7.67883 23.7808 7.47656 23.6251C5.09377 21.2423 2.71094 18.8595 0.328125 16.4767C0.159089 16.2636 0.0419012 16.0292 -0.0234375 15.7735C-0.0234375 15.5392 -0.0234375 15.3048 -0.0234375 15.0704C0.0668747 14.8273 0.184062 14.5929 0.328125 14.3673C3.82031 10.8751 7.3125 7.38292 10.8047 3.89073C11.0039 3.83797 11.207 3.80672 11.4141 3.79698C12.5393 3.76994 13.6643 3.77776 14.7891 3.82042C14.7652 4.60108 14.8277 5.38234 14.9766 6.16417C14.8201 6.53997 14.7108 6.93058 14.6484 7.33604C14.7545 8.52808 15.4029 9.18433 16.5937 9.30479C17.7844 9.18442 18.4328 8.52817 18.5391 7.33604C18.4877 6.70215 18.2143 6.18653 17.7187 5.78917C17.5851 5.21912 17.5148 4.64098 17.5078 4.05479C18.1096 4.08704 18.7033 4.17298 19.2891 4.31261C19.5456 4.44144 19.6941 4.65238 19.7344 4.94542C20.0927 7.40172 20.2646 9.87048 20.25 12.3517C20.2405 12.609 20.1937 12.859 20.1094 13.1017C16.5859 16.6251 13.0625 20.1485 9.53906 23.672C9.34467 23.8004 9.14156 23.902 8.92969 23.9767ZM13.1484 10.2423C13.4645 10.4878 13.7614 10.7612 14.0391 11.0626C13.7713 11.3147 13.5213 11.5802 13.2891 11.8595C13.692 12.3254 14.0201 12.841 14.2734 13.4064C13.875 13.6603 13.4687 13.9025 13.0547 14.1329C12.8013 13.4814 12.4263 12.9111 11.9297 12.422C11.6763 12.1907 11.3794 12.0969 11.0391 12.1407C10.6377 12.3211 10.5049 12.6258 10.6406 13.0548C10.893 13.7626 11.1585 14.4657 11.4375 15.1642C11.6939 16.3311 11.2955 17.1983 10.2422 17.7657C9.32081 18.0803 8.46923 17.9475 7.6875 17.3673C7.36139 17.6464 7.04887 17.9433 6.75 18.2579C6.46805 17.9838 6.19462 17.7025 5.92969 17.4142C6.20456 17.1316 6.47016 16.8425 6.72656 16.547C6.27483 16.0426 5.92326 15.4723 5.67187 14.836C5.63527 14.7684 5.64309 14.7059 5.69531 14.6485C6.0937 14.426 6.48431 14.1916 6.86719 13.9454C7.14211 14.8326 7.64212 15.5592 8.36719 16.1251C8.78737 16.3777 9.1702 16.3386 9.51562 16.0079C9.66122 15.6525 9.66122 15.2931 9.51562 14.9298C9.20006 14.3144 8.95008 13.6737 8.76562 13.0079C8.58759 11.7171 9.12666 10.8968 10.3828 10.547C11.0917 10.4723 11.7402 10.6363 12.3281 11.0392C12.6246 10.7974 12.898 10.5317 13.1484 10.2423Z" fill="#133769"/>
</g>
<defs>
<clipPath id="clip0_483_20064">
<rect width="24" height="24" fill="white"/>
</clipPath>
</defs>
</svg>
