<svg width="20" height="20" viewBox="0 0 20 20" fill="none" xmlns="http://www.w3.org/2000/svg">
<path fill-rule="evenodd" clip-rule="evenodd" d="M10.0307 1.04535C6.23401 1.04535 3.15496 4.11972 3.15496 7.9137V10.1698L1.57652 12.8939C1.42364 13.1577 1.44606 13.5214 1.70203 13.7623C3.04935 15.0302 5.81606 16.1358 8.86984 16.3935C11.9477 16.6532 15.454 16.0645 18.2572 13.7741C18.5218 13.5579 18.5963 13.1805 18.4266 12.8787L16.9064 10.1742V7.9137C16.9064 4.11972 13.8273 1.04535 10.0307 1.04535ZM4.40496 7.9137C4.40496 4.81146 6.92298 2.29535 10.0307 2.29535C13.1384 2.29535 15.6564 4.81147 15.6564 7.9137V10.5014L17.1086 13.0849C14.6889 14.8827 11.7016 15.378 8.97496 15.1479C6.35142 14.9265 4.08198 14.0441 2.88555 13.128L4.40496 10.5058V7.9137Z" fill="#0B5F4E"/>
<path d="M7.11566 17.9936C7.89154 18.599 8.90374 18.9582 10.0001 18.9582C11.0965 18.9582 12.1088 18.599 12.8846 17.9936L12.1157 17.0081C11.5647 17.438 10.8246 17.7082 10.0001 17.7082C9.17571 17.7082 8.43562 17.438 7.88462 17.0081L7.11566 17.9936Z" fill="#0B5F4E"/>
</svg>
