<svg width="24" height="24" viewBox="0 0 24 24" fill="none" xmlns="http://www.w3.org/2000/svg">
<g clip-path="url(#clip0_547_7648)">
<path d="M17.6171 18.4617V19.8509C17.6171 19.9579 17.6171 20.0268 17.6171 20.2066C17.6171 21.8694 13.8317 23.2174 9.16211 23.2174C4.49247 23.2174 0.707031 21.8694 0.707031 20.2066C0.707031 20.0269 0.707031 20.0081 0.707031 19.8509V14.9812" stroke="#0B5F4E" stroke-width="1.5" stroke-miterlimit="22.9256" stroke-linecap="round" stroke-linejoin="round"/>
<path d="M11.8009 17.6029C10.9706 17.7 10.0836 17.7525 9.16211 17.7525C4.49247 17.7525 0.707031 16.4045 0.707031 14.7417C0.707031 14.562 0.707031 14.5432 0.707031 14.386V9.51624" stroke="#0B5F4E" stroke-width="1.5" stroke-miterlimit="22.9256" stroke-linecap="round" stroke-linejoin="round"/>
<path d="M15.1563 11.3772C13.6251 11.9253 11.5048 12.2647 9.16211 12.2647C4.49247 12.2647 0.707031 10.9167 0.707031 9.25383C0.707031 9.07411 0.707031 9.05532 0.707031 8.89815V4.02844" stroke="#0B5F4E" stroke-width="1.5" stroke-miterlimit="22.9256" stroke-linecap="round" stroke-linejoin="round"/>
<path d="M17.6172 4.02844V8.03949" stroke="#0B5F4E" stroke-width="1.5" stroke-miterlimit="22.9256" stroke-linecap="round" stroke-linejoin="round"/>
<path d="M9.1582 6.80413C13.8278 6.80413 17.6133 5.45613 17.6133 3.7933C17.6133 2.13046 13.8278 0.782471 9.1582 0.782471C4.48859 0.782471 0.703125 2.13046 0.703125 3.7933C0.703125 5.45613 4.48859 6.80413 9.1582 6.80413Z" stroke="#0B5F4E" stroke-width="1.5" stroke-miterlimit="22.9256" stroke-linecap="round" stroke-linejoin="round"/>
<path fill-rule="evenodd" clip-rule="evenodd" d="M12.0359 17.3589L16.9702 8.49753C17.1046 8.25598 17.3419 8.11658 17.6183 8.11658C17.8947 8.11658 18.132 8.25603 18.2664 8.49753L23.2007 17.3589C23.3322 17.5952 23.3291 17.8626 23.1921 18.0957C23.0551 18.3289 22.8229 18.4617 22.5526 18.4617C19.2631 18.4617 15.9736 18.4617 12.6841 18.4617C12.4137 18.4617 12.1816 18.3289 12.0445 18.0957C11.9075 17.8626 11.9044 17.5952 12.0359 17.3589Z" stroke="#0B5F4E" stroke-width="1.5" stroke-miterlimit="22.9256" stroke-linecap="round" stroke-linejoin="round"/>
<path d="M17.6172 11.8268V14.1019" stroke="#0B5F4E" stroke-width="1.5" stroke-miterlimit="22.9256" stroke-linecap="round" stroke-linejoin="round"/>
<path d="M17.6172 16.352V16.3027" stroke="#0B5F4E" stroke-width="1.5" stroke-miterlimit="22.9256" stroke-linecap="round" stroke-linejoin="round"/>
</g>
<defs>
<clipPath id="clip0_547_7648">
<rect width="24" height="24" fill="white"/>
</clipPath>
</defs>
</svg>
