<svg width="20" height="20" viewBox="0 0 20 20" fill="none" xmlns="http://www.w3.org/2000/svg">
<path d="M14.1667 5.20829H5.83333V6.45829H14.1667V5.20829Z" fill="#A4A8AA"/>
<path d="M14.1667 9.37496H10V10.625H14.1667V9.37496Z" fill="#A4A8AA"/>
<path fill-rule="evenodd" clip-rule="evenodd" d="M17.5005 1.05248L2.50045 1.04163C2.33461 1.04151 2.17553 1.1073 2.05822 1.22452C1.94091 1.34175 1.875 1.50079 1.875 1.66663V18.3333C1.875 18.4991 1.94085 18.658 2.05806 18.7752C2.17527 18.8924 2.33424 18.9583 2.5 18.9583H17.5C17.8452 18.9583 18.125 18.6785 18.125 18.3333L18.125 1.67748C18.125 1.33248 17.8455 1.05273 17.5005 1.05248ZM3.125 17.7083L3.125 2.29208L16.875 2.30203L16.875 17.7083H3.125Z" fill="#A4A8AA"/>
</svg>
