<svg width="38" height="40" viewBox="0 0 38 40" fill="none" xmlns="http://www.w3.org/2000/svg">
<path opacity="0.975" fill-rule="evenodd" clip-rule="evenodd" d="M11.3828 -0.0390625C16.1745 -0.0390625 20.9662 -0.0390625 25.7578 -0.0390625C29.7655 3.90359 33.7369 7.88797 37.6719 11.9141C37.724 19.6484 37.724 27.3828 37.6719 35.1172C37.1748 37.7103 35.6514 39.3249 33.1016 39.9609C25.862 39.9609 18.6224 39.9609 11.3828 39.9609C8.83297 39.3249 7.30953 37.7103 6.8125 35.1172C6.77344 33.3205 6.76042 31.5236 6.77344 29.7266C5.10657 29.7396 3.4399 29.7266 1.77344 29.6875C1.00479 29.5702 0.496979 29.1405 0.250002 28.3984C0.197916 24.8568 0.197916 21.3151 0.250002 17.7734C0.411541 17.1171 0.815182 16.6874 1.46094 16.4844C3.23158 16.4453 5.00242 16.4323 6.77344 16.4453C6.76042 12.565 6.77344 8.68484 6.8125 4.80469C7.31024 2.21088 8.83367 0.596297 11.3828 -0.0390625ZM12.3203 1.21094C16.487 1.21094 20.6537 1.21094 24.8203 1.21094C24.8073 4.59645 24.8203 7.98187 24.8594 11.3672C25.0865 12.1411 25.5943 12.6229 26.3828 12.8125C29.716 12.8516 33.0494 12.8646 36.3828 12.8516C36.3959 20.2214 36.3828 27.5912 36.3438 34.9609C35.883 37.2444 34.4898 38.4813 32.1641 38.6719C25.5495 38.724 18.9349 38.724 12.3203 38.6719C9.995 38.4818 8.60172 37.2448 8.14063 34.9609C8.10156 33.2163 8.08852 31.4716 8.10156 29.7266C15.1356 29.7646 22.1669 29.7255 29.1953 29.6094C29.7603 29.3829 30.1379 28.9792 30.3281 28.3984C30.3802 24.8568 30.3802 21.3151 30.3281 17.7734C30.1673 17.1177 29.7637 16.688 29.1172 16.4844C22.112 16.4453 15.1068 16.4323 8.10156 16.4453C8.06461 12.4584 8.10367 8.47398 8.21875 4.49219C8.59016 3.10505 9.43656 2.12849 10.7578 1.5625C11.273 1.3691 11.7939 1.25191 12.3203 1.21094ZM6.38281 19.1016C7.16453 19.0886 7.94578 19.1016 8.72656 19.1406C9.92758 19.3048 10.6958 19.9689 11.0313 21.1328C11.2502 22.8398 10.5341 23.9205 8.88281 24.375C8.28446 24.4141 7.68547 24.427 7.08594 24.4141C7.11899 25.2016 7.07992 25.9828 6.96875 26.7578C6.56865 27.0996 6.23011 27.0476 5.95313 26.6016C5.90104 24.2318 5.90104 21.862 5.95313 19.4922C6.05872 19.3165 6.20195 19.1863 6.38281 19.1016ZM13.1016 19.1016C13.9093 19.0886 14.7166 19.1016 15.5234 19.1406C16.956 19.4273 17.7242 20.2998 17.8281 21.7578C17.8955 22.8284 17.8694 23.8962 17.75 24.9609C17.4427 26.0234 16.7526 26.6875 15.6797 26.9531C14.7943 27.0052 13.9088 27.0052 13.0234 26.9531C12.8541 26.888 12.737 26.7709 12.6719 26.6016C12.6198 24.2318 12.6198 21.862 12.6719 19.4922C12.7817 19.3169 12.9249 19.1867 13.1016 19.1016ZM19.9766 19.1016C21.383 19.0885 22.7893 19.1016 24.1953 19.1406C24.5937 19.273 24.7369 19.5465 24.625 19.9609C24.5338 20.0521 24.4427 20.1432 24.3516 20.2344C23.1279 20.2734 21.9039 20.2865 20.6797 20.2734C20.6797 20.8724 20.6797 21.4713 20.6797 22.0703C21.6696 22.0573 22.6592 22.0703 23.6484 22.1094C24.2591 22.3642 24.3373 22.7288 23.8828 23.2031C22.8154 23.2422 21.7477 23.2552 20.6797 23.2422C20.6927 24.3363 20.6797 25.43 20.6406 26.5234C20.3522 27.081 19.9876 27.1331 19.5469 26.6797C19.4948 24.2838 19.4948 21.888 19.5469 19.4922C19.6334 19.288 19.7766 19.1578 19.9766 19.1016Z" fill="#133769"/>
</svg>
