<svg width="24" height="24" viewBox="0 0 24 24" fill="none" xmlns="http://www.w3.org/2000/svg">
<path opacity="0.989" fill-rule="evenodd" clip-rule="evenodd" d="M10.8049 1.47677C12.8336 1.3214 14.4664 2.04015 15.7033 3.63301C16.9307 5.51289 17.0245 7.45042 15.9846 9.44551C14.6725 11.4567 12.8209 12.2927 10.4299 11.9533C7.86119 11.369 6.43151 9.7674 6.14083 7.14864C6.04033 4.68384 7.09502 2.92603 9.3049 1.8752C9.79933 1.697 10.2994 1.56418 10.8049 1.47677Z" fill="#133769"/>
<path opacity="0.99" fill-rule="evenodd" clip-rule="evenodd" d="M10.5234 12.8676C11.8635 12.7785 13.1603 12.9738 14.4141 13.4536C14.4802 13.4708 14.527 13.5099 14.5547 13.5708C12.7381 14.8695 11.9803 16.6351 12.2813 18.8676C12.531 20.3137 13.2575 21.4466 14.4609 22.2661C11.8047 22.2895 9.1485 22.2973 6.49219 22.2895C6.50002 21.6643 6.49219 21.0393 6.46875 20.4145C6.32902 20.2178 6.14934 20.1788 5.92969 20.2973C5.86439 20.3522 5.8253 20.4225 5.8125 20.5083C5.78906 21.1018 5.78124 21.6956 5.78906 22.2895C4.8983 22.2973 4.00768 22.2895 3.11719 22.2661C2.5625 22.0864 2.19531 21.7192 2.01563 21.1645C1.98437 20.1645 1.98437 19.1645 2.01563 18.1645C2.25201 16.6833 3.02544 15.5817 4.33594 14.8598C6.01294 14.2539 7.70044 13.6758 9.39844 13.1254C9.77616 13.0235 10.1512 12.9376 10.5234 12.8676Z" fill="#133769"/>
<path opacity="0.98" fill-rule="evenodd" clip-rule="evenodd" d="M16.8045 13.4293C19.1408 13.2723 20.7736 14.2566 21.7029 16.3824C22.2933 18.2754 21.8949 19.9238 20.5076 21.3277C18.9909 22.5674 17.319 22.8174 15.492 22.0777C13.4754 20.9741 12.6394 19.2787 12.9842 16.9918C13.5144 15.0004 14.7879 13.8129 16.8045 13.4293ZM17.3201 15.7262C17.5509 15.6967 17.6993 15.7904 17.7654 16.0074C17.7889 16.5384 17.7967 17.0697 17.7889 17.6012C18.336 17.5933 18.8829 17.6012 19.4295 17.6246C19.7409 17.8456 19.7409 18.0644 19.4295 18.2809C18.8829 18.3043 18.336 18.3121 17.7889 18.3043C17.7967 18.8358 17.7889 19.367 17.7654 19.898C17.5645 20.2457 17.3458 20.2613 17.1092 19.9449C17.0858 19.3983 17.0779 18.8514 17.0858 18.3043C16.5387 18.3121 15.9918 18.3043 15.4451 18.2809C15.1326 18.0621 15.1326 17.8434 15.4451 17.6246C15.9918 17.6012 16.5387 17.5933 17.0858 17.6012C17.0779 17.0541 17.0858 16.5072 17.1092 15.9605C17.1572 15.858 17.2276 15.7799 17.3201 15.7262Z" fill="#133769"/>
</svg>
