<svg width="24" height="25" viewBox="0 0 24 25" fill="none" xmlns="http://www.w3.org/2000/svg">
<path fill-rule="evenodd" clip-rule="evenodd" d="M3.32323 1.88719C3.80098 1.78223 4.36327 1.75 5 1.75H7C7.63673 1.75 8.19902 1.78223 8.67677 1.88719C9.16301 1.99401 9.60828 2.18612 9.96108 2.53892C10.3139 2.89172 10.506 3.33699 10.6128 3.82323C10.7178 4.30098 10.75 4.86327 10.75 5.5C10.75 6.13673 10.7178 6.69902 10.6128 7.17677C10.506 7.66301 10.3139 8.10828 9.96108 8.46108C9.60828 8.81388 9.16301 9.00599 8.67677 9.11281C8.19902 9.21777 7.63673 9.25 7 9.25H5C4.36327 9.25 3.80098 9.21777 3.32323 9.11281C2.83699 9.00599 2.39172 8.81388 2.03892 8.46108C1.68612 8.10828 1.49401 7.66301 1.38719 7.17677C1.28223 6.69902 1.25 6.13673 1.25 5.5C1.25 4.86327 1.28223 4.30098 1.38719 3.82323C1.49401 3.33699 1.68612 2.89172 2.03892 2.53892C2.39172 2.18612 2.83699 1.99401 3.32323 1.88719ZM2.85225 4.14508C2.78252 4.46252 2.75 4.89573 2.75 5.5C2.75 6.10427 2.78252 6.53748 2.85225 6.85492C2.92012 7.16386 3.01263 7.31347 3.09958 7.40042C3.18653 7.48737 3.33614 7.57988 3.64508 7.64775C3.96252 7.71748 4.39573 7.75 5 7.75H7C7.60427 7.75 8.03748 7.71748 8.35492 7.64775C8.66386 7.57988 8.81347 7.48737 8.90042 7.40042C8.98737 7.31347 9.07988 7.16386 9.14775 6.85492C9.21748 6.53748 9.25 6.10427 9.25 5.5C9.25 4.89573 9.21748 4.46252 9.14775 4.14508C9.07988 3.83614 8.98737 3.68653 8.90042 3.59958C8.81347 3.51263 8.66386 3.42012 8.35492 3.35225C8.03748 3.28252 7.60427 3.25 7 3.25H5C4.39573 3.25 3.96252 3.28252 3.64508 3.35225C3.33614 3.42012 3.18653 3.51263 3.09958 3.59958C3.01263 3.68653 2.92012 3.83614 2.85225 4.14508Z" fill="#A4A8AA"/>
<path fill-rule="evenodd" clip-rule="evenodd" d="M14.9337 6.57537C15.5646 5.85433 16.5586 5.75 17.625 5.75H19.375C20.4414 5.75 21.4354 5.85433 22.0663 6.57537C22.3776 6.93114 22.5411 7.37072 22.6318 7.84258C22.7218 8.31105 22.75 8.86549 22.75 9.5C22.75 10.1345 22.7218 10.6889 22.6318 11.1574C22.5411 11.6293 22.3776 12.0689 22.0663 12.4246C21.4354 13.1457 20.4414 13.25 19.375 13.25H17.625C16.5586 13.25 15.5646 13.1457 14.9337 12.4246C14.6224 12.0689 14.4589 11.6293 14.3682 11.1574C14.2782 10.6889 14.25 10.1345 14.25 9.5C14.25 8.86549 14.2782 8.31105 14.3682 7.84258C14.4589 7.37072 14.6224 6.93114 14.9337 6.57537ZM15.8413 8.12573C15.7785 8.45245 15.75 8.89351 15.75 9.5C15.75 10.1065 15.7785 10.5476 15.8413 10.8743C15.9034 11.1976 15.989 11.3529 16.0625 11.4369C16.2012 11.5953 16.5197 11.75 17.625 11.75H19.375C20.4803 11.75 20.7988 11.5953 20.9375 11.4369C21.011 11.3529 21.0966 11.1976 21.1587 10.8743C21.2215 10.5476 21.25 10.1065 21.25 9.5C21.25 8.89351 21.2215 8.45245 21.1587 8.12573C21.0966 7.8024 21.011 7.64711 20.9375 7.56313C20.7988 7.40467 20.4803 7.25 19.375 7.25H17.625C16.5197 7.25 16.2012 7.40467 16.0625 7.56313C15.989 7.64711 15.9034 7.8024 15.8413 8.12573Z" fill="#A4A8AA"/>
<path fill-rule="evenodd" clip-rule="evenodd" d="M16 15.75C15.3633 15.75 14.801 15.7822 14.3232 15.8872C13.837 15.994 13.3917 16.1861 13.0389 16.5389C12.6861 16.8917 12.494 17.337 12.3872 17.8232C12.2822 18.301 12.25 18.8633 12.25 19.5C12.25 20.1367 12.2822 20.699 12.3872 21.1768C12.494 21.663 12.6861 22.1083 13.0389 22.4611C13.3917 22.8139 13.837 23.006 14.3232 23.1128C14.801 23.2178 15.3633 23.25 16 23.25H18C18.6367 23.25 19.199 23.2178 19.6768 23.1128C20.163 23.006 20.6083 22.8139 20.9611 22.4611C21.3139 22.1083 21.506 21.663 21.6128 21.1768C21.7178 20.699 21.75 20.1367 21.75 19.5C21.75 18.8633 21.7178 18.301 21.6128 17.8232C21.506 17.337 21.3139 16.8917 20.9611 16.5389C20.6083 16.1861 20.163 15.994 19.6768 15.8872C19.199 15.7822 18.6367 15.75 18 15.75H16ZM13.75 19.5C13.75 18.8957 13.7825 18.4625 13.8523 18.1451C13.9201 17.8361 14.0126 17.6865 14.0996 17.5996C14.1865 17.5126 14.3361 17.4201 14.6451 17.3523C14.9625 17.2825 15.3957 17.25 16 17.25H18C18.6043 17.25 19.0375 17.2825 19.3549 17.3523C19.6639 17.4201 19.8135 17.5126 19.9004 17.5996C19.9874 17.6865 20.0799 17.8361 20.1477 18.1451C20.2175 18.4625 20.25 18.8957 20.25 19.5C20.25 20.1043 20.2175 20.5375 20.1477 20.8549C20.0799 21.1639 19.9874 21.3135 19.9004 21.4004C19.8135 21.4874 19.6639 21.5799 19.3549 21.6477C19.0375 21.7175 18.6043 21.75 18 21.75H16C15.3957 21.75 14.9625 21.7175 14.6451 21.6477C14.3361 21.5799 14.1865 21.4874 14.0996 21.4004C14.0126 21.3135 13.9201 21.1639 13.8523 20.8549C13.7825 20.5375 13.75 20.1043 13.75 19.5Z" fill="#A4A8AA"/>
<path opacity="0.4" fill-rule="evenodd" clip-rule="evenodd" d="M9.48764 4.95233C9.70012 4.75354 10.0084 4.69559 10.2786 4.80366L15.2786 6.80366C15.6632 6.95749 15.8502 7.39397 15.6964 7.77856C15.5425 8.16315 15.1061 8.35021 14.7215 8.19637L11.2077 6.79085L14.2848 16.2684C14.4127 16.6624 14.197 17.0854 13.8031 17.2134C13.4091 17.3413 12.986 17.1256 12.8581 16.7316L9.28668 5.73162C9.19683 5.45487 9.27515 5.15112 9.48764 4.95233Z" fill="#A4A8AA"/>
</svg>
