<svg width="24" height="24" viewBox="0 0 24 24" fill="none" xmlns="http://www.w3.org/2000/svg">
<path d="M12.0078 2.85975C12.0052 2.85975 12.0026 2.85938 12 2.85938C11.9977 2.85938 11.9954 2.8597 11.9931 2.8597C5.50678 2.86786 0 8.09742 0 14.8125C0 16.4165 0.404953 18.2894 1.22377 19.9905C1.56009 20.6892 2.29884 21.1406 3.10584 21.1406H20.8934C21.7009 21.1406 22.4401 20.6889 22.7767 19.9898C23.5884 18.3029 24 16.561 24 14.8125C24 8.27034 18.6609 2.85966 12.0078 2.85975ZM12.7031 4.29253C15.0014 4.44919 17.2019 5.34356 18.9541 6.86409L17.9439 7.87425C16.5114 6.64528 14.6958 5.85094 12.7031 5.69864V4.29253ZM11.2969 4.28897V5.69869C9.30422 5.85098 7.48856 6.64533 6.05611 7.8743L5.05416 6.87234C6.75005 5.40164 8.90742 4.43977 11.2969 4.28897ZM4.05314 7.86L5.06175 8.86861C3.83278 10.3011 3.03844 12.1168 2.88614 14.1094H1.43241C1.57388 11.7003 2.54616 9.55345 4.05314 7.86ZM21.5095 19.3799C21.4058 19.5952 21.164 19.7344 20.8933 19.7344H3.10584C2.8357 19.7344 2.59434 19.5955 2.49089 19.3807C1.89675 18.1463 1.54509 16.8389 1.44445 15.5156H2.88666C2.94773 16.3146 3.11264 17.1001 3.38002 17.8587C3.50911 18.225 3.9105 18.4172 4.27692 18.2881C4.64316 18.1591 4.83539 17.7575 4.70634 17.3913C4.41389 16.5616 4.26562 15.694 4.26562 14.8125C4.26562 10.5486 7.73461 7.07812 12 7.07812C16.2615 7.07812 19.7344 10.5448 19.7344 14.8125C19.7344 15.694 19.5861 16.5616 19.2937 17.3913C19.1647 17.7575 19.3569 18.159 19.7231 18.2881C20.0892 18.4172 20.4909 18.225 20.62 17.8587C20.8874 17.1001 21.0523 16.3099 21.1133 15.5109H22.5673C22.4731 16.8116 22.1191 18.1131 21.5095 19.3799ZM21.1139 14.1094C20.9616 12.1168 20.1672 10.3011 18.9383 8.86861L19.9526 7.85428C21.4883 9.59442 22.4126 11.7951 22.5691 14.1094H21.1139Z" fill="#0B5F4E"/>
<path d="M17.6489 11.0327L11.0568 14.3317C10.3374 14.6917 9.89062 15.4148 9.89062 16.2188C9.89062 17.3819 10.8369 18.3282 12 18.3282C12.5993 18.3282 13.1723 18.0719 13.572 17.6252C13.5722 17.6251 13.5723 17.6249 13.5725 17.6248L18.4875 12.1303C19.0046 11.5475 18.331 10.6893 17.6489 11.0327ZM12.5244 16.6872L12.5243 16.6873C12.3889 16.8386 12.2027 16.9219 12 16.9219C11.6123 16.9219 11.2969 16.6065 11.2969 16.2188C11.2969 15.9506 11.446 15.7094 11.6862 15.5892L14.982 13.9398L12.5244 16.6872Z" fill="#0B5F4E"/>
</svg>
