<svg width="20" height="20" viewBox="0 0 20 20" fill="none" xmlns="http://www.w3.org/2000/svg">
<g clip-path="url(#clip0_369_29557)">
<path opacity="0.995" fill-rule="evenodd" clip-rule="evenodd" d="M0.332031 -0.0195312C5.17578 -0.0195312 10.0195 -0.0195312 14.8633 -0.0195312C15.0187 0.0513598 15.1294 0.168547 15.1953 0.332031C15.2148 5.30598 15.2214 10.2799 15.2148 15.2539C13.8476 15.2474 12.4804 15.2539 11.1133 15.2734C10.8716 15.3062 10.6958 15.4298 10.5859 15.6445C10.5664 17.0898 10.5599 18.5351 10.5664 19.9805C7.15496 19.9805 3.74349 19.9805 0.332031 19.9805C0.273948 19.9295 0.208844 19.884 0.136719 19.8438C0.0899773 19.765 0.0378939 19.6934 -0.0195312 19.6289C-0.0195312 13.1966 -0.0195312 6.76434 -0.0195312 0.332031C0.0313887 0.273948 0.0769617 0.208844 0.117188 0.136719C0.195911 0.0899773 0.267526 0.0378939 0.332031 -0.0195312ZM7.40234 2.40234C7.80984 2.34839 8.06375 2.51766 8.16406 2.91016C8.18355 3.11808 8.19008 3.32642 8.18359 3.53516C8.39234 3.52867 8.60066 3.53518 8.80859 3.55469C9.12926 3.60843 9.31152 3.79723 9.35547 4.12109C9.3057 4.35922 9.17551 4.535 8.96484 4.64844C8.40496 4.66145 7.84504 4.67449 7.28516 4.6875C7.10285 4.71355 6.99871 4.8177 6.97266 5C6.99055 5.11059 7.04266 5.20172 7.12891 5.27344C7.49473 5.28391 7.8593 5.30996 8.22266 5.35156C9.05023 5.64453 9.40832 6.22395 9.29688 7.08984C9.14062 7.66277 8.77605 8.02734 8.20312 8.18359C8.19012 8.40496 8.17707 8.62629 8.16406 8.84766C8.11031 9.16832 7.92152 9.35059 7.59766 9.39453C7.35953 9.34477 7.18375 9.21457 7.07031 9.00391C7.05078 8.74383 7.0443 8.4834 7.05078 8.22266C6.82906 8.22914 6.6077 8.22262 6.38672 8.20312C5.86648 8.04121 5.74281 7.72223 6.01562 7.24609C6.08723 7.20051 6.15887 7.15496 6.23047 7.10938C6.84453 7.10691 7.45652 7.0809 8.06641 7.03125C8.27473 6.84895 8.27473 6.66668 8.06641 6.48438C7.70059 6.47391 7.33602 6.44785 6.97266 6.40625C6.03246 6.05582 5.70043 5.39828 5.97656 4.43359C6.18578 3.98672 6.53082 3.70026 7.01172 3.57422C7.04418 3.3017 7.06371 3.02827 7.07031 2.75391C7.13625 2.59042 7.24691 2.47323 7.40234 2.40234ZM2.91016 10.5664C6.0352 10.5599 9.1602 10.5664 12.2852 10.5859C12.6269 10.6217 12.8222 10.8105 12.8711 11.1523C12.8222 11.4942 12.6269 11.683 12.2852 11.7188C9.16016 11.7448 6.03516 11.7448 2.91016 11.7188C2.36217 11.5796 2.22545 11.2606 2.5 10.7617C2.62291 10.6579 2.75963 10.5927 2.91016 10.5664ZM2.91016 12.9102C6.0352 12.9036 9.1602 12.9102 12.2852 12.9297C12.6269 12.9654 12.8222 13.1542 12.8711 13.4961C12.8222 13.838 12.6269 14.0268 12.2852 14.0625C9.16016 14.0886 6.03516 14.0886 2.91016 14.0625C2.36217 13.9233 2.22545 13.6043 2.5 13.1055C2.62291 13.0016 2.75963 12.9365 2.91016 12.9102ZM2.91016 15.2539C4.4727 15.2474 6.0352 15.2539 7.59766 15.2734C7.93941 15.3092 8.13473 15.498 8.18359 15.8398C8.13473 16.1817 7.93941 16.3705 7.59766 16.4062C6.03516 16.4323 4.47266 16.4323 2.91016 16.4062C2.36217 16.2671 2.22545 15.9481 2.5 15.4492C2.62291 15.3454 2.75963 15.2802 2.91016 15.2539Z" fill="#890101"/>
<path opacity="0.972" fill-rule="evenodd" clip-rule="evenodd" d="M19.9805 5.05808C19.9805 6.12577 19.9805 7.19351 19.9805 8.2612C18.7956 8.2612 17.6107 8.2612 16.4258 8.2612C16.408 7.19183 16.4275 6.12413 16.4844 5.05808C16.543 4.8953 16.6537 4.78464 16.8164 4.72605C17.0603 4.67253 17.3076 4.653 17.5586 4.66745C17.5435 4.2096 17.563 3.75389 17.6172 3.30026C17.8173 2.94928 18.1102 2.85162 18.4961 3.0073C18.5953 3.09342 18.68 3.19107 18.75 3.30026C18.7696 3.75581 18.7761 4.21155 18.7696 4.66745C19.0173 4.66097 19.2647 4.66745 19.5117 4.68698C19.7337 4.73362 19.8899 4.8573 19.9805 5.05808Z" fill="#133769"/>
<path opacity="0.988" fill-rule="evenodd" clip-rule="evenodd" d="M19.9805 9.39453C19.9805 11.556 19.9805 13.7175 19.9805 15.8789C18.7956 15.8789 17.6107 15.8789 16.4258 15.8789C16.4258 13.7175 16.4258 11.556 16.4258 9.39453C17.6107 9.39453 18.7956 9.39453 19.9805 9.39453Z" fill="#133769"/>
<path opacity="0.977" fill-rule="evenodd" clip-rule="evenodd" d="M11.6992 16.4263C12.767 16.4198 13.8347 16.4263 14.9023 16.4458C13.827 17.5081 12.7658 18.5823 11.7188 19.6685C11.6992 18.5878 11.6927 17.5071 11.6992 16.4263Z" fill="#890101"/>
<path opacity="0.961" fill-rule="evenodd" clip-rule="evenodd" d="M19.9805 17.0127C19.9805 17.0387 19.9805 17.0648 19.9805 17.0908C19.7737 18.2197 19.2659 19.1832 18.457 19.9814C18.3008 19.9814 18.1445 19.9814 17.9883 19.9814C17.1659 19.1807 16.6581 18.2041 16.4648 17.0518C17.6364 17.0127 18.8083 16.9997 19.9805 17.0127Z" fill="#133769"/>
</g>
<defs>
<clipPath id="clip0_369_29557">
<rect width="20" height="20" fill="white"/>
</clipPath>
</defs>
</svg>
