<svg width="12" height="12" viewBox="0 0 12 12" fill="none" xmlns="http://www.w3.org/2000/svg">
<g clip-path="url(#clip0_369_29002)">
<path opacity="0.993" fill-rule="evenodd" clip-rule="evenodd" d="M6.62109 -0.0117188C8.15234 -0.0117188 9.6836 -0.0117188 11.2148 -0.0117188C11.6055 0.113281 11.8633 0.371093 11.9883 0.761719C11.9883 2.29297 11.9883 3.82423 11.9883 5.35547C11.9211 5.58361 11.8156 5.79455 11.6719 5.98828C9.72202 7.94595 7.76498 9.89517 5.80078 11.8359C5.68671 11.901 5.56952 11.9517 5.44922 11.9883C5.30079 11.9883 5.15234 11.9883 5.00391 11.9883C4.81596 11.9216 4.64409 11.8239 4.48828 11.6953C3.08595 10.293 1.68359 8.89062 0.28125 7.48828C0.15231 7.33172 0.0546534 7.15985 -0.0117188 6.97266C-0.0117188 6.82423 -0.0117188 6.67577 -0.0117188 6.52734C0.0406146 6.3447 0.130458 6.18063 0.257812 6.03516C2.16797 4.125 4.07812 2.21484 5.98828 0.304688C6.18178 0.161064 6.39272 0.0555954 6.62109 -0.0117188ZM8.84766 2.00391C9.27977 1.97193 9.61181 2.136 9.84375 2.49609C10.099 3.09759 9.94662 3.56245 9.38672 3.89062C8.81271 4.077 8.37912 3.90905 8.08594 3.38672C7.88859 2.67176 8.14249 2.21081 8.84766 2.00391Z" fill="#133769"/>
</g>
<defs>
<clipPath id="clip0_369_29002">
<rect width="12" height="12" fill="white"/>
</clipPath>
</defs>
</svg>
