<svg width="25" height="24" viewBox="0 0 25 24" fill="none" xmlns="http://www.w3.org/2000/svg">
<g clip-path="url(#clip0_931_35976)">
<path opacity="0.995" d="M17.29 0.476562C17.9603 0.632462 18.4811 0.908741 18.875 1.29297C19.2721 1.68042 19.5649 2.20164 19.7402 2.87988C19.7828 3.29131 19.8062 3.70366 19.8096 4.11719H5.10156C5.10305 3.78768 5.10757 3.45822 5.12207 3.12891C5.25953 2.37915 5.54097 1.80584 5.94434 1.37988C6.3437 0.958236 6.89209 0.651805 7.61816 0.476562H17.29Z" fill="white" stroke="white"/>
<path opacity="0.993" d="M3.49121 6.5459C9.48113 6.51505 15.471 6.51505 21.4609 6.5459C22.1933 6.71838 22.7464 7.02337 23.1494 7.44238C23.5539 7.86292 23.8358 8.42859 23.9766 9.16797V15.5352C23.8523 16.2301 23.596 16.7732 23.2227 17.1885C22.8495 17.6034 22.3355 17.9173 21.6553 18.1172C21.3571 18.1545 21.058 18.1755 20.7578 18.1816V15.4043C20.9557 15.369 21.1478 15.3048 21.332 15.209L21.3955 15.1758L21.4473 15.127C21.6889 14.8953 21.8828 14.5936 21.8828 14.2266C21.8828 13.8595 21.6889 13.5578 21.4473 13.3262L21.4121 13.292L21.3701 13.2656L21.2363 13.1904C21.0998 13.1222 20.9544 13.076 20.8018 13.0527L20.7656 13.0469H20.7295C15.212 13.0156 9.69429 13.0156 4.17676 13.0469H4.125L4.0752 13.0576C3.73492 13.1304 3.39999 13.2904 3.20312 13.6133C3.00572 13.9371 3.01854 14.3077 3.1123 14.6426L3.12695 14.6943L3.15234 14.7422C3.29786 15.0159 3.52417 15.2156 3.81348 15.3262L3.83789 15.3359L3.86328 15.3428C3.9575 15.3679 4.05291 15.3848 4.14844 15.3994V18.2051C3.6258 18.2073 3.16526 18.1121 2.75879 17.9258C2.24715 17.6911 1.79164 17.3018 1.39746 16.7334C1.18947 16.35 1.05048 15.9511 0.976562 15.5352V9.16797C1.11738 8.42859 1.39924 7.86292 1.80371 7.44238C2.20657 7.02354 2.75928 6.71841 3.49121 6.5459ZM10.6318 17.0234C11.8455 17.0165 13.059 17.024 14.2725 17.0459C14.3559 17.0701 14.4096 17.0936 14.4414 17.1143C14.4589 17.1257 14.4687 17.1345 14.4736 17.1396C14.4782 17.1445 14.4792 17.1478 14.4795 17.1484C14.4798 17.1491 14.4813 17.1513 14.4824 17.1572C14.4837 17.1638 14.4854 17.1768 14.4844 17.1973C14.4828 17.2279 14.4732 17.2717 14.4541 17.332C14.4081 17.3705 14.3567 17.3933 14.293 17.4062C13.0732 17.4356 11.8535 17.4363 10.6338 17.4072C10.5504 17.383 10.4966 17.3596 10.4648 17.3389C10.4473 17.3275 10.4375 17.3187 10.4326 17.3135C10.428 17.3086 10.4271 17.3053 10.4268 17.3047C10.4264 17.304 10.425 17.3017 10.4238 17.2959C10.4226 17.2893 10.4208 17.2764 10.4219 17.2559C10.4234 17.2261 10.4313 17.1836 10.4492 17.126C10.5059 17.0782 10.5667 17.0461 10.6318 17.0234ZM4.16699 8.52344L4.11035 8.52539L4.05469 8.53906C3.74884 8.61798 3.48523 8.78031 3.27148 9.01367L3.21973 9.07031L3.1875 9.14062C3.05002 9.43641 2.98382 9.77315 3.09961 10.1055C3.2156 10.438 3.47672 10.6608 3.76855 10.8066L3.85254 10.8486L3.94629 10.8574C4.79593 10.9351 5.64842 10.9508 6.50293 10.9053L6.5293 10.9043L6.55566 10.9004C6.89177 10.8467 7.17937 10.6838 7.39844 10.4229L7.44141 10.3721L7.46875 10.3125C7.60624 10.0167 7.67244 9.67999 7.55664 9.34766C7.44065 9.01515 7.17953 8.79228 6.8877 8.64648L6.80078 8.60352L6.70508 8.5957L6.07227 8.55176C5.43868 8.51682 4.80348 8.50746 4.16699 8.52344Z" fill="white" stroke="white"/>
<path opacity="0.993" d="M18.3984 15.4297C18.4039 17.8773 18.3965 20.3249 18.375 22.7725C18.266 23.1269 18.0599 23.3489 17.7285 23.4766H7.17773C6.84625 23.3489 6.63924 23.1271 6.53027 22.7725C6.50882 20.3249 6.50238 17.8773 6.50781 15.4297H18.3984ZM10.4297 19.0391C10.1238 19.118 9.86022 19.2803 9.64648 19.5137L9.58594 19.5801L9.55273 19.6641C9.41397 20.0062 9.35219 20.3997 9.53613 20.7598C9.71976 21.119 10.0743 21.3017 10.4326 21.3916L10.4873 21.4043L10.542 21.4062C11.8158 21.4377 13.0904 21.4377 14.3643 21.4062L14.3975 21.4053L14.4307 21.4004C14.7668 21.3467 15.0544 21.1838 15.2734 20.9229L15.3242 20.8623L15.3535 20.7891C15.4923 20.4469 15.5541 20.0534 15.3701 19.6934C15.1865 19.3341 14.832 19.1515 14.4736 19.0615L14.418 19.0479L14.3604 19.0469C13.7256 19.0351 13.0908 19.0274 12.4561 19.0234H10.4893L10.4297 19.0391ZM10.4297 16.0391C10.1238 16.118 9.86022 16.2803 9.64648 16.5137L9.58594 16.5801L9.55273 16.6641C9.41397 17.0062 9.35219 17.3997 9.53613 17.7598C9.71976 18.119 10.0743 18.3017 10.4326 18.3916L10.4873 18.4043L10.542 18.4062C11.8158 18.4377 13.0904 18.4377 14.3643 18.4062L14.3975 18.4053L14.4307 18.4004C14.7668 18.3467 15.0544 18.1838 15.2734 17.9229L15.3242 17.8623L15.3535 17.7891C15.4923 17.4469 15.5541 17.0534 15.3701 16.6934C15.1865 16.3341 14.832 16.1515 14.4736 16.0615L14.418 16.0479L14.3604 16.0469C13.7256 16.0351 13.0908 16.0274 12.4561 16.0234H10.4893L10.4297 16.0391Z" fill="white" stroke="white"/>
</g>
<defs>
<clipPath id="clip0_931_35976">
<rect width="24" height="24" fill="white" transform="translate(0.5)"/>
</clipPath>
</defs>
</svg>
