<svg width="24" height="24" viewBox="0 0 24 24" fill="none" xmlns="http://www.w3.org/2000/svg">
<g clip-path="url(#clip0_369_24960)">
<path opacity="0.962" fill-rule="evenodd" clip-rule="evenodd" d="M23.9768 12.6799C23.9768 12.8518 23.9768 13.0236 23.9768 13.1955C23.49 13.8311 22.9588 14.4326 22.383 15.0002C22.1486 15.094 21.9143 15.094 21.6799 15.0002C21.1575 14.462 20.6496 13.9073 20.1565 13.3361C19.9435 12.7147 20.1544 12.3397 20.7893 12.2111C20.9695 12.2321 21.1336 12.2946 21.2815 12.3986C21.3139 8.70471 19.7748 5.88438 16.6643 3.93771C13.8337 2.39974 10.943 2.27474 7.99239 3.56271C6.52464 4.28033 5.31367 5.30374 4.35958 6.63302C3.93875 6.96794 3.54813 6.93673 3.1877 6.53927C3.03639 6.27279 3.03639 6.00715 3.1877 5.7424C5.75003 2.38 9.14847 0.903439 13.383 1.31271C16.9061 1.83785 19.5701 3.62691 21.3752 6.6799C22.344 8.46143 22.8128 10.3676 22.7815 12.3986C23.2753 12.1026 23.6738 12.1963 23.9768 12.6799Z" fill="#7E7C7C"/>
<path opacity="0.986" fill-rule="evenodd" clip-rule="evenodd" d="M10.383 4.85059C11.4456 4.84276 12.5082 4.85059 13.5705 4.87403C13.8083 4.93994 13.9724 5.08834 14.0627 5.31934C14.0706 5.80445 14.094 6.28886 14.133 6.77247C14.5996 6.9744 15.0371 7.22439 15.4455 7.52247C15.8129 7.29967 16.1879 7.08873 16.5705 6.88965C17.04 6.78456 17.3759 6.94862 17.5783 7.38184C18.0518 8.18331 18.5049 8.9958 18.9377 9.81934C18.9897 10.0607 18.9428 10.2794 18.7971 10.4756C18.4027 10.7627 17.9886 11.0206 17.5549 11.249C17.6174 11.749 17.6174 12.249 17.5549 12.749C18.0124 12.9815 18.4421 13.255 18.844 13.5693C18.9164 13.7007 18.9554 13.8413 18.9612 13.9912C18.9153 14.2239 18.8294 14.4426 18.7033 14.6475C18.2601 15.4325 17.7992 16.206 17.3205 16.9678C17.0572 17.1429 16.7759 17.1741 16.4768 17.0615C16.1406 16.8543 15.7969 16.6591 15.4455 16.4756C15.0371 16.7737 14.5996 17.0237 14.133 17.2256C14.094 17.7092 14.0706 18.1936 14.0627 18.6787C13.9593 18.9455 13.764 19.094 13.4768 19.124C12.4768 19.1553 11.4768 19.1553 10.4768 19.124C10.1896 19.094 9.99425 18.9455 9.89084 18.6787C9.88297 18.1936 9.85953 17.7092 9.82053 17.2256C9.35398 17.0237 8.9165 16.7737 8.50803 16.4756C8.15666 16.6591 7.81292 16.8543 7.47678 17.0615C7.05575 17.2232 6.7198 17.1216 6.46897 16.7568C5.9727 15.9051 5.48834 15.0457 5.01584 14.1787C4.95069 13.8429 5.05226 13.5694 5.32053 13.3584C5.67992 13.1553 6.03926 12.9521 6.39866 12.749C6.33617 12.249 6.33617 11.749 6.39866 11.249C6.02366 11.0303 5.64866 10.8115 5.27366 10.5928C4.99648 10.3376 4.92617 10.033 5.06272 9.67872C5.54708 8.83497 6.03148 7.99122 6.51584 7.14747C6.74872 6.88426 7.0378 6.79834 7.38303 6.88965C7.76562 7.08873 8.14062 7.29967 8.50803 7.52247C8.9165 7.22439 9.35398 6.9744 9.82053 6.77247C9.85953 6.28886 9.88297 5.80445 9.89084 5.31934C9.98956 5.08764 10.1536 4.93141 10.383 4.85059ZM11.6955 9.91309C13.3202 9.95172 14.0937 10.7798 14.0158 12.3975C13.7887 13.328 13.2028 13.8827 12.258 14.0615C11.039 14.1206 10.2656 13.5659 9.93772 12.3975C9.82451 11.0665 10.4105 10.2384 11.6955 9.91309Z" fill="#7E7C7C"/>
<path opacity="0.962" fill-rule="evenodd" clip-rule="evenodd" d="M-0.0234375 11.3206C-0.0234375 11.1487 -0.0234375 10.9768 -0.0234375 10.8049C0.37602 10.2719 0.805706 9.7563 1.26562 9.25807C1.60405 8.89235 1.98686 8.83765 2.41406 9.09401C2.875 9.61746 3.33594 10.1409 3.79688 10.6643C4.0152 11.3779 3.75739 11.7451 3.02344 11.7659C2.89707 11.73 2.77988 11.6753 2.67188 11.6018C2.64695 15.291 4.18601 18.1113 7.28906 20.0628C9.8093 21.4572 12.4343 21.6916 15.1641 20.7659C16.9923 20.0902 18.4688 18.9574 19.5938 17.3674C20.0146 17.0325 20.4052 17.0637 20.7656 17.4612C20.9169 17.7259 20.9169 17.9916 20.7656 18.2581C18.3163 21.4783 15.0585 22.9705 10.9922 22.7346C7.2997 22.2918 4.49503 20.4871 2.57812 17.3206C1.60932 15.539 1.14057 13.6328 1.17188 11.6018C0.678005 11.8979 0.279569 11.8041 -0.0234375 11.3206Z" fill="#7E7C7C"/>
</g>
<defs>
<clipPath id="clip0_369_24960">
<rect width="24" height="24" fill="white"/>
</clipPath>
</defs>
</svg>
