<svg width="20" height="20" viewBox="0 0 20 20" fill="none" xmlns="http://www.w3.org/2000/svg">
<path d="M7.62623 2.70821C7.97132 2.70035 8.24469 2.41423 8.23683 2.06914C8.22897 1.72405 7.94284 1.45068 7.59775 1.45854C5.39911 1.50864 3.84929 1.70533 2.76442 2.78644C1.80923 3.73831 1.54676 5.04097 1.45916 6.80233C1.44201 7.14708 1.70759 7.44046 2.05234 7.45761C2.3971 7.47475 2.69047 7.20917 2.70762 6.86442C2.79346 5.13839 3.04982 4.26673 3.64676 3.67186C4.33532 2.98569 5.38108 2.75937 7.62623 2.70821Z" fill="#A4A8AA"/>
<path d="M12.4024 1.45854C12.0573 1.45068 11.7711 1.72405 11.7633 2.06914C11.7554 2.41423 12.0288 2.70035 12.3739 2.70821C14.619 2.75937 15.6648 2.98569 16.3533 3.67186C16.9503 4.26673 17.2067 5.13839 17.2925 6.86442C17.3096 7.20917 17.603 7.47475 17.9478 7.45761C18.2925 7.44046 18.5581 7.14708 18.5409 6.80233C18.4534 5.04097 18.1909 3.73831 17.2357 2.78644C16.1508 1.70533 14.601 1.50864 12.4024 1.45854Z" fill="#A4A8AA"/>
<path d="M2.70762 13.1357C2.69047 12.7909 2.3971 12.5253 2.05234 12.5425C1.70759 12.5596 1.44201 12.853 1.45916 13.1978C1.54676 14.9591 1.80923 16.2618 2.76442 17.2136C3.84929 18.2948 5.39911 18.4915 7.59775 18.5415C7.94284 18.5494 8.22897 18.276 8.23683 17.9309C8.24469 17.5859 7.97132 17.2997 7.62623 17.2919C5.38108 17.2407 4.33532 17.0144 3.64676 16.3282C3.04982 15.7334 2.79346 14.8617 2.70762 13.1357Z" fill="#A4A8AA"/>
<path d="M18.5409 13.1978C18.5581 12.853 18.2925 12.5596 17.9478 12.5425C17.603 12.5253 17.3096 12.7909 17.2925 13.1357C17.2067 14.8617 16.9503 15.7334 16.3533 16.3282C15.6648 17.0144 14.619 17.2407 12.3739 17.2919C12.0288 17.2997 11.7554 17.5859 11.7633 17.9309C11.7711 18.276 12.0573 18.5494 12.4024 18.5415C14.601 18.4915 16.1508 18.2948 17.2357 17.2136C18.1909 16.2618 18.4534 14.9591 18.5409 13.1978Z" fill="#A4A8AA"/>
<path fill-rule="evenodd" clip-rule="evenodd" d="M9.99298 5.20837C8.49641 5.20837 7.28168 6.4201 7.28168 7.91671C7.28168 9.41332 8.49641 10.625 9.99298 10.625C11.4896 10.625 12.7043 9.41332 12.7043 7.91671C12.7043 6.4201 11.4896 5.20837 9.99298 5.20837ZM8.53168 7.91671C8.53168 7.11213 9.18509 6.45837 9.99298 6.45837C10.8009 6.45837 11.4543 7.11213 11.4543 7.91671C11.4543 8.72128 10.8009 9.37504 9.99298 9.37504C9.18509 9.37504 8.53168 8.72128 8.53168 7.91671Z" fill="#A4A8AA"/>
<path d="M6.70209 14.5983C8.41076 12.8087 11.5853 12.7402 13.2905 14.5903C13.5244 14.8441 13.9198 14.8602 14.1736 14.6263C14.4274 14.3924 14.4436 13.997 14.2096 13.7431C11.9868 11.3313 7.97549 11.4544 5.79799 13.7351C5.55963 13.9848 5.56878 14.3804 5.81844 14.6188C6.0681 14.8571 6.46372 14.848 6.70209 14.5983Z" fill="#A4A8AA"/>
</svg>
