<svg width="15" height="16" viewBox="0 0 15 16" fill="none" xmlns="http://www.w3.org/2000/svg">
<path opacity="0.975" fill-rule="evenodd" clip-rule="evenodd" d="M7.42676 1.48104C7.48989 1.47729 7.54849 1.49194 7.60254 1.52499C8.51572 2.06461 9.43368 2.59684 10.3564 3.12167C10.3864 3.13636 10.3912 3.15589 10.3711 3.18026C9.40679 3.73321 8.44488 4.28985 7.48535 4.85018C6.5127 4.29073 5.5459 3.72433 4.58496 3.15096C5.5389 2.60094 6.48615 2.04429 7.42676 1.48104Z" fill="#493A3A"/>
<path opacity="0.975" fill-rule="evenodd" clip-rule="evenodd" d="M4.35047 3.53125C5.32125 4.08016 6.28805 4.6368 7.25086 5.20117C7.28016 6.32406 7.28991 7.4471 7.28016 8.57031C6.29941 8.03345 5.32772 7.47681 4.36512 6.90039C4.35047 5.77738 4.34558 4.65435 4.35047 3.53125Z" fill="#493A3A"/>
<path opacity="0.975" fill-rule="evenodd" clip-rule="evenodd" d="M10.5908 3.53125C10.6298 4.65924 10.6298 5.79206 10.5908 6.92969C9.62589 7.48524 8.6591 8.0321 7.69043 8.57031C7.68067 7.4471 7.69043 6.32406 7.71972 5.20117C8.67861 4.64374 9.63562 4.0871 10.5908 3.53125Z" fill="#493A3A"/>
<path opacity="0.975" fill-rule="evenodd" clip-rule="evenodd" d="M4.05762 7.22266C5.05773 7.79597 6.05382 8.37704 7.0459 8.96582C6.0566 9.54101 5.0654 10.1123 4.07227 10.6797C3.08414 10.1295 2.10269 9.56796 1.12793 8.99512C1.09245 8.96896 1.09245 8.94455 1.12793 8.92188C2.10634 8.35469 3.08291 7.78829 4.05762 7.22266Z" fill="#493A3A"/>
<path opacity="0.975" fill-rule="evenodd" clip-rule="evenodd" d="M10.8838 7.22266C11.8887 7.78369 12.8848 8.35984 13.8721 8.95117C12.8926 9.54432 11.9014 10.1205 10.8984 10.6797C9.9053 10.1123 8.9141 9.54101 7.9248 8.96582C8.91299 8.38398 9.8993 7.80294 10.8838 7.22266Z" fill="#493A3A"/>
<path opacity="0.979" fill-rule="evenodd" clip-rule="evenodd" d="M0.864136 9.33203C1.85444 9.89069 2.84077 10.4571 3.82312 11.0312C3.86217 12.1836 3.86217 13.3359 3.82312 14.4883C2.83449 13.933 1.85305 13.3666 0.878785 12.7891C0.864136 11.6368 0.859252 10.4844 0.864136 9.33203Z" fill="#493A3A"/>
<path opacity="0.979" fill-rule="evenodd" clip-rule="evenodd" d="M7.22167 9.33203C7.26072 9.89811 7.28027 10.4743 7.28027 11.0605C7.27537 11.6367 7.27051 12.2129 7.26562 12.7891C6.28795 13.3613 5.30651 13.9277 4.32128 14.4883C4.28223 13.3359 4.28223 12.1836 4.32128 11.0312C5.29473 10.4714 6.26153 9.90505 7.22167 9.33203Z" fill="#493A3A"/>
<path opacity="0.979" fill-rule="evenodd" clip-rule="evenodd" d="M7.69031 9.33203C8.67981 9.89034 9.66615 10.4567 10.6493 11.0312C10.6883 12.1836 10.6883 13.3359 10.6493 14.4883C9.67025 13.9182 8.68881 13.3518 7.70496 12.7891C7.69031 11.6368 7.68542 10.4844 7.69031 9.33203Z" fill="#493A3A"/>
<path opacity="0.979" fill-rule="evenodd" clip-rule="evenodd" d="M14.0771 9.33203C14.1113 10.4794 14.1161 11.6318 14.0918 12.7891C13.1175 13.3666 12.1361 13.933 11.1475 14.4883C11.1084 13.3359 11.1084 12.1836 11.1475 11.0312C12.1259 10.4641 13.1024 9.89767 14.0771 9.33203Z" fill="#493A3A"/>
</svg>
