<svg width="24" height="24" viewBox="0 0 24 24" fill="none" xmlns="http://www.w3.org/2000/svg">
<path opacity="0.989" fill-rule="evenodd" clip-rule="evenodd" d="M8.29232 2.08008C10.9211 2.08008 13.5498 2.08008 16.1786 2.08008C17.9052 2.40837 19.0328 3.41349 19.5612 5.09542C19.6198 5.31096 19.6584 5.53002 19.6772 5.75261C19.6965 7.42775 19.703 9.10293 19.6965 10.7782C16.8346 9.94239 14.3798 10.5996 12.3321 12.7498C10.5813 14.9305 10.2205 17.3274 11.2497 19.9402C11.5827 20.6461 12.0015 21.2903 12.5061 21.8731C11.1015 21.8731 9.69689 21.8731 8.29232 21.8731C6.2899 21.4491 5.12369 20.2249 4.79374 18.2006C4.76797 14.0513 4.76797 9.90192 4.79374 5.75261C5.12369 3.72821 6.2899 2.50404 8.29232 2.08008ZM8.48561 5.482C10.483 5.47556 12.4803 5.482 14.4776 5.50133C15.2344 5.82571 15.4342 6.36047 15.0768 7.10565C14.9038 7.35658 14.6654 7.5048 14.3617 7.55022C12.4416 7.57601 10.5216 7.57601 8.60158 7.55022C7.88219 7.34224 7.60517 6.87192 7.77043 6.13919C7.91861 5.81687 8.15701 5.5978 8.48561 5.482ZM8.52427 9.03856C9.18157 9.03211 9.83876 9.03856 10.4958 9.05789C11.2216 9.34335 11.4471 9.85232 11.1724 10.5849C11.0062 10.858 10.7678 11.032 10.4572 11.1068C9.82577 11.1326 9.19433 11.1326 8.56292 11.1068C7.93372 10.925 7.65666 10.5063 7.73177 9.85039C7.84836 9.43102 8.11252 9.16041 8.52427 9.03856Z" fill="#D9D7D7"/>
<path opacity="0.981" fill-rule="evenodd" clip-rule="evenodd" d="M22.1319 16.616C22.1319 17.0154 22.1319 17.4149 22.1319 17.8144C21.6938 20.0824 20.3408 21.4354 18.0728 21.8735C17.6734 21.8735 17.2739 21.8735 16.8744 21.8735C14.7737 21.4934 13.44 20.2692 12.8733 18.201C12.5239 16.1031 13.2134 14.4472 14.9415 13.2334C16.3089 12.4298 17.7393 12.301 19.2326 12.8468C20.875 13.5882 21.8414 14.8445 22.1319 16.616ZM19.1939 15.0697C20.0935 15.1937 20.4349 15.6963 20.2183 16.5773C20.1797 16.6418 20.141 16.7062 20.1024 16.7706C19.2712 17.6018 18.4401 18.4329 17.6089 19.2641C17.1953 19.5429 16.7829 19.5429 16.3718 19.2641C15.8617 18.7669 15.3656 18.2578 14.8835 17.7371C14.6342 17.1687 14.7566 16.6984 15.2508 16.326C15.6658 16.1265 16.0653 16.1523 16.4492 16.4034C16.6237 16.5844 16.8041 16.7583 16.9904 16.9252C17.5504 16.3846 18.1045 15.8369 18.6527 15.2823C18.8273 15.1835 19.0077 15.1126 19.1939 15.0697Z" fill="#133769"/>
</svg>
