<svg width="25" height="24" viewBox="0 0 25 24" fill="none" xmlns="http://www.w3.org/2000/svg">
<g clip-path="url(#clip0_369_24954)">
<path opacity="0.989" fill-rule="evenodd" clip-rule="evenodd" d="M7.36231 -0.0234375C10.5498 -0.0234375 13.7373 -0.0234375 16.9248 -0.0234375C19.0184 0.374632 20.3856 1.59338 21.0264 3.63281C21.0974 3.89416 21.1443 4.15979 21.167 4.42969C21.1904 6.46088 21.1983 8.49211 21.1904 10.5234C17.7202 9.51 14.7436 10.3069 12.2607 12.9141C10.1378 15.5584 9.70034 18.4646 10.9482 21.6328C11.352 22.4887 11.8598 23.2699 12.4717 23.9766C10.7686 23.9766 9.06542 23.9766 7.36231 23.9766C4.93427 23.4625 3.5202 21.9781 3.12012 19.5234C3.08887 14.4922 3.08887 9.46092 3.12012 4.42969C3.5202 1.97501 4.93427 0.490636 7.36231 -0.0234375ZM7.59668 4.10156C10.0186 4.09375 12.4405 4.10156 14.8623 4.125C15.7799 4.51832 16.0221 5.16675 15.5889 6.07031C15.3791 6.37458 15.09 6.5543 14.7217 6.60938C12.3935 6.64064 10.0654 6.64064 7.73731 6.60938C6.86501 6.35719 6.5291 5.78691 6.72949 4.89844C6.90917 4.5076 7.19824 4.24197 7.59668 4.10156ZM7.64356 8.41406C8.44057 8.40623 9.23745 8.41406 10.0342 8.4375C10.9142 8.78362 11.1876 9.40078 10.8545 10.2891C10.653 10.6202 10.3639 10.8312 9.98731 10.9219C9.2217 10.9531 8.45604 10.9531 7.69043 10.9219C6.92749 10.7015 6.59154 10.1937 6.68262 9.39844C6.82399 8.88994 7.14429 8.56181 7.64356 8.41406Z" fill="#890101"/>
<path opacity="0.981" fill-rule="evenodd" clip-rule="evenodd" d="M24.144 17.6008C24.144 18.0851 24.144 18.5696 24.144 19.0539C23.6127 21.8039 21.9721 23.4446 19.2221 23.9758C18.7377 23.9758 18.2533 23.9758 17.769 23.9758C15.2218 23.5149 13.6046 22.0305 12.9174 19.5227C12.4938 16.9789 13.3298 14.9711 15.4252 13.4992C17.0833 12.5249 18.8177 12.3686 20.6283 13.0305C22.6199 13.9294 23.7917 15.4528 24.144 17.6008ZM20.5815 15.7258C21.6722 15.8762 22.0863 16.4856 21.8236 17.5539C21.7768 17.6321 21.7299 17.7101 21.683 17.7883C20.6752 18.7961 19.6674 19.8039 18.6596 20.8117C18.158 21.1498 17.658 21.1498 17.1596 20.8117C16.541 20.2088 15.9394 19.5916 15.3549 18.9602C15.0526 18.271 15.201 17.7007 15.8002 17.2492C16.3035 17.0073 16.7879 17.0385 17.2533 17.343C17.465 17.5624 17.6837 17.7734 17.9096 17.9758C18.5886 17.3202 19.2605 16.6561 19.9252 15.9836C20.1369 15.8638 20.3557 15.7779 20.5815 15.7258Z" fill="#890101"/>
</g>
<defs>
<clipPath id="clip0_369_24954">
<rect width="24" height="24" fill="white" transform="translate(0.166992)"/>
</clipPath>
</defs>
</svg>
