<svg width="24" height="24" viewBox="0 0 24 24" fill="none" xmlns="http://www.w3.org/2000/svg">
<g clip-path="url(#clip0_569_31017)">
<path opacity="0.993" fill-rule="evenodd" clip-rule="evenodd" d="M11.6486 -0.0234375C11.8674 -0.0234375 12.0861 -0.0234375 12.3049 -0.0234375C12.6563 0.132895 12.8829 0.39852 12.9846 0.773438C13.008 1.19502 13.0158 1.6169 13.008 2.03906C15.7892 2.54324 17.672 4.12137 18.6564 6.77344C18.8381 7.33781 18.9474 7.91597 18.9846 8.50781C19.0002 9.8047 19.0158 11.1015 19.0314 12.3984C19.1826 13.8407 19.7295 15.1064 20.6721 16.1953C21.0183 16.5416 21.3621 16.8854 21.7033 17.2266C22.1998 18.1661 22.0513 18.9864 21.258 19.6875C21.039 19.8205 20.8046 19.9142 20.5549 19.9688C14.8361 20 9.11738 20 3.39863 19.9688C2.27747 19.641 1.81653 18.8989 2.01582 17.7422C2.0811 17.5647 2.15922 17.3929 2.25019 17.2266C2.75068 16.7573 3.21943 16.2573 3.65644 15.7266C4.37323 14.7329 4.79508 13.6235 4.92207 12.3984C4.93768 11.1015 4.95333 9.8047 4.96894 8.50781C5.27419 5.62514 6.75076 3.60168 9.39863 2.4375C9.90169 2.25315 10.4173 2.12033 10.9455 2.03906C10.9377 1.6169 10.9455 1.19502 10.9689 0.773438C11.0706 0.39852 11.2972 0.132895 11.6486 -0.0234375Z" fill="white"/>
<path opacity="0.968" fill-rule="evenodd" clip-rule="evenodd" d="M5.03941 0.72586C5.99951 0.646857 6.42916 1.08436 6.32847 2.03836C6.13394 2.42077 5.8683 2.7489 5.5316 3.02273C3.81978 5.09489 2.9604 7.48552 2.95347 10.1946C2.67964 10.7651 2.23432 10.9761 1.61754 10.8274C1.07939 10.5601 0.860638 10.1226 0.961288 9.51492C1.08743 6.16491 2.3218 3.30555 4.66441 0.936797C4.78624 0.852657 4.91126 0.782344 5.03941 0.72586Z" fill="white"/>
<path opacity="0.969" fill-rule="evenodd" clip-rule="evenodd" d="M18.3045 0.726694C18.5966 0.700378 18.8779 0.739444 19.1483 0.843882C21.7459 3.36828 23.0193 6.45421 22.9686 10.1017C22.7444 10.7413 22.2991 10.9834 21.6326 10.8283C21.328 10.7111 21.117 10.5001 20.9998 10.1954C20.9904 7.11782 19.9123 4.4928 17.7655 2.32044C17.4196 1.60019 17.5992 1.06893 18.3045 0.726694Z" fill="white"/>
<path opacity="0.984" fill-rule="evenodd" clip-rule="evenodd" d="M12.5859 23.9765C12.1797 23.9765 11.7735 23.9765 11.3672 23.9765C9.75975 23.6037 8.7285 22.6193 8.27344 21.0234C10.7422 20.9609 13.2109 20.9609 15.6797 21.0234C15.2246 22.6193 14.1934 23.6037 12.5859 23.9765Z" fill="white"/>
</g>
<defs>
<clipPath id="clip0_569_31017">
<rect width="24" height="24" fill="white"/>
</clipPath>
</defs>
</svg>
