<svg width="24" height="24" viewBox="0 0 24 24" fill="none" xmlns="http://www.w3.org/2000/svg">
<path d="M23.6908 19.0497L13.8464 2.72352C13.4585 2.08035 12.7511 1.68079 12 1.68079C11.2489 1.68079 10.5414 2.08035 10.1535 2.72357L0.309161 19.0497C-0.0916668 19.7145 -0.103526 20.5474 0.278177 21.2233C0.659974 21.8992 1.37932 22.3191 2.15557 22.3191H21.8444C22.6206 22.3191 23.34 21.8992 23.7218 21.2233C24.1035 20.5473 24.0917 19.7144 23.6908 19.0497ZM22.3612 20.4549C22.2561 20.641 22.0581 20.7566 21.8444 20.7566H2.15557C1.94186 20.7566 1.74382 20.641 1.63877 20.455C1.53368 20.2689 1.53696 20.0396 1.64726 19.8566L11.4917 3.53043C11.5985 3.35338 11.7933 3.24336 12 3.24336C12.2067 3.24336 12.4015 3.35338 12.5083 3.53043L22.3526 19.8566C22.463 20.0396 22.4663 20.2689 22.3612 20.4549Z" fill="#0B5F4E"/>
<path d="M12.0075 8.10962C11.4131 8.10962 10.9492 8.42856 10.9492 8.99396C10.9492 10.7191 11.1521 13.198 11.1521 14.9231C11.1522 15.3725 11.5436 15.561 12.0075 15.561C12.3554 15.561 12.8483 15.3725 12.8483 14.9231C12.8483 13.198 13.0512 10.7191 13.0512 8.99396C13.0512 8.4286 12.5729 8.10962 12.0075 8.10962Z" fill="#0B5F4E"/>
<path d="M12.0225 16.5613C11.3847 16.5613 10.9062 17.0687 10.9062 17.6776C10.9062 18.2719 11.3847 18.7938 12.0225 18.7938C12.6169 18.7938 13.1243 18.2719 13.1243 17.6776C13.1243 17.0687 12.6169 16.5613 12.0225 16.5613Z" fill="#0B5F4E"/>
</svg>
