<svg width="50" height="50" viewBox="0 0 50 50" fill="none" xmlns="http://www.w3.org/2000/svg">
<path opacity="0.977" fill-rule="evenodd" clip-rule="evenodd" d="M24.365 1.51408C25.1157 1.3672 25.7505 1.56252 26.2693 2.10002C29.7198 8.0896 33.1704 14.0792 36.6209 20.0688C36.8457 21.1008 36.4714 21.8007 35.4978 22.1684C28.4666 22.2335 21.4353 22.2335 14.4041 22.1684C13.4305 21.8007 13.0562 21.1008 13.281 20.0688C16.6418 14.161 20.0272 8.26898 23.4373 2.39298C23.6722 2.0113 23.9814 1.71833 24.365 1.51408ZM23.5838 6.98283C24.5196 6.95174 25.4473 6.98428 26.367 7.08049C26.4321 9.88 26.4321 12.6794 26.367 15.4789C26.3181 15.5278 26.2693 15.5766 26.2205 15.6254C25.3741 15.6905 24.5278 15.6905 23.6814 15.6254C23.6326 15.5766 23.5838 15.5278 23.5349 15.4789C23.4545 12.6399 23.4707 9.80783 23.5838 6.98283ZM23.5838 17.725C24.4958 17.7088 25.4073 17.725 26.3181 17.7738C26.4296 18.3354 26.4458 18.9051 26.367 19.4828C26.3181 19.5317 26.2693 19.5805 26.2205 19.6293C25.3741 19.6945 24.5278 19.6945 23.6814 19.6293C23.6326 19.5805 23.5838 19.5317 23.5349 19.4828C23.458 18.8889 23.4743 18.3029 23.5838 17.725Z" fill="#890101"/>
<path opacity="0.986" fill-rule="evenodd" clip-rule="evenodd" d="M1.70899 24.9514C5.58282 24.9351 9.45652 24.9514 13.3301 25.0003C13.3789 25.0491 13.4277 25.0979 13.4766 25.1467C13.9628 30.5796 16.7785 34.1765 21.9238 35.9378C27.5577 37.0991 31.9034 35.2599 34.9609 30.4202C35.814 28.7659 36.3022 27.0081 36.4258 25.1467C36.4746 25.0979 36.5234 25.0491 36.5723 25.0003C40.446 24.9351 44.3196 24.9351 48.1934 25.0003C48.2422 25.0491 48.291 25.0979 48.3398 25.1467C48.405 26.0582 48.405 26.9697 48.3398 27.8811C48.199 28.2498 47.9549 28.5264 47.6074 28.7112C45.8463 28.7225 44.3326 29.3247 43.0664 30.5178C41.5816 32.389 41.3538 34.4073 42.3828 36.5725C42.7734 37.0933 43.1641 37.6142 43.5547 38.135C43.7736 38.7188 43.7085 39.2722 43.3594 39.7952C42.1712 40.9834 40.9831 42.1714 39.7949 43.3596C39.2734 43.7125 38.72 43.7776 38.1348 43.5549C37.614 43.1643 37.0931 42.7737 36.5723 42.3831C33.9175 41.1691 31.6551 41.6736 29.7852 43.8967C29.1244 45.0418 28.7663 46.2788 28.7109 47.6077C28.5262 47.9551 28.2495 48.1993 27.8809 48.3401C25.9277 48.4052 23.9746 48.4052 22.0215 48.3401C21.6528 48.1993 21.3762 47.9551 21.1914 47.6077C21.1657 46.0368 20.6774 44.637 19.7266 43.4085C17.1212 41.0617 14.5333 41.0779 11.9629 43.4573C11.3262 43.8016 10.7077 43.7691 10.1074 43.3596C8.91927 42.1714 7.73113 40.9834 6.54297 39.7952C6.06765 39.0543 6.10021 38.3381 6.64063 37.6467C8.02332 36.2508 8.47905 34.5907 8.00781 32.6663C7.47751 30.8665 6.32192 29.6783 4.54102 29.1018C3.79425 28.9524 3.04556 28.8221 2.29492 28.7112C1.94747 28.5264 1.70333 28.2498 1.5625 27.8811C1.4974 26.9697 1.4974 26.0582 1.5625 25.1467C1.63254 25.0936 1.68137 25.0285 1.70899 24.9514Z" fill="#133769"/>
<path opacity="0.983" fill-rule="evenodd" clip-rule="evenodd" d="M18.5056 24.9514C22.8026 24.9351 27.0995 24.9514 31.3962 25.0003C31.5434 25.1441 31.6085 25.3232 31.5916 25.5374C30.9597 29.2944 28.7461 31.3127 24.9509 31.5921C21.1551 31.312 18.9417 29.2938 18.3103 25.5374C18.2969 25.3088 18.3621 25.1134 18.5056 24.9514Z" fill="#890101"/>
</svg>
