<svg width="24" height="24" viewBox="0 0 24 24" fill="none" xmlns="http://www.w3.org/2000/svg">
<g clip-path="url(#clip0_369_24940)">
<path opacity="0.981" fill-rule="evenodd" clip-rule="evenodd" d="M12.5391 -0.0234375C13.164 -0.0234375 13.7891 -0.0234375 14.4141 -0.0234375C18.4408 0.485625 21.3393 2.56375 23.1094 6.21094C23.561 7.26759 23.85 8.36137 23.9766 9.49219C23.9766 10.1484 23.9766 10.8047 23.9766 11.4609C23.3915 15.7795 21.079 18.7561 17.0391 20.3906C13.5305 21.5245 10.2648 21.0479 7.24219 18.9609C5.65561 20.5397 4.06184 22.11 2.46094 23.6719C2.26656 23.8003 2.06344 23.9019 1.85156 23.9766C1.60156 23.9766 1.35156 23.9766 1.10156 23.9766C0.842714 23.8938 0.608339 23.761 0.398438 23.5781C0.205021 23.3625 0.0643964 23.1203 -0.0234375 22.8516C-0.0234375 22.6016 -0.0234375 22.3515 -0.0234375 22.1016C0.054998 21.8668 0.172185 21.6481 0.328125 21.4453C1.89844 19.875 3.46875 18.3047 5.03906 16.7344C3.19843 14.1912 2.58124 11.3708 3.1875 8.27344C4.17463 4.28631 6.61997 1.65349 10.5234 0.375C11.1917 0.190893 11.8636 0.0580805 12.5391 -0.0234375ZM12.6797 3.02344C15.8096 2.85786 18.2236 4.07661 19.9219 6.67969C21.3281 9.21094 21.3281 11.7422 19.9219 14.2734C18.2248 16.8837 15.8107 18.0947 12.6797 17.9062C9.44063 17.401 7.30781 15.5963 6.28125 12.4922C5.56988 9.4238 6.37453 6.83784 8.69531 4.73438C9.86166 3.78575 11.1898 3.21544 12.6797 3.02344Z" fill="#B2AFAF"/>
</g>
<defs>
<clipPath id="clip0_369_24940">
<rect width="24" height="24" fill="white"/>
</clipPath>
</defs>
</svg>
