<svg width="24" height="24" viewBox="0 0 24 24" fill="none" xmlns="http://www.w3.org/2000/svg">
<path d="M12.586 1.24994H11.414C11.1111 1.24988 10.8076 1.24982 10.5497 1.27934C10.2549 1.31308 9.92375 1.39352 9.61112 1.61942C9.29865 1.8452 9.11815 2.13428 8.99325 2.40343C8.88387 2.63914 8.77492 2.96702 8.67917 3.25519L8.36142 4.20469C8.28785 4.38684 8.16138 4.54224 7.99885 4.65087L7.71693 4.81362C7.52304 4.90838 7.30334 4.93572 7.0924 4.89146L5.92794 4.5633C5.61423 4.47416 5.26004 4.37352 4.98721 4.33018C4.67604 4.28074 4.31261 4.27077 3.93153 4.42584C3.55062 4.58086 3.29728 4.8417 3.10881 5.09418C2.94344 5.31572 2.78121 5.59754 2.61819 5.88075L2.09313 6.79247C1.94037 7.05758 1.78757 7.32279 1.68365 7.5629C1.56497 7.83713 1.46891 8.16636 1.50943 8.55228C1.54995 8.93824 1.71233 9.2403 1.88544 9.48386C2.03699 9.69707 3.24834 11.0506 3.45279 11.278C3.53848 11.4004 3.65149 11.7043 3.65149 11.9998C3.65149 12.2956 3.53851 12.5993 3.45282 12.7217L2.44602 13.8478C2.24157 14.0752 2.03699 14.3027 1.88544 14.5159C1.71233 14.7595 1.54996 15.0616 1.50943 15.4475C1.45307 15.9843 1.84229 16.4652 2.37877 16.5215C2.90079 16.5764 3.36989 16.2092 3.44674 15.6948C3.52534 15.5843 3.6827 15.3949 3.92659 15.1235L3.9283 15.1216L4.97385 13.9493C5.37948 13.4355 5.60497 12.6676 5.60497 11.9998C5.60497 11.3322 5.37938 10.5642 4.97382 10.0504C4.72993 9.77907 3.55599 8.46167 3.47739 8.35109L4.68089 6.26054C4.82407 6.28329 6.26083 6.68575 6.63452 6.79186C7.30732 6.94709 8.01315 6.859 8.62728 6.54329L9.03675 6.30703C9.56324 5.96965 9.96785 5.47242 10.1917 4.88838L10.7717 3.22122C10.8668 3.21033 11.8988 3.21771 12.6123 3.22281C12.8974 3.22485 13.1317 3.22653 13.2349 3.22653C13.2916 3.34869 13.6939 4.54454 13.8083 4.88838C14.0321 5.47242 14.4368 5.96965 14.9633 6.30703L15.3727 6.54329C15.9868 6.859 16.6927 6.94709 17.3655 6.79186L19.3261 6.26376C19.3879 6.34666 19.8687 7.19667 20.2111 7.80211C20.3502 8.04809 20.4665 8.25369 20.5226 8.35109L19.0262 10.0504C18.6206 10.5642 18.395 11.3322 18.395 11.9998C18.395 12.6676 18.6205 13.4355 19.0261 13.9493L20.0734 15.1235C20.3173 15.3949 20.444 15.5381 20.5226 15.6487L19.3191 17.7392C19.1759 17.7165 17.7392 17.314 17.3655 17.2079C16.6926 17.0526 15.9866 17.1408 15.3724 17.4566L14.963 17.6929C14.4367 18.0303 14.0321 18.5275 13.8083 19.1114L13.2283 20.7787C13.1332 20.7895 12.1012 20.7822 11.3877 20.7771C11.1026 20.775 10.8683 20.7733 10.7651 20.7733C10.7084 20.6512 10.6471 20.4715 10.5328 20.1277C10.3625 19.6156 9.8095 19.3385 9.29765 19.5089C8.78579 19.6793 8.50889 20.2326 8.67917 20.7447C8.67917 20.7447 8.88388 21.3607 8.99325 21.5964C9.11815 21.8656 9.29866 22.1547 9.61112 22.3805C9.92375 22.6064 10.2549 22.6868 10.5497 22.7205C10.8076 22.7501 11.1111 22.75 11.414 22.7499H12.586C12.8889 22.75 13.1924 22.7501 13.4503 22.7205C13.7451 22.6868 14.0762 22.6064 14.3889 22.3805C14.7013 22.1547 14.8819 21.8656 15.0067 21.5964C15.1161 21.3607 15.3077 20.7841 15.3077 20.7841L15.6386 19.7951C15.7122 19.613 15.8386 19.4576 16.0011 19.3489L16.283 19.1862C16.4769 19.0914 16.6967 19.064 16.9076 19.1083L18.1137 19.4483C18.4274 19.5375 18.7399 19.6263 19.0128 19.6696C19.3239 19.719 19.6874 19.729 20.0685 19.5739C20.4494 19.4189 20.7027 19.1581 20.8912 18.9056C21.0566 18.6841 21.9069 17.2073 21.9069 17.2073C22.0596 16.9422 22.2124 16.677 22.3163 16.4369C22.435 16.1627 22.5311 15.8334 22.4906 15.4475C22.45 15.0616 22.2877 14.7595 22.1146 14.5159C21.963 14.3027 20.7516 12.9491 20.5472 12.7218C20.4615 12.5994 20.3485 12.2956 20.3485 11.9998C20.3485 11.7043 20.4615 11.4004 20.5472 11.278L21.554 10.152C21.7584 9.92461 21.963 9.69706 22.1146 9.48386C22.2877 9.2403 22.45 8.93823 22.4906 8.55227C22.5311 8.16635 22.435 7.83713 22.3164 7.5629C22.2124 7.32279 22.0596 7.05757 21.9069 6.79245C21.7438 6.50925 21.0566 5.31571 20.8912 5.09418C20.7027 4.8417 20.4494 4.58086 20.0685 4.42584C19.6874 4.27077 19.324 4.28074 19.0128 4.33018C18.74 4.37352 18.3859 4.47411 18.0722 4.56325L18.0712 4.56354L16.9076 4.89146C16.6967 4.93572 16.477 4.90837 16.2831 4.81362L16.0012 4.65087C15.8386 4.54224 15.7122 4.38684 15.6386 4.20469L15.0067 2.40343C14.8818 2.13428 14.7013 1.8452 14.3889 1.61942C14.0762 1.39352 13.7451 1.31308 13.4503 1.27934C13.1924 1.24982 12.8889 1.24988 12.586 1.24994Z" fill="#1E232C"/>
<path d="M11.6044 16.2101C13.4892 16.2053 14.7551 16.142 15.4689 15.4282C16.2512 14.646 16.2511 14.2837 16.2499 11.0549C16.2499 10.9249 16.2498 10.7901 16.2498 10.6505C16.2513 10.3022 15.8299 10.1269 15.5835 10.3732L13.7267 12.2291C13.2555 12.7002 12.4915 12.7001 12.0203 12.229C11.549 11.7578 11.5503 10.9939 12.0215 10.5227L13.8777 8.66632C14.1241 8.41997 13.9487 7.99863 13.6003 8.00012C13.4606 8.00012 13.3258 8.00007 13.1956 8.00003C9.96658 7.99884 9.60415 7.99871 8.82184 8.78089C8.10804 9.49457 8.04464 10.761 8.03983 12.6446C8.03879 13.0553 8.03826 13.2606 7.96217 13.4437C7.88607 13.6267 7.74201 13.7708 7.45389 14.0589L2.81682 18.6963C2.06106 19.452 2.06106 20.6774 2.81682 21.4331C3.57258 22.1889 4.7979 22.1889 5.55366 21.4331L10.1899 16.7962C10.4781 16.508 10.6222 16.3639 10.8052 16.2878C10.9883 16.2117 11.1937 16.2112 11.6044 16.2101Z" fill="#1E232C"/>
</svg>
