<svg width="20" height="20" viewBox="0 0 20 20" fill="none" xmlns="http://www.w3.org/2000/svg">
<path d="M10.8523 9.96845C10.6048 9.72787 10.2091 9.73349 9.96853 9.98101C9.72795 10.2285 9.73357 10.6242 9.98109 10.8648C10.1157 10.9957 10.33 11.1642 10.534 11.3244L10.5814 11.3617C10.7862 11.5224 11.0052 11.6943 11.2124 11.8699L11.2183 11.875H7.50004C7.15486 11.875 6.87504 12.1548 6.87504 12.5C6.87504 12.8451 7.15486 13.125 7.50004 13.125H11.2183L11.2124 13.13C11.0052 13.3056 10.7862 13.4775 10.5814 13.6383L10.534 13.6755C10.33 13.8357 10.1157 14.0042 9.98109 14.1351C9.73357 14.3757 9.72795 14.7714 9.96853 15.0189C10.2091 15.2664 10.6048 15.2721 10.8523 15.0315C10.9284 14.9576 11.0799 14.8362 11.3061 14.6585L11.356 14.6193C11.5578 14.461 11.7945 14.2751 12.0205 14.0837C12.2626 13.8785 12.5141 13.6489 12.7096 13.4193C12.8076 13.3043 12.9042 13.1746 12.9789 13.0351C13.0509 12.9006 13.125 12.7152 13.125 12.5C13.125 12.2847 13.0509 12.0993 12.9789 11.9648C12.9042 11.8253 12.8076 11.6957 12.7096 11.5806C12.5141 11.3511 12.2626 11.1214 12.0205 10.9162C11.7945 10.7248 11.5578 10.539 11.3561 10.3806L11.3061 10.3414C11.0799 10.1637 10.9284 10.0424 10.8523 9.96845Z" fill="#A4A8AA"/>
<path fill-rule="evenodd" clip-rule="evenodd" d="M5.62504 1.66663C5.62504 1.32145 5.34522 1.04163 5.00004 1.04163C4.65486 1.04163 4.37504 1.32145 4.37504 1.66663V2.19562C3.70441 2.38569 3.13879 2.69462 2.66799 3.20359C2.01974 3.90441 1.73158 4.78989 1.59358 5.89955C1.45836 6.98688 1.45837 8.38035 1.45837 10.1583V10.6749C1.45837 12.4529 1.45836 13.8464 1.59358 14.9337C1.73158 16.0434 2.01974 16.9288 2.66799 17.6297C3.32266 18.3374 4.16068 18.6584 5.20945 18.8108C6.22447 18.9583 7.52133 18.9583 9.15774 18.9583H10.8423C12.4788 18.9583 13.7756 18.9583 14.7906 18.8108C15.8394 18.6584 16.6774 18.3374 17.3321 17.6297C17.9803 16.9288 18.2685 16.0434 18.4065 14.9337C18.5417 13.8464 18.5417 12.4529 18.5417 10.6749V10.1584C18.5417 8.38036 18.5417 6.98689 18.4065 5.89955C18.2685 4.78989 17.9803 3.90441 17.3321 3.20359C16.8613 2.69462 16.2957 2.38569 15.625 2.19562V1.66663C15.625 1.32145 15.3452 1.04163 15 1.04163C14.6549 1.04163 14.375 1.32145 14.375 1.66663V1.97154C13.4283 1.87494 12.2634 1.87495 10.8423 1.87496H9.15774C7.73673 1.87495 6.57176 1.87494 5.62504 1.97154V1.66663ZM3.58562 4.0524C3.80173 3.81876 4.05945 3.63988 4.39887 3.50483C4.47343 3.76661 4.71435 3.95829 5.00004 3.95829C5.34522 3.95829 5.62504 3.67847 5.62504 3.33329V3.22878C6.50921 3.12626 7.65202 3.12496 9.20837 3.12496H10.7917C12.3481 3.12496 13.4909 3.12626 14.375 3.22878V3.33329C14.375 3.67847 14.6549 3.95829 15 3.95829C15.2857 3.95829 15.5267 3.76661 15.6012 3.50483C15.9406 3.63989 16.1983 3.81876 16.4145 4.0524C16.808 4.47785 17.0413 5.06109 17.1645 6.04163H2.83555C2.95881 5.06109 3.19207 4.47785 3.58562 4.0524ZM2.74081 7.29163H17.2593C17.2913 8.08903 17.2917 9.0423 17.2917 10.2027V10.6306C17.2917 12.4625 17.2906 13.7782 17.1661 14.7794C17.0432 15.7673 16.8096 16.3536 16.4145 16.7809C16.0257 17.2011 15.5023 17.4442 14.6108 17.5738C13.6961 17.7067 12.4901 17.7083 10.7917 17.7083H9.20837C7.50994 17.7083 6.30401 17.7067 5.38924 17.5738C4.49777 17.4442 3.97439 17.2011 3.58562 16.7809C3.19045 16.3536 2.95688 15.7673 2.83403 14.7794C2.70951 13.7782 2.70837 12.4625 2.70837 10.6306V10.2027C2.70837 9.0423 2.70883 8.08903 2.74081 7.29163Z" fill="#A4A8AA"/>
</svg>
