<svg width="24" height="24" viewBox="0 0 24 24" fill="none" xmlns="http://www.w3.org/2000/svg">
<path fill-rule="evenodd" clip-rule="evenodd" d="M10 1.25C9.5701 1.25 9.17373 1.27144 8.82851 1.34728C8.4748 1.42498 8.12868 1.56966 7.84917 1.84917C7.56966 2.12868 7.42498 2.4748 7.34728 2.82851C7.33493 2.88472 7.32403 2.94228 7.31442 3.00112C6.68801 3.00472 6.13631 3.01975 5.67221 3.08215C5.0167 3.17028 4.38835 3.36902 3.87868 3.87868C3.36902 4.38835 3.17028 5.0167 3.08215 5.67221C2.99991 6.28387 2.99995 7.04769 3 7.93417V8.06583C2.99995 8.95232 2.99991 9.71614 3.08215 10.3278C3.17028 10.9833 3.36902 11.6117 3.87868 12.1213C4.38835 12.631 5.0167 12.8297 5.67221 12.9179C6.28387 13.0001 7.04769 13.0001 7.93417 13L8.5 13C8.53554 13 8.57065 12.9982 8.60523 12.9945C8.61893 13.0134 8.63279 13.032 8.64678 13.0503C8.83974 13.3032 9.11347 13.5769 9.41049 13.8739L10.1262 14.5895C10.4231 14.8865 10.6968 15.1603 10.9497 15.3532C10.968 15.3672 10.9866 15.3811 11.0055 15.3948C11.0019 15.4294 11 15.4645 11 15.5V17.25H10C9.5701 17.25 9.17373 17.2714 8.82851 17.3473C8.4748 17.425 8.12868 17.5697 7.84917 17.8492C7.56966 18.1287 7.42498 18.4748 7.34728 18.8285C7.27144 19.1737 7.25 19.5701 7.25 20C7.25 20.4299 7.27144 20.8263 7.34728 21.1715C7.42498 21.5252 7.56966 21.8713 7.84917 22.1508C8.12868 22.4303 8.4748 22.575 8.82851 22.6527C9.17373 22.7286 9.5701 22.75 10 22.75H14C14.4299 22.75 14.8263 22.7286 15.1715 22.6527C15.5252 22.575 15.8713 22.4303 16.1508 22.1508C16.4303 21.8713 16.575 21.5252 16.6527 21.1715C16.6651 21.1153 16.676 21.0577 16.6856 20.9989C17.312 20.9953 17.8637 20.9803 18.3278 20.9179C18.9833 20.8297 19.6117 20.631 20.1213 20.1213C20.631 19.6117 20.8297 18.9833 20.9179 18.3278C21.0001 17.7162 21.0001 16.9524 21 16.066V15.9342C21.0001 15.0477 21.0001 14.2838 20.9179 13.6722C20.8297 13.0167 20.631 12.3883 20.1213 11.8787C19.6117 11.369 18.9833 11.1703 18.3278 11.0821C17.7161 10.9999 16.9523 11 16.0658 11L15.5 11C15.4645 11 15.4294 11.0019 15.3948 11.0055C15.3811 10.9866 15.3672 10.968 15.3532 10.9497C15.1603 10.6968 14.8866 10.4231 14.5895 10.1262L13.8738 9.41048C13.5769 9.11346 13.3032 8.83973 13.0503 8.64678C13.032 8.63279 13.0134 8.61892 12.9945 8.60523C12.9981 8.57064 13 8.53554 13 8.5V6.75H14C14.4299 6.75 14.8263 6.72856 15.1715 6.65272C15.5252 6.57502 15.8713 6.43034 16.1508 6.15083C16.4303 5.87132 16.575 5.5252 16.6527 5.17149C16.7286 4.82627 16.75 4.4299 16.75 4C16.75 3.5701 16.7286 3.17373 16.6527 2.82851C16.575 2.4748 16.4303 2.12868 16.1508 1.84917C15.8713 1.56966 15.5252 1.42498 15.1715 1.34728C14.8263 1.27144 14.4299 1.25 14 1.25H10ZM11 6.75H10C9.5701 6.75 9.17373 6.72856 8.82851 6.65272C8.4748 6.57502 8.12868 6.43034 7.84917 6.15083C7.56966 5.87132 7.42498 5.5252 7.34728 5.17149C7.33511 5.11609 7.32434 5.05938 7.31484 5.00142C6.71648 5.00508 6.28207 5.01815 5.93871 5.06431C5.50497 5.12263 5.36902 5.21677 5.2929 5.2929C5.21677 5.36902 5.12263 5.50497 5.06431 5.93871C5.00213 6.40122 5 7.02893 5 8C5 8.97108 5.00213 9.59879 5.06431 10.0613C5.12263 10.495 5.21677 10.631 5.2929 10.7071C5.36902 10.7832 5.50497 10.8774 5.93871 10.9357C6.40122 10.9979 7.02893 11 8 11H8.5C8.53554 11 8.57064 11.0019 8.60522 11.0055C8.61892 10.9866 8.63279 10.968 8.64678 10.9497C8.83973 10.6968 9.11346 10.4231 9.41048 10.1262L10.1262 9.41048C10.4231 9.11346 10.6968 8.83973 10.9497 8.64678C10.968 8.63279 10.9866 8.61892 11.0055 8.60523C11.0019 8.57064 11 8.53554 11 8.5V6.75ZM13 17.25H14C14.4299 17.25 14.8263 17.2714 15.1715 17.3473C15.5252 17.425 15.8713 17.5697 16.1508 17.8492C16.4303 18.1287 16.575 18.4748 16.6527 18.8285C16.6649 18.8839 16.6757 18.9406 16.6852 18.9986C17.2835 18.9949 17.7179 18.9819 18.0613 18.9357C18.495 18.8774 18.631 18.7832 18.7071 18.7071C18.7832 18.631 18.8774 18.495 18.9357 18.0613C18.9979 17.5988 19 16.9711 19 16C19 15.0289 18.9979 14.4012 18.9357 13.9387C18.8774 13.505 18.7832 13.369 18.7071 13.2929C18.631 13.2168 18.495 13.1226 18.0613 13.0643C17.5988 13.0021 16.9711 13 16 13H15.5C15.4645 13 15.4294 12.9982 15.3948 12.9945C15.3811 13.0134 15.3672 13.032 15.3532 13.0503C15.1603 13.3032 14.8865 13.5769 14.5895 13.8738L13.8738 14.5895C13.5769 14.8865 13.3032 15.1603 13.0503 15.3532C13.032 15.3672 13.0134 15.3811 12.9945 15.3948C12.9981 15.4294 13 15.4645 13 15.5V17.25Z" fill="#0B5F4E"/>
</svg>
