<svg width="13" height="14" viewBox="0 0 13 14" fill="none" xmlns="http://www.w3.org/2000/svg">
<g clip-path="url(#clip0_406_3957)">
<path d="M8.09056 12.4024C7.85858 12.898 7.70523 13.4359 7.64648 14L12.5557 12.9944C12.7877 12.4989 12.9409 11.9609 12.9998 11.3969L8.09056 12.4024Z" fill="#1E232C"/>
<path d="M12.5554 9.98193C12.7874 9.4864 12.9408 8.94841 12.9995 8.38435L9.1754 9.16804V7.66151L12.5553 6.96941C12.7873 6.47388 12.9406 5.9359 12.9994 5.37183L9.17528 6.15486V0.736889C8.58931 1.05391 8.06892 1.4759 7.64589 1.97365V6.4682L6.1165 6.78143V0C5.53053 0.316908 5.01013 0.739006 4.58711 1.23677V7.09455L1.16509 7.79522C0.933105 8.29075 0.779646 8.82874 0.720783 9.3928L4.58711 8.60109V10.4983L0.443584 11.3467C0.211603 11.8423 0.0582588 12.3802 -0.000488281 12.9443L4.33662 12.0562C4.68968 11.9854 4.99313 11.7843 5.19042 11.5075L5.98582 10.3713V10.371C6.06839 10.2535 6.1165 10.1117 6.1165 9.95909V8.28786L7.64589 7.97463V10.9877L12.5553 9.98171L12.5554 9.98193Z" fill="#1E232C"/>
</g>
<defs>
<clipPath id="clip0_406_3957">
<rect width="13" height="14" fill="white"/>
</clipPath>
</defs>
</svg>
