<svg width="24" height="24" viewBox="0 0 24 24" fill="none" xmlns="http://www.w3.org/2000/svg">
<g clip-path="url(#clip0_547_7596)">
<path d="M12.8689 9.43518H4.7837C4.38972 9.43518 4.07031 9.75459 4.07031 10.1486C4.07031 10.5426 4.38972 10.862 4.7837 10.862H12.8689C13.2628 10.862 13.5823 10.5426 13.5823 10.1486C13.5823 9.75459 13.2628 9.43518 12.8689 9.43518Z" fill="#0B5F4E"/>
<path d="M9.46714 17.0594H4.7837C4.38972 17.0594 4.07031 17.3789 4.07031 17.7728C4.07031 18.1668 4.38972 18.4862 4.7837 18.4862H9.46714C9.86112 18.4862 10.1805 18.1668 10.1805 17.7728C10.1805 17.3789 9.86112 17.0594 9.46714 17.0594Z" fill="#0B5F4E"/>
<path d="M22.2991 5.53932C21.1676 4.66782 19.5379 4.87937 18.6664 6.01093L16.9594 8.22724V4.95521C16.9594 3.88491 16.0886 3.01412 15.0183 3.01412H13.0848V2.27138C13.0848 1.87739 12.7654 1.55799 12.3714 1.55799H11.1571V0.713392C11.1571 0.319407 10.8376 0 10.4436 0H7.20914C6.81515 0 6.49575 0.319407 6.49575 0.713392V1.55799H5.2814C4.88741 1.55799 4.56801 1.87739 4.56801 2.27138V3.01407H2.63446C1.56411 3.01407 0.693359 3.88487 0.693359 4.95517V22.0589C0.693359 23.1292 1.56416 24 2.63446 24H15.0183C16.0886 24 16.9594 23.1292 16.9594 22.0589V16.7173L22.7707 9.17205C23.6422 8.04048 23.4307 6.41083 22.2991 5.53932ZM5.99474 2.98482H7.20909C7.60308 2.98482 7.92248 2.66541 7.92248 2.27143V1.42683H9.73013V2.27143C9.73013 2.66541 10.0495 2.98482 10.4435 2.98482H11.6579V4.47015H5.99474V2.98482ZM15.5326 22.059C15.5326 22.3425 15.3019 22.5732 15.0183 22.5732H2.63446C2.35086 22.5732 2.12019 22.3425 2.12019 22.059V4.95521C2.12019 4.67167 2.35091 4.44095 2.63446 4.44095H4.56796V5.18359C4.56796 5.57757 4.88737 5.89698 5.28135 5.89698H12.3714C12.7653 5.89698 13.0847 5.57757 13.0847 5.18359V4.4409H15.0182C15.3018 4.4409 15.5325 4.67162 15.5325 4.95517V10.0798L13.0704 13.2766C13.0065 13.2578 12.9391 13.2473 12.8691 13.2473H4.78401C4.39002 13.2473 4.07062 13.5667 4.07062 13.9607C4.07062 14.3547 4.39002 14.6741 4.78401 14.6741H12.0684C12.0515 14.7404 12.0436 14.8091 12.0463 14.8785L12.1641 17.8015C12.1727 18.0126 12.2743 18.2091 12.4416 18.338C12.5675 18.435 12.7209 18.4862 12.8769 18.4862C12.9284 18.4862 12.9801 18.4806 13.0312 18.4693L15.5325 17.9155V22.059H15.5326ZM15.326 16.4998L13.5555 16.8919L13.4825 15.08L18.6624 8.35455L20.5019 9.77964L15.326 16.4998ZM21.6403 8.30144L21.3724 8.64921L19.5329 7.22411L19.7967 6.88159C20.1882 6.37337 20.9203 6.27831 21.4285 6.66976C21.9367 7.06117 22.0318 7.79312 21.6403 8.30144Z" fill="#0B5F4E"/>
</g>
<defs>
<clipPath id="clip0_547_7596">
<rect width="24" height="24" fill="white"/>
</clipPath>
</defs>
</svg>
