<svg width="24" height="24" viewBox="0 0 24 24" fill="none" xmlns="http://www.w3.org/2000/svg">
<path opacity="0.982" fill-rule="evenodd" clip-rule="evenodd" d="M7.17075 3.1489C8.0781 3.03424 8.89228 3.25091 9.61325 3.79892C10.0756 4.18213 10.4498 4.63517 10.736 5.15805C11.0628 6.03097 11.1219 6.9239 10.9133 7.83692C10.9436 8.30225 11.0946 8.72248 11.3663 9.09756C11.9315 9.65622 12.4896 10.2209 13.0406 10.7916C12.0951 11.3431 11.3466 12.0916 10.7951 13.0371C10.2244 12.4861 9.65978 11.928 9.10111 11.3628C8.47406 10.9363 7.79119 10.8181 7.05257 11.0082C6.11957 11.1164 5.27914 10.8932 4.53128 10.3385C4.18029 10.0402 3.8717 9.70531 3.60549 9.33393C3.02271 8.31068 2.98332 7.27325 3.48731 6.22172C3.63681 6.0916 3.80096 6.0719 3.97975 6.16263C4.53945 6.73551 5.11068 7.29358 5.69344 7.83692C6.86162 7.53555 7.57073 6.8002 7.82077 5.63079C7.26924 5.07926 6.71771 4.52773 6.16618 3.9762C6.07545 3.79741 6.09515 3.63326 6.22527 3.48376C6.53239 3.33551 6.84755 3.2239 7.17075 3.1489Z" fill="#133769"/>
<path opacity="0.985" fill-rule="evenodd" clip-rule="evenodd" d="M15.1285 10.7144C17.2813 10.5487 18.9425 11.3629 20.1119 13.1569C20.8313 14.4237 21.002 15.7632 20.6241 17.1752C19.9366 19.2284 18.525 20.4299 16.3891 20.7798C14.2355 20.9647 12.5743 20.1571 11.4056 18.357C10.6863 17.0901 10.5156 15.7507 10.8935 14.3387C11.5876 12.2851 12.9992 11.077 15.1285 10.7144ZM14.8133 11.975C15.4437 11.9684 16.0741 11.975 16.7043 11.9947C16.8222 12.0107 16.9076 12.0698 16.9603 12.172C16.9866 12.2902 16.9866 12.4084 16.9603 12.5265C16.6579 14.1708 16.3427 15.8123 16.0149 17.4509C15.8861 17.6256 15.7286 17.6518 15.5421 17.5297C15.1843 15.8692 14.856 14.2015 14.5572 12.5265C14.4681 12.2498 14.5535 12.066 14.8133 11.975ZM15.5618 18.3176C16.242 18.308 16.4718 18.6232 16.2512 19.2631C16.005 19.5196 15.7226 19.5655 15.4042 19.401C15.1477 19.1547 15.1018 18.8724 15.2663 18.554C15.3496 18.4507 15.4481 18.3719 15.5618 18.3176Z" fill="#133769"/>
<path opacity="0.924" fill-rule="evenodd" clip-rule="evenodd" d="M15.168 12.6045C15.5628 12.5914 15.9567 12.6045 16.3498 12.6439C16.1613 13.6436 15.9643 14.6417 15.7589 15.6379C15.5492 14.6291 15.3522 13.6179 15.168 12.6045Z" fill="#133769"/>
</svg>
