<svg width="12" height="12" viewBox="0 0 12 12" fill="none" xmlns="http://www.w3.org/2000/svg">
<g clip-path="url(#clip0_369_28916)">
<path opacity="0.987" fill-rule="evenodd" clip-rule="evenodd" d="M1.6292 -0.0117188C4.53545 -0.0117188 7.4417 -0.0117188 10.348 -0.0117188C10.402 0.0229076 10.445 0.0697826 10.4769 0.128906C10.5846 0.638063 10.4323 1.04431 10.0198 1.34766C10.006 1.86376 9.98643 2.3794 9.96123 2.89453C9.8612 3.61003 9.57215 4.23504 9.09405 4.76953C8.65555 5.18077 8.21413 5.58701 7.76983 5.98828C8.21413 6.38955 8.65555 6.7958 9.09405 7.20703C9.57215 7.74152 9.8612 8.36653 9.96123 9.08203C9.98643 9.59716 10.006 10.1128 10.0198 10.6289C10.4323 10.9323 10.5846 11.3385 10.4769 11.8477C10.445 11.9068 10.402 11.9537 10.348 11.9883C7.4417 11.9883 4.53545 11.9883 1.6292 11.9883C1.57513 11.9537 1.53216 11.9068 1.5003 11.8477C1.3925 11.3385 1.54485 10.9323 1.95733 10.6289C1.97121 10.1128 1.99074 9.59716 2.01592 9.08203C2.11595 8.36653 2.40501 7.74152 2.88311 7.20703C3.3216 6.7958 3.76302 6.38955 4.20733 5.98828C3.76302 5.58701 3.3216 5.18077 2.88311 4.76953C2.40501 4.23504 2.11595 3.61003 2.01592 2.89453C1.99074 2.3794 1.97121 1.86376 1.95733 1.34766C1.54485 1.04431 1.3925 0.638063 1.5003 0.128906C1.53216 0.0697826 1.57513 0.0229076 1.6292 -0.0117188ZM2.98858 1.48828C4.98857 1.48828 6.98858 1.48828 8.98858 1.48828C9.00006 1.95073 8.98054 2.41167 8.92998 2.87109C8.8128 3.40643 8.5589 3.86346 8.16826 4.24219C7.63394 4.70616 7.10659 5.17882 6.58623 5.66016C6.44561 5.8789 6.44561 6.09766 6.58623 6.31641C7.10659 6.79774 7.63394 7.27041 8.16826 7.73438C8.68351 8.2377 8.95305 8.85098 8.97686 9.57422C8.98858 9.87881 8.99249 10.1835 8.98858 10.4883C8.7853 10.4922 8.58217 10.4883 8.3792 10.4766C7.63973 9.51054 6.90925 8.53788 6.1878 7.55859C6.05498 7.46484 5.92218 7.46484 5.78936 7.55859C5.06791 8.53788 4.33743 9.51054 3.59795 10.4766C3.39498 10.4883 3.19185 10.4922 2.98858 10.4883C2.97709 10.0258 2.99662 9.56489 3.04717 9.10547C3.16436 8.57013 3.41826 8.1131 3.80889 7.73438C4.34322 7.27041 4.87056 6.79774 5.39092 6.31641C5.53155 6.09766 5.53155 5.8789 5.39092 5.66016C4.87056 5.17882 4.34322 4.70616 3.80889 4.24219C3.29364 3.73887 3.02411 3.12558 3.0003 2.40234C2.98858 2.09776 2.98466 1.79307 2.98858 1.48828Z" fill="#133769"/>
<path opacity="0.976" fill-rule="evenodd" clip-rule="evenodd" d="M4.18395 3.47998C5.38709 3.47607 6.59023 3.47998 7.79332 3.4917C7.90896 3.53091 7.97145 3.61294 7.98082 3.7378C7.96151 3.86267 7.899 3.96034 7.79332 4.03076C7.24645 4.53076 6.69956 5.03077 6.1527 5.53076C6.04331 5.60888 5.93395 5.60888 5.82457 5.53076C5.23472 4.98779 4.64489 4.44484 4.05504 3.90186C3.9642 3.71748 4.00718 3.57685 4.18395 3.47998Z" fill="#133769"/>
</g>
<defs>
<clipPath id="clip0_369_28916">
<rect width="12" height="12" fill="white"/>
</clipPath>
</defs>
</svg>
