<svg width="25" height="25" viewBox="0 0 25 25" fill="none" xmlns="http://www.w3.org/2000/svg">
<path fill-rule="evenodd" clip-rule="evenodd" d="M12.6503 1.62059L8.15113 1.60703C6.95165 1.60339 5.97962 1.60044 5.21419 1.69811C4.42018 1.79942 3.73515 2.0205 3.18627 2.55341C2.63213 3.09143 2.3973 3.77163 2.29045 4.56018C2.18875 5.31074 2.19163 6.26098 2.19514 7.41996L2.21343 13.5101C2.21688 14.6692 2.21971 15.6194 2.3259 16.3704C2.4375 17.1597 2.6761 17.8384 3.23039 18.3767C3.77957 18.9101 4.46329 19.1352 5.25812 19.2413C6.02402 19.3436 6.99603 19.3465 8.19569 19.3501L8.43046 19.3508C8.65366 20.1819 8.85315 20.8799 9.08459 21.4334C9.37633 22.1311 9.75901 22.7019 10.4005 23.0641C11.0374 23.4237 11.7222 23.4604 12.4726 23.3603C13.193 23.2642 14.0751 23.0259 15.1573 22.7336L17.6919 22.049C18.0104 21.9632 18.2774 21.8912 18.5224 21.7602C18.768 21.6288 18.9767 21.4459 19.2242 21.2289L22.0205 18.7809C22.3697 18.4752 22.6733 18.2095 22.9028 17.9632C23.1492 17.6987 23.3568 17.4093 23.4721 17.0383C23.5879 16.6655 23.58 16.3085 23.524 15.9502C23.4724 15.6195 23.3698 15.2336 23.253 14.7943L21.7703 9.21604C21.4889 8.15731 21.2574 7.28632 20.98 6.62304C20.6883 5.92535 20.3056 5.35451 19.6641 4.9923C19.302 4.78784 18.9244 4.68777 18.5281 4.65788C18.4198 3.84232 18.182 3.14412 17.6155 2.59391C17.0663 2.06051 16.3826 1.83549 15.5878 1.72937C14.8219 1.6271 13.8499 1.62419 12.6503 1.62059ZM17.0401 4.78959C16.9538 4.20208 16.8052 3.90706 16.5875 3.69564C16.3619 3.47651 16.0366 3.32339 15.3943 3.23763C14.734 3.14947 13.8578 3.14537 12.5944 3.14156L8.19838 3.1283C6.93488 3.1245 6.05876 3.12332 5.3992 3.20748C4.75726 3.28939 4.43546 3.44037 4.21405 3.65533C3.99791 3.86519 3.84941 4.16264 3.76732 4.76849C3.68173 5.40008 3.68252 6.24218 3.68621 7.47222L3.70416 13.4487C3.70786 14.6787 3.71213 15.5209 3.80154 16.1532C3.88726 16.7596 4.03787 17.0609 4.25837 17.275C4.48398 17.4941 4.80934 17.6473 5.45159 17.733C6.07171 17.8158 6.88235 17.8245 8.02535 17.8284L6.81251 13.2655C6.53111 12.207 6.29957 11.336 6.21075 10.6216C6.11737 9.87036 6.16517 9.18023 6.54324 8.53954C6.91853 7.90355 7.49587 7.52577 8.19522 7.2343C8.86694 6.95434 9.74916 6.71606 10.8312 6.42382L14.9073 5.32282C15.7276 5.10123 16.433 4.91068 17.0401 4.78959ZM15.239 6.80677C16.3832 6.4977 17.1719 6.28622 17.7853 6.2044C18.3798 6.1251 18.698 6.18531 18.9422 6.32322C19.1819 6.45854 19.3866 6.68872 19.6087 7.21995C19.8406 7.77437 20.0463 8.54196 20.3456 9.66794L21.8046 15.1568C21.8344 15.269 21.8616 15.3716 21.8863 15.466L21.8853 15.4656C21.1607 15.168 20.0567 14.8823 19.0276 15.3655C18.4381 15.6423 18.0615 16.28 17.8158 16.8182C17.5488 17.4031 17.3397 18.0946 17.1798 18.7352C17.0186 19.3813 16.9009 20.0036 16.8236 20.4622C16.8078 20.5555 16.7937 20.6423 16.7812 20.7214L14.8257 21.2497C13.6814 21.5587 12.8927 21.7702 12.2793 21.852C11.6848 21.9313 11.3666 21.8711 11.1224 21.7332C10.8827 21.5979 10.678 21.3677 10.4559 20.8365C10.2241 20.2821 10.0183 19.5145 9.71899 18.3885L8.26579 12.9213C7.96647 11.7953 7.764 11.0269 7.68981 10.4302C7.61869 9.85807 7.68225 9.55844 7.82052 9.32412C7.96156 9.08511 8.20469 8.8735 8.75904 8.64246C9.33068 8.40421 10.1185 8.18985 11.2628 7.88076L15.239 6.80677ZM21.3286 16.8767C21.459 16.9302 21.582 16.9879 21.6944 17.0453C21.5337 17.202 21.3199 17.3899 21.023 17.6498L18.4445 19.9072C18.4966 19.6532 18.5566 19.3833 18.6247 19.1104C18.7745 18.5098 18.9568 17.9217 19.1673 17.4605C19.3992 16.9525 19.5864 16.7776 19.651 16.7473C20.1061 16.5336 20.7131 16.6239 21.3286 16.8767Z" fill="white"/>
</svg>
