<svg width="24" height="24" viewBox="0 0 24 24" fill="none" xmlns="http://www.w3.org/2000/svg">
<path fill-rule="evenodd" clip-rule="evenodd" d="M1.25 12C1.25 9.21699 3.22664 6.89643 5.853 6.36454C6.38731 3.45456 8.93585 1.25 12 1.25C15.3858 1.25 18.1428 3.94224 18.2469 7.30273C20.7927 7.66534 22.75 9.85409 22.75 12.5C22.75 15.3995 20.3995 17.75 17.5 17.75H12.75V18.75H13C13.7928 18.75 14.4624 19.2771 14.6775 20H19C19.4142 20 19.75 20.3358 19.75 20.75C19.75 21.1642 19.4142 21.5 19 21.5H14.6775C14.4624 22.2229 13.7928 22.75 13 22.75H11C10.2072 22.75 9.53761 22.2229 9.32247 21.5H5C4.58579 21.5 4.25 21.1642 4.25 20.75C4.25 20.3358 4.58579 20 5 20H9.32247C9.53761 19.2771 10.2072 18.75 11 18.75H11.25V17.75H7C3.82436 17.75 1.25 15.1756 1.25 12ZM17.5 16.25C19.5711 16.25 21.25 14.5711 21.25 12.5C21.25 10.6382 19.8932 9.09328 18.1144 8.80009C17.9022 9.80257 17.4499 10.7163 16.8211 11.4776C16.5574 11.797 16.0846 11.842 15.7653 11.5783C15.4459 11.3145 15.4008 10.8418 15.6646 10.5224C16.2572 9.8048 16.6424 8.91165 16.7306 7.93273C16.7434 7.79039 16.75 7.64606 16.75 7.5C16.75 4.87665 14.6234 2.75 12 2.75C9.80411 2.75 7.95572 4.24047 7.41211 6.26457C8.54729 6.34508 9.59274 6.75556 10.451 7.40038C10.7822 7.64919 10.8489 8.11935 10.6001 8.45051C10.3513 8.78167 9.88114 8.84843 9.54998 8.59962C8.83967 8.06595 7.95781 7.75 7 7.75C6.86199 7.75 6.72573 7.75655 6.59147 7.76933C4.4363 7.97442 2.75 9.79073 2.75 12C2.75 14.3472 4.65279 16.25 7 16.25H17.5ZM10.75 20.5C10.75 20.3619 10.8619 20.25 11 20.25H13C13.1381 20.25 13.25 20.3619 13.25 20.5V21C13.25 21.1381 13.1381 21.25 13 21.25H11C10.8619 21.25 10.75 21.1381 10.75 21V20.5Z" fill="#0B5F4E"/>
</svg>
