<svg width="24" height="24" viewBox="0 0 24 24" fill="none" xmlns="http://www.w3.org/2000/svg">
<path opacity="0.993" fill-rule="evenodd" clip-rule="evenodd" d="M11.1173 5.3125C13.3298 5.3125 15.5423 5.3125 17.7547 5.3125C18.2038 5.44058 18.4988 5.7269 18.6397 6.17146C18.6397 9.668 18.6397 13.1646 18.6397 16.6611C18.5436 16.996 18.344 17.252 18.041 17.429C16.8419 17.8359 15.6445 18.2394 14.449 18.6393C14.2842 18.6393 14.1193 18.6393 13.9545 18.6393C13.461 18.5057 13.1704 18.1847 13.0825 17.6763C13.0695 17.4422 13.0652 17.2079 13.0695 16.9735C12.4187 16.9778 11.768 16.9735 11.1173 16.9605C10.3383 16.7714 9.88275 16.2812 9.75081 15.4898C9.73345 15.0213 9.73345 14.5528 9.75081 14.0843C9.86875 13.7236 10.116 13.5805 10.4926 13.6548C10.6929 13.7335 10.8186 13.8766 10.8701 14.0843C10.8787 14.5354 10.8874 14.9866 10.8961 15.4378C10.9637 15.6529 11.1069 15.7874 11.3256 15.8412C11.9068 15.8542 12.4881 15.8586 13.0695 15.8542C13.0652 13.0344 13.0695 10.2146 13.0825 7.39482C13.1599 6.90959 13.4332 6.5929 13.9024 6.44476C13.0435 6.42741 12.1845 6.42741 11.3256 6.44476C11.1069 6.49858 10.9637 6.63306 10.8961 6.84821C10.8874 7.1085 10.8787 7.36879 10.8701 7.62908C10.7503 8.03388 10.4857 8.17704 10.0762 8.05856C9.88931 7.97571 9.78085 7.83253 9.75081 7.62908C9.71515 7.22515 9.74118 6.82605 9.8289 6.43175C10.0628 5.8288 10.4923 5.45572 11.1173 5.3125Z" fill="#7E7C7C"/>
<path opacity="0.982" fill-rule="evenodd" clip-rule="evenodd" d="M5.31348 11.0385C5.31348 10.917 5.31348 10.7956 5.31348 10.6741C5.38673 10.5098 5.5082 10.3926 5.67788 10.3227C6.47606 10.3097 7.27428 10.3053 8.07255 10.3097C8.06057 9.68364 8.07359 9.05895 8.11159 8.43561C8.23817 8.16618 8.45075 8.04905 8.7493 8.08421C8.86768 8.10868 8.9718 8.16074 9.06165 8.24039C9.80347 8.98221 10.5453 9.72404 11.2871 10.4659C11.4549 10.6979 11.4723 10.9408 11.3392 11.1947C10.554 11.9799 9.76878 12.7651 8.98356 13.5503C8.64318 13.725 8.36121 13.6599 8.13762 13.3551C8.12026 13.303 8.10292 13.251 8.08556 13.1989C8.07255 12.609 8.0682 12.019 8.07255 11.4289C7.29163 11.4333 6.51076 11.4289 5.72994 11.4159C5.51893 11.3652 5.38011 11.2394 5.31348 11.0385Z" fill="#7E7C7C"/>
</svg>
