<svg width="24" height="24" viewBox="0 0 24 24" fill="none" xmlns="http://www.w3.org/2000/svg">
<g clip-path="url(#clip0_1096_42161)">
<path opacity="0.993" fill-rule="evenodd" clip-rule="evenodd" d="M15.4453 -0.0234375C15.7266 -0.0234375 16.0078 -0.0234375 16.2891 -0.0234375C16.8854 0.123016 17.3619 0.451141 17.7188 0.960938C18.7828 2.79865 19.8375 4.6424 20.8828 6.49219C21.9587 6.65405 22.6228 7.26342 22.875 8.32031C22.9063 9.0547 22.9063 9.78905 22.875 10.5234C22.8203 10.7031 22.7031 10.8203 22.5234 10.875C20.9598 10.8781 19.3973 10.9094 17.8359 10.9688C15.7479 11.4338 14.537 12.7229 14.2031 14.8359C14.1082 16.4504 14.6941 17.7551 15.9609 18.75C16.5653 19.1807 17.2372 19.4464 17.9766 19.5469C19.4453 19.5625 20.9141 19.5781 22.3828 19.5938C22.5699 19.6131 22.7183 19.699 22.8281 19.8516C22.9042 20.614 22.9198 21.3797 22.875 22.1484C22.6815 23.1153 22.1111 23.7247 21.1641 23.9766C14.6797 23.9766 8.1953 23.9766 1.71094 23.9766C0.804689 23.7266 0.226562 23.1484 -0.0234375 22.2422C-0.0234375 17.5703 -0.0234375 12.8985 -0.0234375 8.22656C0.280628 7.22747 0.952505 6.65714 1.99219 6.51562C2.69531 6.50002 3.39844 6.48436 4.10156 6.46875C7.51575 4.45692 10.9376 2.45692 14.3672 0.46875C14.7075 0.251527 15.0669 0.0874645 15.4453 -0.0234375ZM15.6328 1.10156C16.1067 1.04963 16.4817 1.21369 16.7578 1.59375C13.9766 3.21875 11.1953 4.84373 8.41406 6.46875C7.72655 6.50002 7.03908 6.50002 6.35156 6.46875C9.44208 4.66595 12.5358 2.87688 15.6328 1.10156ZM18.3047 4.52344C18.3667 4.51547 18.4214 4.5311 18.4688 4.57031C18.8109 5.2013 19.1625 5.82633 19.5234 6.44531C18.0237 6.50002 16.5237 6.5078 15.0234 6.46875C16.1279 5.83087 17.2216 5.18245 18.3047 4.52344Z" fill="#D9D7D7"/>
<path opacity="0.986" fill-rule="evenodd" clip-rule="evenodd" d="M23.9762 13.2421C23.9762 14.5858 23.9762 15.9296 23.9762 17.2733C23.7736 17.9303 23.3361 18.3444 22.6637 18.5155C21.0372 18.5605 19.4122 18.5448 17.7887 18.4686C15.9243 17.8731 15.0884 16.5997 15.2809 14.6483C15.5766 13.2828 16.3969 12.4156 17.7419 12.0468C19.3963 11.9702 21.0526 11.9546 22.7106 11.9999C23.3754 12.1725 23.7972 12.5865 23.9762 13.2421ZM18.3044 14.1796C19.2028 14.195 19.6169 14.6482 19.5466 15.5389C19.3012 16.1576 18.8559 16.3998 18.2106 16.2655C17.4587 15.9004 17.279 15.3457 17.6716 14.6014C17.8509 14.4068 18.0618 14.2662 18.3044 14.1796Z" fill="#133769"/>
</g>
<defs>
<clipPath id="clip0_1096_42161">
<rect width="24" height="24" fill="white"/>
</clipPath>
</defs>
</svg>
