<svg width="24" height="24" viewBox="0 0 24 24" fill="none" xmlns="http://www.w3.org/2000/svg">
<path opacity="0.978" fill-rule="evenodd" clip-rule="evenodd" d="M7.76595 2.56303C8.22953 2.55641 8.69295 2.56303 9.15617 2.58289C9.37793 2.63226 9.54341 2.75804 9.65268 2.96023C9.7094 3.39898 9.77562 3.83591 9.85129 4.27102C10.0834 4.5856 10.3681 4.64518 10.7053 4.44976C10.9171 4.2644 11.129 4.07904 11.3408 3.89367C11.6354 3.6732 11.9399 3.65996 12.2544 3.85395C12.592 4.13862 12.9032 4.44976 13.1878 4.78739C13.3526 5.04558 13.3658 5.31039 13.2276 5.58181C12.9741 5.87495 12.7357 6.17948 12.5126 6.49538C12.441 6.86229 12.5801 7.10724 12.9296 7.23022C13.3012 7.26279 13.6719 7.30251 14.0418 7.34938C14.3603 7.48968 14.5126 7.73463 14.4986 8.08422C14.5251 8.42848 14.5251 8.7727 14.4986 9.11696C14.4983 9.48779 14.3196 9.71948 13.9624 9.81207C13.604 9.84393 13.2465 9.88365 12.8899 9.93123C12.5137 10.1199 12.4144 10.4046 12.592 10.7852C12.8455 11.0784 13.0838 11.3829 13.307 11.6988C13.3864 11.9772 13.3334 12.2288 13.1481 12.4535C12.8603 12.8209 12.5226 13.1321 12.1352 13.3869C11.9174 13.4723 11.7056 13.459 11.4997 13.3472C11.2066 13.0937 10.902 12.8554 10.5861 12.6322C10.2254 12.5444 9.98046 12.6702 9.85129 13.0096C9.80501 13.3662 9.76529 13.7237 9.73213 14.0821C9.62019 14.4395 9.37523 14.6183 8.99729 14.6183C8.65303 14.6448 8.30881 14.6448 7.96455 14.6183C7.63082 14.6203 7.39908 14.468 7.26944 14.1615C7.23071 13.7617 7.17776 13.3645 7.11055 12.9699C6.94297 12.6447 6.68479 12.5454 6.336 12.672C6.07281 12.8689 5.82122 13.0807 5.5813 13.3075C5.33052 13.4902 5.06572 13.5167 4.78689 13.3869C4.39775 13.0905 4.04688 12.7529 3.73429 12.3741C3.60188 12.1092 3.60188 11.8445 3.73429 11.5796C3.98777 11.2865 4.22609 10.982 4.44926 10.6661C4.50545 10.3348 4.37966 10.1031 4.07191 9.97095C3.65937 9.92889 3.24892 9.8759 2.84057 9.81207C2.62195 9.69926 2.49616 9.52052 2.46322 9.27584C2.43674 8.82568 2.43674 8.37549 2.46322 7.92533C2.50201 7.64832 2.65427 7.46958 2.92001 7.3891C3.31984 7.35037 3.71704 7.29743 4.11163 7.23022C4.44039 7.03364 4.52645 6.76223 4.36982 6.41594C4.14473 6.15112 3.91965 5.88635 3.69457 5.62153C3.53716 5.29037 3.57688 4.98585 3.81373 4.70795C4.05867 4.43652 4.31686 4.17834 4.58828 3.93339C4.89619 3.71166 5.21396 3.69842 5.54158 3.89367C5.80418 4.1572 6.09545 4.38229 6.41544 4.56893C6.75589 4.61263 6.98762 4.4736 7.11055 4.15186C7.13518 3.73695 7.18813 3.3265 7.26944 2.92051C7.3853 2.72735 7.55078 2.60818 7.76595 2.56303ZM8.20288 5.89957C9.53559 5.88019 10.469 6.476 11.0032 7.68701C11.3934 9.22996 10.8836 10.362 9.47394 11.0831C8.08101 11.528 6.97546 11.1507 6.15725 9.95109C5.51371 8.62863 5.73218 7.47009 6.81265 6.47552C7.23321 6.17233 7.69659 5.98036 8.20288 5.89957Z" fill="#133769"/>
<path opacity="0.965" fill-rule="evenodd" clip-rule="evenodd" d="M17.4179 10.3082C17.7655 10.292 18.1097 10.3118 18.4506 10.3678C18.497 10.4142 18.5433 10.4605 18.5897 10.5068C18.6346 10.7706 18.6743 11.0354 18.7088 11.3013C18.8098 11.4827 18.9621 11.5423 19.1656 11.48C19.3759 11.2593 19.6209 11.0938 19.9005 10.9835C20.2473 11.1181 20.5254 11.3431 20.7346 11.6587C20.7943 11.7993 20.8076 11.9449 20.7743 12.0957C20.6287 12.281 20.483 12.4664 20.3374 12.6518C20.2676 12.8762 20.3404 13.0284 20.5558 13.1086C20.8439 13.1196 21.122 13.1726 21.39 13.2674C21.4281 13.3238 21.4612 13.3834 21.4893 13.4462C21.5256 13.8067 21.5123 14.1642 21.4496 14.5186C21.4013 14.5802 21.3418 14.6265 21.2708 14.6577C21.0043 14.6903 20.7395 14.73 20.4764 14.7768C20.313 14.9162 20.2799 15.0817 20.3771 15.2733C20.5379 15.4473 20.6836 15.6327 20.814 15.8294C20.8474 15.9732 20.8209 16.1056 20.7346 16.2266C20.5691 16.4451 20.3771 16.6371 20.1586 16.8026C19.9998 16.882 19.8409 16.882 19.682 16.8026C19.508 16.6418 19.3227 16.4961 19.1259 16.3657C18.9 16.3429 18.761 16.4422 18.7088 16.6636C18.6943 16.8901 18.6678 17.1152 18.6294 17.3388C18.5479 17.4601 18.4354 17.5329 18.2918 17.5573C17.9715 17.5916 17.6537 17.5783 17.3385 17.5176C17.2639 17.4563 17.2043 17.3835 17.1597 17.2991C17.1303 17.0744 17.1039 16.8493 17.0803 16.6238C16.9646 16.3638 16.7859 16.3042 16.5441 16.4451C16.3852 16.5775 16.2263 16.7099 16.0674 16.8423C15.8371 16.9008 15.6385 16.8479 15.4716 16.6834C15.2191 16.498 15.047 16.2597 14.9552 15.9685C14.967 15.8935 14.9868 15.8206 15.0148 15.75C15.7243 15.0433 15.572 14.6924 14.558 14.6974C14.3567 14.6327 14.2574 14.4937 14.2601 14.2803C14.2336 14.0552 14.2336 13.8302 14.2601 13.6051C14.266 13.4403 14.3388 13.3145 14.4786 13.2277C14.7439 13.1904 15.0087 13.1507 15.273 13.1086C15.4865 12.9629 15.5196 12.7842 15.3723 12.5723C15.2399 12.4134 15.1075 12.2546 14.9751 12.0957C14.928 11.9023 14.9677 11.7302 15.0942 11.5793C15.2465 11.4271 15.3988 11.2748 15.551 11.1225C15.6987 11.0312 15.8576 11.0047 16.0277 11.0431C16.2504 11.233 16.4887 11.3985 16.7427 11.5396C16.8831 11.5117 16.9824 11.4322 17.0406 11.3013C17.0725 11.0478 17.1122 10.7962 17.1597 10.5466C17.2168 10.4297 17.3028 10.3503 17.4179 10.3082ZM17.6562 12.334C18.9058 12.3589 19.5083 12.9944 19.4635 14.2406C19.2891 14.9711 18.8323 15.4014 18.0932 15.5315C17.0176 15.5418 16.4085 15.0122 16.266 13.9427C16.3564 13.0781 16.8198 12.5419 17.6562 12.334Z" fill="#133769"/>
<path opacity="0.947" fill-rule="evenodd" clip-rule="evenodd" d="M3.71462 19.1261C4.45655 19.1128 5.198 19.1261 5.93898 19.1658C5.21794 19.9067 4.48973 20.6415 3.75434 21.3703C3.21891 21.37 2.86805 21.1119 2.70174 20.5957C2.58928 19.7862 2.92691 19.2963 3.71462 19.1261Z" fill="#133769"/>
<path opacity="0.955" fill-rule="evenodd" clip-rule="evenodd" d="M6.57495 19.1261C7.50215 19.1128 8.42896 19.1261 9.3554 19.1658C8.63435 19.9067 7.90615 20.6415 7.17076 21.3703C6.23069 21.3968 5.29065 21.3968 4.35059 21.3703C5.10005 20.6275 5.84151 19.8794 6.57495 19.1261Z" fill="#133769"/>
<path opacity="0.955" fill-rule="evenodd" clip-rule="evenodd" d="M9.99097 19.1261C10.9182 19.1128 11.845 19.1261 12.7714 19.1658C12.0504 19.9067 11.3222 20.6415 10.5868 21.3703C9.64671 21.3968 8.70667 21.3968 7.7666 21.3703C8.51605 20.6275 9.25752 19.8794 9.99097 19.1261Z" fill="#133769"/>
<path opacity="0.969" fill-rule="evenodd" clip-rule="evenodd" d="M13.407 19.1255C14.3339 19.1189 15.2607 19.1255 16.1874 19.1454C15.446 19.8869 14.7045 20.6283 13.9631 21.3698C13.0363 21.3963 12.1094 21.3963 11.1826 21.3698C11.9321 20.6269 12.6735 19.8788 13.407 19.1255Z" fill="#133769"/>
<path opacity="0.969" fill-rule="evenodd" clip-rule="evenodd" d="M16.822 19.1261C17.736 19.1128 18.6496 19.1261 19.5628 19.1658C18.8417 19.9067 18.1135 20.6415 17.3781 21.3703C16.4513 21.3968 15.5245 21.3968 14.5977 21.3703C15.3471 20.6275 16.0886 19.8794 16.822 19.1261Z" fill="#133769"/>
<path opacity="0.955" fill-rule="evenodd" clip-rule="evenodd" d="M20.199 19.127C21.0164 19.2781 21.3673 19.7679 21.2516 20.5966C21.1258 20.9872 20.8676 21.2454 20.477 21.3712C19.6429 21.3977 18.8087 21.3977 17.9746 21.3712C18.7241 20.6284 19.4655 19.8803 20.199 19.127Z" fill="#133769"/>
</svg>
