<svg width="24" height="24" viewBox="0 0 24 24" fill="none" xmlns="http://www.w3.org/2000/svg">
<g opacity="0.4">
<path fill-rule="evenodd" clip-rule="evenodd" d="M12 5.75C10.7574 5.75 9.75 4.74264 9.75 3.5C9.75 2.25736 10.7574 1.25 12 1.25C13.2426 1.25 14.25 2.25736 14.25 3.5C14.25 4.74264 13.2426 5.75 12 5.75ZM11.25 3.5C11.25 3.91421 11.5858 4.25 12 4.25C12.4142 4.25 12.75 3.91421 12.75 3.5C12.75 3.08579 12.4142 2.75 12 2.75C11.5858 2.75 11.25 3.08579 11.25 3.5Z" fill="#302477"/>
<path d="M7.25 13.5C7.25 10.8766 9.37665 8.75 12 8.75C12.4142 8.75 12.75 8.41421 12.75 8C12.75 7.58579 12.4142 7.25 12 7.25C8.54822 7.25 5.75 10.0482 5.75 13.5C5.75 16.9518 8.54822 19.75 12 19.75C12.4142 19.75 12.75 19.4142 12.75 19C12.75 18.5858 12.4142 18.25 12 18.25C9.37665 18.25 7.25 16.1234 7.25 13.5Z" fill="#302477"/>
</g>
<path d="M15.624 9.41603C15.8538 9.07138 15.7606 8.60573 15.416 8.37597C15.0713 8.1462 14.6057 8.23933 14.3759 8.58398L11.3759 13.084C11.1462 13.4286 11.2393 13.8943 11.5839 14.124C11.9286 14.3538 12.3942 14.2607 12.624 13.916L15.624 9.41603Z" fill="#302477"/>
<path fill-rule="evenodd" clip-rule="evenodd" d="M12 4.25C6.89137 4.25 2.75 8.39137 2.75 13.5C2.75 18.6086 6.89137 22.75 12 22.75C17.1086 22.75 21.25 18.6086 21.25 13.5C21.25 8.39137 17.1086 4.25 12 4.25ZM4.25 13.5C4.25 9.21979 7.71979 5.75 12 5.75C16.2802 5.75 19.75 9.21979 19.75 13.5C19.75 17.7802 16.2802 21.25 12 21.25C7.71979 21.25 4.25 17.7802 4.25 13.5Z" fill="#302477"/>
</svg>
