<svg width="20" height="20" viewBox="0 0 20 20" fill="none" xmlns="http://www.w3.org/2000/svg">
<path fill-rule="evenodd" clip-rule="evenodd" d="M12.5002 18.9574H8.94198C6.09698 18.9574 4.66945 18.9573 3.55778 18.1773C3.23278 17.9432 2.9528 17.6798 2.7203 17.3898C1.8753 16.3256 1.87524 14.9715 1.87524 12.274V10.149C1.87524 7.60651 1.87528 6.32979 2.31112 5.22729C3.00278 3.47563 4.46607 2.09647 6.3269 1.4423C7.47774 1.0398 8.82774 1.03979 11.5177 1.03979C13.086 1.03979 13.8736 1.03979 14.5728 1.28312C15.7061 1.68729 16.5978 2.5315 17.0236 3.60067C17.2928 4.279 17.2928 5.02648 17.2928 6.51481V8.33146C17.2928 8.67646 17.0128 8.95646 16.6678 8.95646C16.3228 8.95646 16.0428 8.67646 16.0428 8.33146V6.51481C16.0428 5.1849 16.0428 4.51732 15.862 4.06234C15.5695 3.32734 14.9478 2.74399 14.1578 2.46232C13.6621 2.29069 12.9455 2.29069 11.5186 2.29069H11.5168C11.2873 2.29069 11.0681 2.29069 10.8585 2.29093C10.8503 2.29126 10.8419 2.29142 10.8336 2.29142C9.64775 2.29142 8.6836 3.25557 8.6836 4.44141C8.6836 4.57455 8.68956 4.71814 8.69585 4.86932L8.69694 4.89559C8.71694 5.35142 8.73946 5.86727 8.61279 6.34977C8.43196 7.04977 7.88274 7.59812 7.18107 7.77979C6.70024 7.90562 6.1836 7.88312 5.7286 7.86312L5.70023 7.86194C5.5499 7.85569 5.40772 7.84977 5.27441 7.84977C4.10863 7.84977 3.15709 8.7816 3.12525 9.93981C3.12524 10.0085 3.12524 10.0782 3.12524 10.149V12.274C3.12524 14.6807 3.12525 15.889 3.69775 16.6107C3.85775 16.8107 4.05442 16.9957 4.28109 17.159C5.06357 17.7082 6.35935 17.7082 8.94088 17.7082H12.4994C12.8444 17.7082 13.1244 17.9882 13.1244 18.3332C13.1244 18.6782 12.8444 18.9582 12.4994 18.9582L12.5002 18.9574ZM3.17028 7.33049C3.74962 6.87252 4.48107 6.59888 5.27531 6.59888C5.44364 6.59888 5.61611 6.60643 5.78361 6.61393L5.78655 6.61406C6.17064 6.63069 6.56771 6.64788 6.86694 6.56974C7.13028 6.50141 7.33531 6.29642 7.40365 6.03475C7.48257 5.73319 7.46542 5.33717 7.4488 4.95328L7.44865 4.94971C7.44115 4.78304 7.43359 4.60974 7.43359 4.44141C7.43359 3.65703 7.70047 2.93391 8.1482 2.35806C7.57916 2.40529 7.1318 2.48564 6.74032 2.62231C5.22282 3.15565 4.03197 4.27236 3.47363 5.68652C3.3014 6.12204 3.21432 6.63498 3.17028 7.33049Z" fill="#1DC054"/>
<path d="M9.51729 15.6232C9.31827 15.6231 9.12268 15.528 9.0011 15.3507L8.09192 14.0215L7.18274 15.3507C6.98774 15.6357 6.59941 15.709 6.31441 15.514C6.02941 15.319 5.95691 14.9298 6.15108 14.6457L7.33443 12.9149L6.15108 11.184C5.95608 10.899 6.02941 10.5098 6.31441 10.3157C6.59941 10.1207 6.98857 10.194 7.18274 10.479L8.09192 11.8082L9.0011 10.479C9.1961 10.194 9.58526 10.1215 9.86942 10.3157C10.1544 10.5107 10.2269 10.8998 10.0328 11.184L8.84859 12.9149L10.0328 14.6457C10.2278 14.9307 10.1544 15.3198 9.86942 15.514C9.76204 15.5881 9.63883 15.6231 9.51729 15.6232Z" fill="#1DC054"/>
<path d="M16.4836 15.6232H15.6252C15.2802 15.6232 15.0002 15.3432 15.0002 14.9982C15.0002 14.6532 15.2802 14.3732 15.6252 14.3732H16.4836C16.6303 14.3732 16.781 14.3731 16.8469 14.3656C16.8752 14.2973 16.8752 14.0958 16.8752 13.9733V13.9399C16.8752 13.8173 16.8752 13.6157 16.8469 13.5474C16.782 13.5399 16.6308 13.5399 16.4843 13.5399C16.1127 13.5399 15.8886 13.5398 15.6511 13.4448C15.6444 13.4423 15.6377 13.4399 15.6311 13.4365C14.8411 13.089 14.8411 12.3082 14.8411 11.8891V11.8557C14.8411 11.4365 14.8411 10.6565 15.6311 10.3082C15.6331 10.3074 15.6352 10.3066 15.6372 10.3057L15.6411 10.304C15.6444 10.3026 15.6477 10.3011 15.6511 10.2999C15.8877 10.2049 16.1119 10.2048 16.4836 10.2048H17.2753C17.6203 10.2048 17.9003 10.4848 17.9003 10.8298C17.9003 11.1748 17.6203 11.4548 17.2753 11.4548H16.4836C16.3372 11.4548 16.1851 11.4548 16.1202 11.4623C16.0919 11.5306 16.0919 11.7321 16.0919 11.8547V11.8882C16.0919 12.0107 16.0919 12.2124 16.1202 12.2807C16.186 12.2882 16.3364 12.2882 16.4829 12.2882C16.8537 12.2882 17.0786 12.2882 17.3152 12.3832C17.3219 12.3857 17.3286 12.3882 17.3352 12.3915C18.1252 12.739 18.1252 13.5198 18.1252 13.939V13.9723C18.1252 14.3915 18.1252 15.1715 17.3352 15.5199C17.3319 15.5211 17.3286 15.5226 17.3252 15.524C17.3219 15.5255 17.3186 15.5269 17.3152 15.5282C17.0786 15.6232 16.8544 15.6232 16.4836 15.6232Z" fill="#1DC054"/>
<path d="M13.8003 15.6232H13.0919C12.3061 15.6232 11.8319 15.6232 11.4427 15.249L11.4336 15.2398C11.0419 14.8482 11.0419 14.354 11.0419 13.6065V10.8315C11.0419 10.4865 11.3219 10.2065 11.6669 10.2065C12.0119 10.2065 12.2919 10.4865 12.2919 10.8315V13.6065C12.2919 13.8949 12.2919 14.219 12.3211 14.3432C12.4486 14.3732 12.7753 14.3732 13.0919 14.3732H13.8003C14.1453 14.3732 14.4253 14.6532 14.4253 14.9982C14.4253 15.3432 14.1453 15.6232 13.8003 15.6232Z" fill="#1DC054"/>
</svg>
